<svg width="1440" height="1595" viewBox="0 0 1440 1595" fill="none" xmlns="http://www.w3.org/2000/svg">
<g opacity="0.08">
<path d="M-63.4088 1403.81C-59.9936 1336.39 1.37268 1288.77 64.1176 1273.23C126.863 1257.69 193.766 1264.62 258.268 1256.61C430.977 1235.03 578.944 1094.72 614.502 918.658C625.867 862.294 626.654 803.505 637.58 746.918C648.523 690.468 671.898 633.72 717.413 601.909C782.829 555.999 874.094 573.74 949.965 606.541C1025.84 639.343 1098.79 686.21 1179.43 695.58C1285.37 707.9 1387.01 651.403 1457.07 572.25C1527.13 493.097 1571.13 392.815 1613.98 294.201" stroke="#D1DEFF" stroke-miterlimit="10"/>
<path d="M-67.7808 1396.79C-63.105 1329.54 -1.95795 1282.12 60.9178 1266.29C88.1707 1259.45 116.083 1256.81 144.316 1255.66C181.409 1254.1 218.789 1254.85 255.341 1251.15C329.931 1243.55 400.178 1215.33 459.267 1170.09C504.959 1135.1 543.982 1091.67 573.284 1041.7C594.236 1006.18 609.685 967.191 618.67 925.827C622.682 907.348 625.547 888.459 627.989 869.483C632.942 830.971 636.072 792.132 644.011 754.493C652.963 711.75 669.373 669.464 697.616 638.573C706.423 628.904 716.192 620.361 727.227 613.182C773.409 583.245 831.26 584.363 888.186 597.906C912.758 603.708 937.213 611.875 960.133 620.925C985.803 631.155 1011.05 642.406 1036.1 653.128C1085.31 674.129 1133.87 693.136 1184.11 695.89C1216.83 697.776 1248.09 692.237 1278.54 681.403C1340.08 659.241 1397.72 613.359 1443.65 558.143C1456.16 543.035 1468.04 527.176 1479.46 510.959C1529.84 438.593 1569.37 357.337 1608.74 280.251" stroke="#D1DEFF" stroke-miterlimit="10"/>
<path d="M-72.153 1389.76C-66.2082 1322.81 -5.33714 1275.45 57.6317 1259.34C84.8641 1252.36 112.907 1249.71 141.288 1248.68C178.409 1247.39 215.717 1248.7 252.5 1245.79C327.164 1239.98 397.505 1214.8 457.466 1171.14C503.845 1137.33 543.76 1095.6 574.63 1047.26C596.644 1012.6 612.836 974.099 622.531 932.948C626.831 914.584 629.966 895.672 632.544 876.692C637.92 838.289 641.44 799.288 649.955 761.877C659.616 719.349 676.819 677.958 706.309 648.311C715.453 639.159 725.407 631.012 736.508 624.382C783.226 596.605 840.512 599.861 897.293 613.409C922.014 619.325 946.532 626.925 969.498 635.27C995.316 644.506 1020.7 654.625 1045.38 663.587C1094.07 681.457 1140.79 696.805 1187.73 696.231C1218.12 695.915 1246.38 688.398 1274.02 675.845C1330.05 650.23 1384.14 601.219 1428.86 544.11C1441.16 528.347 1452.85 512.105 1464.22 495.489C1514.89 421.193 1558.14 340.077 1601.78 266.515" stroke="#D1DEFF" stroke-miterlimit="10"/>
<path d="M-76.3102 1386.2C-69.1123 1319.44 -8.68252 1271.95 54.3895 1255.68C81.6156 1248.7 109.771 1245.9 138.163 1245C175.294 1243.85 212.662 1245.72 249.405 1243.65C324.121 1239.49 394.715 1217.59 455.518 1175.31C502.44 1142.64 543.522 1102.66 575.796 1055.76C599.015 1022.02 615.939 983.938 626.199 942.949C630.782 924.667 634.065 905.855 637.045 886.804C642.818 848.309 646.871 809.197 655.817 771.969C666.043 729.601 684.164 689.02 714.74 660.454C724.201 651.669 734.22 644.06 745.521 637.952C792.63 612.316 849.485 617.713 906.257 631.285C930.974 637.212 955.59 644.535 978.857 652.026C1004.84 660.425 1030.16 669.044 1054.68 676.656C1102.83 691.437 1148 703.128 1191.49 699.114C1219.68 696.583 1244.67 687.115 1269.5 672.963C1320.05 644.132 1370.56 591.781 1414.03 532.417C1425.99 516.126 1437.59 499.187 1449.04 482.129C1499.98 405.647 1547.07 324.66 1594.82 254.524" stroke="#D1DEFF" stroke-miterlimit="10"/>
<path d="M-80.6822 1379.17C-72.2379 1312.55 -12.0742 1265.23 51.0855 1248.67C78.4237 1241.55 106.573 1238.74 134.993 1238.12C172.15 1237.24 209.561 1239.52 246.279 1238.42C321.047 1235.92 391.88 1217.17 453.413 1176.46C501.016 1144.96 543.136 1106.8 576.82 1061.39C601.248 1028.61 618.912 990.997 629.743 950.22C634.594 931.909 638.164 913.202 641.277 894.138C647.471 855.736 651.911 816.445 661.563 779.413C672.511 737.377 691.254 697.417 723.223 670.205C732.885 661.95 743.222 654.717 754.453 649.172C802.093 625.688 858.379 633.229 915.022 646.952C939.75 653.014 964.563 659.757 987.875 666.548C1013.89 674.112 1039.46 681.453 1063.61 687.309C1111.21 698.834 1154.83 706.978 1194.89 699.654C1220.88 694.906 1242.62 683.492 1264.76 667.6C1309.8 635.306 1356.63 579.961 1399.15 518.511C1410.75 501.575 1422.3 484.231 1433.83 466.75C1485.06 388.307 1535.87 307.565 1587.86 240.788" stroke="#D1DEFF" stroke-miterlimit="10"/>
<path d="M-86.7982 1372.15C-77.2034 1305.87 -17.1294 1258.61 46.1716 1241.77C73.5104 1234.51 101.812 1231.69 130.265 1231.2C167.46 1230.45 204.977 1233.39 241.666 1232.99C316.563 1232.26 387.678 1216.52 450.132 1177.4C498.463 1147.08 541.51 1110.64 576.793 1066.88C602.441 1034.95 620.747 997.994 632.286 957.316C637.431 939.127 641.277 920.409 644.532 901.349C651.278 862.924 656.133 823.629 666.238 786.86C677.776 745.076 697.466 706.012 730.692 679.916C740.682 672.042 751.094 665.361 762.536 660.348C810.614 639.041 866.492 648.549 923.182 662.38C948.058 668.412 972.985 674.853 996.478 680.781C1022.67 687.48 1048.22 693.429 1072.2 697.776C1119.31 706.163 1161.4 710.612 1198.03 699.846C1221.98 692.866 1240.34 679.532 1259.81 661.914C1299.4 626.322 1342.72 567.742 1384.06 504.295C1395.44 486.713 1406.8 468.859 1418.29 450.988C1469.86 370.518 1524.44 290.088 1580.88 226.838" stroke="#D1DEFF" stroke-miterlimit="10"/>
<path d="M-90.9554 1368.59C-80.1168 1302.48 -20.3706 1255.06 43.0305 1238.2C70.3541 1230.93 98.7589 1227.96 127.215 1227.61C164.561 1227.12 201.976 1230.51 238.749 1230.93C313.677 1231.87 385.025 1219.41 448.165 1181.68C497.156 1152.49 541.22 1117.81 577.892 1075.48C604.735 1044.46 623.765 1007.92 635.862 967.385C641.151 949.29 645.277 930.647 648.93 911.509C656.068 872.977 661.317 833.573 671.981 796.957C684.076 755.318 704.523 716.934 739.127 692.155C749.448 684.784 760.039 678.487 771.541 674.014C820.131 654.835 875.429 666.517 932.095 680.382C956.96 686.43 982.096 692.445 1005.63 697.69C1031.98 703.554 1057.49 708.138 1081.39 710.846C1127.81 716.156 1168.73 716.889 1201.66 702.838C1223.51 693.481 1238.6 678.183 1255.28 659.09C1289.36 620.121 1329.09 558.305 1369.31 492.692C1380.36 474.574 1391.63 456.151 1403.2 437.83C1455.02 355.276 1513.41 274.814 1573.92 214.847" stroke="#D1DEFF" stroke-miterlimit="10"/>
<path d="M-95.3274 1361.57C-83.2163 1295.76 -23.7347 1248.42 39.6343 1231.29C67.0769 1223.87 95.482 1220.9 124.09 1220.67C161.453 1220.31 198.8 1224.25 235.691 1225.62C310.704 1228.34 382.29 1218.9 446.177 1182.76C495.863 1154.75 540.977 1121.9 578.937 1081.1C606.997 1051.07 626.774 1015.01 639.449 974.722C645.027 956.744 649.425 938.084 653.215 918.946C660.779 880.534 666.42 840.977 677.661 804.597C690.47 763.183 711.58 725.717 747.553 702.031C758.06 695.057 768.854 689.293 780.543 685.214C829.54 668.209 884.416 682.001 940.945 695.864C965.962 702.024 991.181 707.605 1014.75 712.008C1041.26 717.014 1066.87 720.196 1090.45 721.417C1136.35 723.602 1175.82 720.362 1205.08 703.317C1225.02 691.716 1236.59 674.516 1250.58 653.697C1279.16 611.293 1315.24 546.525 1354.38 478.751C1365.2 459.984 1376.28 441.048 1387.93 422.317C1440.05 337.72 1502.19 257.688 1566.96 201.112" stroke="#D1DEFF" stroke-miterlimit="10"/>
<path d="M-99.4846 1356.27C-86.1181 1290.53 -26.8503 1243.31 36.663 1225.87C64.1072 1218.31 92.6668 1215.32 121.312 1215.23C158.734 1215.15 196.158 1219.5 233.04 1221.71C308.173 1226.08 380.062 1219.79 444.87 1185.17C495.282 1158.29 541.473 1127.23 580.875 1087.87C610.153 1058.63 630.567 1023.16 643.941 982.882C649.81 964.991 654.345 946.297 658.408 927.107C666.381 888.609 672.564 848.949 684.251 812.757C697.642 771.51 719.676 734.727 756.805 712.402C767.656 705.934 778.644 700.556 790.408 697.02C839.979 682.147 894.201 698.116 950.904 711.977C975.939 718.143 1001.26 723.305 1025.16 726.981C1051.87 731.141 1077.47 733.083 1100.85 732.535C1146.26 731.604 1184.44 724.374 1210.04 704.172C1228.03 690.036 1236.09 671.042 1247.45 648.733C1270.54 602.821 1303.12 534.972 1341.19 465.055C1351.69 445.759 1362.7 426.26 1374.29 406.967C1426.75 320.318 1492.64 240.305 1561.73 187.161" stroke="#D1DEFF" stroke-miterlimit="10"/>
<path d="M-103.857 1349.24C-89.2311 1283.77 -30.2727 1236.46 33.3352 1218.87C60.7693 1211.32 89.3015 1208.19 118.088 1208.22C155.513 1208.27 193.008 1213.31 229.844 1216.35C305.035 1222.51 377.017 1219.39 442.661 1186.19C493.746 1160.48 540.966 1131.23 581.772 1093.37C612.253 1065.09 633.402 1030.08 647.344 990.022C653.497 972.237 658.317 953.648 662.647 934.429C671.173 896.007 677.607 856.184 689.997 820.188C704.091 779.138 726.758 743.112 765.273 722.14C776.307 716.066 787.51 711.354 799.455 708.21C849.414 695.505 903.195 713.6 959.878 727.461C985.039 733.609 1010.45 738.481 1034.38 741.323C1061.23 744.495 1086.81 745.195 1109.99 743.147C1154.72 739.117 1191.67 727.612 1213.63 704.681C1229.66 688.024 1234.22 667.391 1242.89 643.344C1260.49 594.108 1289.49 522.977 1326.35 451.147C1336.49 431.207 1347.43 411.166 1359.12 391.587C1411.86 302.98 1481.43 223.075 1554.77 173.426" stroke="#D1DEFF" stroke-miterlimit="10"/>
<path d="M-109.973 1342.21C-94.217 1277.08 -35.412 1229.83 28.2744 1211.97C55.6819 1204.28 84.3386 1201.14 113.148 1201.43C150.593 1201.76 188.124 1207.2 225.047 1211.05C300.277 1218.85 372.486 1218.87 438.986 1187.26C490.746 1162.72 539.131 1135.29 581.207 1098.96C612.894 1071.66 634.779 1037.15 649.293 997.333C655.732 979.668 660.821 961.065 665.287 941.848C674.217 903.414 681.191 863.563 694.019 827.825C708.7 787.156 732.121 751.762 772.007 732.019C783.374 726.461 794.759 722.145 806.768 719.548C857.249 708.997 910.436 729.076 966.978 743.07C992.145 749.347 1017.75 753.634 1041.72 755.774C1068.59 758.106 1094.4 757.392 1117.23 753.727C1161.42 746.583 1196.99 730.694 1215.32 705.056C1229.22 685.636 1230.58 663.487 1236.44 637.875C1248.54 585.223 1274.01 511.143 1309.63 437.185C1319.54 416.601 1330.3 396.188 1342.05 376.066C1395.06 285.435 1468.5 205.953 1546.06 159.692" stroke="#D1DEFF" stroke-miterlimit="10"/>
<path d="M-114.345 1336.93C-97.3427 1271.94 -38.8021 1224.88 24.8372 1206.76C52.3569 1198.92 81.0074 1195.78 109.962 1196.19C147.416 1196.65 184.871 1202.65 221.888 1207.31C297.186 1216.89 369.615 1219.93 436.844 1189.89C489.285 1166.52 538.707 1140.9 582.191 1106.07C615.086 1079.74 637.71 1045.7 652.778 1005.97C659.503 988.415 664.726 969.803 669.461 950.561C678.795 912.093 686.19 872.346 699.573 836.693C714.826 796.247 739.018 761.6 780.296 743.211C791.847 738.046 803.566 734.243 815.505 732.208C866.381 723.82 919.134 746.014 975.664 760.001C1000.96 766.257 1026.66 770.253 1050.79 771.541C1077.83 773.022 1103.61 771.065 1126.24 765.769C1169.76 755.53 1203.81 735.137 1218.81 707.02C1230.59 684.969 1228.61 661.309 1231.81 634.105C1238.41 578.013 1260.22 500.964 1294.89 424.944C1304.46 403.858 1315.13 382.773 1326.85 362.388C1380.15 269.823 1457.29 190.466 1539.1 147.7" stroke="#D1DEFF" stroke-miterlimit="10"/>
<path d="M-118.502 1331.63C-100.221 1266.84 -41.9199 1219.62 21.8906 1201.33C49.4332 1193.48 78.2258 1190.19 107.222 1190.74C144.876 1191.46 182.296 1198.02 219.31 1203.52C294.739 1214.77 367.483 1220.96 435.646 1192.44C488.823 1170.21 539.332 1146.37 584.27 1112.99C618.407 1087.59 641.657 1053.99 657.445 1014.41C664.327 996.952 669.977 978.407 674.85 959.127C684.614 920.705 692.402 880.73 706.385 845.381C722.359 805.081 747.195 771.013 789.909 753.953C801.789 749.159 813.586 745.896 825.738 744.388C877.197 738.139 929.439 762.501 986.033 776.641C1011.35 782.905 1037.16 786.479 1061.5 787.055C1088.72 787.687 1114.49 784.35 1136.94 777.414C1179.99 764.186 1212.25 739.155 1223.93 708.381C1233.46 683.544 1228.27 658.32 1228.67 629.499C1229.63 569.898 1248.04 489.596 1281.53 411.434C1290.75 389.678 1301.25 368.18 1313.18 347.195C1366.81 252.423 1447.73 173.214 1533.87 133.75" stroke="#D1DEFF" stroke-miterlimit="10"/>
<path d="M-122.874 1324.6C-103.331 1260.09 -45.3117 1212.92 18.6032 1194.48C46.1231 1186.5 75.0445 1183.18 104.051 1183.87C141.714 1184.73 179.193 1191.83 216.166 1198.16C291.646 1211.06 364.646 1220.53 433.52 1193.45C487.242 1172.4 538.923 1150.36 585.269 1118.47C620.749 1094.01 644.602 1060.91 660.961 1021.54C668.129 1004.19 674.048 985.619 679.19 966.312C689.491 927.835 697.683 887.821 712.238 852.688C728.782 812.605 754.39 779.281 798.36 763.59C810.441 759.324 822.556 756.438 834.773 755.474C886.626 751.389 938.435 777.87 994.882 792.022C1020.21 798.419 1046.22 801.414 1070.6 801.292C1097.98 801.073 1123.73 796.494 1145.97 787.926C1188.36 771.602 1218.82 742.099 1227.44 708.809C1234.57 681.235 1226.33 654.6 1224.05 624.046C1219.53 561.134 1234.39 477.7 1266.79 397.483C1275.79 375.069 1286.08 353.049 1297.97 331.798C1351.9 235.081 1436.54 156.123 1526.91 120.015" stroke="#D1DEFF" stroke-miterlimit="10"/>
<path d="M-128.775 1321.05C-108.005 1256.6 -50.2755 1209.57 13.7054 1190.84C41.3282 1182.7 70.2347 1179.39 99.244 1180.22C136.922 1181.35 174.434 1188.88 211.508 1196.18C287.038 1210.89 360.24 1223.39 429.953 1197.85C484.337 1177.95 537.186 1157.83 584.769 1127.29C621.443 1103.77 646.02 1071.1 662.92 1031.77C670.351 1014.38 676.416 995.91 681.822 976.554C692.533 938.131 701.102 897.897 716.217 862.941C733.455 823.015 759.668 790.28 805.014 775.932C817.409 772.041 829.585 769.699 841.998 769.265C894.348 767.196 945.597 795.991 1002.02 810.165C1027.47 816.555 1053.56 819.268 1078.1 818.299C1105.64 817.233 1131.48 811.258 1153.37 801.067C1195.2 781.618 1223.74 747.763 1229.28 711.782C1233.87 681.454 1222.69 653.221 1217.76 621.169C1207.59 554.748 1219.05 468.205 1250.18 385.724C1258.84 362.78 1269.05 340.197 1281 318.368C1335.17 219.463 1423.62 140.664 1518.2 108.024" stroke="#D1DEFF" stroke-miterlimit="10"/>
<path d="M-133.147 1314.02C-111.222 1249.86 -53.5954 1202.72 10.4188 1183.84C38.0633 1175.71 67.1099 1172.24 96.3096 1173.32C134.033 1174.59 171.657 1182.79 208.707 1190.78C284.359 1207.13 357.733 1222.79 428.379 1198.8C483.499 1180.06 537.437 1161.74 586.477 1132.68C624.397 1110.12 649.605 1077.94 667.232 1038.81C674.958 1021.52 681.316 1003.16 686.864 983.79C697.993 945.326 707.114 905.036 722.683 870.31C740.513 830.599 767.391 798.62 814.31 785.602C827.035 782.085 839.423 780.271 851.913 780.381C904.708 780.469 955.554 811.24 1011.9 825.556C1037.39 832.078 1063.7 834.208 1088.31 832.537C1115.89 830.497 1141.88 823.397 1163.58 811.571C1204.94 789.141 1231.46 750.98 1234.04 712.056C1236.12 679.142 1222 649.347 1214.38 615.562C1198.72 545.694 1206.52 456.169 1236.75 371.611C1245.06 348.025 1255.22 324.902 1267.28 302.788C1321.8 201.93 1414.04 123.234 1512.97 94.0734" stroke="#D1DEFF" stroke-miterlimit="10"/>
<path d="M-137.519 1306.99C-114.333 1243.13 -56.9917 1196.04 7.10543 1176.89C34.7251 1168.62 63.8982 1165.14 93.1061 1166.35C130.852 1167.89 168.38 1176.51 205.52 1185.31C281.235 1203.43 354.841 1222.23 426.192 1199.68C481.988 1182.11 537.093 1165.59 587.402 1138.05C626.543 1116.59 652.47 1084.75 670.668 1045.84C678.678 1028.67 685.17 1010.3 691.122 990.894C702.671 952.537 712.179 912.083 728.318 877.581C746.735 838.234 774.349 806.733 822.672 795.204C835.579 792.08 848.166 790.795 860.855 791.432C914.175 793.664 964.448 826.56 1020.77 840.865C1046.39 847.366 1072.8 849.205 1097.57 846.683C1125.31 843.793 1151.25 835.318 1172.75 821.863C1213.44 796.345 1238.05 753.878 1237.68 712.298C1237.25 676.811 1220.07 645.478 1209.92 610.091C1188.51 536.967 1193.03 444.167 1222.05 357.73C1230.16 333.629 1240.11 309.991 1252.1 287.344C1306.89 184.431 1402.84 106.005 1506.01 80.338" stroke="#D1DEFF" stroke-miterlimit="10"/>
<path d="M-141.676 1301.69C-117.237 1238.04 -60.1829 1190.97 4.0003 1171.51C31.7315 1163.09 60.8983 1159.61 90.1174 1160.96C128.025 1162.76 165.462 1171.82 202.714 1181.58C278.484 1201.38 352.331 1223.35 424.544 1202.35C481.018 1185.93 537.173 1171.35 588.87 1145.14C629.351 1124.61 655.876 1093.23 674.639 1054.5C682.933 1037.42 689.691 1019.01 695.775 999.567C707.722 961.133 717.627 920.601 734.334 886.282C753.45 847.097 781.815 816.174 831.257 806.024C844.482 803.275 857.269 802.518 870.006 803.567C923.721 807.971 973.567 843.024 1029.88 857.346C1055.49 863.855 1081.98 865.272 1106.93 862.037C1134.83 858.297 1160.89 848.558 1182.04 833.478C1222.2 804.828 1244.79 758.292 1241.3 713.61C1238.37 675.639 1218.21 642.436 1205.39 605.415C1178.49 528.902 1179.46 432.877 1207.23 344.18C1214.98 319.415 1224.86 295.216 1236.94 272.265C1292.02 167.308 1391.66 89.0657 1499.05 66.6026" stroke="#D1DEFF" stroke-miterlimit="10"/>
<path d="M-146.049 1294.66C-120.365 1231.18 -63.7304 1184.18 0.68751 1164.57C28.4108 1156.15 57.5522 1152.53 86.9143 1154.01C124.827 1155.94 162.337 1165.66 199.528 1176.12C275.358 1197.69 349.419 1222.65 422.354 1203.23C479.505 1187.98 536.706 1175.34 589.79 1150.5C631.474 1130.94 658.6 1100.05 678.05 1061.41C686.63 1044.44 693.674 1026.14 699.891 1006.7C712.376 968.222 722.686 927.667 739.962 893.576C759.648 854.622 788.765 824.317 839.61 815.655C853.034 813.435 866.019 813.206 878.938 814.645C933.178 821.189 982.316 858.376 1038.62 872.686C1064.37 879.308 1090.93 880.298 1115.91 876.23C1143.97 871.64 1169.99 860.528 1190.93 843.823C1230.57 812.211 1251.11 761.396 1244.67 713.93C1239.25 673.53 1216.28 638.625 1200.66 599.906C1168.27 519.981 1165.57 421.018 1192.4 330.286C1199.79 304.89 1209.62 280.298 1221.77 256.801C1277.12 149.804 1380.6 71.8226 1492.09 52.8672" stroke="#D1DEFF" stroke-miterlimit="10"/>
<path d="M-152.164 1289.38C-125.327 1226.19 -68.7874 1179.22 -4.36245 1159.34C23.3616 1150.78 52.6558 1147.15 82.1872 1148.73C120.156 1150.93 157.738 1161.06 194.933 1172.48C270.874 1195.68 345.246 1223.91 419.088 1205.89C476.966 1191.8 535.385 1180.95 589.651 1157.63C632.595 1139.17 660.467 1108.61 680.642 1070.17C689.381 1053.32 696.701 1034.99 703.33 1015.51C716.249 977.135 726.958 936.408 744.822 902.534C765.234 863.782 794.997 834.099 847.274 826.781C861.026 824.936 874.223 825.233 887.082 827.231C941.758 835.927 990.5 875.219 1046.85 889.652C1072.62 896.268 1099.41 896.812 1124.59 892.028C1152.84 886.587 1178.99 874.217 1199.61 855.898C1238.77 821.316 1257.31 766.347 1247.88 715.816C1239.83 672.995 1214.03 636.383 1195.73 596.078C1157.84 512.724 1151.63 410.785 1177.24 317.889C1184.44 291.974 1194.06 266.727 1206.19 242.965C1261.89 134.032 1369.15 56.1608 1485.11 40.6611" stroke="#D1DEFF" stroke-miterlimit="10"/>
<path d="M-156.322 1284.08C-128.237 1221.09 -71.99 1174.12 -7.46772 1154.07C20.3654 1145.36 49.6511 1141.72 79.1916 1143.45C117.167 1145.8 154.809 1156.48 191.961 1168.76C267.971 1193.78 342.565 1225.06 417.126 1208.61C475.679 1195.67 535.16 1186.91 590.791 1164.78C634.952 1147.4 663.537 1117.14 684.275 1078.86C693.295 1062.11 700.88 1043.73 707.639 1024.21C720.953 985.747 732.192 944.913 750.485 911.23C771.459 872.647 801.951 843.4 855.647 837.703C869.581 836.251 882.977 837.079 896.035 839.609C951.238 850.47 999.4 891.819 1055.75 906.411C1081.65 913.022 1108.54 913.282 1133.74 907.663C1162.02 901.386 1188.26 887.611 1208.67 867.642C1247.29 829.913 1263.8 770.85 1251.4 717.314C1240.84 671.99 1212.08 633.492 1191.12 591.535C1147.59 504.775 1137.94 399.419 1162.47 304.489C1169.31 277.901 1178.87 252.221 1191.06 227.875C1247.02 116.728 1357.98 39.1607 1478.16 27.0109" stroke="#D1DEFF" stroke-miterlimit="10"/>
<path d="M-160.584 1277.94C-118.586 1188.06 -22.0008 1130.69 76.0907 1137.33C191.723 1145.11 302.744 1232.74 415.178 1210.35C474.405 1198.57 534.916 1191.61 591.948 1170.98C657.242 1147.38 688.982 1096.26 711.981 1032.11C741.484 949.729 760.948 856.001 864.078 848.042C938.57 842.254 995.057 904.419 1064.57 922.493C1119.48 936.706 1179.69 919.548 1217.77 878.711C1255.86 837.874 1270.37 774.921 1254.99 718.307C1241.94 670.536 1210.23 630.337 1186.59 586.647C1123.91 471.294 1119.71 325.993 1175.95 212.896C1232.19 99.7994 1346.97 22.3261 1471.25 13.6792" stroke="#D1DEFF" stroke-miterlimit="10"/>
<path d="M-153.074 1289.22C-109.422 1205.82 -13.0686 1151.7 84.2085 1156.9C132.906 1159.43 180.797 1175.33 228.046 1190.48C276.459 1206.18 323.978 1221.3 371.713 1221.59C387.068 1221.62 402.524 1220.26 417.845 1216.7C475.533 1203.31 534.47 1194.48 591.195 1173.33C655.529 1149.45 688.203 1100.18 712.725 1039.35C718.391 1025.37 723.754 1011.15 729.269 997.059C745.51 955.639 763.354 916.093 796.202 891.415C814.625 877.515 837.588 868.166 867.42 865.569C940.886 858.939 996.547 915.353 1063.45 929.862C1072.33 931.802 1081.37 932.891 1090.32 933.164C1135.03 934.526 1179.74 915.98 1209.89 881.683C1246.04 840.556 1259.7 778.303 1244.92 722.206C1232.44 674.673 1202.45 634.014 1180.15 590.188C1141.71 514.63 1127.52 426.799 1138.24 344.172C1144 300.043 1156.93 257.374 1176.8 218.684C1213.27 148.069 1272.75 91.741 1343.16 57.1471C1383.6 37.3334 1427.69 24.8097 1473.01 21.1198" stroke="#D1DEFF" stroke-miterlimit="10"/>
<path d="M-145.455 1299.64C-100.347 1222.71 -4.20051 1171.78 92.2976 1175.57C140.749 1177.43 188.091 1191.33 234.504 1204.37C282.048 1217.69 328.411 1230.32 375.057 1228.68C390.066 1228.2 405.024 1226.2 420.016 1222.27C476.237 1207.27 533.421 1196.71 589.64 1175.08C652.824 1151.06 686.489 1103.33 712.36 1045.79C718.377 1032.46 724.124 1019.17 730.007 1005.85C747.231 966.94 765.688 930.224 798.702 907.047C817.367 894.084 840.216 885.027 869.441 882.09C941.82 874.765 996.592 925.343 1060.83 936.31C1069.36 937.739 1077.93 938.335 1086.55 938.233C1129.35 937.621 1171.86 918.104 1200.32 883.603C1234.49 842.17 1247.27 780.719 1233.24 725.085C1221.48 677.741 1192.97 636.762 1172.28 592.6C1136.29 516.741 1123.9 429.104 1135.8 347.3C1142.27 303.362 1155.8 261.174 1176.26 222.964C1213.51 153.361 1273.23 98.1119 1343.73 63.5073C1384.15 43.6971 1427.93 31.0741 1473.05 27.1317" stroke="#D1DEFF" stroke-miterlimit="10"/>
<path d="M-137.835 1310.07C-91.0918 1239.56 4.77889 1191.72 100.442 1194.08C148.535 1195.16 195.534 1207.3 241.251 1217.94C288.115 1228.99 333.326 1238.86 378.803 1235.43C393.462 1234.3 408.086 1231.8 422.626 1227.5C477.429 1210.89 532.873 1198.33 588.788 1176.32C650.978 1151.88 685.581 1106.1 712.964 1051.83C719.219 1039.3 725.474 1026.77 731.612 1014.4C749.855 978.12 768.909 943.957 802.135 922.412C820.907 910.266 843.796 901.48 872.455 898.337C943.791 890.174 997.613 935.201 1059.49 942.452C1067.69 943.37 1075.94 943.59 1084.24 943.113C1125.16 940.522 1165.5 920.03 1192.44 885.303C1224.81 843.679 1236.59 782.905 1223.3 727.731C1212.09 680.457 1185.31 639.125 1165.97 594.795C1132.53 518.619 1121.68 431.205 1134.92 350.203C1142.1 306.453 1156.24 264.742 1177.2 227.161C1215.27 158.561 1275.28 104.383 1345.8 69.7754C1386.11 50.1166 1429.88 37.356 1474.82 32.8842" stroke="#D1DEFF" stroke-miterlimit="10"/>
<path d="M-130.216 1322.23C-81.8528 1258.03 13.7764 1213.53 108.739 1214.46C156.609 1214.74 203.114 1225.01 248.167 1233.52C294.334 1242.16 338.273 1249.43 382.716 1244.19C397.042 1242.55 411.198 1239.55 425.404 1234.74C478.805 1216.64 532.526 1202.23 588.119 1179.71C649.196 1154.98 684.858 1111.02 713.6 1059.89C720.229 1048.15 726.858 1036.41 733.369 1024.81C752.615 991.043 772.283 959.57 805.722 939.659C824.736 928.313 847.581 920.224 875.64 916.603C945.932 907.601 998.787 946.939 1058.18 950.626C1066.06 951.169 1073.98 950.877 1081.8 949.906C1120.85 945.336 1158.89 923.886 1184.3 888.936C1214.73 847.002 1225.52 787.047 1213.09 732.185C1202.45 685.12 1177.38 643.301 1159.52 598.791C1128.49 522.183 1119.47 435.102 1134.03 354.771C1141.92 311.212 1156.83 270.099 1178.11 232.895C1217.01 165.304 1277.29 112.062 1348 77.7097C1388.32 58.0504 1431.82 45.1861 1476.6 40.4571" stroke="#D1DEFF" stroke-miterlimit="10"/>
<path d="M-122.597 1332.66C-72.6439 1274.89 22.6432 1233.62 116.676 1233.01C164.164 1232.64 210.407 1241 254.592 1247.13C299.907 1253.53 342.675 1258.18 386.03 1251C399.992 1248.71 413.803 1245.2 427.546 1240.04C479.481 1220.32 531.435 1204.06 586.523 1181.05C646.569 1156.04 683.102 1113.76 713.344 1066.05C720.322 1054.95 727.335 1044.13 734.23 1033.46C754.323 1002.21 774.873 973.535 808.478 955.125C827.717 944.581 850.296 936.664 877.918 932.959C947.158 923.535 999.09 956.763 1055.82 956.91C1063.36 956.942 1070.93 956.14 1078.32 954.947C1115.33 948.556 1151.3 925.982 1175.01 890.829C1203.6 848.573 1213.37 789.301 1201.7 735.039C1191.64 688.182 1168.32 646.01 1151.8 601.198C1123.35 524.275 1115.99 437.407 1131.74 357.901C1140.33 314.534 1155.83 273.903 1177.6 237.334C1217.28 170.754 1277.79 118.592 1348.59 84.2299C1388.77 64.7274 1432.09 51.7472 1476.65 46.4935" stroke="#D1DEFF" stroke-miterlimit="10"/>
<path d="M-114.977 1344.82C-63.3825 1293.5 31.6372 1255.31 124.859 1253.41C171.992 1252.26 217.879 1258.73 261.403 1262.72C306.024 1266.72 347.524 1268.76 389.848 1259.77C403.462 1256.84 416.822 1252.97 430.232 1247.3C480.753 1225.96 530.987 1207.84 585.775 1184.45C644.713 1159.17 682.308 1118.71 713.914 1074.15C721.267 1063.84 728.654 1053.8 735.788 1043.94C756.887 1015.2 778.054 989.211 811.874 972.437C831.222 962.71 853.859 955.201 880.901 951.154C949.238 940.875 1000.21 968.409 1054.32 965.008C1061.53 964.529 1068.65 963.369 1075.83 961.648C1110.97 953.278 1144.77 929.733 1166.97 894.362C1193.61 851.804 1202.53 793.342 1191.6 739.554C1182.11 692.912 1160.38 650.278 1145.47 605.276C1119.44 528.071 1114.03 441.397 1130.85 362.743C1140.16 319.573 1156.28 279.427 1178.52 243.358C1218.89 177.813 1279.7 126.73 1350.66 92.3534C1390.86 72.8523 1434.05 59.7526 1478.43 54.1053" stroke="#D1DEFF" stroke-miterlimit="10"/>
<path d="M-107.358 1355.25C-54.257 1310.37 40.7811 1275.35 133.174 1272.04C180.088 1270.09 225.501 1274.82 268.331 1276.41C312.276 1278.14 352.625 1277.42 393.783 1266.64C407.063 1263.2 420.074 1258.68 433.033 1252.65C482.155 1229.83 530.787 1209.69 584.988 1185.83C642.969 1160.39 681.457 1121.47 714.595 1080.32C722.305 1070.66 730.084 1061.54 737.609 1052.59C759.729 1026.48 781.647 1003.17 815.531 987.907C835.139 979.116 857.684 971.895 884.144 967.505C951.459 956.523 1001.46 978.373 1053.09 971.274C1059.95 970.284 1066.75 968.748 1073.49 966.669C1106.75 956.321 1138.25 931.818 1158.92 896.22C1183.62 853.35 1191.68 795.684 1181.48 742.22C1172.54 695.647 1152.67 652.642 1138.96 607.353C1115.63 529.812 1111.75 443.36 1129.92 365.505C1139.94 322.523 1156.69 282.989 1179.41 247.412C1220.62 182.868 1281.71 132.854 1352.86 98.5935C1392.95 79.2431 1436 66.022 1480.21 59.9812" stroke="#D1DEFF" stroke-miterlimit="10"/>
<path d="M-99.7385 1367.41C-45.0455 1328.97 49.6751 1297.31 141.129 1292.32C187.682 1289.86 232.668 1292.43 274.803 1291.9C317.882 1291.25 357.064 1287.91 397.155 1275.33C410.075 1271.24 422.606 1266.23 435.238 1259.82C482.766 1235.4 529.787 1213.53 583.623 1189.16C640.579 1163.43 680.091 1126.32 714.561 1088.32C722.638 1079.44 730.783 1071.1 738.676 1062.94C761.644 1039.35 784.31 1018.85 818.362 1005.09C838.196 997.096 860.645 990.301 886.519 985.708C952.755 974.031 1001.88 990.047 1050.84 979.409C1057.38 978.044 1063.84 975.998 1070.12 973.561C1101.47 961.238 1130.78 935.762 1149.77 899.959C1172.63 856.763 1179.67 799.776 1170.09 746.924C1161.74 700.555 1143.61 657.195 1131.37 611.584C1110.48 533.739 1108.4 447.476 1127.75 370.441C1138.47 327.647 1155.95 288.574 1179.02 253.646C1221 190.109 1282.34 141.171 1353.45 106.914C1393.39 87.5826 1436.41 74.364 1480.26 67.815" stroke="#D1DEFF" stroke-miterlimit="10"/>
<path d="M-93.6481 1379.56C-37.3222 1347.52 57.1364 1319.05 147.891 1312.63C194.221 1309.37 238.73 1310.21 280.168 1307.28C322.567 1304.37 360.477 1298.42 399.515 1283.89C411.965 1279.3 424.297 1273.75 436.459 1266.85C482.563 1240.78 527.857 1217.03 581.25 1192.27C637.088 1166.24 677.655 1130.9 713.497 1096.14C721.947 1088.03 730.465 1080.47 738.73 1073.08C762.698 1051.97 786.111 1034.12 820.24 1021.99C840.315 1014.8 862.534 1008.3 887.976 1003.48C953.166 990.962 1001.46 1001.3 1047.8 987.104C1054.01 985.226 1060.13 982.667 1065.95 979.869C1095.43 965.554 1122.56 939.073 1139.88 903.016C1160.8 859.591 1166.96 803.191 1158.1 750.592C1150.44 704.349 1133.76 660.472 1123.13 614.598C1104.78 536.327 1104.36 450.157 1125.04 373.825C1136.47 331.164 1154.56 292.52 1178.1 258.043C1220.9 195.433 1282.52 147.511 1353.78 113.201C1393.74 93.9852 1436.47 80.5154 1480.3 73.6908" stroke="#D1DEFF" stroke-miterlimit="10"/>
<path d="M-86.2436 1388.26C-28.2925 1362.55 65.9265 1337.44 155.844 1329.6C201.815 1325.55 245.965 1324.5 286.738 1319.43C328.456 1314.26 365.077 1305.56 403.081 1289.24C415.181 1284.01 427.045 1277.97 438.891 1270.7C483.577 1243.04 527.166 1217.59 580.223 1192.21C635.103 1166.05 676.699 1132.28 713.942 1100.98C722.751 1093.53 731.661 1086.9 740.183 1080.45C765.023 1061.89 789.34 1046.85 823.531 1036.25C843.866 1029.99 865.991 1023.79 890.849 1018.63C955.013 1005.42 1002.44 1009.76 1046.18 992.165C1052.05 989.778 1057.72 986.863 1063.36 983.676C1090.97 967.534 1115.79 939.992 1131.71 903.742C1150.83 860.048 1156 804.541 1147.9 752.479C1140.82 706.508 1125.88 662.342 1116.59 616.231C1100.68 537.774 1102.23 451.899 1123.99 376.505C1136.28 334.21 1154.84 295.975 1179.02 262.155C1222.66 200.63 1284.57 153.835 1355.99 119.541C1395.83 100.361 1438.45 86.9185 1482.09 79.5666" stroke="#D1DEFF" stroke-miterlimit="10"/>
<path d="M-78.4093 1402.15C-18.8747 1382.86 74.984 1360.83 164.125 1351.57C209.85 1346.86 253.468 1343.94 293.374 1336.49C334.224 1328.93 369.675 1317.61 406.608 1299.46C418.345 1293.58 429.863 1287.02 441.246 1279.38C484.466 1250.08 526.287 1222.74 578.988 1196.96C632.835 1170.49 675.447 1138.49 713.878 1110.33C723.051 1103.65 732.174 1097.67 741.213 1092.12C767.031 1076.05 791.956 1063.82 826.312 1054.71C846.871 1049.25 868.897 1043.47 893.303 1038.09C956.364 1024.04 1002.78 1022.7 1044 1001.53C1049.53 998.632 1054.88 995.338 1060.04 991.653C1085.74 973.516 1108.36 944.965 1122.6 908.459C1139.74 864.396 1144.02 809.473 1136.66 757.932C1130.13 711.963 1116.93 667.376 1109.12 621.013C1095.74 541.984 1098.95 456.331 1121.88 381.655C1134.87 339.491 1154.17 301.804 1178.65 268.317C1223.05 207.721 1285.19 161.948 1356.58 127.76C1396.41 108.698 1438.83 94.991 1482.14 87.4004" stroke="#D1DEFF" stroke-miterlimit="10"/>
<path d="M-70.7901 1412.58C-9.74641 1399.74 83.9959 1380.91 172.308 1370.22C217.678 1364.73 260.957 1360.05 300.167 1350.2C340.34 1340.37 374.656 1326.42 410.404 1306.34C421.808 1299.95 432.993 1292.88 443.907 1284.75C485.709 1253.82 525.824 1224.75 578.056 1198.34C630.81 1171.72 674.468 1141.39 714.416 1116.5C723.964 1110.61 733.462 1105.42 742.893 1100.79C769.582 1087.24 795.412 1077.8 829.848 1070.34C850.534 1065.84 872.602 1060.33 896.426 1054.61C958.464 1039.85 1004.04 1032.67 1042.63 1007.95C1047.83 1004.53 1052.86 1000.87 1057.56 996.821C1081.38 976.703 1101.71 947.192 1114.42 910.46C1129.6 866.085 1133.03 811.959 1126.4 760.743C1120.44 714.979 1108.97 670.038 1102.49 623.37C1091.55 544.04 1096.7 458.559 1120.84 384.701C1134.54 342.725 1154.46 305.514 1179.44 272.657C1224.65 212.929 1287.1 168.362 1358.65 134.153C1398.37 115.107 1440.66 101.414 1483.92 93.2762" stroke="#D1DEFF" stroke-miterlimit="10"/>
<path d="M-63.2048 1422.72C-0.575712 1416.33 92.8095 1400.59 180.226 1388.64C225.199 1382.36 268.081 1375.79 306.593 1363.82C346.033 1351.59 379.047 1335.05 413.728 1313.18C424.771 1306.13 435.477 1298.58 445.93 1290.09C486.273 1257.56 524.628 1226.66 576.508 1199.88C628.254 1173.13 672.915 1144.48 714.055 1122.78C723.953 1117.54 733.833 1113.27 743.495 1109.44C771.029 1098.42 797.739 1091.78 832.206 1085.84C853.116 1082.14 875.07 1076.93 898.306 1071C959.246 1055.41 1003.95 1042.53 1039.87 1014.15C1044.75 1010.36 1049.42 1006.04 1053.8 1001.63C1075.71 979.543 1093.85 949.075 1105.02 912.14C1118.38 867.465 1120.8 814.187 1114.92 763.463C1109.68 717.915 1099.66 672.545 1094.81 625.704C1086.43 546.103 1093.25 460.882 1118.57 387.888C1132.98 346.126 1153.49 309.415 1178.92 277.072C1224.93 218.386 1287.61 174.919 1359.25 140.714C1398.96 121.815 1440.93 107.892 1483.98 99.3669" stroke="#D1DEFF" stroke-miterlimit="10"/>
<path d="M-55.675 1434.17C8.60748 1434.21 101.891 1421.66 188.476 1408.15C233.253 1401.21 275.651 1392.77 313.476 1378.4C352.11 1363.93 383.995 1344.76 417.634 1320.96C428.346 1313.41 438.704 1305.22 448.708 1296.37C487.508 1262.26 524.3 1229.63 575.721 1202.24C626.502 1175.2 672.237 1148.38 714.768 1129.97C725.043 1125.52 735.3 1122.03 745.338 1118.99C773.884 1110.47 801.115 1105.71 835.905 1102.22C857.146 1100 878.809 1094.54 901.602 1088.26C961.529 1071.97 1005.24 1053.14 1038.71 1021.34C1043.25 1017.05 1047.46 1012.38 1051.53 1007.59C1071.57 983.542 1087.54 952.119 1097.05 915.003C1108.47 870.049 1110.03 817.471 1104.91 767.382C1100.24 722.074 1091.95 676.248 1088.45 629.275C1082.51 549.433 1091.29 464.447 1117.68 392.202C1132.94 350.639 1153.96 314.583 1179.88 282.754C1226.73 225.109 1289.72 182.736 1361.42 148.681C1401.02 129.807 1443.01 115.887 1485.76 106.987" stroke="#D1DEFF" stroke-miterlimit="10"/>
<path d="M-47.9748 1445.24C17.9427 1451.72 110.925 1442.11 196.701 1427.46C241.099 1419.6 283.285 1409.38 320.307 1392.89C358.239 1376.01 388.847 1354.23 421.445 1328.61C431.805 1320.41 441.709 1311.85 451.377 1302.49C488.731 1266.6 523.96 1232.36 574.918 1204.46C624.594 1177.27 671.519 1152.22 715.392 1136.82C726.04 1133.15 736.671 1130.44 747.1 1128.32C776.513 1122.32 804.779 1121.44 839.626 1118.36C861.058 1116.53 882.675 1111.77 904.915 1105.41C963.79 1088.29 1006.67 1063.74 1037.51 1028.38C1041.71 1023.57 1045.6 1018.52 1049.22 1013.37C1067.38 987.47 1081.03 954.936 1089 917.574C1098.6 872.266 1099.16 820.473 1094.62 770.696C1090.65 725.413 1083.84 679.375 1081.92 631.901C1078.27 551.726 1088.99 466.864 1116.72 395.38C1132.69 353.983 1154.45 318.367 1180.73 287.168C1228.4 230.497 1291.52 189.056 1363.52 155.087C1403.14 136.34 1444.84 122.175 1487.55 112.863" stroke="#D1DEFF" stroke-miterlimit="10"/>
<path d="M-40.3177 1455.97C27.1721 1468.89 119.799 1462.5 204.768 1446.29C248.913 1437.77 290.561 1425.68 326.845 1406.8C364.056 1387.66 393.492 1363.27 424.85 1335.59C434.864 1326.88 444.406 1317.68 453.61 1307.96C489.501 1270.46 522.98 1234.51 573.545 1205.97C622.204 1178.63 670.122 1155.26 715.193 1143.17C726.204 1140.28 737.215 1138.5 747.99 1137.03C778.157 1132.87 807.382 1135.46 842.254 1133.9C863.906 1132.87 885.422 1128.54 907.055 1121.85C964.823 1103.89 1006.67 1073.53 1035 1034.75C1038.86 1029.44 1042.42 1023.88 1045.71 1018.36C1061.84 990.496 1073.43 956.979 1079.86 919.401C1087.5 873.929 1087.18 822.809 1083.39 773.503C1079.99 728.434 1074.9 681.916 1074.33 634.284C1073.25 553.807 1085.75 469.155 1114.52 398.523C1131.2 357.461 1153.53 322.195 1180.27 291.499C1228.56 235.865 1292.04 195.493 1364.12 161.519C1403.59 142.931 1445.11 128.652 1487.6 118.953" stroke="#D1DEFF" stroke-miterlimit="10"/>
<path d="M-32.6755 1468.32C36.3189 1487.56 128.861 1484.51 213.013 1466.87C256.811 1457.56 298.109 1443.58 333.738 1422.56C370.125 1401.03 398.429 1374.01 428.757 1344.52C438.422 1335.16 447.497 1325.46 456.386 1315.36C490.862 1276.23 522.622 1238.4 572.758 1209.49C620.447 1181.86 669.455 1160.42 715.884 1151.34C727.255 1149.1 738.644 1148.1 749.695 1147.7C780.941 1146.59 810.738 1151.46 845.815 1151.4C867.732 1151.3 889.158 1147.26 910.212 1140.22C966.948 1121.42 1007.97 1085.35 1033.69 1043.01C1037.21 1037.18 1040.45 1031.25 1043.29 1025.36C1057.53 995.519 1066.96 961.016 1071.72 923.219C1077.41 877.423 1076.22 826.95 1073.19 778.226C1070.36 733.349 1067 686.463 1067.9 638.496C1069.25 557.694 1083.72 473.326 1113.55 403.372C1131.08 362.469 1153.9 327.686 1181.28 297.594C1230.41 242.949 1294.19 203.635 1366.31 169.649C1405.8 151.054 1447.19 136.651 1489.38 126.572" stroke="#D1DEFF" stroke-miterlimit="10"/>
<path d="M-25.0305 1478.95C45.6038 1504.62 137.869 1504.64 221.202 1485.72C264.64 1475.63 305.597 1459.9 340.527 1436.48C376.233 1412.69 403.399 1383.04 432.538 1351.63C441.869 1341.76 450.457 1331.42 459.028 1320.96C491.929 1280.09 522.131 1240.66 571.928 1211.11C618.653 1183.32 668.503 1163.03 716.381 1157.78C728.144 1156.46 739.873 1155.97 751.316 1156.48C783.432 1157.89 814.15 1165.69 849.27 1167C871.311 1167.86 892.626 1163.97 913.248 1156.71C968.954 1137.21 1008.98 1095.18 1032.22 1049.43C1035.43 1043.22 1038.19 1036.8 1040.69 1030.4C1053.06 998.581 1060.17 963.126 1063.4 925.11C1067.27 878.995 1065.09 829.344 1062.78 780.953C1060.66 736.272 1058.76 688.936 1061.29 640.776C1065.2 559.668 1081.49 475.503 1112.53 406.378C1130.78 365.668 1154.36 331.487 1182.07 301.774C1232.03 248.139 1296.1 209.901 1368.4 176.036C1407.78 157.595 1449.03 143.072 1491.17 132.448" stroke="#D1DEFF" stroke-miterlimit="10"/>
<path d="M-17.3889 1491.29C54.8295 1523.42 146.756 1526.68 229.295 1506.19C272.488 1495.44 312.895 1477.69 347.126 1452.14C382.099 1425.93 407.962 1393.67 436.034 1360.44C444.869 1349.93 453.265 1339.2 461.357 1328.24C492.8 1285.73 521.392 1244.55 570.549 1214.51C616.266 1186.56 667.198 1168.61 716.33 1165.98C728.441 1165.3 740.416 1165.75 752.375 1167.17C785.453 1170.95 816.795 1181.73 852.082 1184.55C874.364 1186.35 895.564 1182.75 915.6 1175.28C970.208 1154.94 1009.22 1107.21 1029.95 1057.87C1032.82 1051.15 1035.26 1044.34 1037.3 1037.58C1047.76 1003.77 1052.69 967.323 1054.25 929.08C1056.15 882.631 1053.24 833.737 1051.53 785.798C1050.1 741.147 1049.8 693.45 1053.66 645.098C1059.99 563.647 1078.21 479.753 1110.27 411.297C1129.37 370.877 1153.39 337.041 1181.57 307.947C1232.3 255.299 1296.6 218.123 1368.98 184.234C1408.21 165.805 1449.29 151.297 1491.22 140.282" stroke="#D1DEFF" stroke-miterlimit="10"/>
<path d="M-9.75251 1501.85C64.1168 1540.41 155.797 1546.87 237.514 1524.97C280.356 1513.43 320.427 1493.93 353.966 1465.97C388.13 1437.53 412.859 1402.64 439.882 1367.47C448.384 1356.46 456.295 1345.1 464.072 1333.76C493.962 1289.66 521 1246.88 569.827 1216.19C614.604 1188.23 666.455 1171.97 716.944 1172.34C729.431 1172.45 741.783 1173.68 753.984 1175.91C787.92 1182.07 820.204 1195.9 855.54 1200.1C878.085 1202.83 899.177 1199.38 918.649 1191.71C972.202 1170.4 1010.26 1116.98 1028.52 1064.23C1031.05 1056.99 1033.16 1049.68 1034.87 1042.55C1043.47 1006.9 1046.21 969.348 1046.24 930.889C1046.33 884.122 1042.4 835.918 1041.46 788.587C1040.6 744.151 1042.04 696.11 1047.38 647.447C1056.27 565.559 1076.32 482.008 1109.47 414.401C1129.28 374.177 1153.93 340.824 1182.59 312.228C1234.16 260.593 1298.76 224.493 1371.18 190.605C1410.44 172.313 1451.38 157.549 1493 146.158" stroke="#D1DEFF" stroke-miterlimit="10"/>
<path d="M-2.11292 1514.18C112.97 1582.78 265.526 1569.24 360.399 1481.64C393.827 1450.79 417.253 1413.29 443.208 1376.3C483.119 1319.32 507.514 1258.73 568.257 1219.51C622.78 1184.24 691.627 1170.57 754.819 1186.39C789.729 1195.06 822.619 1211.73 858.118 1217.43C952.439 1232.43 1016.75 1131.46 1031.24 1049.55C1046.08 966.067 1030.33 878.913 1029.98 793.307C1029.38 674.801 1052.26 525.845 1107.09 419.137C1164.8 306.952 1258.85 251.278 1371.64 198.811C1410.74 180.536 1451.51 165.79 1493.06 153.992" stroke="#D1DEFF" stroke-miterlimit="10"/>
</g>
</svg>
