<svg width="161" height="169" viewBox="0 0 161 169" fill="none" xmlns="http://www.w3.org/2000/svg">
<g clip-path="url(#clip0_545_8654)">
<path d="M183.109 82.6406H142.376L171.178 53.8386C177.957 47.0599 177.957 36.0697 171.178 29.291C164.399 22.5122 153.409 22.5122 146.63 29.291L117.828 58.0929V17.3594C117.828 7.77506 110.059 0 100.469 0C90.8844 0 83.1093 7.76895 83.1093 17.3594V58.0929L54.3074 29.291C47.5287 22.5122 36.5384 22.5122 29.7597 29.291C22.981 36.0697 22.981 47.0599 29.7597 53.8386L58.5617 82.6406H17.8282C8.24381 82.6406 0.46875 90.4095 0.46875 100C0.46875 109.59 8.2377 117.359 17.8282 117.359H58.5617L29.7597 146.161C22.981 152.94 22.981 163.93 29.7597 170.709C36.5384 177.488 47.5287 177.488 54.3074 170.709L83.1093 141.907V182.641C83.1093 192.225 90.8783 200 100.469 200C110.053 200 117.828 192.231 117.828 182.641V141.907L146.63 170.709C153.409 177.488 164.399 177.488 171.178 170.709C177.957 163.93 177.957 152.94 171.178 146.161L142.376 117.359H183.109C192.694 117.359 200.469 109.59 200.469 100C200.469 90.4156 192.7 82.6406 183.109 82.6406Z" fill="#393A40"/>
</g>
<defs>
<clipPath id="clip0_545_8654">
<rect width="200" height="200" fill="white" transform="translate(0.46875)"/>
</clipPath>
</defs>
</svg>
