<svg width="222" height="200" viewBox="0 0 222 200" fill="none" xmlns="http://www.w3.org/2000/svg">
<path d="M138.358 216.091C141.431 214.042 145.529 214.042 146.553 210.969L145.529 208.92C133.236 200.725 118.895 196.628 112.748 183.311C124.017 183.311 135.285 183.311 146.553 181.262C154.748 179.213 162.943 176.14 170.114 172.042C186.504 161.798 199.821 148.481 209.041 132.091C219.285 114.677 222.358 95.2133 221.333 75.75C220.309 69.6036 219.285 63.4573 215.187 58.3354H212.114C202.894 69.6036 199.821 85.9938 185.48 91.1158C189.577 68.5792 182.407 46.0428 170.114 26.5794C159.87 10.1892 145.529 -0.0546322 129.139 -7.22534C108.651 -16.4448 83.0412 -25.6643 61.529 -10.2985C59.4803 -9.27411 62.5534 -6.20095 64.6022 -5.17656C75.8704 0.969753 89.1875 6.09169 94.3094 18.3843C71.7729 14.2868 49.2364 20.4331 29.7731 33.7501C-5.05609 57.311 -22.4707 99.3109 -11.2024 138.238C-10.178 140.286 -9.15363 142.335 -7.10486 143.359C-5.05609 143.359 -3.00731 141.311 -1.98293 139.262C1.09023 129.018 8.26094 120.823 15.4316 112.628L21.578 109.555C17.4804 138.238 27.7243 166.92 47.1876 187.408C70.7485 210.969 105.578 224.286 138.358 216.091Z" fill="white"/>
</svg>
