<svg width="1440" height="1692" viewBox="0 0 1440 1692" fill="none" xmlns="http://www.w3.org/2000/svg">
<g opacity="0.1">
<path d="M1624.29 1466.26C1611.99 1384.46 1541.78 1335.62 1474.28 1326.16C1406.78 1316.69 1337.85 1335.28 1269.5 1335.28C1086.45 1335.11 913.843 1186.23 853.924 976.666C834.761 909.573 826.324 837.916 807.59 770.485C788.856 703.223 757.109 637.482 705.485 605.541C631.265 559.404 538.312 594.894 463.378 646.439C388.443 697.984 318.371 766.26 235.429 789.92C126.459 821.016 13.0562 767.443 -70.3155 681.422C-153.687 595.401 -212.605 479.636 -270.093 365.73" stroke="#D1DEFF" stroke-miterlimit="10"/>
<path d="M1628.44 1458.32C1614.85 1376.86 1544.92 1328.19 1477.28 1318.38C1447.97 1314.16 1418.51 1315.17 1388.9 1318.05C1350.01 1321.76 1311.11 1328.35 1272.5 1329.37C1193.7 1331.4 1116.77 1307.57 1049.27 1261.26C997.072 1225.43 950.738 1178.28 913.7 1121.67C887.244 1081.45 866.079 1036.15 851.35 986.975C844.772 965.005 839.337 942.359 834.332 919.544C824.179 873.238 815.885 826.256 802.728 781.471C787.856 730.602 765.261 681.422 731.798 647.96C721.359 637.482 710.061 628.525 697.62 621.427C645.566 591.852 585.361 601.992 527.73 627.173C502.848 637.989 478.394 651.678 455.656 666.212C430.201 682.605 405.318 700.182 380.579 717.082C331.957 750.206 283.764 780.794 231.711 791.78C197.819 799.047 164.499 797.019 131.321 788.4C64.2523 770.654 -1.81582 723.334 -56.8726 662.832C-71.8881 646.27 -86.3316 628.694 -100.346 610.611C-162.267 529.829 -214.035 436.541 -265.087 348.323" stroke="#D1DEFF" stroke-miterlimit="10"/>
<path d="M1632.44 1450.37C1617.57 1369.42 1547.93 1320.75 1480.14 1310.61C1450.83 1306.22 1421.22 1307.23 1391.48 1310.27C1352.58 1314.33 1313.83 1321.59 1275.07 1323.62C1196.42 1327.85 1119.77 1307.74 1051.56 1263.46C998.788 1229.15 951.739 1184.2 913.271 1129.78C885.814 1090.74 863.934 1046.12 848.49 997.283C841.626 975.482 835.905 952.836 830.757 930.021C820.175 883.884 811.452 836.733 797.723 792.286C782.136 741.755 758.826 693.759 724.219 661.987C713.494 652.185 702.053 643.735 689.612 637.313C637.272 610.442 577.925 623.117 520.437 648.298C495.411 659.283 470.815 672.296 447.934 685.985C422.193 701.195 397.024 717.419 372.427 732.122C323.949 761.359 277.186 787.216 228.136 793.638C196.389 797.863 165.929 792.962 135.469 781.808C73.6907 758.993 10.9118 707.279 -43.1439 644.242C-58.0164 626.835 -72.3168 608.752 -86.3313 590.162C-148.824 507.014 -204.453 414.402 -259.51 331.084" stroke="#D1DEFF" stroke-miterlimit="10"/>
<path d="M1636.59 1442.26C1620.43 1361.82 1551.21 1312.98 1483.29 1302.67C1453.97 1298.27 1424.23 1299.12 1394.48 1302.33C1355.58 1306.55 1316.83 1314.5 1278.22 1317.54C1199.71 1323.79 1123.2 1307.74 1054.27 1265.32C1001.07 1232.53 953.025 1189.94 913.27 1137.55C884.669 1099.87 862.074 1055.93 846.058 1007.42C838.908 985.791 833.044 963.314 827.467 940.499C816.456 894.362 807.16 847.211 793.003 803.102C776.843 752.909 752.676 706.096 717.068 675.845C706.056 666.55 694.616 658.776 682.031 653.03C629.549 628.863 570.917 644.073 513.429 669.254C488.403 680.239 463.663 692.914 440.354 705.589C414.327 719.785 389.015 734.15 364.418 747.163C316.083 772.513 270.464 793.638 224.56 795.328C194.815 796.511 167.501 788.737 139.758 775.217C83.271 747.67 23.781 691.393 -29.2737 625.483C-43.8602 607.4 -58.1606 588.472 -72.3181 569.375C-135.383 483.692 -195.016 391.925 -253.934 313.509" stroke="#D1DEFF" stroke-miterlimit="10"/>
<path d="M1640.74 1434.32C1623.29 1354.21 1554.36 1305.54 1486.29 1294.89C1456.83 1290.33 1427.09 1291.17 1397.34 1294.72C1358.44 1299.29 1319.69 1307.74 1281.22 1311.96C1202.86 1320.24 1126.49 1308.07 1056.99 1267.68C1003.22 1236.42 954.313 1196.2 913.271 1145.83C883.526 1109.5 860.216 1066.24 843.627 1018.07C836.191 996.439 830.042 974.131 824.322 951.316C812.881 905.347 803.157 858.027 788.285 814.256C771.41 764.57 746.67 718.602 709.775 690.21C698.621 681.591 686.894 674.324 674.453 669.254C621.684 647.791 563.91 665.536 506.565 690.886C481.54 702.04 456.514 714.039 433.061 725.869C406.891 739.051 381.15 751.895 356.697 762.711C308.504 784.005 264.03 800.567 221.271 797.694C193.528 795.835 169.36 785.188 144.192 769.133C92.996 736.516 36.9382 676.014 -15.4015 607.4C-29.702 588.472 -44.0025 569.037 -58.3029 549.433C-121.94 461.384 -185.434 370.462 -248.356 296.778" stroke="#D1DEFF" stroke-miterlimit="10"/>
<path d="M1644.74 1426.38C1626.15 1346.78 1557.36 1298.1 1489.15 1287.12C1459.69 1282.39 1429.8 1283.23 1400.06 1286.95C1361.16 1291.68 1322.41 1300.98 1284.08 1306.05C1205.86 1316.53 1129.64 1308.08 1059.42 1269.71C1005.08 1239.97 955.457 1201.94 912.985 1153.78C882.096 1118.63 858.214 1076.21 840.91 1028.21C833.188 1006.75 826.753 984.44 820.89 961.625C808.877 915.656 798.724 868.336 783.423 824.903C765.976 775.555 740.378 730.77 702.339 703.899C690.899 695.787 679.172 689.196 666.588 684.802C613.676 666.043 556.617 686.154 499.272 711.673C474.104 722.827 448.935 734.488 425.196 745.304C398.74 757.472 372.856 768.626 348.402 777.583C300.353 794.99 257.022 806.82 217.41 799.215C191.526 794.314 170.647 780.794 148.053 762.204C102.148 724.686 49.3797 659.621 -1.95897 588.303C-16.1164 568.53 -30.274 548.419 -44.5744 528.308C-108.784 437.724 -176.139 347.647 -243.208 278.864" stroke="#D1DEFF" stroke-miterlimit="10"/>
<path d="M1648.89 1418.26C1629.01 1339.17 1560.51 1290.33 1492.15 1279.34C1462.7 1274.61 1432.66 1275.29 1402.92 1279.18C1363.88 1284.25 1325.27 1294.05 1286.94 1300.13C1208.86 1312.64 1132.78 1308.24 1062 1271.74C1007.08 1243.52 956.602 1207.86 912.842 1161.72C880.809 1127.92 856.212 1086.18 838.337 1038.52C830.472 1017.23 823.75 995.086 817.458 972.271C805.017 926.303 794.434 878.983 778.561 835.888C760.542 786.878 734.229 743.107 694.903 718.095C683.177 710.659 671.308 704.575 658.723 700.857C605.525 684.802 549.324 707.448 491.98 732.967C466.811 744.121 441.356 755.275 417.474 765.246C390.732 776.4 364.705 785.864 340.109 792.793C292.345 806.313 249.73 813.411 213.55 801.243C189.525 793.131 171.792 776.738 151.915 755.951C111.301 713.532 61.8215 644.073 11.3409 570.051C-2.53056 549.602 -16.6879 528.815 -31.1314 508.197C-95.9125 415.247 -167.272 325.845 -238.202 261.794" stroke="#D1DEFF" stroke-miterlimit="10"/>
<path d="M1652.89 1410.32C1631.73 1331.74 1563.51 1282.89 1495.16 1271.57C1465.55 1266.67 1435.52 1267.35 1405.64 1271.4C1366.6 1276.64 1328.13 1287.12 1289.8 1294.39C1211.86 1309.09 1135.93 1308.41 1064.57 1273.94C1009.08 1247.23 957.745 1213.94 912.842 1169.83C879.665 1137.38 854.353 1096.32 835.905 1049C827.754 1027.87 820.747 1005.73 814.311 982.919C801.441 937.12 790.43 889.631 773.984 846.873C755.251 798.201 728.366 755.613 687.752 732.122C675.883 725.193 663.871 719.785 651.143 716.574C597.802 703.223 542.317 728.404 485.115 753.923C459.803 765.246 434.205 775.893 410.18 784.85C383.152 794.99 356.84 802.764 332.386 807.834C284.765 817.467 243.151 819.495 210.403 803.102C188.094 791.948 173.794 772.682 156.49 749.36C121.168 701.871 75.1204 628.187 25.4978 551.292C11.7693 529.998 -2.24509 508.535 -16.8316 487.41C-82.1847 391.925 -157.405 303.538 -232.34 244.219" stroke="#D1DEFF" stroke-miterlimit="10"/>
<path d="M1657.04 1402.38C1634.59 1324.13 1566.66 1275.46 1498.16 1263.8C1468.56 1258.73 1438.38 1259.4 1408.5 1263.63C1369.46 1269.2 1330.99 1280.19 1292.81 1288.47C1215.01 1305.2 1139.22 1308.41 1067.14 1275.96C1011.09 1250.78 958.89 1219.86 912.699 1177.78C878.378 1146.51 852.494 1106.29 833.332 1059.14C824.894 1038.18 817.744 1016.04 811.023 993.228C797.723 947.429 786.14 899.94 769.265 857.521C749.96 809.187 722.217 767.612 680.603 745.98C668.447 739.727 656.292 734.826 643.564 732.291C589.938 721.644 535.453 749.36 478.108 774.879C452.796 786.202 427.055 796.342 402.601 804.454C375.288 813.58 348.832 819.834 324.378 822.707C276.9 828.453 236.144 825.411 206.828 804.624C186.236 790.09 175.367 768.119 160.638 742.6C130.607 690.041 87.8483 612.132 39.0838 532.533C25.6413 510.563 11.6268 488.424 -2.95965 466.623C-68.8848 368.772 -147.966 281.061 -226.905 226.643" stroke="#D1DEFF" stroke-miterlimit="10"/>
<path d="M1661.04 1394.26C1637.3 1316.52 1569.66 1267.68 1501.02 1255.85C1471.42 1250.78 1441.24 1251.29 1411.21 1255.68C1372.17 1261.43 1333.7 1273.26 1295.67 1282.56C1218.01 1301.48 1142.51 1308.58 1069.72 1277.99C1013.09 1254.33 960.034 1225.77 912.556 1185.72C877.091 1155.81 850.492 1116.26 830.758 1069.45C822.034 1048.66 814.598 1026.69 807.591 1003.87C793.72 958.244 781.85 910.586 764.26 868.505C744.24 820.509 715.925 779.949 673.024 760.176C660.725 754.43 648.427 750.374 635.556 748.346C581.787 740.403 528.017 770.654 470.672 796.173C445.217 807.496 419.333 817.298 394.736 824.396C367.137 832.339 340.538 837.071 316.084 838.085C268.892 839.944 228.851 831.494 202.967 806.82C184.091 788.906 176.654 764.401 164.499 736.347C139.759 678.887 100.29 596.415 52.5263 514.281C39.3699 491.466 25.3553 468.651 10.6259 446.512C-55.8713 346.295 -138.814 259.26 -221.756 209.743" stroke="#D1DEFF" stroke-miterlimit="10"/>
<path d="M1665.19 1386.32C1640.31 1309.09 1572.81 1260.25 1504.02 1248.08C1474.42 1242.84 1444.1 1243.35 1414.07 1248.08C1375.03 1254.16 1336.56 1266.5 1298.52 1276.81C1221.02 1297.77 1145.65 1308.75 1072.15 1280.19C1014.95 1258.05 960.891 1231.86 912.269 1193.83C875.66 1165.27 848.346 1126.4 828.04 1079.92C819.03 1059.31 811.308 1037.34 804.158 1014.52C789.857 968.891 777.416 921.233 759.397 879.49C738.805 832.001 709.775 792.286 665.586 774.203C653.002 769.133 640.56 765.584 627.69 764.232C573.634 758.993 520.723 791.61 463.521 817.298C438.066 828.79 411.896 837.916 387.156 844.169C359.413 851.098 332.385 854.14 308.075 853.126C261.026 851.098 221.843 837.071 199.391 808.51C182.374 786.878 178.083 760.007 168.645 729.587C149.196 667.057 113.016 580.36 66.2538 495.353C53.2404 471.693 39.369 448.371 24.4965 425.556C-42.5726 322.804 -129.519 236.783 -216.466 191.998" stroke="#D1DEFF" stroke-miterlimit="10"/>
<path d="M1669.34 1378.38C1643.17 1301.48 1575.95 1252.81 1507.17 1240.31C1477.42 1234.9 1447.11 1235.4 1416.93 1240.31C1377.89 1246.56 1339.57 1259.57 1301.53 1270.89C1224.16 1294.05 1148.94 1308.75 1074.87 1282.22C1017.09 1261.6 962.178 1237.77 912.27 1201.77C874.517 1174.56 846.488 1136.37 825.609 1090.06C816.314 1069.62 808.448 1047.65 801.012 1024.83C786.283 979.2 773.412 931.711 754.822 890.137C733.657 842.986 703.912 804.285 658.436 788.061C645.709 783.498 632.982 780.625 620.254 779.949C566.056 777.414 513.859 812.566 456.657 838.254C431.059 849.746 404.746 858.534 379.72 863.773C351.691 869.688 324.521 871.209 300.21 868.167C253.447 862.252 215.265 842.479 195.959 810.369C180.801 785.188 179.8 755.951 172.936 723.165C158.778 655.565 126.03 564.643 79.9826 476.931C67.2552 452.595 53.3838 428.428 38.5113 405.275C-29.1299 300.157 -119.938 214.812 -210.889 174.928" stroke="#D1DEFF" stroke-miterlimit="10"/>
<path d="M1673.34 1370.27C1645.88 1293.88 1578.96 1245.04 1510.03 1232.36C1480.28 1226.95 1449.82 1227.29 1419.65 1232.36C1380.47 1238.95 1342.28 1252.64 1304.39 1264.98C1227.17 1290.16 1152.09 1308.75 1077.3 1284.25C1018.95 1265.15 963.179 1243.69 911.984 1209.72C873.086 1183.86 844.485 1146.34 822.892 1100.37C813.453 1080.09 805.159 1058.29 797.58 1035.48C782.422 990.016 769.122 942.358 749.959 901.291C728.08 854.478 697.763 816.622 651 802.257C637.987 798.201 625.259 796.004 612.389 796.004C557.904 796.173 506.566 833.86 449.364 859.717C423.766 871.209 397.31 879.49 371.998 883.884C343.683 888.785 316.369 888.616 292.059 883.546C245.439 873.913 208.544 848.225 192.384 812.397C179.228 783.498 181.373 751.895 177.226 716.743C168.503 644.073 138.901 548.757 93.8542 458.342C81.4128 433.161 67.6845 408.487 52.526 384.658C-15.6872 277.005 -110.356 192.505 -205.311 157.353" stroke="#D1DEFF" stroke-miterlimit="10"/>
<path d="M1677.49 1362.32C1648.74 1286.44 1582.1 1237.6 1513.03 1224.76C1483.29 1219.18 1452.68 1219.52 1422.51 1224.76C1383.33 1231.52 1345.15 1245.88 1307.39 1259.23C1230.31 1286.44 1155.38 1309.09 1080.01 1286.44C1021.24 1268.87 964.467 1249.77 911.984 1217.83C871.8 1193.32 842.627 1156.48 820.461 1110.85C810.737 1090.74 802.157 1068.94 794.291 1046.12C778.561 1000.66 764.832 953.005 745.098 912.276C722.646 865.801 691.614 828.959 643.708 816.453C630.551 813.073 617.538 811.383 604.667 812.059C550.039 814.932 499.416 855.154 442.357 881.011C416.759 892.672 390.017 900.277 364.562 903.826C335.961 907.713 308.505 906.023 284.194 898.925C237.86 885.405 202.252 853.971 188.953 814.594C177.941 781.977 183.089 748.177 181.516 710.49C178.084 632.919 151.771 533.209 107.583 440.09C95.2846 414.064 81.6992 388.714 66.5407 364.547C-2.24451 254.528 -100.775 170.873 -199.734 140.453" stroke="#D1DEFF" stroke-miterlimit="10"/>
<path d="M1681.49 1354.38C1651.46 1278.84 1585.11 1230.17 1515.89 1216.98C1486 1211.24 1455.4 1211.58 1425.23 1216.98C1386.04 1224.08 1347.86 1238.95 1310.11 1253.49C1233.17 1282.89 1158.38 1309.26 1082.3 1288.64C1022.96 1272.58 965.182 1256.02 911.555 1225.94C870.227 1202.79 840.339 1166.62 817.601 1121.16C807.591 1101.05 798.867 1079.42 790.716 1056.6C774.556 1011.31 760.399 963.483 740.092 923.092C716.926 876.955 685.322 840.958 636.128 830.311C622.686 827.438 609.672 826.424 596.659 827.776C541.745 833.184 491.979 876.11 434.921 901.967C409.18 913.628 382.295 920.895 356.554 923.43C327.667 926.303 299.924 922.923 275.756 913.797C229.566 896.39 195.388 859.379 184.948 816.284C176.225 779.949 184.233 743.783 185.234 703.899C187.236 621.258 164.07 517.323 120.882 421.331C108.87 394.629 95.2844 368.603 79.9829 343.76C10.6256 231.206 -91.9088 148.395 -194.872 122.876" stroke="#D1DEFF" stroke-miterlimit="10"/>
<path d="M1685.64 1346.27C1654.46 1271.23 1588.25 1222.39 1519.04 1209.04C1489.15 1203.29 1458.4 1203.46 1428.09 1209.21C1388.9 1216.48 1350.72 1232.19 1313.11 1247.57C1236.32 1279.01 1161.81 1309.26 1085.02 1290.67C1025.1 1276.13 966.469 1261.94 911.555 1233.88C869.083 1212.08 838.622 1176.59 815.17 1131.47C804.873 1111.53 795.864 1090.06 787.57 1067.25C770.981 1021.96 756.252 974.131 735.516 934.078C711.777 888.279 679.601 853.296 628.978 844.508C615.249 842.142 602.093 841.804 589.079 843.832C534.023 851.944 484.972 897.236 428.056 923.262C402.315 935.092 375.144 941.683 349.261 943.373C320.231 945.063 292.202 940.331 268.034 929.177C221.986 908.052 189.381 865.464 181.659 818.313C175.224 778.429 186.092 739.896 189.667 697.477C196.961 609.766 177.226 501.606 134.754 402.91C123.027 375.363 109.442 348.661 93.9973 323.48C24.0681 208.56 -82.3274 126.426 -189.295 105.808" stroke="#D1DEFF" stroke-miterlimit="10"/>
<path d="M1689.64 1338.33C1657.18 1263.8 1591.26 1214.96 1521.9 1201.27C1492.01 1195.35 1461.12 1195.52 1430.8 1201.44C1391.62 1209.04 1353.58 1225.26 1315.97 1241.66C1239.32 1275.29 1164.96 1309.43 1087.59 1292.7C1027.1 1279.68 967.47 1267.85 911.412 1241.83C867.796 1221.55 836.621 1186.56 812.596 1141.78C802.014 1122.01 792.861 1100.54 784.138 1077.73C767.12 1032.6 751.962 984.608 730.654 944.893C706.343 899.601 673.452 865.294 621.542 858.534C607.67 856.675 594.371 857.013 581.214 859.717C525.871 870.533 477.679 918.36 420.763 944.386C394.879 956.216 367.565 962.469 341.396 963.145C312.08 963.821 283.908 957.399 259.74 944.217C213.978 919.205 182.803 871.04 177.798 820.171C173.651 776.738 187.523 735.84 193.529 691.055C206.399 598.443 189.668 485.72 148.196 384.489C136.613 356.266 123.171 328.888 107.726 303.031C37.2247 185.575 -73.0319 104.286 -184.003 88.5693" stroke="#D1DEFF" stroke-miterlimit="10"/>
<path d="M1693.79 1330.38C1660.04 1256.36 1594.4 1207.52 1524.9 1193.49C1494.87 1187.41 1463.98 1187.58 1433.66 1193.66C1394.34 1201.6 1356.44 1218.34 1318.83 1235.91C1242.32 1271.57 1168.1 1309.6 1090.02 1294.89C1028.96 1283.4 968.47 1274.11 911.125 1249.94C866.222 1231.01 834.475 1196.7 809.878 1152.26C799.009 1132.65 789.571 1111.19 780.705 1088.37C763.258 1043.25 747.671 995.255 725.791 955.878C700.765 910.924 667.159 877.462 614.247 872.561C600.09 871.209 586.647 872.223 573.491 875.434C518.005 888.954 470.528 939.316 413.612 965.342C387.728 977.172 360.271 982.918 333.815 982.749C304.213 982.411 275.755 974.468 251.731 959.258C206.112 930.359 176.51 876.955 174.365 821.861C172.506 775.048 189.238 731.446 197.818 684.295C215.979 586.782 202.537 469.665 162.067 365.561C150.769 336.493 137.327 308.439 121.739 282.244C50.6662 162.423 -63.4518 81.9787 -178.428 70.8247" stroke="#D1DEFF" stroke-miterlimit="10"/>
<path d="M1697.94 1322.27C1662.9 1248.59 1597.69 1199.74 1527.9 1185.55C1497.87 1179.46 1466.98 1179.46 1436.52 1185.72C1397.2 1193.83 1359.3 1211.41 1321.84 1229.83C1245.47 1267.68 1171.39 1309.43 1092.74 1296.75C1031.11 1286.78 969.758 1280.02 911.126 1257.71C865.078 1240.14 832.759 1206.5 807.447 1162.23C796.293 1142.79 786.569 1121.5 777.559 1098.68C759.541 1053.56 743.524 1005.56 721.072 966.525C695.475 921.909 661.153 889.291 606.955 886.418C592.654 885.742 579.069 887.433 565.769 891.151C509.998 907.375 463.521 960.271 406.605 986.297C380.578 998.297 352.979 1003.54 326.38 1002.35C296.492 1001 267.891 991.368 243.866 974.13C198.39 941.513 170.361 882.532 170.933 823.55C171.362 773.357 190.811 727.22 202.109 677.534C225.561 574.951 215.551 453.609 175.796 346.801C164.784 316.888 151.342 288.327 135.611 261.456C63.9661 139.1 -54.1559 59.5011 -172.993 53.248" stroke="#D1DEFF" stroke-miterlimit="10"/>
<path d="M1701.94 1314.33C1665.76 1241.15 1600.69 1192.31 1530.91 1177.77C1500.88 1171.52 1469.84 1171.52 1439.24 1177.94C1399.92 1186.39 1362.02 1204.48 1324.69 1224.08C1248.47 1263.96 1174.54 1309.76 1095.17 1298.95C1032.97 1290.5 970.615 1286.1 910.982 1265.82C863.791 1249.77 830.757 1216.64 804.73 1172.7C793.433 1153.44 783.422 1132.14 773.984 1109.33C755.536 1064.38 739.091 1016.21 716.067 977.51C689.754 933.232 654.861 901.46 599.375 900.446C584.789 900.277 571.061 902.643 557.904 907.037C501.989 925.965 456.228 981.397 399.312 1007.59C373.285 1019.59 345.399 1024.32 318.514 1022.29C288.34 1019.93 259.453 1008.77 235.572 989.509C190.239 953.174 163.783 888.785 167.072 825.579C169.932 772.005 192.098 723.333 205.969 671.281C234.713 563.628 227.992 438.061 189.238 328.38C178.37 297.791 165.07 268.385 149.34 241.176C77.1225 116.454 -44.8606 37.5312 -167.845 36.1792" stroke="#D1DEFF" stroke-miterlimit="10"/>
<path d="M1706.09 1306.39C1668.62 1233.72 1603.84 1184.87 1533.91 1170.17C1503.74 1163.75 1472.71 1163.75 1442.1 1170.34C1402.78 1178.96 1364.88 1197.72 1327.7 1218.34C1251.62 1260.42 1177.83 1309.93 1097.89 1301.15C1035.11 1294.22 971.903 1292.53 910.983 1273.94C862.647 1259.4 828.898 1226.79 802.299 1183.18C790.716 1164.09 780.42 1142.79 770.838 1119.98C751.962 1075.02 734.944 1026.86 711.491 988.496C684.607 944.556 648.999 913.46 592.226 914.643C577.496 914.981 563.625 918.023 550.325 923.093C494.124 944.725 449.221 1002.52 392.305 1028.89C366.135 1040.89 338.106 1045.28 311.078 1042.24C280.761 1038.86 251.589 1026.01 227.707 1004.72C182.517 964.498 157.634 894.87 163.641 827.608C168.789 770.655 193.815 719.279 210.26 664.861C244.438 552.307 240.863 422.177 202.967 309.96C192.385 278.526 179.085 248.613 163.212 220.728C90.4225 93.4712 -35.4215 15.5621 -162.41 18.9421" stroke="#D1DEFF" stroke-miterlimit="10"/>
<path d="M1710.09 1298.27C1654.61 1194.84 1546.35 1139.41 1444.82 1162.4C1325.12 1189.44 1220.59 1313.31 1100.32 1303C1036.97 1297.6 972.904 1298.27 910.697 1281.71C839.481 1262.78 799.725 1205.15 767.406 1130.29C725.935 1034.13 693.473 922.585 584.789 928.5C506.28 932.725 455.37 1017.23 385.155 1049.84C329.669 1075.53 264.602 1063.7 219.555 1019.59C174.509 975.482 151.199 900.784 159.922 829.297C167.359 768.964 195.245 715.053 214.264 658.1C264.745 507.69 250.301 329.563 176.94 199.94C103.579 70.3171 -26.2695 -6.91599 -157.119 1.36502" stroke="#D1DEFF" stroke-miterlimit="10"/>
<path d="M1703.8 1313.15C1647.46 1217.83 1539.92 1166.28 1439.1 1187.41C1388.62 1197.89 1340.71 1224.59 1293.38 1250.28C1244.9 1276.81 1197.28 1302.5 1147.51 1310.1C1131.5 1312.47 1115.19 1313.15 1098.75 1311.12C1036.83 1303.51 974.19 1301.65 912.269 1284.41C842.054 1264.98 801.584 1209.72 768.121 1139.07C760.398 1122.85 752.962 1106.29 745.383 1089.9C723.074 1041.73 699.335 996.101 661.868 970.92C640.846 956.724 615.678 948.781 584.217 950.133C506.708 953.175 455.941 1030.58 388.014 1058.46C379.005 1062.18 369.71 1064.88 360.414 1066.57C313.938 1075.02 264.887 1059.14 228.993 1021.79C185.949 977.004 163.64 902.982 171.791 832.171C178.655 772.176 204.682 717.927 222.272 660.973C252.589 562.784 256.021 453.272 234.141 353.9C222.415 300.834 203.395 250.641 177.654 206.363C130.463 125.581 61.1056 65.7548 -16.8319 34.1518C-61.5924 16.0688 -109.213 7.44976 -156.977 9.81576" stroke="#D1DEFF" stroke-miterlimit="10"/>
<path d="M1697.36 1328.02C1640.31 1240.81 1533.34 1193.15 1433.09 1212.42C1382.75 1222.05 1335.13 1246.22 1288.37 1269.2C1240.46 1292.69 1193.7 1315.17 1144.79 1320.24C1129.06 1321.93 1113.19 1321.76 1097.03 1319.23C1036.4 1309.43 975.334 1305.2 913.842 1287.29C844.771 1267.51 803.443 1214.28 768.979 1147.86C760.97 1132.48 753.248 1117.1 745.383 1101.72C722.359 1056.77 698.334 1014.69 660.867 991.368C639.703 978.355 614.677 970.75 583.788 971.595C507.28 973.623 456.657 1043.76 391.017 1066.91C382.294 1069.95 373.428 1071.98 364.419 1073.16C319.658 1078.91 272.753 1061.5 238.575 1023.65C197.532 978.186 176.224 905.009 183.661 834.874C189.81 775.217 214.264 720.798 230.137 663.676C257.88 565.487 259.453 456.482 236.429 358.293C223.988 305.565 204.396 256.048 178.084 212.446C130.177 133.016 60.6768 74.5421 -17.4038 42.9391C-62.1642 24.856 -109.499 16.068 -157.119 18.096" stroke="#D1DEFF" stroke-miterlimit="10"/>
<path d="M1690.93 1342.89C1633.01 1263.8 1526.76 1219.86 1427.23 1237.26C1377.18 1245.88 1329.7 1267.85 1283.37 1287.79C1235.89 1308.41 1189.98 1327.34 1142.08 1330.04C1126.63 1330.89 1111.05 1330.04 1095.32 1327C1035.97 1315 976.478 1308.07 915.272 1289.65C847.202 1269.2 805.159 1218.5 769.551 1156.31C761.399 1141.95 753.248 1127.58 745.24 1113.39C721.501 1071.81 697.19 1032.94 659.723 1011.65C638.558 999.649 613.533 992.382 583.216 992.889C507.709 993.734 457.372 1056.94 393.734 1075.19C385.297 1077.56 376.717 1079.08 367.994 1079.75C324.949 1082.8 280.189 1063.87 247.584 1025.51C208.401 979.538 188.237 907.037 194.958 837.578C200.535 778.09 223.13 723.503 237.573 666.38C262.599 568.191 262.599 459.693 238.288 362.687C225.132 310.297 204.968 261.456 178.227 218.699C129.605 140.621 59.9616 83.499 -18.1189 51.896C-62.7363 33.982 -110.071 25.025 -157.548 26.377" stroke="#D1DEFF" stroke-miterlimit="10"/>
<path d="M1684.49 1357.76C1625.72 1286.61 1520.18 1246.73 1421.22 1262.28C1371.31 1269.88 1324.12 1289.48 1278.22 1306.72C1231.17 1324.3 1186.27 1339.85 1139.22 1340.18C1124.06 1340.35 1108.9 1338.83 1093.46 1335.11C1035.4 1321.09 977.479 1311.62 916.559 1292.53C849.633 1271.57 806.732 1223.24 770.122 1165.1C761.685 1151.75 753.248 1138.4 744.954 1125.22C720.5 1086.85 695.903 1051.36 658.436 1032.1C637.128 1021.11 612.245 1014.69 582.5 1014.52C507.995 1014.18 457.943 1070.29 396.451 1083.81C388.3 1085.67 380.006 1086.52 371.712 1086.52C330.383 1086.85 287.911 1066.4 256.879 1027.53C219.698 980.891 200.678 909.235 206.541 840.282C211.546 781.132 232.282 726.207 245.152 669.085C267.604 570.727 265.745 462.905 240.147 366.913C226.276 314.861 205.397 266.865 178.369 224.615C129.033 147.889 59.2464 91.9498 -18.9771 60.6848C-63.5946 42.7707 -110.643 33.6447 -157.978 34.6587" stroke="#D1DEFF" stroke-miterlimit="10"/>
<path d="M1678.2 1372.46C1618.57 1309.43 1513.75 1273.43 1415.5 1286.95C1365.88 1293.71 1318.69 1310.95 1273.36 1325.14C1226.88 1339.85 1182.83 1352.02 1136.64 1349.82C1121.77 1349.14 1106.9 1346.95 1091.88 1342.72C1035.11 1326.5 978.767 1314.5 918.276 1294.72C852.351 1273.26 808.735 1227.12 770.981 1173.38C762.258 1160.88 753.535 1148.71 744.955 1136.71C719.929 1101.56 694.76 1069.62 657.293 1052.21C635.842 1042.24 611.245 1035.99 581.929 1035.65C508.425 1034.63 458.516 1083.14 399.312 1091.92C391.447 1093.11 383.439 1093.28 375.574 1092.94C336.104 1090.74 295.634 1068.6 266.318 1029.22C230.996 981.905 213.12 910.925 218.269 842.818C222.702 784.006 241.578 728.912 253.019 671.621C272.753 573.263 269.178 465.948 242.436 371.138C227.85 319.424 206.399 272.104 178.942 230.699C128.891 155.325 58.9612 100.738 -19.4054 69.4732C-63.8798 51.7281 -110.785 42.4331 -157.977 42.7711" stroke="#D1DEFF" stroke-miterlimit="10"/>
<path d="M1671.77 1387.34C1611.28 1332.41 1507.17 1300.13 1409.64 1311.96C1360.3 1317.71 1313.25 1332.58 1268.35 1344.07C1222.3 1355.73 1179.26 1364.52 1133.93 1359.96C1119.34 1358.44 1104.9 1355.73 1090.17 1350.83C1034.68 1332.41 979.911 1317.88 919.706 1297.6C854.925 1275.63 810.451 1231.86 771.696 1182.17C762.687 1170.68 753.678 1159.52 744.954 1148.54C719.214 1116.6 693.759 1088.04 656.292 1072.66C634.841 1063.7 610.244 1057.95 581.5 1057.11C508.854 1054.91 459.231 1096.32 402.315 1100.37C394.736 1100.88 387.157 1100.54 379.435 1099.53C341.681 1094.63 303.356 1070.97 275.613 1031.08C242.293 983.088 225.419 912.952 229.852 845.521C233.713 787.047 250.873 731.615 260.598 674.324C277.758 575.966 272.181 469.158 244.438 375.532C229.137 324.156 207.114 277.512 179.228 236.783C128.605 162.761 58.5322 109.526 -19.9774 78.2608C-64.4518 60.5158 -111.214 51.0518 -158.263 50.8828" stroke="#D1DEFF" stroke-miterlimit="10"/>
<path d="M1665.33 1402.21C1604.13 1355.39 1500.45 1327 1403.63 1336.97C1354.44 1341.71 1307.68 1354.38 1263.2 1362.83C1217.58 1371.62 1175.4 1376.86 1131.07 1369.93C1116.77 1367.73 1102.61 1364.18 1088.31 1358.77C1034.11 1338.33 980.769 1321.09 921.136 1300.13C857.356 1277.82 812.166 1236.08 772.268 1190.79C762.973 1180.14 753.678 1170.17 744.668 1160.37C718.212 1131.81 692.329 1106.63 655.004 1093.11C633.411 1085.33 608.957 1079.92 580.785 1078.57C509.14 1075.36 459.803 1109.67 405.032 1108.82C397.739 1108.65 390.446 1107.81 383.152 1106.29C347.115 1098.68 311.078 1073.5 284.908 1033.11C253.59 984.439 237.717 915.149 241.435 848.225C244.724 789.92 259.883 734.319 268.32 676.859C282.62 578.501 275.47 472.2 246.44 379.757C230.424 328.719 207.829 282.92 179.514 242.867C128.175 170.197 57.9599 118.314 -20.6926 87.2175C-65.0241 69.6415 -111.643 60.0085 -158.549 59.3325" stroke="#D1DEFF" stroke-miterlimit="10"/>
<path d="M1658.9 1417.08C1596.83 1378.38 1493.87 1354.04 1397.77 1361.82C1348.86 1365.87 1302.24 1375.84 1258.2 1381.59C1213.15 1387.34 1171.82 1389.2 1128.35 1379.9C1114.34 1376.86 1100.61 1372.63 1086.59 1366.72C1033.82 1344.07 981.913 1324.47 922.566 1302.84C859.787 1280.02 813.739 1240.64 772.84 1199.41C763.259 1189.77 753.677 1180.82 744.382 1172.03C717.354 1146.68 691.042 1125.05 653.717 1113.39C631.981 1106.63 607.67 1101.73 580.07 1100.04C509.426 1095.81 460.232 1122.85 407.749 1117.27C400.742 1116.6 393.735 1115.08 386.871 1113.05C352.549 1102.74 318.657 1076.04 294.204 1035.14C264.745 985.792 250.015 917.178 253.161 851.099C255.878 793.132 269.178 737.361 276.042 679.732C287.768 581.374 278.759 475.58 248.585 384.32C231.854 333.62 208.544 288.497 179.943 249.289C127.889 177.971 57.5309 127.44 -21.1217 96.3437C-65.3101 78.7677 -111.929 69.1347 -158.549 67.7827" stroke="#D1DEFF" stroke-miterlimit="10"/>
<path d="M1652.6 1431.95C1589.68 1401.36 1487.43 1380.91 1391.91 1386.83C1343.14 1389.87 1296.81 1397.64 1253.19 1400.35C1208.58 1403.22 1168.25 1401.7 1125.63 1389.87C1112.05 1386.15 1098.46 1381.25 1084.88 1374.66C1033.39 1349.82 983.057 1327.68 924.139 1305.54C862.504 1282.22 815.598 1245.21 773.698 1208.2C763.831 1199.58 753.963 1191.63 744.382 1183.86C716.639 1161.72 689.897 1143.47 652.716 1133.84C630.836 1128.09 606.812 1123.53 579.641 1121.5C509.997 1116.09 460.947 1136.03 410.752 1125.72C404.031 1124.37 397.31 1122.17 390.875 1119.64C358.269 1106.63 326.522 1078.4 303.785 1037C276.328 987.143 262.599 919.205 265.03 853.633C267.033 796.004 278.759 739.896 283.907 682.267C292.916 583.909 282.191 478.622 250.73 388.545C233.283 338.183 209.402 293.736 180.372 255.204C127.603 185.238 57.1016 136.059 -21.6939 104.963C-65.8824 87.5556 -112.216 77.5845 -158.835 75.8945" stroke="#D1DEFF" stroke-miterlimit="10"/>
<path d="M1646.17 1446.82C1582.39 1424.18 1480.86 1407.78 1386.04 1411.84C1337.57 1413.87 1291.37 1419.28 1248.19 1419.28C1204 1419.28 1164.67 1414.21 1122.92 1400.01C1109.62 1395.45 1096.46 1389.87 1083.16 1382.77C1032.97 1355.73 984.201 1331.23 925.569 1308.24C864.935 1284.58 817.171 1249.6 774.27 1216.98C764.117 1209.21 753.963 1202.45 744.239 1195.86C715.924 1176.93 688.61 1162.23 651.572 1154.45C629.549 1149.89 605.667 1145.67 579.069 1143.13C510.426 1136.71 461.519 1149.21 413.612 1134.34C407.177 1132.31 400.885 1129.61 394.593 1126.57C363.704 1111.02 334.245 1081.11 312.937 1039.2C287.339 988.664 274.755 921.571 276.471 856.675C277.901 799.384 287.768 743.107 291.486 685.309C297.921 586.951 285.194 482.171 252.732 393.276C234.427 343.421 210.117 299.481 180.515 261.794C127.031 193.18 56.3867 145.353 -22.5519 114.257C-66.5973 96.8502 -112.788 86.8792 -159.264 84.5132" stroke="#D1DEFF" stroke-miterlimit="10"/>
<path d="M1639.73 1461.53C1575.1 1446.99 1474.28 1434.32 1380.04 1436.51C1331.7 1437.7 1285.8 1440.74 1243.18 1437.7C1199.57 1434.66 1161.1 1426.21 1120.2 1409.64C1107.18 1404.24 1094.31 1397.98 1081.44 1390.38C1032.54 1361.14 985.345 1334.1 926.999 1310.61C867.366 1286.44 818.744 1253.82 774.985 1225.26C764.545 1218.5 754.249 1212.59 744.096 1207.18C715.066 1191.46 687.466 1180.31 650.428 1174.39C628.262 1170.85 604.523 1167.13 578.353 1164.25C510.712 1156.65 462.091 1162.06 416.329 1142.45C410.18 1139.75 404.174 1136.54 398.311 1132.82C369.138 1114.57 341.824 1083.13 322.232 1040.72C298.636 989.509 287.053 923.092 288.054 859.041C288.912 801.919 296.92 745.473 299.065 687.675C302.784 589.147 288.34 485.043 254.734 397.332C235.714 347.815 210.688 304.72 180.8 267.54C126.602 200.278 55.8144 153.803 -23.1242 122.876C-67.1696 105.638 -113.217 95.329 -159.408 92.625" stroke="#D1DEFF" stroke-miterlimit="10"/>
<path d="M1633.3 1476.4C1567.95 1469.98 1467.7 1461.19 1374.17 1461.53C1326.12 1461.7 1280.36 1462.54 1238.18 1456.46C1194.99 1450.54 1157.38 1438.71 1117.48 1419.61C1104.75 1413.53 1092.17 1406.6 1079.73 1398.32C1032.11 1366.89 986.489 1337.48 928.572 1313.14C870.083 1288.64 820.603 1258.22 775.7 1233.88C764.974 1228.14 754.392 1223.24 743.953 1219.01C714.351 1206.51 686.179 1198.9 649.284 1195.01C627.118 1192.65 603.379 1189.27 577.781 1185.89C511.141 1177.27 462.663 1175.41 419.189 1151.07C413.326 1147.69 407.606 1143.97 402.172 1139.75C374.715 1118.79 349.689 1085.84 331.67 1042.91C310.077 991.03 299.494 925.458 299.78 861.914C300.066 805.13 306.216 748.515 306.931 690.548C308.075 592.021 291.629 488.424 256.879 401.895C237.144 352.716 211.546 310.297 181.229 273.962C126.316 207.883 55.3854 162.929 -23.6962 132.002C-67.5986 114.764 -113.503 104.455 -159.694 101.075" stroke="#D1DEFF" stroke-miterlimit="10"/>
<path d="M1627.01 1491.27C1560.8 1492.96 1461.27 1487.89 1368.46 1486.54C1320.69 1485.69 1275.07 1484.17 1233.32 1475.38C1190.56 1466.43 1153.95 1451.22 1114.91 1429.75C1102.47 1422.83 1090.31 1415.22 1078.3 1406.43C1031.97 1372.8 987.92 1340.86 930.289 1316.02C872.801 1291.17 822.463 1262.95 776.702 1242.67C765.691 1237.77 754.822 1234.05 744.24 1230.84C714.066 1221.55 685.322 1217.49 648.57 1215.46C626.261 1214.11 602.665 1211.07 577.639 1207.35C512 1197.55 463.665 1188.59 422.479 1159.35C416.902 1155.47 411.468 1150.9 406.32 1146.17C380.579 1122.51 357.698 1088.04 341.253 1044.6C321.518 992.044 312.08 927.317 311.651 864.449C311.222 808.003 315.798 751.05 314.797 693.083C313.224 594.556 295.062 491.466 259.168 406.121C238.718 357.28 212.549 315.537 181.803 279.878C126.174 215.151 55.1006 171.549 -24.124 140.622C-68.0264 123.553 -113.645 112.906 -159.692 109.019" stroke="#D1DEFF" stroke-miterlimit="10"/>
<path d="M1620.57 1506.14C1553.5 1515.94 1454.54 1514.76 1362.45 1511.38C1314.83 1509.69 1269.5 1505.8 1228.17 1493.97C1185.98 1482.14 1150.23 1463.55 1112.05 1439.56C1099.89 1431.95 1088.02 1423.5 1076.44 1414.21C1031.54 1378.38 988.921 1344.07 931.719 1318.38C875.232 1293.03 824.036 1267.18 777.274 1251.12C765.976 1247.23 754.822 1244.53 743.954 1242.33C713.065 1236.25 684.035 1234.56 647.283 1235.57C624.831 1236.08 601.521 1232.7 576.924 1228.48C512.286 1217.66 464.237 1201.27 425.196 1167.47C419.905 1162.9 414.9 1157.83 410.038 1152.59C386.013 1126.23 365.278 1090.23 350.548 1046.29C332.815 993.058 324.378 929.007 323.234 866.984C322.233 810.876 324.95 753.585 322.519 695.618C318.372 597.091 298.208 494.508 261.313 410.177C240.005 361.674 213.406 320.776 182.231 285.792C125.888 222.417 54.6714 180.167 -24.5532 149.409C-68.3126 132.34 -113.931 121.693 -159.693 117.299" stroke="#D1DEFF" stroke-miterlimit="10"/>
<path d="M1614.14 1521.01C1546.21 1538.93 1447.97 1541.29 1356.59 1536.39C1309.25 1533.52 1263.92 1527.44 1223.16 1512.9C1181.4 1498.03 1146.65 1476.06 1109.33 1449.7C1097.46 1441.25 1086.02 1432.29 1074.72 1422.32C1031.11 1384.12 989.922 1347.62 933.149 1321.26C877.806 1295.57 825.609 1272.08 777.846 1259.91C766.262 1257.04 754.822 1255.35 743.668 1254.33C712.206 1251.46 682.605 1254.67 645.852 1256.19C623.258 1257.2 600.091 1254.67 576.066 1250.28C512.429 1238.28 464.523 1214.79 427.77 1176.25C422.765 1171.01 418.046 1165.44 413.613 1159.69C391.304 1130.79 372.856 1093.11 359.7 1048.66C343.826 994.748 336.533 931.542 334.817 870.026C333.101 814.087 334.245 756.796 330.098 698.49C323.52 599.963 301.354 497.887 263.172 414.739C241.149 366.574 213.835 326.352 182.374 292.214C125.315 230.191 54.0992 189.124 -25.4114 158.535C-69.1708 141.635 -114.503 130.65 -160.265 125.749" stroke="#D1DEFF" stroke-miterlimit="10"/>
<path d="M1607.84 1535.89C1539.06 1561.91 1441.53 1568.17 1350.72 1561.24C1303.53 1557.52 1258.48 1549.07 1218.16 1531.49C1176.83 1513.75 1142.94 1488.4 1106.61 1459.33C1095.03 1450.2 1083.88 1440.4 1073.01 1429.92C1030.68 1389.53 991.065 1350.66 934.579 1323.45C880.237 1297.43 827.182 1276.13 778.561 1268.19C766.691 1266.33 754.965 1265.82 743.524 1265.66C711.491 1265.15 681.317 1272.75 644.708 1276.13C621.97 1278.16 598.947 1276.13 575.494 1271.23C512.858 1258.05 465.237 1227.29 430.63 1184.2C425.911 1178.28 421.478 1172.03 417.331 1165.78C396.881 1134.17 380.436 1094.97 368.852 1050.01C354.981 995.593 348.689 933.063 346.258 872.223C343.97 816.622 343.254 758.993 337.677 700.688C328.382 602.161 304.357 500.592 265.174 418.627C242.436 370.969 214.55 331.254 182.66 297.792C125.029 237.12 53.527 197.405 -26.1265 166.816C-69.743 150.085 -114.933 138.931 -160.551 133.523" stroke="#D1DEFF" stroke-miterlimit="10"/>
<path d="M1601.41 1550.76C1531.91 1584.73 1434.95 1595.04 1344.86 1586.25C1297.95 1581.52 1253.05 1570.7 1213.15 1550.42C1172.4 1529.63 1139.36 1500.9 1103.9 1469.47C1092.6 1459.5 1081.87 1449.02 1071.29 1438.04C1030.25 1395.45 992.209 1354.04 936.152 1326.33C882.811 1299.79 828.898 1281.04 779.275 1276.98C767.12 1275.97 755.108 1276.47 743.524 1277.66C710.776 1281.04 680.316 1291.51 643.707 1296.75C620.826 1299.96 597.946 1298.27 575.065 1292.87C513.43 1278.5 465.952 1240.64 433.633 1192.82C429.2 1186.23 425.053 1179.47 421.335 1172.71C402.601 1138.4 388.301 1097.67 378.434 1052.21C366.564 997.115 361.273 935.261 358.127 875.266C355.267 820.003 352.693 762.205 345.542 703.731C333.673 605.204 307.646 504.31 267.462 423.359C243.866 376.039 215.551 337 183.089 304.383C124.743 245.064 53.0979 206.701 -26.5557 176.112C-70.1721 159.381 -115.219 148.058 -160.551 142.143" stroke="#D1DEFF" stroke-miterlimit="10"/>
<path d="M1594.97 1565.46C1524.62 1607.54 1428.37 1621.57 1339 1611.09C1292.38 1605.35 1247.62 1592.33 1208.15 1569.01C1167.82 1545.35 1135.64 1513.24 1101.18 1479.27C1090.17 1468.62 1079.87 1457.3 1069.57 1445.81C1029.96 1400.86 993.353 1357.25 937.582 1328.69C885.242 1301.82 830.614 1284.58 779.99 1285.43C767.549 1285.6 755.251 1286.78 743.381 1289.15C710.061 1295.74 679.029 1309.93 642.563 1316.86C619.682 1321.26 596.944 1319.74 574.493 1313.99C513.859 1298.61 466.667 1253.32 436.493 1200.93C432.346 1193.83 428.628 1186.39 425.196 1178.96C408.178 1141.95 396.166 1099.7 387.872 1053.73C377.861 997.959 373.714 936.95 369.853 877.462C366.278 822.537 362.131 764.401 353.264 705.927C338.678 607.4 310.792 507.014 269.464 427.246C245.153 380.264 216.123 342.07 183.375 309.96C124.314 251.993 52.5256 214.982 -27.271 184.562C-70.7444 168 -115.648 156.508 -160.98 149.917" stroke="#D1DEFF" stroke-miterlimit="10"/>
<path d="M1588.54 1580.33C1517.32 1630.53 1421.8 1648.44 1332.99 1635.94C1286.51 1629.34 1242.04 1613.8 1203 1587.77C1163.1 1561.07 1131.92 1525.58 1098.32 1489.24C1087.74 1477.75 1077.58 1465.92 1067.72 1453.75C1029.39 1406.6 994.211 1360.63 939.012 1331.4C887.673 1304.19 832.187 1289.99 780.562 1294.22C767.835 1295.23 755.394 1297.6 743.095 1301.15C709.06 1310.78 677.742 1328.69 641.276 1337.48C618.252 1343.06 595.657 1341.88 573.778 1335.79C514.145 1319.23 467.239 1266.84 439.21 1209.72C435.349 1201.94 431.917 1194 428.914 1186.06C413.612 1146.34 403.745 1102.57 397.167 1056.1C389.159 999.65 385.87 939.486 381.436 880.673C377.146 825.917 371.283 767.612 360.987 709.138C343.826 610.611 313.938 510.901 271.609 432.147C246.44 385.672 216.981 347.985 183.804 316.72C124.028 260.105 52.0966 224.446 -27.843 194.026C-71.1734 177.464 -115.934 165.972 -161.123 158.874" stroke="#D1DEFF" stroke-miterlimit="10"/>
<path d="M1582.25 1595.21C1510.17 1653.51 1415.36 1675.31 1327.27 1660.95C1281.08 1653.34 1236.75 1635.6 1198.14 1606.53C1158.81 1576.95 1128.49 1538.08 1095.74 1499.21C1085.45 1487.05 1075.72 1474.37 1066.14 1461.7C1029.25 1412.35 995.498 1364.18 940.584 1334.1C890.247 1306.72 834.046 1294.72 781.42 1302.84C768.407 1304.86 755.679 1308.24 743.238 1312.81C708.631 1325.48 676.741 1347.28 640.418 1357.76C617.251 1364.52 594.799 1363.51 573.491 1357.08C514.859 1339.17 468.24 1279.68 442.356 1218C438.781 1209.55 435.635 1200.93 432.918 1192.48C419.332 1150.23 411.61 1104.77 406.605 1057.79C400.456 1000.66 398.311 941.176 393.162 883.209C388.3 828.79 380.578 770.316 368.709 711.673C348.831 612.977 317.084 513.943 273.754 436.372C247.87 390.235 217.839 353.224 184.233 322.635C123.742 267.372 51.6675 233.065 -28.2721 202.645C-71.6025 186.252 -116.22 174.422 -161.123 166.817" stroke="#D1DEFF" stroke-miterlimit="10"/>
<path d="M1575.81 1610.08C1464.55 1711.31 1303.53 1717.9 1193.13 1625.29C1154.23 1592.67 1124.92 1550.42 1093.03 1509.18C1043.98 1445.64 1010.66 1375.34 942.157 1336.64C880.665 1301.82 807.018 1295.57 743.095 1324.47C707.773 1340.35 675.597 1365.7 639.273 1378.04C542.745 1410.66 462.52 1297.09 436.779 1199.24C410.466 1099.53 415.614 990.692 404.889 886.081C390.159 741.248 346.972 562.784 275.899 440.766C201.107 312.495 95.7128 258.753 -28.8443 211.771C-72.0317 195.378 -116.506 183.548 -161.41 175.436" stroke="#D1DEFF" stroke-miterlimit="10"/>
</g>
</svg>
