<svg width="1440" height="2187" viewBox="0 0 1440 2187" fill="none" xmlns="http://www.w3.org/2000/svg">
<g opacity="0.1">
<path opacity="0.54" d="M-162.88 1323.23C-166.315 1243.92 -109.559 1178.98 -52.5548 1172.06C4.46416 1165.11 59.4921 1200.97 108.825 1241.33C158.173 1281.66 206.484 1328.16 262.219 1346.25C377.579 1383.66 492.407 1292.29 590.848 1200.97C689.289 1109.65 797.867 1010.15 915.509 1029.61C1007.74 1044.9 1084.79 1130.99 1170.64 1180.24C1320.5 1266.24 1502.88 1231.39 1630.28 1092.32" stroke="white" stroke-width="1.56225" stroke-miterlimit="10"/>
<path opacity="0.54" d="M-165.464 1344.37C-168.944 1265.15 -112.671 1200.02 -55.8418 1192.28C-50.7647 1191.57 -45.6879 1191.25 -40.6333 1191.18C10.836 1190.81 60.5627 1222.9 105.643 1258.82C114.348 1265.76 123.024 1272.88 131.7 1280.01C172.43 1313.49 213.483 1347.09 259.419 1361.64C274.301 1366.37 289.2 1368.95 304.041 1369.68C404.162 1374.65 501.966 1294.81 587.148 1214.46C593.335 1208.61 599.558 1202.75 605.817 1196.87C698.49 1109.94 799.125 1024.1 908.282 1036.44C939.501 1039.97 969.492 1050.35 998.908 1066.8C1033.64 1086.21 1066.87 1113.48 1099.7 1139.75C1122.11 1157.68 1144.46 1175.21 1167.61 1190.03C1178.49 1197 1189.58 1203.33 1200.88 1208.97C1272.81 1244.9 1352.72 1252.32 1428.8 1233.31C1505.06 1214.24 1577.58 1169.17 1638.04 1101.94" stroke="white" stroke-width="1.56225" stroke-miterlimit="10"/>
<path opacity="0.54" d="M-168.05 1365.51C-171.58 1286.33 -115.806 1221.05 -59.1518 1212.49C-54.082 1211.72 -49.0198 1211.31 -43.9725 1211.19C7.37277 1210.08 57.1954 1241.24 102.481 1276.35C111.223 1283.14 119.914 1290.1 128.627 1297.08C169.504 1329.86 210.703 1362.89 256.625 1377.07C271.507 1381.67 286.398 1384.21 301.247 1384.85C401.406 1389.28 498.865 1309.17 583.476 1228.03C589.619 1222.14 595.813 1216.2 602.007 1210.27C693.94 1122.43 793.037 1036.74 901.113 1043.41C932.692 1045.34 963.44 1053.02 993.867 1068.96C1029.83 1087.79 1063.91 1116.86 1096.81 1145.14C1119.27 1164.44 1141.47 1183.54 1164.58 1199.88C1175.47 1207.56 1186.55 1214.58 1197.94 1220.88C1270.43 1260.99 1353.28 1269.77 1431.54 1249.65C1509.98 1229.51 1584.02 1181.46 1645.8 1111.52" stroke="white" stroke-width="1.56225" stroke-miterlimit="10"/>
<path opacity="0.54" d="M-170.658 1386.63C-174.232 1307.54 -118.963 1242.06 -62.477 1232.72C-57.4365 1231.89 -52.3889 1231.37 -47.3488 1231.2C3.90903 1229.35 53.8055 1259.56 99.282 1293.87C108.039 1300.5 116.803 1307.31 125.531 1314.13C166.555 1346.21 207.879 1378.65 253.808 1392.49C268.676 1396.99 283.553 1399.42 298.394 1400.01C398.553 1403.91 495.69 1323.55 579.745 1241.58C585.858 1235.62 591.986 1229.62 598.136 1223.65C689.345 1134.87 786.969 1049.27 893.877 1050.31C925.853 1050.63 957.305 1055.66 988.766 1071.1C1025.97 1089.32 1060.89 1120.23 1093.86 1150.56C1116.38 1171.23 1138.38 1191.92 1161.48 1209.74C1172.34 1218.15 1183.47 1225.87 1194.93 1232.81C1267.98 1277.1 1353.75 1287.27 1434.2 1266.04C1514.82 1244.8 1590.38 1193.79 1653.48 1121.16" stroke="white" stroke-width="1.56225" stroke-miterlimit="10"/>
<path opacity="0.54" d="M-173.256 1407.8C-176.86 1328.77 -122.088 1263.14 -65.7998 1252.95C-60.7519 1252.04 -55.7483 1251.48 -50.7228 1251.21C0.425666 1248.6 50.4033 1277.92 96.0708 1311.43C104.879 1317.89 113.643 1324.57 122.43 1331.27C163.601 1362.64 205.086 1394.49 251.009 1408.01C265.877 1412.37 280.746 1414.75 295.572 1415.24C395.754 1418.64 492.54 1337.95 576.068 1255.23C582.137 1249.22 588.236 1243.15 594.335 1237.09C684.804 1147.41 781.037 1061.66 886.696 1057.31C919.061 1055.96 951.262 1058.38 983.719 1073.34C1022.2 1090.97 1057.92 1123.69 1090.97 1156.03C1113.52 1178.1 1135.38 1200.33 1158.48 1219.69C1169.32 1228.78 1180.49 1237.21 1192.03 1244.84C1265.63 1293.34 1354.35 1304.83 1436.97 1282.54C1519.75 1260.23 1596.85 1206.23 1661.28 1130.91" stroke="white" stroke-width="1.56225" stroke-miterlimit="10"/>
<path opacity="0.54" d="M-175.842 1428.95C-179.512 1349.98 -125.209 1284.13 -69.1103 1273.16C-64.0917 1272.17 -59.0807 1271.53 -54.0625 1271.21C-3.02344 1267.83 47.0353 1296.26 92.9084 1328.96C101.754 1335.27 110.555 1341.81 119.356 1348.34C160.674 1379.02 202.306 1410.29 248.214 1423.45C263.067 1427.71 277.922 1429.99 292.778 1430.42C392.996 1433.27 489.423 1352.34 572.395 1268.79C578.435 1262.72 584.453 1256.62 590.523 1250.48C680.253 1159.89 775.145 1073.83 879.518 1064.23C912.331 1061.22 945.186 1061.03 978.669 1075.44C1018.38 1092.5 1054.95 1127.02 1088.1 1161.39C1110.71 1184.85 1132.43 1208.65 1155.47 1229.51C1166.32 1239.31 1177.47 1248.42 1189.11 1256.72C1263.27 1309.4 1354.91 1322.28 1439.71 1298.89C1524.66 1275.45 1603.3 1218.52 1669.05 1140.5" stroke="white" stroke-width="1.56225" stroke-miterlimit="10"/>
<path opacity="0.54" d="M-178.426 1450.09C-182.125 1371.19 -128.342 1305.16 -72.3972 1293.38C-67.4078 1292.33 -62.3894 1291.6 -57.4005 1291.21C-6.46353 1287.12 43.6838 1314.57 89.7112 1346.49C98.5931 1352.66 107.423 1359 116.261 1365.4C157.711 1395.4 199.484 1426.05 245.399 1438.86C260.252 1442.99 275.114 1445.19 289.941 1445.55C390.182 1447.9 486.28 1366.66 568.68 1282.32C574.677 1276.2 580.666 1270.03 586.669 1263.83C675.66 1172.34 769.285 1085.8 872.284 1071.14C905.538 1066.43 939.069 1063.64 973.57 1077.59C1014.52 1094.04 1051.93 1130.38 1085.15 1166.8C1107.8 1191.62 1129.36 1217 1152.37 1239.37C1163.19 1249.9 1174.38 1259.71 1186.12 1268.67C1260.84 1325.53 1355.42 1339.77 1442.39 1315.3C1529.5 1290.79 1609.68 1230.87 1676.76 1150.17" stroke="white" stroke-width="1.56225" stroke-miterlimit="10"/>
<path opacity="0.54" d="M-181.033 1471.21C-184.798 1392.38 -131.477 1326.19 -75.7433 1313.59C-70.7613 1312.49 -65.7721 1311.7 -60.7758 1311.22C-9.94821 1306.37 40.2802 1332.93 86.5133 1364.02C95.4099 1370.02 104.299 1376.25 113.152 1382.48C154.771 1411.8 196.682 1441.83 242.569 1454.31C257.408 1458.34 272.277 1460.45 287.089 1460.71C387.352 1462.55 483.106 1381.03 564.95 1295.87C570.895 1289.66 576.84 1283.45 582.8 1277.21C671.052 1184.81 763.417 1097.59 865.05 1078.05C898.773 1071.56 932.936 1066.28 968.485 1079.7C1010.68 1095.54 1048.93 1133.72 1082.22 1172.15C1104.94 1198.35 1126.32 1225.29 1149.32 1249.19C1160.15 1260.43 1171.33 1270.94 1183.16 1280.55C1258.43 1341.63 1355.94 1357.23 1445.1 1331.65C1534.4 1306.04 1616.09 1243.17 1684.47 1159.75" stroke="white" stroke-width="1.56225" stroke-miterlimit="10"/>
<path opacity="0.54" d="M-183.631 1492.38C-187.44 1413.64 -134.624 1347.25 -79.0439 1333.85C-74.0764 1332.64 -69.0945 1331.8 -64.1274 1331.25C-13.3873 1325.66 36.8931 1351.25 83.3391 1381.57C92.2871 1387.4 101.191 1393.46 110.08 1399.55C151.846 1428.17 193.905 1457.64 239.777 1469.74C254.623 1473.69 269.456 1475.69 284.283 1475.91C384.561 1477.19 479.992 1395.42 561.266 1309.46C567.167 1303.21 573.083 1296.93 578.991 1290.6C666.482 1197.27 757.632 1109.28 857.861 1084.99C892.069 1076.71 926.885 1068.95 963.409 1081.86C1006.84 1097.13 1045.93 1137.11 1079.3 1177.56C1102.07 1205.12 1123.28 1233.66 1146.25 1259.08C1157.06 1271.01 1168.27 1282.25 1180.17 1292.5C1256 1357.76 1356.43 1374.69 1447.77 1348.07C1539.24 1321.38 1622.48 1255.49 1692.18 1169.42" stroke="white" stroke-width="1.56225" stroke-miterlimit="10"/>
<path opacity="0.54" d="M-186.219 1513.52C-190.079 1434.82 -137.739 1368.3 -82.3565 1354.06C-77.3963 1352.8 -72.429 1351.85 -67.4912 1351.23C-16.8752 1344.91 33.501 1369.57 80.138 1399.1C89.1227 1404.79 98.0633 1410.71 106.989 1416.66C148.902 1444.58 191.086 1473.45 236.965 1485.22C251.812 1489.03 266.637 1490.98 281.449 1491.1C381.75 1491.87 476.837 1409.83 557.576 1323.06C563.434 1316.77 569.298 1310.4 575.163 1304.03C661.914 1209.79 751.856 1120.81 850.652 1091.98C885.337 1081.85 920.792 1071.64 958.349 1084.05C1003.03 1098.71 1042.97 1140.49 1076.42 1183C1099.24 1211.98 1120.29 1242.05 1143.25 1269C1154.03 1281.65 1165.28 1293.59 1177.28 1304.5C1253.66 1373.97 1357.02 1392.27 1450.55 1364.54C1544.19 1336.78 1628.98 1267.93 1699.99 1179.14" stroke="white" stroke-width="1.56225" stroke-miterlimit="10"/>
<path opacity="0.54" d="M-188.802 1534.66C-192.707 1456.05 -140.858 1389.29 -85.6796 1374.29C-80.7487 1372.96 -75.8106 1371.94 -70.8435 1371.26C-20.3148 1364.2 30.1353 1387.91 76.9633 1416.65C85.9627 1422.18 94.9401 1427.95 103.903 1433.76C145.948 1461.01 188.308 1489.25 234.158 1500.68C248.99 1504.39 263.801 1506.24 278.62 1506.28C378.943 1506.54 473.686 1424.22 553.87 1336.63C559.698 1330.27 565.518 1323.86 571.317 1317.43C657.329 1222.28 746.077 1132.15 843.441 1098.9C878.618 1086.89 914.682 1074.29 953.273 1086.21C999.195 1100.26 1039.97 1143.88 1073.49 1188.43C1096.37 1218.79 1117.24 1250.41 1140.18 1278.88C1150.96 1292.24 1162.2 1304.88 1174.3 1316.45C1251.23 1390.1 1357.53 1409.75 1453.25 1380.92C1549.07 1352.06 1635.38 1280.25 1707.71 1188.77" stroke="white" stroke-width="1.56225" stroke-miterlimit="10"/>
<path opacity="0.54" d="M-191.409 1555.78C-195.365 1477.21 -144.014 1410.3 -88.9889 1394.49C-84.0726 1393.06 -79.1418 1391.99 -74.2039 1391.24C-23.7847 1383.41 26.7466 1406.24 73.7436 1434.16C82.7798 1439.55 91.8085 1445.15 100.786 1450.79C142.978 1477.34 185.485 1505.01 231.343 1516.1C246.175 1519.68 260.978 1521.47 275.805 1521.43C376.165 1521.16 470.542 1438.54 550.176 1350.18C555.96 1343.77 561.73 1337.27 567.499 1330.77C652.772 1234.72 740.29 1143.31 836.242 1105.8C871.905 1091.86 908.601 1076.89 948.202 1088.3C995.355 1101.77 1036.98 1147.19 1070.58 1193.75C1093.5 1225.47 1114.22 1258.67 1137.12 1288.65C1147.88 1302.74 1159.16 1316.07 1171.35 1328.31C1248.85 1406.13 1358.09 1427.15 1455.97 1397.24C1553.96 1367.31 1641.8 1292.51 1715.46 1198.34" stroke="white" stroke-width="1.56225" stroke-miterlimit="10"/>
<path opacity="0.54" d="M-194.008 1576.95C-198.008 1498.48 -147.141 1431.38 -92.3129 1414.73C-87.4038 1413.24 -82.4876 1412.07 -77.5424 1411.24C-27.2325 1402.65 23.3945 1424.55 70.5824 1451.68C79.67 1456.89 88.6988 1462.36 97.713 1467.86C140.052 1493.71 182.684 1520.8 228.549 1531.53C243.366 1535.01 258.192 1536.69 272.99 1536.58C373.372 1535.8 467.405 1452.91 546.483 1363.72C552.238 1357.25 557.963 1350.7 563.667 1344.14C648.215 1247.15 734.482 1154.32 829.045 1112.69C865.206 1096.79 902.526 1079.54 943.139 1090.43C991.538 1103.3 1034 1150.54 1067.7 1199.14C1090.69 1232.25 1111.23 1267.05 1134.12 1298.52C1144.89 1313.32 1156.17 1327.36 1168.43 1340.24C1246.48 1422.27 1358.65 1444.65 1458.72 1413.64C1558.89 1382.6 1648.26 1304.85 1723.22 1207.97" stroke="white" stroke-width="1.56225" stroke-miterlimit="10"/>
<path opacity="0.54" d="M-196.595 1598.1C-200.646 1519.66 -150.276 1452.41 -95.602 1434.95C-90.7222 1433.4 -85.8133 1432.18 -80.8826 1431.24C-30.6748 1421.94 20.0261 1442.9 67.4051 1469.23C76.5294 1474.3 85.5876 1479.58 94.6238 1484.97C137.11 1510.11 179.903 1536.6 225.74 1547C240.542 1550.38 255.353 1551.96 270.158 1551.77C370.541 1550.46 464.266 1467.28 542.774 1377.3C548.462 1370.76 554.159 1364.15 559.818 1357.54C643.627 1259.65 728.628 1165.29 821.838 1119.68C858.47 1101.74 896.436 1082.23 938.082 1092.62C987.726 1104.88 1031.02 1153.96 1064.78 1204.6C1087.8 1239.1 1108.21 1275.45 1131.06 1308.43C1141.82 1323.92 1153.12 1338.64 1165.47 1352.21C1244.07 1438.43 1359.18 1462.16 1461.42 1430.08C1563.76 1397.96 1654.66 1317.23 1730.95 1217.65" stroke="white" stroke-width="1.56225" stroke-miterlimit="10"/>
<path opacity="0.54" d="M-199.2 1619.21C-203.295 1540.87 -153.431 1473.41 -98.9464 1455.16C-94.0958 1453.54 -89.1796 1452.24 -84.2782 1451.23C-34.1798 1441.16 16.617 1461.19 64.1869 1486.74C73.326 1491.65 82.4429 1496.8 91.5305 1502.02C134.171 1526.51 177.104 1552.38 222.926 1562.42C237.728 1565.66 252.532 1567.19 267.33 1566.95C367.735 1565.13 461.116 1481.67 539.089 1390.89C544.749 1384.28 550.401 1377.62 555.995 1370.96C639.064 1272.16 722.799 1176.14 814.649 1126.62C851.765 1106.62 890.348 1084.9 933.006 1094.78C983.881 1106.46 1028 1157.32 1061.87 1210C1084.95 1245.88 1105.18 1283.78 1128.03 1318.3C1138.75 1334.51 1150.1 1349.94 1162.54 1364.17C1241.7 1454.56 1359.74 1479.68 1464.16 1446.5C1568.68 1413.28 1661.1 1329.59 1738.72 1227.33" stroke="white" stroke-width="1.56225" stroke-miterlimit="10"/>
<path opacity="0.54" d="M-201.785 1640.35C-205.931 1562.05 -156.543 1494.46 -102.256 1475.37C-97.3979 1473.66 -92.5108 1472.29 -87.6167 1471.23C-37.6057 1460.42 13.2502 1479.54 61.0038 1504.24C70.1796 1509.01 79.3112 1514 88.4355 1519.07C131.223 1542.87 174.281 1568.14 220.11 1577.83C234.898 1580.98 249.687 1582.4 264.493 1582.08C364.934 1579.72 457.971 1495.99 535.374 1404.41C540.989 1397.77 546.576 1391.05 552.155 1384.28C634.485 1284.57 716.895 1186.75 807.429 1133.5C844.986 1111.4 884.245 1087.48 927.935 1096.86C980.056 1107.94 1025.01 1160.63 1058.96 1215.32C1082.08 1252.56 1102.16 1292.04 1124.97 1328.07C1135.7 1344.99 1147.04 1361.11 1159.57 1376C1239.28 1470.61 1360.27 1497.06 1466.85 1462.8C1573.55 1428.51 1667.5 1341.84 1746.45 1236.88" stroke="white" stroke-width="1.56225" stroke-miterlimit="10"/>
<path opacity="0.54" d="M-204.386 1661.52C-208.576 1583.31 -159.678 1515.49 -105.559 1495.62C-100.73 1493.84 -95.8727 1492.4 -90.9712 1491.26C-41.0696 1479.69 9.86739 1497.91 57.812 1521.82C67.0391 1526.42 76.2075 1531.27 85.3466 1536.18C128.281 1559.27 171.5 1583.95 217.301 1593.3C232.089 1596.31 246.871 1597.69 261.661 1597.26C362.125 1594.4 454.818 1510.39 531.664 1417.99C537.251 1411.27 542.793 1404.51 548.306 1397.68C629.897 1297.07 710.96 1197.42 800.215 1140.43C838.206 1116.17 878.154 1090.16 922.856 1099.03C976.223 1109.49 1022.01 1164.02 1056.06 1220.74C1079.25 1259.37 1099.13 1300.43 1121.93 1337.95C1132.63 1355.59 1144.01 1372.41 1156.62 1387.94C1236.89 1486.73 1360.8 1514.57 1469.57 1479.21C1578.45 1443.81 1673.91 1354.18 1754.19 1246.54" stroke="white" stroke-width="1.56225" stroke-miterlimit="10"/>
<path opacity="0.54" d="M-206.972 1682.67C-211.192 1604.52 -162.814 1536.52 -108.885 1515.86C-104.063 1514.03 -99.2202 1512.48 -94.326 1511.29C-44.5484 1498.99 6.49911 1516.26 54.6347 1539.37C63.8986 1543.83 73.0817 1548.51 82.2575 1553.28C125.339 1575.67 168.705 1599.78 214.491 1608.77C229.265 1611.68 244.054 1612.97 258.852 1612.47C359.338 1609.09 451.687 1524.81 527.977 1431.58C533.519 1424.82 539.011 1417.97 544.48 1411.1C625.332 1309.59 704.975 1208.01 793.008 1147.41C831.426 1120.95 872.064 1092.84 917.762 1101.22C972.36 1111.11 1018.99 1167.44 1053.11 1226.21C1076.34 1266.19 1096.07 1308.84 1118.86 1347.89C1129.57 1366.24 1140.96 1383.77 1153.65 1399.97C1234.48 1502.96 1361.34 1532.13 1472.27 1495.69C1583.32 1459.23 1680.32 1366.61 1761.9 1256.25" stroke="white" stroke-width="1.56225" stroke-miterlimit="10"/>
<path opacity="0.54" d="M-209.577 1703.78C-213.863 1625.71 -165.947 1557.54 -112.193 1536.06C-107.386 1534.13 -102.55 1532.53 -97.6851 1531.27C-47.995 1518.23 3.11184 1534.58 51.4384 1556.9C60.717 1561.19 69.9735 1565.72 79.1493 1570.36C122.378 1592.05 165.869 1615.57 211.684 1624.23C226.443 1627.04 241.233 1628.2 256.023 1627.65C356.525 1623.71 448.551 1539.18 524.27 1445.15C529.784 1438.32 535.231 1431.43 540.634 1424.5C620.747 1322.08 698.977 1218.48 785.797 1154.33C824.619 1125.65 865.954 1095.5 912.701 1103.35C968.544 1112.64 1016.03 1170.76 1050.21 1231.58C1073.49 1272.98 1093.08 1317.16 1115.8 1357.74C1126.49 1376.78 1137.89 1395.03 1150.68 1411.88C1232.09 1519.08 1361.85 1549.61 1474.98 1512.04C1588.2 1474.51 1686.73 1378.91 1769.64 1265.85" stroke="white" stroke-width="1.56225" stroke-miterlimit="10"/>
<path opacity="0.54" d="M-212.162 1724.93C-216.477 1646.91 -169.081 1578.57 -115.502 1556.26C-110.725 1554.26 -105.896 1552.61 -101.046 1551.25C-51.4648 1537.44 -0.26218 1552.87 48.2554 1574.4C57.5707 1578.55 66.842 1582.92 76.0912 1587.4C119.452 1608.42 163.119 1631.31 208.92 1639.61C223.679 1642.29 238.461 1643.4 253.223 1642.77C353.746 1638.33 445.407 1553.5 520.614 1458.69C526.061 1451.8 531.501 1444.85 536.875 1437.85C616.248 1334.52 692.986 1228.88 778.658 1161.24C817.84 1130.29 859.931 1098.11 907.696 1105.5C964.786 1114.17 1013.1 1174.13 1047.36 1236.96C1070.71 1279.74 1090.12 1325.48 1112.82 1367.57C1123.5 1387.36 1134.91 1406.29 1147.8 1423.8C1229.77 1535.18 1362.46 1567.07 1477.77 1528.43C1593.17 1489.79 1693.25 1391.25 1777.46 1275.49" stroke="white" stroke-width="1.56225" stroke-miterlimit="10"/>
<path opacity="0.54" d="M-214.762 1746.1C-219.143 1668.15 -172.23 1599.63 -118.827 1576.5C-114.057 1574.45 -109.243 1572.7 -104.4 1571.29C-54.921 1556.77 -3.64442 1571.25 45.0568 1591.93C54.4235 1595.91 63.7169 1600.17 72.9808 1604.49C116.488 1624.81 160.303 1647.13 206.089 1655.06C220.834 1657.64 235.601 1658.64 250.37 1657.93C350.916 1652.98 442.247 1567.85 516.883 1472.25C522.301 1465.28 527.675 1458.28 533.005 1451.24C611.617 1346.98 686.84 1239.27 771.408 1168.18C810.95 1134.96 853.805 1100.81 902.574 1107.62C960.894 1115.72 1010.06 1177.48 1044.4 1242.37C1067.79 1286.52 1087.05 1333.84 1109.74 1377.46C1120.41 1397.94 1131.85 1417.6 1144.81 1435.75C1227.33 1551.34 1362.96 1584.59 1480.45 1544.85C1598.02 1505.13 1699.64 1403.58 1785.17 1285.16" stroke="white" stroke-width="1.56225" stroke-miterlimit="10"/>
<path opacity="0.54" d="M-217.347 1767.24C-221.758 1689.35 -175.328 1620.65 -122.13 1596.75C-117.389 1594.63 -112.567 1592.8 -107.753 1591.32C-58.3842 1576.03 -7.01189 1589.59 41.8656 1609.51C51.2691 1613.35 60.5919 1617.41 69.8926 1621.59C113.569 1641.23 157.486 1662.94 203.28 1670.53C218.025 1672.97 232.785 1673.93 247.561 1673.14C348.144 1667.65 439.117 1582.27 513.196 1485.84C518.57 1478.84 523.915 1471.76 529.18 1464.66C607.067 1359.46 680.708 1249.62 764.216 1175.13C804.09 1139.57 847.73 1103.45 897.517 1109.81C957.083 1117.3 1007.08 1180.89 1041.51 1247.79C1064.96 1293.32 1084.03 1342.23 1106.7 1387.33C1117.35 1408.51 1128.8 1428.87 1141.86 1447.69C1224.93 1567.46 1363.48 1602.05 1483.16 1561.25C1602.92 1520.43 1706.05 1415.93 1792.91 1294.81" stroke="white" stroke-width="1.56225" stroke-miterlimit="10"/>
<path opacity="0.54" d="M-219.954 1788.36C-224.431 1710.55 -178.484 1641.66 -125.461 1616.94C-120.713 1614.73 -115.935 1612.86 -111.136 1611.28C-61.8761 1595.23 -10.4226 1607.89 38.6606 1626.99C48.0789 1630.66 57.4602 1634.61 66.7757 1638.63C110.599 1657.56 154.663 1678.7 200.443 1685.92C215.173 1688.26 229.941 1689.14 244.702 1688.25C345.307 1682.25 435.95 1596.56 509.459 1499.34C514.804 1492.27 520.083 1485.13 525.303 1477.99C602.451 1371.89 674.446 1259.86 756.96 1182.01C797.128 1144.13 841.575 1106.07 892.41 1111.9C953.244 1118.81 1004.06 1184.21 1038.56 1253.13C1062.04 1300.05 1080.97 1350.5 1103.63 1397.14C1114.28 1419.05 1125.75 1440.1 1138.9 1459.58C1222.54 1583.53 1364 1619.51 1485.87 1577.61C1607.79 1535.72 1712.46 1428.22 1800.63 1304.4" stroke="white" stroke-width="1.56225" stroke-miterlimit="10"/>
<path opacity="0.54" d="M-222.539 1809.5C-227.045 1731.75 -181.618 1662.69 -128.748 1637.16C-124.029 1634.89 -119.266 1632.92 -114.452 1631.3C-65.2799 1614.51 -13.7526 1626.23 35.5069 1644.57C44.9619 1648.09 54.3728 1651.85 63.7103 1655.75C107.666 1674.02 151.906 1694.53 197.657 1701.41C212.387 1703.62 227.126 1704.43 241.894 1703.45C342.5 1696.93 432.821 1610.99 505.773 1512.94C511.074 1505.82 516.324 1498.62 521.493 1491.38C597.902 1384.37 668.235 1270.19 749.784 1188.93C790.218 1148.65 835.516 1108.7 887.347 1114.04C949.412 1120.37 1001.07 1187.57 1035.68 1258.52C1059.23 1306.82 1077.97 1358.83 1100.61 1406.99C1111.24 1429.59 1122.73 1451.32 1135.96 1471.49C1220.15 1599.65 1364.57 1636.95 1488.6 1593.98C1612.69 1550.97 1718.9 1440.54 1808.39 1314.02" stroke="white" stroke-width="1.56225" stroke-miterlimit="10"/>
<path opacity="0.54" d="M-225.139 1830.67C-229.711 1752.99 -184.746 1683.76 -132.087 1657.43C-127.397 1655.08 -122.627 1653.03 -117.843 1651.34C-68.7942 1633.82 -17.171 1644.61 32.2722 1662.1C41.7639 1665.49 51.2114 1669.1 60.6003 1672.83C104.703 1690.4 149.068 1710.32 194.826 1716.86C209.542 1718.96 224.288 1719.69 239.064 1718.63C339.706 1711.57 429.669 1625.38 502.065 1526.51C507.337 1519.32 512.52 1512.06 517.646 1504.78C593.315 1396.87 661.921 1280.46 742.578 1195.91C783.263 1153.26 829.448 1111.39 882.291 1116.22C945.602 1121.94 998.096 1190.98 1032.76 1263.97C1056.36 1313.64 1074.95 1367.22 1097.55 1416.89C1108.18 1440.24 1119.69 1462.65 1133.02 1483.48C1217.76 1615.81 1365.1 1654.51 1491.32 1610.43C1617.58 1566.35 1725.32 1452.94 1816.14 1323.73" stroke="white" stroke-width="1.56225" stroke-miterlimit="10"/>
<path opacity="0.54" d="M-227.723 1851.81C-232.324 1774.19 -187.879 1704.79 -135.374 1677.65C-130.677 1675.22 -125.951 1673.12 -121.144 1671.33C-72.1832 1653.06 -20.4862 1662.91 29.148 1679.61C38.6691 1682.8 48.1386 1686.3 57.5643 1689.89C101.814 1706.75 146.326 1726.11 192.092 1732.3C206.793 1734.31 221.539 1734.9 236.293 1733.82C336.958 1726.25 426.59 1639.76 498.438 1540.11C503.665 1532.89 508.805 1525.58 513.879 1518.21C588.81 1409.39 655.651 1290.77 735.447 1202.86C776.352 1157.78 823.418 1114.08 877.294 1118.41C941.851 1123.53 995.178 1194.4 1029.93 1269.4C1053.58 1320.45 1072.01 1375.63 1094.6 1426.79C1105.2 1450.83 1116.75 1473.97 1130.15 1495.45C1215.44 1631.99 1365.73 1672.02 1494.15 1626.86C1622.58 1581.7 1731.85 1465.3 1824 1333.4" stroke="white" stroke-width="1.56225" stroke-miterlimit="10"/>
<path opacity="0.54" d="M-230.331 1872.93C-234.998 1795.38 -191 1725.79 -138.707 1697.83C-134.039 1695.33 -129.305 1693.16 -124.528 1691.29C-75.676 1672.26 -23.8978 1681.21 25.9274 1697.12C35.4852 1700.17 45.0062 1703.5 54.4319 1706.96C98.8287 1723.12 143.502 1741.87 189.239 1747.73C203.94 1749.6 218.679 1750.14 233.418 1748.97C334.105 1740.88 423.394 1654.12 494.685 1553.65C499.862 1546.33 504.958 1538.98 510.002 1531.54C584.193 1421.81 649.234 1301 728.189 1209.75C769.302 1162.25 817.277 1116.67 872.164 1120.49C937.952 1125.02 992.128 1197.69 1026.95 1274.71C1050.66 1327.12 1068.93 1383.88 1091.48 1436.56C1102.07 1461.29 1113.63 1485.14 1127.12 1507.27C1212.97 1648 1366.2 1689.38 1496.79 1643.15C1627.4 1596.89 1738.2 1477.54 1831.67 1342.94" stroke="white" stroke-width="1.56225" stroke-miterlimit="10"/>
<path opacity="0.54" d="M-232.916 1894.07C-237.612 1816.58 -194.134 1746.82 -142.016 1718.04C-137.355 1715.49 -132.636 1713.21 -127.888 1711.27C-79.1387 1691.53 -27.2866 1699.54 22.7442 1714.62C32.3387 1717.53 41.8745 1720.69 51.3516 1723.98C95.8954 1739.44 140.694 1757.61 186.438 1763.12C201.124 1764.89 215.87 1765.35 230.618 1764.09C331.327 1755.5 420.264 1668.41 491.006 1567.16C496.139 1559.8 501.206 1552.38 506.185 1544.88C579.636 1434.25 642.818 1311.22 721.006 1216.62C762.281 1166.67 811.217 1119.29 867.116 1122.59C934.149 1126.52 989.174 1200.99 1024.07 1280.11C1047.82 1333.93 1065.93 1392.22 1088.48 1446.42C1099.06 1471.89 1110.64 1496.43 1124.23 1519.22C1210.64 1664.13 1366.79 1706.9 1499.57 1659.57C1632.34 1612.23 1744.67 1489.89 1839.47 1352.61" stroke="white" stroke-width="1.56225" stroke-miterlimit="10"/>
<path opacity="0.54" d="M-235.517 1915.25C-240.279 1837.83 -197.284 1767.88 -145.335 1738.32C-140.703 1735.7 -135.991 1733.37 -131.236 1731.35C-82.5956 1710.85 -30.6477 1717.93 19.5594 1732.26C29.1907 1735.02 38.7779 1738.01 48.255 1741.17C92.953 1755.98 137.891 1773.52 183.621 1778.67C198.307 1780.31 213.024 1780.69 227.779 1779.35C328.503 1770.21 417.103 1682.89 487.289 1580.82C492.393 1573.39 497.394 1565.91 502.328 1558.36C575.041 1446.83 636.327 1321.6 713.77 1223.66C755.208 1171.26 805.097 1122.04 862.029 1124.84C930.308 1128.16 986.167 1204.46 1021.14 1285.59C1044.96 1340.8 1062.89 1400.64 1085.41 1456.36C1095.98 1482.52 1107.58 1507.79 1121.24 1531.23C1208.2 1680.34 1367.31 1724.44 1502.25 1676.03C1637.21 1627.6 1751.06 1502.3 1847.16 1362.31" stroke="white" stroke-width="1.56225" stroke-miterlimit="10"/>
<path opacity="0.54" d="M-238.123 1936.37C-242.915 1859.01 -200.418 1788.9 -148.666 1758.51C-144.049 1755.78 -139.344 1753.4 -134.618 1751.31C-86.0874 1730.05 -34.0583 1736.23 16.3325 1749.71C25.9931 1752.29 35.6024 1755.17 45.1529 1758.17C89.9978 1772.28 135.097 1789.22 180.798 1794.03C195.47 1795.57 210.194 1795.88 224.934 1794.43C325.681 1784.78 413.952 1697.15 483.567 1594.29C488.626 1586.82 493.598 1579.27 498.467 1571.66C570.44 1459.22 629.793 1331.8 706.543 1230.49C748.085 1175.63 798.972 1124.59 856.915 1126.88C926.425 1129.63 983.132 1207.73 1018.19 1290.87C1042.05 1347.44 1059.82 1408.85 1082.3 1466.12C1092.87 1493 1104.46 1518.96 1118.22 1543.05C1205.74 1696.35 1367.76 1741.84 1504.89 1692.33C1642.02 1642.82 1757.4 1514.54 1854.83 1371.85" stroke="white" stroke-width="1.56225" stroke-miterlimit="10"/>
<path opacity="0.54" d="M-240.707 1957.51C-245.543 1880.24 -203.552 1809.93 -151.952 1778.73C-147.343 1775.96 -142.675 1773.46 -137.934 1771.33C-89.4906 1749.33 -37.3875 1754.57 13.1795 1767.29C22.8769 1769.72 32.5228 1772.45 42.0881 1775.29C87.08 1788.7 132.304 1805.06 178.013 1809.52C192.692 1810.98 207.38 1811.16 222.134 1809.69C322.903 1799.52 410.83 1711.63 479.911 1607.96C484.941 1600.42 489.847 1592.8 494.687 1585.13C565.935 1471.74 623.327 1342.2 699.382 1237.51C741.028 1180.19 792.927 1127.32 851.904 1129.11C922.66 1131.25 980.201 1211.18 1015.34 1296.33C1039.26 1354.29 1056.85 1417.29 1079.33 1476.06C1089.87 1503.66 1101.5 1530.32 1115.35 1555.07C1203.44 1712.55 1368.4 1759.4 1507.7 1708.81C1647.01 1658.2 1763.93 1526.99 1862.67 1381.59" stroke="white" stroke-width="1.56225" stroke-miterlimit="10"/>
<path opacity="0.54" d="M-243.292 1978.65C-248.614 1894.54 -198.905 1818.43 -141.294 1791.31C-83.6979 1764.22 -20.6325 1775.54 38.9936 1792.34C98.6197 1809.15 158.682 1831.25 219.319 1824.84C327.422 1813.37 420.36 1712.76 490.833 1598.48C561.342 1484.19 616.728 1352.47 692.148 1244.42C733.876 1184.62 786.817 1129.98 846.804 1131.25C918.806 1132.78 977.181 1214.55 1012.4 1301.77C1047.63 1388.98 1068.76 1487.45 1112.36 1567.02C1200.99 1728.71 1368.89 1776.92 1510.37 1725.23C1651.86 1673.54 1770.31 1539.34 1870.38 1391.25" stroke="white" stroke-width="1.56225" stroke-miterlimit="10"/>
</g>
</svg>
