<svg width="1440" height="264" viewBox="0 0 1440 264" fill="none" xmlns="http://www.w3.org/2000/svg">
<g opacity="0.1">
<path d="M-184.289 529.814C-171.991 500.289 -101.775 482.66 -34.2772 479.244C33.221 475.828 102.149 482.538 170.505 482.538C353.551 482.477 526.158 428.735 586.077 353.093C605.24 328.875 613.677 303.01 632.41 278.671C651.144 254.392 682.891 230.663 734.516 219.133C808.735 202.48 901.688 215.29 976.623 233.896C1051.56 252.501 1121.63 277.146 1204.57 285.686C1313.54 296.91 1426.94 277.573 1510.32 246.523C1593.69 215.473 1652.61 173.687 1710.09 132.572" stroke="#D1DEFF" stroke-miterlimit="10"/>
<path d="M-188.438 526.947C-174.852 497.544 -104.923 479.976 -37.2816 476.438C-7.96561 474.913 21.4933 475.279 51.0953 476.316C89.9926 477.658 128.89 480.037 167.501 480.403C246.297 481.135 323.233 472.534 390.731 455.819C442.928 442.887 489.262 425.867 526.3 405.432C552.756 390.913 573.92 374.565 588.65 356.814C595.228 348.883 600.662 340.709 605.667 332.474C615.821 315.76 624.115 298.801 637.271 282.636C652.144 264.274 674.739 246.523 708.202 234.445C718.641 230.663 729.938 227.43 742.38 224.867C794.434 214.192 854.639 217.852 912.269 226.942C937.152 230.846 961.606 235.787 984.344 241.033C1009.8 246.95 1034.68 253.294 1059.42 259.394C1108.04 271.351 1156.24 282.392 1208.29 286.357C1242.18 288.98 1275.5 288.248 1308.68 285.137C1375.75 278.732 1441.82 261.651 1496.87 239.813C1511.89 233.835 1526.33 227.491 1540.35 220.963C1602.27 191.805 1654.03 158.132 1705.09 126.289" stroke="#D1DEFF" stroke-miterlimit="10"/>
<path d="M-192.441 524.079C-177.569 494.86 -107.926 477.291 -40.1415 473.631C-10.8255 472.045 18.7765 472.411 48.5214 473.509C87.4187 474.973 126.173 477.596 164.927 478.328C243.58 479.853 320.23 472.594 388.443 456.612C441.212 444.228 488.261 428.002 526.729 408.359C554.186 394.268 576.066 378.164 591.51 360.534C598.374 352.665 604.095 344.491 609.243 336.256C619.825 319.602 628.548 302.583 642.277 286.539C657.864 268.3 681.174 250.976 715.781 239.507C726.506 235.969 737.947 232.919 750.388 230.601C802.728 220.902 862.075 225.477 919.563 234.566C944.589 238.531 969.185 243.228 992.066 248.17C1017.81 253.66 1042.98 259.516 1067.57 264.823C1116.05 275.376 1162.81 284.709 1211.86 287.027C1243.61 288.553 1274.07 286.783 1304.53 282.757C1366.31 274.522 1429.09 255.856 1483.14 233.102C1498.02 226.819 1512.32 220.292 1526.33 213.582C1588.82 183.569 1644.45 150.14 1699.51 120.066" stroke="#D1DEFF" stroke-miterlimit="10"/>
<path d="M-196.588 521.151C-180.428 492.115 -111.214 474.485 -43.287 470.764C-13.971 469.178 15.774 469.483 45.519 470.642C84.4162 472.167 123.17 475.034 161.782 476.132C240.291 478.389 316.799 472.594 385.727 457.283C438.925 445.449 486.974 430.076 526.729 411.166C555.33 397.562 577.925 381.702 593.942 364.195C601.092 356.386 606.955 348.273 612.532 340.038C623.544 323.385 632.839 306.365 646.997 290.444C663.156 272.326 687.324 255.429 722.932 244.51C733.943 241.155 745.384 238.349 757.968 236.275C810.451 227.551 869.083 233.042 926.571 242.131C951.596 246.096 976.336 250.671 999.646 255.246C1025.67 260.37 1050.98 265.555 1075.58 270.252C1123.92 279.403 1169.54 287.028 1215.44 287.638C1245.18 288.065 1272.5 285.259 1300.24 280.379C1356.73 270.435 1416.22 250.122 1469.27 226.331C1483.86 219.804 1498.16 212.972 1512.32 206.079C1575.38 175.151 1635.02 142.027 1693.93 113.723" stroke="#D1DEFF" stroke-miterlimit="10"/>
<path d="M-200.735 518.284C-183.289 489.369 -114.361 471.801 -46.2903 467.958C-16.8314 466.31 12.9136 466.615 42.6586 467.896C81.5559 469.543 120.31 472.594 158.778 474.119C237.145 477.108 313.509 472.716 383.01 458.136C436.779 446.851 485.687 432.333 526.729 414.154C556.474 401.039 579.784 385.422 596.373 368.037C603.809 360.229 609.958 352.177 615.678 343.941C627.119 327.349 636.843 310.269 651.715 294.469C668.59 276.535 693.33 259.942 730.225 249.694C741.379 246.583 753.106 243.96 765.547 242.13C818.316 234.383 876.09 240.788 933.435 249.938C958.46 253.964 983.486 258.295 1006.94 262.565C1033.11 267.324 1058.85 271.96 1083.3 275.864C1131.5 283.55 1175.97 289.528 1218.73 288.491C1246.47 287.82 1270.64 283.977 1295.81 278.182C1347 266.409 1403.06 244.57 1455.4 219.803C1469.7 212.971 1484 205.956 1498.3 198.88C1561.94 167.098 1625.43 134.279 1688.36 107.683" stroke="#D1DEFF" stroke-miterlimit="10"/>
<path d="M-204.739 515.417C-186.149 486.685 -117.363 469.117 -49.1502 465.152C-19.6913 463.444 10.1967 463.749 39.9417 465.091C78.8389 466.799 117.593 470.154 155.918 471.984C234.142 475.766 310.363 472.716 380.579 458.869C434.92 448.132 484.543 434.407 527.016 417.022C557.905 404.333 581.786 389.022 599.09 371.697C606.812 363.95 613.247 355.898 619.111 347.663C631.123 331.07 641.276 313.99 656.578 298.313C674.024 280.5 699.622 264.335 737.661 254.636C749.102 251.707 760.828 249.328 773.412 247.742C826.324 240.971 883.383 248.23 940.728 257.442C965.897 261.468 991.066 265.677 1014.8 269.581C1041.26 273.973 1067.14 277.999 1091.6 281.232C1139.65 287.515 1182.98 291.785 1222.59 289.04C1248.47 287.271 1269.35 282.391 1291.95 275.681C1337.85 262.139 1390.62 238.653 1441.96 212.911C1456.12 205.773 1470.27 198.514 1484.57 191.255C1548.78 158.558 1616.14 126.044 1683.21 101.217" stroke="#D1DEFF" stroke-miterlimit="10"/>
<path d="M-208.887 512.489C-189.009 483.94 -120.51 466.311 -52.1536 462.346C-22.6946 460.638 7.3363 460.882 37.0813 462.285C76.1215 464.115 114.733 467.653 153.058 469.849C231.139 474.363 307.217 472.777 378.004 459.601C432.918 449.413 483.399 436.542 527.158 419.889C559.191 407.688 583.788 392.621 601.664 375.419C609.529 367.732 616.25 359.741 622.542 351.506C634.984 334.914 645.566 317.833 661.44 302.278C679.458 284.587 705.771 268.788 745.097 259.76C756.824 257.076 768.693 254.88 781.277 253.538C834.475 247.742 890.676 255.917 948.021 265.128C973.19 269.154 998.645 273.18 1022.53 276.779C1049.27 280.805 1075.29 284.221 1099.89 286.722C1147.66 291.602 1190.27 294.165 1226.45 289.772C1250.48 286.844 1268.21 280.927 1288.09 273.424C1328.7 258.113 1378.18 233.041 1428.66 206.322C1442.53 198.941 1456.69 191.438 1471.13 183.996C1535.91 150.445 1607.27 118.175 1678.2 95.0557" stroke="#D1DEFF" stroke-miterlimit="10"/>
<path d="M-212.891 509.622C-191.726 481.257 -123.513 463.627 -55.1565 459.54C-25.5546 457.771 4.47647 458.015 34.3644 459.479C73.4047 461.37 111.873 465.152 150.198 467.775C228.136 473.082 304.071 472.838 375.431 460.394C430.916 450.756 482.255 438.738 527.158 422.817C560.335 411.105 585.647 396.281 604.095 379.201C612.246 371.576 619.253 363.585 625.689 355.349C638.559 338.818 649.57 321.677 666.016 306.243C684.749 288.675 711.634 273.302 752.248 264.823C764.117 262.322 776.129 260.37 788.857 259.211C842.198 254.392 897.683 263.481 954.885 272.692C980.197 276.78 1005.79 280.623 1029.82 283.856C1056.85 287.516 1083.16 290.322 1107.61 292.152C1155.23 295.629 1196.85 296.361 1229.6 290.444C1251.91 286.418 1266.21 279.464 1283.51 271.045C1318.83 253.904 1364.88 227.307 1414.5 199.552C1428.23 191.865 1442.25 184.118 1456.83 176.493C1522.18 142.027 1597.41 110.123 1672.34 88.7119" stroke="#D1DEFF" stroke-miterlimit="10"/>
<path d="M-217.038 506.755C-194.586 478.511 -126.659 460.943 -58.1599 456.733C-28.5579 454.903 1.61608 455.147 31.5041 456.672C70.5443 458.686 109.013 462.651 147.195 465.64C224.989 471.679 300.782 472.838 372.856 461.126C428.914 452.036 481.111 440.873 527.301 425.684C561.622 414.398 587.506 399.88 606.669 382.861C615.106 375.296 622.256 367.305 628.977 359.07C642.277 342.539 653.86 325.397 670.735 310.086C690.04 292.64 717.783 277.633 759.398 269.825C771.553 267.568 783.709 265.799 796.436 264.884C850.063 261.041 904.547 271.045 961.892 280.256C987.204 284.343 1012.94 288.003 1037.4 290.931C1064.71 294.226 1091.17 296.483 1115.62 297.52C1163.1 299.594 1203.86 298.496 1233.17 290.992C1253.76 285.746 1264.63 277.816 1279.36 268.605C1309.39 249.633 1352.15 221.512 1400.92 192.78C1414.36 184.85 1428.37 176.859 1442.96 168.99C1508.89 133.67 1587.97 102.01 1666.91 82.3674" stroke="#D1DEFF" stroke-miterlimit="10"/>
<path d="M-221.043 503.827C-197.304 475.766 -129.663 458.137 -61.0207 453.867C-31.4188 452.037 -1.2448 452.22 28.7862 453.806C67.8265 455.88 106.295 460.15 144.334 463.505C221.986 470.337 297.492 472.899 370.281 461.858C426.911 453.318 479.966 443.009 527.443 428.551C562.909 417.754 589.507 403.48 609.242 386.582C617.965 379.079 625.402 371.149 632.409 362.914C646.28 346.443 658.15 329.241 675.739 314.051C695.76 296.727 724.075 282.087 766.976 274.949C779.275 272.875 791.573 271.411 804.443 270.679C858.213 267.812 911.983 278.732 969.328 287.943C994.783 292.03 1020.67 295.568 1045.26 298.13C1072.86 300.997 1099.46 302.705 1123.92 303.071C1171.11 303.742 1211.15 300.692 1237.03 291.786C1255.91 285.32 1263.35 276.474 1275.5 266.348C1300.24 245.608 1339.71 215.839 1387.47 186.192C1400.63 177.957 1414.64 169.722 1429.37 161.731C1495.87 125.557 1578.81 94.141 1661.76 76.2676" stroke="#D1DEFF" stroke-miterlimit="10"/>
<path d="M-225.188 500.96C-200.306 473.082 -132.808 455.453 -64.0223 451.06C-34.4204 449.169 -4.10333 449.352 25.9276 451.06C64.9679 453.257 103.436 457.71 141.475 461.431C218.984 468.995 294.347 472.96 367.852 462.651C425.054 454.66 479.109 445.204 527.731 431.479C564.34 421.17 591.654 407.139 611.961 390.364C620.97 382.922 628.692 374.992 635.842 366.756C650.143 350.286 662.584 333.084 680.603 318.016C701.196 300.875 730.226 286.54 774.414 280.012C786.998 278.182 799.44 276.901 812.31 276.413C866.366 274.522 919.278 286.296 976.479 295.568C1001.93 299.716 1028.1 303.01 1052.84 305.267C1080.59 307.768 1107.61 308.866 1131.93 308.5C1178.97 307.768 1218.16 302.705 1240.61 292.396C1257.63 284.587 1261.92 274.888 1271.36 263.908C1290.8 241.337 1326.98 210.044 1373.75 179.36C1386.76 170.82 1400.63 162.402 1415.5 154.166C1482.57 117.077 1569.52 86.0277 1656.47 69.8623" stroke="#D1DEFF" stroke-miterlimit="10"/>
<path d="M-229.336 498.093C-203.166 470.337 -135.954 452.769 -67.1686 448.255C-37.4237 446.303 -7.1067 446.486 23.0673 448.255C62.1076 450.512 100.433 455.209 138.472 459.296C215.837 467.653 291.058 472.96 365.134 463.383C422.908 455.941 477.822 447.34 527.731 434.346C565.484 424.525 593.513 410.739 614.392 394.024C623.687 386.643 631.552 378.713 638.988 370.478C653.718 354.007 666.588 336.866 685.179 321.859C706.344 304.84 736.089 290.871 781.564 285.015C794.291 283.368 807.019 282.33 819.746 282.086C873.945 281.171 926.142 293.86 983.344 303.132C1008.94 307.28 1035.25 310.452 1060.28 312.343C1088.31 314.478 1115.48 315.027 1139.79 313.929C1186.55 311.794 1224.74 304.657 1244.04 293.067C1259.2 283.978 1260.2 273.424 1267.06 261.59C1281.22 237.189 1313.97 204.371 1360.02 172.711C1372.75 163.927 1386.62 155.203 1401.49 146.846C1469.13 108.903 1559.94 78.0975 1650.89 63.7012" stroke="#D1DEFF" stroke-miterlimit="10"/>
<path d="M-233.34 495.165C-205.883 467.592 -138.957 449.963 -70.0285 445.388C-40.2836 443.436 -9.82366 443.558 20.3503 445.388C59.5336 447.767 97.7158 452.708 135.612 457.161C212.835 466.25 287.912 472.96 362.703 464.115C421.049 457.222 476.821 449.475 528.017 437.214C566.914 427.88 595.515 414.338 617.109 397.746C626.547 390.426 634.841 382.556 642.42 374.321C657.579 357.912 670.878 340.709 690.041 325.886C711.921 308.989 742.238 295.324 789 290.139C802.014 288.675 814.741 287.882 827.611 287.882C882.096 287.943 933.435 301.546 990.637 310.88C1016.23 315.028 1042.69 318.017 1068 319.603C1096.32 321.372 1123.63 321.311 1147.94 319.481C1194.56 316.004 1231.46 306.731 1247.62 293.799C1260.77 283.368 1258.63 271.961 1262.77 259.272C1271.5 233.042 1301.1 198.637 1346.15 166.001C1358.59 156.912 1372.32 148.006 1387.47 139.404C1455.69 100.546 1550.36 70.0457 1645.31 57.3574" stroke="#D1DEFF" stroke-miterlimit="10"/>
<path d="M-237.488 492.299C-208.744 464.909 -142.104 447.279 -73.0329 442.643C-43.288 440.63 -12.685 440.752 17.489 442.643C56.6723 445.083 94.8545 450.269 132.608 455.088C209.687 464.909 284.622 473.083 359.985 464.909C418.76 458.565 475.533 451.672 528.016 440.142C568.2 431.297 597.373 417.999 619.539 401.528C629.263 394.269 637.843 386.4 645.708 378.165C661.439 361.755 675.167 344.553 694.902 329.852C717.354 313.076 748.386 299.778 796.292 295.264C809.449 294.044 822.462 293.434 835.333 293.678C889.96 294.715 940.584 309.233 997.643 318.566C1023.24 322.775 1049.98 325.521 1075.44 326.802C1104.04 328.205 1131.5 327.595 1155.81 325.032C1202.14 320.152 1237.75 308.806 1251.05 294.593C1262.06 282.819 1256.91 270.619 1258.48 257.016C1261.92 229.016 1288.23 193.025 1332.42 159.413C1344.72 150.019 1358.3 140.869 1373.46 132.146C1442.24 92.4338 1540.77 62.2381 1639.73 51.2578" stroke="#D1DEFF" stroke-miterlimit="10"/>
<path d="M-241.492 489.431C-211.461 462.163 -145.107 444.595 -75.8928 439.837C-46.0049 437.763 -15.4018 437.885 14.7722 439.837C53.9554 442.399 92.1376 447.767 129.891 453.013C206.827 463.627 281.619 473.144 357.697 465.701C417.044 459.906 474.818 453.928 528.445 443.07C569.773 434.713 599.661 421.658 622.399 405.249C632.409 397.99 641.133 390.181 649.284 381.946C665.443 365.598 679.601 348.334 699.907 333.755C723.074 317.102 754.678 304.108 803.872 300.265C817.314 299.228 830.328 298.862 843.341 299.35C898.255 301.302 948.02 316.797 1005.08 326.13C1030.82 330.339 1057.71 332.962 1083.45 333.877C1112.33 334.914 1140.08 333.694 1164.24 330.4C1210.43 324.117 1244.61 310.758 1255.05 295.202C1263.77 282.087 1255.77 269.033 1254.77 254.636C1252.76 224.806 1275.93 187.291 1319.12 152.642C1331.13 143.003 1344.72 133.609 1360.02 124.642C1429.37 84.015 1531.91 54.1243 1634.87 44.9131" stroke="#D1DEFF" stroke-miterlimit="10"/>
<path d="M-245.639 486.503C-214.464 459.418 -148.253 441.789 -79.0382 436.97C-49.1503 434.895 -18.4042 434.956 11.9128 437.031C51.096 439.654 89.2782 445.327 126.888 450.878C203.682 462.224 278.187 473.143 354.981 466.433C414.9 461.187 473.532 456.063 528.446 445.937C570.918 438.068 601.378 425.257 624.831 408.97C635.127 401.772 644.136 394.024 652.431 385.789C669.019 369.441 683.749 352.177 704.484 337.72C728.223 321.189 760.399 308.561 811.023 305.389C824.751 304.535 837.908 304.413 850.921 305.145C905.978 308.073 955.028 324.422 1011.94 333.816C1037.69 338.086 1064.86 340.465 1090.74 341.075C1119.77 341.685 1147.8 339.977 1171.97 335.951C1218.01 328.326 1250.62 312.954 1258.34 295.934C1264.78 281.538 1253.91 267.629 1250.33 252.318C1243.04 220.658 1262.77 181.617 1305.25 145.993C1316.97 136.049 1330.56 126.411 1346 117.322C1415.93 75.8408 1522.33 46.1941 1629.3 38.752" stroke="#D1DEFF" stroke-miterlimit="10"/>
<path d="M-249.644 483.635C-217.181 456.734 -151.256 439.104 -81.8991 434.163C-52.0112 432.028 -21.1221 432.089 9.19485 434.224C48.3781 436.969 86.4173 442.825 124.028 448.742C200.678 460.882 275.041 473.204 352.406 467.165C412.897 462.468 472.53 458.198 528.588 448.803C572.204 441.483 603.379 428.856 627.404 412.691C637.986 405.553 647.139 397.806 655.862 389.571C672.879 373.284 688.038 355.959 709.346 341.624C733.656 325.275 766.547 312.892 818.458 310.452C832.33 309.781 845.629 309.903 858.785 310.879C914.128 314.783 962.321 332.047 1019.24 341.441C1045.12 345.711 1072.43 347.968 1098.6 348.212C1127.92 348.456 1156.09 346.138 1180.26 341.38C1226.02 332.352 1257.2 314.966 1262.2 296.605C1266.35 280.927 1252.48 266.165 1246.47 250C1233.6 216.571 1250.33 175.883 1291.8 139.343C1303.39 129.156 1316.83 119.273 1332.27 109.94C1402.78 67.5441 1513.03 38.2024 1624 32.5293" stroke="#D1DEFF" stroke-miterlimit="10"/>
<path d="M-253.789 480.769C-220.04 454.05 -154.401 436.421 -84.9006 431.358C-54.8696 429.162 -23.9806 429.223 6.33635 431.419C45.6626 434.286 83.5589 440.325 121.169 446.669C197.677 459.54 271.896 473.266 349.977 467.959C411.04 463.811 471.53 460.455 528.875 451.732C573.779 444.9 605.526 432.517 630.123 416.473C640.991 409.397 650.429 401.65 659.296 393.415C676.742 377.127 692.33 359.803 714.209 345.59C739.235 329.363 772.841 317.285 825.753 315.516C839.911 315.028 853.353 315.394 866.509 316.553C921.995 321.433 969.473 339.612 1026.39 349.006C1052.27 353.276 1079.73 355.35 1106.19 355.289C1135.79 355.167 1164.25 352.3 1188.27 346.81C1233.89 336.379 1263.49 317.102 1265.64 297.216C1267.49 280.318 1250.76 264.58 1242.18 247.56C1224.02 212.362 1237.46 170.088 1277.93 132.512C1289.23 122.019 1302.67 111.893 1318.26 102.438C1389.33 59.1878 1503.45 30.1511 1618.43 26.125" stroke="#D1DEFF" stroke-miterlimit="10"/>
<path d="M-257.938 477.84C-222.901 451.244 -157.691 433.614 -87.9049 428.49C-57.874 426.294 -26.985 426.294 3.47499 428.551C42.8013 431.479 80.6975 437.823 118.165 444.472C194.529 458.137 268.606 473.204 347.258 468.629C408.893 465.03 470.242 462.59 528.874 454.538C574.922 448.194 607.241 436.054 632.552 420.072C643.707 413.057 653.431 405.37 662.44 397.135C680.459 380.848 696.476 363.524 718.927 349.432C744.525 333.328 778.846 321.554 833.045 320.517C847.346 320.273 860.931 320.883 874.23 322.226C930.002 328.082 976.479 347.175 1033.39 356.569C1059.42 360.9 1087.02 362.791 1113.62 362.364C1143.51 361.876 1172.11 358.399 1196.13 352.177C1241.61 340.404 1269.64 319.114 1269.07 297.825C1268.64 279.708 1249.19 263.054 1237.89 245.12C1214.44 208.092 1224.45 164.293 1264.2 125.74C1275.22 114.943 1288.66 104.633 1304.39 94.9341C1376.03 50.769 1494.16 22.0373 1612.99 19.7803" stroke="#D1DEFF" stroke-miterlimit="10"/>
<path d="M-261.941 474.973C-225.761 448.56 -160.694 430.93 -90.9079 425.684C-60.8769 423.427 -29.8449 423.427 0.758142 425.745C40.0844 428.795 77.9806 435.322 115.305 442.399C191.526 456.795 265.46 473.326 344.827 469.422C407.034 466.372 469.384 464.786 529.017 457.466C576.209 451.671 609.243 439.714 635.27 423.854C646.567 416.9 656.577 409.214 666.016 400.978C684.463 384.752 700.909 367.367 723.933 353.397C750.245 337.415 785.139 325.947 840.624 325.581C855.211 325.52 868.939 326.374 882.096 327.96C938.01 334.792 983.772 354.8 1040.69 364.256C1066.71 368.587 1094.6 370.295 1121.49 369.563C1151.66 368.709 1180.55 364.683 1204.43 357.728C1249.76 344.613 1276.22 321.372 1272.93 298.557C1270.07 279.22 1247.9 261.651 1234.03 242.863C1205.29 204.005 1212.01 158.681 1250.76 119.091C1261.63 108.049 1274.93 97.4352 1290.66 87.6139C1362.88 42.5948 1484.86 14.1072 1607.84 13.6191" stroke="#D1DEFF" stroke-miterlimit="10"/>
<path d="M-266.089 472.106C-228.622 445.875 -163.841 428.246 -93.9112 422.939C-63.7373 420.621 -32.7052 420.621 -2.10224 423C37.224 426.111 75.1203 432.882 112.301 440.324C188.38 455.513 262.17 473.387 342.11 470.215C404.889 467.714 468.097 467.104 529.017 460.394C577.353 455.147 611.102 443.374 637.701 427.636C649.284 420.743 659.58 413.056 669.162 404.821C688.038 388.595 705.056 371.209 728.509 357.362C755.393 341.502 791.001 330.277 847.774 330.704C862.504 330.826 876.375 331.924 889.675 333.755C945.876 341.563 990.779 362.425 1047.69 371.941C1073.86 376.273 1101.89 377.859 1128.92 376.761C1159.24 375.541 1188.41 370.904 1212.29 363.218C1257.48 348.7 1282.37 323.567 1276.36 299.289C1271.21 278.731 1246.19 260.187 1229.74 240.544C1195.56 199.917 1199.14 152.946 1237.03 112.441C1247.62 101.095 1260.91 90.2976 1276.79 80.2323C1349.58 34.2982 1475.42 6.17652 1602.41 7.39655" stroke="#D1DEFF" stroke-miterlimit="10"/>
<path d="M-270.093 469.178C-214.607 431.845 -106.352 411.837 -4.81916 420.133C114.876 429.893 219.412 474.607 339.679 470.886C403.03 468.934 467.096 469.178 529.303 463.2C600.519 456.368 640.275 435.566 672.594 408.542C714.065 373.833 746.527 333.572 855.211 335.707C933.72 337.232 984.63 367.732 1054.85 379.506C1110.33 388.778 1175.4 384.508 1220.44 368.586C1265.49 352.665 1288.8 325.702 1280.08 299.899C1272.64 278.121 1244.76 258.662 1225.74 238.104C1175.26 183.813 1189.7 119.517 1263.06 72.7292C1336.42 25.9411 1466.27 -1.93662 1597.12 1.05245" stroke="#D1DEFF" stroke-miterlimit="10"/>
<path d="M-263.8 474.547C-207.456 440.142 -99.9165 421.537 0.901778 429.162C51.3824 432.944 99.289 442.582 146.624 451.855C195.102 461.432 242.723 470.704 292.488 473.449C308.505 474.303 324.807 474.547 341.253 473.815C403.174 471.07 465.81 470.399 527.731 464.177C597.946 457.162 638.416 437.214 671.88 411.716C679.602 405.859 687.038 399.881 694.617 393.964C716.926 376.579 740.665 360.108 778.132 351.019C799.154 345.895 824.323 343.028 855.784 343.516C933.292 344.614 984.059 372.553 1051.99 382.618C1061 383.96 1070.29 384.936 1079.59 385.546C1126.06 388.596 1175.11 382.862 1211.01 369.38C1254.05 353.215 1276.36 326.496 1268.21 300.937C1261.34 279.281 1235.32 259.7 1217.73 239.142C1187.41 203.7 1183.98 164.171 1205.86 128.303C1217.59 109.148 1236.6 91.0306 1262.35 75.0483C1309.54 45.8895 1378.89 24.295 1456.83 12.8877C1501.59 6.36055 1549.21 3.24947 1596.98 4.10349" stroke="#D1DEFF" stroke-miterlimit="10"/>
<path d="M-257.365 479.914C-200.306 448.437 -93.3389 431.235 6.90731 438.189C57.2449 441.666 104.865 450.389 151.628 458.686C199.535 467.165 246.297 475.278 295.205 477.108C310.935 477.718 326.809 477.657 342.968 476.742C403.602 473.204 464.665 471.679 526.157 465.213C595.228 458.076 636.557 438.86 671.021 414.887C679.029 409.335 686.751 403.784 694.617 398.233C717.64 382.007 741.665 366.817 779.132 358.399C800.297 353.702 825.323 350.957 856.212 351.262C932.719 351.994 983.343 377.31 1048.98 385.667C1057.71 386.765 1066.57 387.497 1075.58 387.924C1120.34 389.998 1167.25 383.715 1201.42 370.05C1242.47 353.641 1263.78 327.227 1256.34 301.912C1250.19 280.378 1225.74 260.736 1209.86 240.117C1182.12 204.675 1180.55 165.33 1203.57 129.888C1216.01 110.855 1235.6 92.9818 1261.92 77.2434C1309.82 48.5727 1379.32 27.4662 1457.4 16.0589C1502.16 9.53174 1549.5 6.35966 1597.12 7.09168" stroke="#D1DEFF" stroke-miterlimit="10"/>
<path d="M-250.93 485.282C-193.013 456.733 -86.7604 440.873 12.7708 447.156C62.8224 450.267 110.3 458.197 156.634 465.395C204.111 472.838 250.015 479.67 297.922 480.646C313.366 480.951 328.954 480.646 344.685 479.548C404.032 475.217 463.521 472.716 524.727 466.066C592.798 458.685 634.841 440.385 670.449 417.936C678.6 412.751 686.752 407.566 694.76 402.442C718.499 387.435 742.809 373.405 780.277 365.719C801.441 361.388 826.467 358.765 856.784 358.948C932.291 359.253 982.628 382.067 1046.27 388.655C1054.7 389.51 1063.28 390.059 1072.01 390.303C1115.05 391.401 1159.81 384.568 1192.42 370.721C1231.6 354.129 1251.76 327.959 1245.04 302.887C1239.46 281.415 1216.87 261.711 1202.43 241.093C1177.4 205.651 1177.4 166.488 1201.71 131.473C1214.87 112.563 1235.03 94.9334 1261.77 79.5C1310.39 51.3174 1380.04 30.6988 1458.12 19.2916C1502.74 12.8254 1550.07 9.59235 1597.55 10.0804" stroke="#D1DEFF" stroke-miterlimit="10"/>
<path d="M-244.494 490.65C-185.719 464.969 -80.1818 450.572 18.7774 456.185C68.686 458.93 115.878 466.006 161.782 472.228C208.831 478.572 253.734 484.184 300.782 484.306C315.941 484.367 331.099 483.818 346.544 482.476C404.604 477.413 462.521 473.997 523.441 467.104C590.367 459.54 633.268 442.093 669.878 421.109C678.315 416.29 686.752 411.47 695.046 406.712C719.5 392.865 744.097 380.055 781.564 373.1C802.872 369.135 827.755 366.817 857.5 366.756C932.005 366.634 982.057 386.887 1043.55 391.767C1051.7 392.438 1059.99 392.743 1068.29 392.743C1109.62 392.865 1152.09 385.484 1183.12 371.453C1220.3 354.617 1239.32 328.752 1233.46 303.864C1228.45 282.513 1207.72 262.688 1194.85 242.069C1172.4 206.566 1174.25 167.648 1199.85 132.999C1213.72 114.21 1234.6 96.8858 1261.63 81.6354C1310.97 53.9407 1380.75 33.7492 1458.98 22.464C1503.59 15.9978 1550.64 12.7037 1597.98 13.0697" stroke="#D1DEFF" stroke-miterlimit="10"/>
<path d="M-238.203 495.958C-178.57 473.204 -73.7478 460.211 24.4964 465.091C74.119 467.531 121.311 473.753 166.643 478.878C213.12 484.185 257.165 488.577 303.355 487.784C318.228 487.54 333.101 486.747 348.116 485.222C404.889 479.366 461.233 475.034 521.724 467.897C587.649 460.15 631.265 443.497 669.018 424.098C677.742 419.584 686.465 415.192 695.045 410.861C720.071 398.173 745.24 386.643 782.707 380.36C804.158 376.761 828.755 374.504 858.071 374.382C931.575 374.016 981.483 391.523 1040.69 394.696C1048.55 395.123 1056.56 395.184 1064.43 395.062C1103.9 394.269 1144.37 386.277 1173.68 372.064C1209 354.984 1226.88 329.363 1221.73 304.779C1217.3 283.551 1198.42 263.664 1186.98 242.985C1167.25 207.482 1170.82 168.746 1197.56 134.524C1212.15 115.858 1233.6 98.7774 1261.06 83.832C1311.11 56.6253 1381.04 36.9219 1459.41 25.6366C1503.88 19.2314 1550.78 15.8763 1597.98 15.9983" stroke="#D1DEFF" stroke-miterlimit="10"/>
<path d="M-231.768 501.326C-171.277 481.501 -67.1692 469.849 30.3599 474.12C79.6965 476.194 126.745 481.562 171.649 485.71C217.696 489.919 260.74 493.091 306.073 491.444C320.659 490.895 335.103 489.919 349.832 488.15C405.318 481.501 460.089 476.255 520.294 468.934C585.075 461.004 629.549 445.205 668.304 427.27C677.313 423.122 686.322 419.096 695.046 415.131C720.786 403.602 746.241 393.293 783.708 387.741C805.159 384.508 829.756 382.434 858.5 382.129C931.146 381.336 980.769 396.282 1037.68 397.746C1045.26 397.929 1052.84 397.807 1060.57 397.441C1098.32 395.672 1136.64 387.131 1164.39 372.735C1197.71 355.411 1214.58 330.095 1210.15 305.755C1206.29 284.649 1189.13 264.64 1179.4 243.961C1162.24 208.458 1167.82 169.905 1195.56 136.11C1210.86 117.566 1232.89 100.729 1260.77 86.0281C1311.4 59.3095 1381.47 40.094 1459.98 28.8087C1504.45 22.4036 1551.21 18.9875 1598.26 18.9265" stroke="#D1DEFF" stroke-miterlimit="10"/>
<path d="M-225.332 506.694C-164.126 489.797 -60.4477 479.548 36.3665 483.148C85.5601 484.856 132.323 489.431 176.797 492.481C222.416 495.653 264.602 497.544 308.933 495.043C323.234 494.25 337.391 492.969 351.692 491.017C405.891 483.636 459.231 477.413 518.864 469.849C582.644 461.797 627.834 446.73 667.732 430.381C677.027 426.538 686.323 422.939 695.332 419.401C721.788 409.092 747.672 400.003 784.996 395.123C806.59 392.316 831.043 390.364 859.215 389.876C930.861 388.717 980.197 401.101 1034.97 400.796C1042.26 400.735 1049.55 400.43 1056.85 399.881C1092.88 397.136 1128.92 388.046 1155.09 373.467C1186.41 355.899 1202.28 330.888 1198.57 306.731C1195.28 285.686 1180.12 265.616 1171.68 244.876C1157.38 209.373 1164.53 171.003 1193.56 137.635C1209.58 119.213 1232.17 102.681 1260.49 88.2241C1311.83 61.9935 1382.04 43.2661 1460.69 32.0418C1505.02 25.6977 1551.64 22.2206 1598.55 21.9766" stroke="#D1DEFF" stroke-miterlimit="10"/>
<path d="M-218.897 512.062C-156.833 498.093 -53.87 489.309 42.2291 492.115C91.1367 493.579 137.756 497.178 181.802 499.252C226.848 501.326 268.176 501.997 311.65 498.642C325.664 497.544 339.393 496.019 353.407 493.884C406.176 485.71 458.086 478.634 517.433 470.825C580.212 462.59 626.26 448.377 667.159 433.492C676.741 430.015 686.322 426.782 695.617 423.61C722.645 414.46 748.958 406.652 786.282 402.443C808.019 400.003 832.33 398.234 859.93 397.624C930.574 396.099 979.767 405.859 1032.25 403.846C1039.26 403.602 1046.26 403.053 1053.13 402.321C1087.45 398.6 1121.34 388.961 1145.8 374.199C1175.25 356.387 1189.98 331.62 1186.84 307.768C1184.12 286.845 1170.82 266.714 1163.96 245.913C1152.23 210.41 1161.24 172.223 1191.41 139.282C1208.15 120.982 1231.46 104.694 1260.06 90.542C1312.11 64.7993 1382.47 46.5599 1461.12 35.3356C1505.31 28.9915 1551.93 25.5144 1598.55 25.0264" stroke="#D1DEFF" stroke-miterlimit="10"/>
<path d="M-212.604 517.43C-149.682 506.389 -47.4342 499.008 48.093 501.143C96.8575 502.241 143.191 505.047 186.807 506.023C231.425 507.06 271.752 506.511 314.368 502.241C327.953 500.899 341.538 499.13 355.124 496.751C406.606 487.783 456.943 479.792 515.861 471.801C577.496 463.383 624.402 450.023 666.302 436.664C676.169 433.553 686.037 430.686 695.618 427.88C723.361 419.889 750.103 413.3 787.284 409.823C809.164 407.749 833.188 406.102 860.359 405.37C930.003 403.418 979.053 410.616 1029.25 406.895C1035.97 406.407 1042.69 405.614 1049.13 404.699C1081.73 400.002 1113.48 389.815 1136.22 374.87C1163.67 356.874 1177.4 332.352 1174.97 308.683C1172.97 287.881 1161.24 267.629 1156.09 246.827C1147.08 211.325 1157.81 173.321 1189.27 140.807C1206.72 122.628 1230.6 106.585 1259.63 92.6767C1312.4 67.4221 1382.9 49.6706 1461.69 38.4464C1505.88 32.1632 1552.22 28.5641 1598.84 27.9541" stroke="#D1DEFF" stroke-miterlimit="10"/>
<path d="M-206.169 522.799C-142.389 514.624 -40.8556 508.707 53.9564 510.171C102.435 510.903 148.626 512.855 191.813 512.855C236.001 512.855 275.328 511.025 317.085 505.901C330.384 504.254 343.541 502.241 356.84 499.679C407.035 489.919 455.799 481.074 514.431 472.777C575.065 464.237 622.829 451.61 665.73 439.837C675.884 437.031 686.037 434.591 695.761 432.211C724.076 425.379 751.39 420.072 788.428 417.266C810.451 415.619 834.333 414.094 860.932 413.179C929.574 410.861 978.481 415.375 1026.39 410.007C1032.82 409.275 1039.12 408.299 1045.41 407.201C1076.3 401.589 1105.76 390.791 1127.06 375.663C1152.66 357.424 1165.25 333.206 1163.53 309.781C1162.1 289.102 1152.23 268.788 1148.51 247.926C1142.08 212.423 1154.81 174.602 1187.27 142.515C1205.57 124.52 1229.88 108.66 1259.49 95.0562C1312.97 70.2896 1383.61 53.0262 1462.55 41.8019C1506.6 35.5188 1552.79 31.9197 1599.26 31.0657" stroke="#D1DEFF" stroke-miterlimit="10"/>
<path d="M-199.733 528.105C-135.095 522.859 -34.2771 518.284 59.963 519.077C108.299 519.504 154.203 520.602 196.818 519.504C240.435 518.406 278.903 515.356 319.802 509.378C332.816 507.426 345.686 505.169 358.557 502.424C407.464 491.87 454.656 482.11 513.002 473.631C572.635 464.908 621.256 453.134 665.016 442.825C675.455 440.385 685.751 438.25 695.905 436.298C724.935 430.625 752.535 426.599 789.573 424.464C811.738 423.183 835.477 421.841 861.647 420.804C929.288 418.059 977.91 420.011 1023.67 412.934C1029.82 411.958 1035.83 410.799 1041.69 409.457C1070.86 402.869 1098.18 391.523 1117.77 376.212C1141.36 357.728 1152.95 333.755 1151.95 310.635C1151.09 290.016 1143.08 269.642 1140.94 248.779C1137.22 213.216 1151.66 175.639 1185.27 143.979C1204.29 126.105 1229.31 110.55 1259.2 97.1297C1313.4 72.8511 1384.19 56.0757 1463.12 44.9124C1507.17 38.6903 1553.22 34.9692 1599.41 33.9932" stroke="#D1DEFF" stroke-miterlimit="10"/>
<path d="M-193.299 533.474C-127.946 531.156 -27.6994 527.984 65.8256 528.106C113.875 528.167 159.637 528.472 201.823 526.276C245.01 524.141 282.621 519.871 322.519 512.978C335.246 510.781 347.831 508.28 360.272 505.291C407.893 493.945 453.511 483.331 511.428 474.547C569.917 465.701 619.397 454.721 664.3 445.937C675.025 443.863 685.608 442.094 696.047 440.569C725.649 436.055 753.821 433.31 790.716 431.907C812.882 431.053 836.621 429.833 862.219 428.612C928.859 425.501 977.337 424.83 1020.81 416.046C1026.67 414.826 1032.39 413.484 1037.83 411.959C1065.28 404.395 1090.31 392.5 1108.33 377.005C1129.92 358.278 1140.51 334.609 1140.22 311.673C1139.93 291.176 1133.78 270.741 1133.07 249.817C1131.93 214.253 1148.37 176.859 1183.12 145.627C1202.86 127.875 1228.45 112.564 1258.77 99.4485C1313.68 75.5969 1384.61 59.3705 1463.7 48.2072C1507.6 41.9851 1553.5 38.264 1599.69 37.0439" stroke="#D1DEFF" stroke-miterlimit="10"/>
<path d="M-187.008 538.842C-120.797 539.452 -21.2654 537.622 71.5447 537.134C119.308 536.829 164.927 536.28 206.684 533.108C249.442 529.875 286.052 524.385 325.092 516.638C337.533 514.137 349.689 511.392 361.701 508.22C408.035 496.08 452.08 484.551 509.711 475.584C567.199 466.617 617.536 456.429 663.298 449.109C674.309 447.34 685.178 445.998 695.76 444.839C725.934 441.484 754.678 440.02 791.43 439.288C813.739 438.8 837.335 437.702 862.36 436.36C927.999 432.822 976.335 429.589 1017.52 419.035C1023.1 417.632 1028.53 415.985 1033.68 414.277C1059.42 405.737 1082.3 393.293 1098.75 377.615C1118.48 358.644 1127.92 335.28 1128.35 312.588C1128.78 292.213 1124.2 271.656 1125.2 250.732C1126.78 215.168 1144.94 177.958 1180.83 147.152C1201.28 129.522 1227.45 114.455 1258.2 101.584C1313.83 78.2201 1384.9 62.4817 1464.12 51.3184C1508.03 45.1572 1553.64 41.3142 1599.69 39.9111" stroke="#D1DEFF" stroke-miterlimit="10"/>
<path d="M-180.572 544.209C-113.503 547.747 -14.5439 547.32 77.5511 546.1C125.172 545.49 170.504 544.087 211.833 539.817C254.019 535.547 289.77 528.837 327.952 520.175C340.108 517.43 351.977 514.38 363.56 511.025C408.464 498.092 451.079 485.709 508.281 476.437C564.768 467.286 615.964 457.953 662.726 452.158C674.024 450.755 685.178 449.779 696.046 448.986C726.935 446.79 755.965 446.18 792.717 446.546C815.169 446.729 838.479 445.509 863.076 443.984C927.714 440.08 975.763 434.163 1014.8 421.962C1020.09 420.315 1025.1 418.485 1029.96 416.594C1053.99 407.078 1074.72 394.085 1089.45 378.224C1107.18 359.009 1115.62 335.889 1116.77 313.502C1117.77 293.249 1115.05 272.57 1117.48 251.646C1121.63 216.082 1141.79 179.054 1178.69 148.615C1199.99 131.107 1226.59 116.345 1257.77 103.718C1314.11 80.8421 1385.33 65.5917 1464.55 54.4895C1508.31 48.3283 1553.93 44.4852 1599.69 42.8992" stroke="#D1DEFF" stroke-miterlimit="10"/>
<path d="M-174.137 549.577C-106.21 556.044 -7.96526 556.898 83.4147 555.129C130.749 554.092 176.082 551.896 216.838 546.649C258.595 541.281 293.346 533.351 330.67 523.835C342.539 520.785 353.98 517.552 365.277 513.953C408.893 500.166 450.079 486.99 506.852 477.474C562.194 468.201 614.391 459.722 662.155 455.33C673.738 454.293 685.178 453.683 696.333 453.317C727.794 452.28 757.396 453.439 794.148 453.988C816.743 454.354 839.909 453.439 863.934 451.853C927.571 447.522 975.478 439.043 1012.23 425.134C1017.24 423.243 1021.95 421.23 1026.39 419.156C1048.7 408.725 1067.14 395.122 1080.3 379.078C1096.17 359.619 1103.47 336.804 1105.18 314.6C1106.9 294.408 1105.75 273.729 1109.9 252.683C1116.48 217.119 1138.65 180.274 1176.83 150.262C1198.85 132.876 1226.16 118.358 1257.63 106.036C1314.68 83.6481 1385.9 68.8248 1465.41 57.7835C1509.17 51.6834 1554.5 47.7183 1600.26 45.9492" stroke="#D1DEFF" stroke-miterlimit="10"/>
<path d="M-167.845 554.946C-99.0595 564.34 -1.53034 566.597 89.2776 564.096C136.469 562.754 181.516 559.704 221.843 553.36C263.171 546.955 297.063 537.805 333.387 527.312C344.97 524.018 356.124 520.48 366.993 516.698C409.322 502.119 448.934 488.088 505.421 478.267C559.763 468.873 612.818 461.187 661.439 458.32C673.309 457.649 685.035 457.466 696.475 457.405C728.508 457.222 758.682 459.967 795.292 461.187C818.029 461.919 841.053 461.187 864.506 459.418C927.142 454.66 974.762 443.557 1009.37 428.002C1014.09 425.867 1018.52 423.61 1022.67 421.353C1043.12 409.946 1059.56 395.793 1071.15 379.567C1085.02 359.924 1091.31 337.354 1093.74 315.393C1096.03 295.324 1096.75 274.522 1102.32 253.477C1111.62 217.913 1135.64 181.251 1174.83 151.665C1197.56 134.463 1225.45 120.128 1257.34 108.049C1314.97 86.1497 1386.47 71.8144 1466.13 60.7731C1509.74 54.734 1554.93 50.7079 1600.55 48.7559" stroke="#D1DEFF" stroke-miterlimit="10"/>
<path d="M-161.409 560.314C-91.9089 572.575 5.04826 576.296 95.1412 573.124C142.047 571.416 186.95 567.512 226.848 560.192C267.605 552.689 300.639 542.318 336.104 530.972C347.401 527.373 358.127 523.591 368.709 519.626C409.751 504.253 447.791 489.308 503.848 479.304C557.189 469.727 611.102 462.955 660.725 461.491C672.88 461.125 684.892 461.308 696.476 461.735C729.224 462.955 759.684 466.737 796.293 468.628C819.174 469.788 842.054 469.177 864.935 467.225C926.57 462.04 974.048 448.376 1006.37 431.113C1010.8 428.734 1014.95 426.293 1018.67 423.853C1037.4 411.47 1051.7 396.769 1061.57 380.359C1073.44 360.473 1078.73 338.146 1081.87 316.491C1084.73 296.543 1087.31 275.681 1094.46 254.574C1106.33 219.01 1132.35 182.592 1172.54 153.373C1196.13 136.292 1224.45 122.201 1256.91 110.428C1315.26 89.0161 1386.9 75.1688 1466.56 64.1275C1510.17 58.0883 1555.22 54.0013 1600.55 51.8662" stroke="#D1DEFF" stroke-miterlimit="10"/>
<path d="M-154.974 565.621C-84.6153 580.811 11.6268 585.874 101.005 582.092C147.624 580.018 192.385 575.321 231.854 566.902C272.181 558.362 304.357 546.772 338.822 534.511C349.833 530.668 360.129 526.58 370.426 522.432C410.038 506.206 446.647 490.468 502.419 480.158C554.758 470.459 609.386 464.237 660.01 464.542C672.451 464.603 684.75 465.03 696.619 465.884C729.939 468.263 760.971 473.387 797.437 475.888C820.318 477.474 843.056 476.925 865.508 474.851C926.142 469.3 973.333 452.952 1003.51 434.041C1007.65 431.479 1011.37 428.795 1014.8 426.111C1031.82 412.752 1043.83 397.501 1052.13 380.909C1062.14 360.778 1066.29 338.757 1070.15 317.284C1073.72 297.459 1077.87 276.474 1086.74 255.368C1101.32 219.804 1129.21 183.569 1170.54 154.777C1194.85 137.818 1223.88 124.032 1256.63 112.441C1315.69 91.518 1387.47 78.1587 1467.27 67.1784C1510.74 61.2003 1555.65 57.0522 1600.98 54.6731" stroke="#D1DEFF" stroke-miterlimit="10"/>
<path d="M-148.539 570.99C-77.3228 589.107 18.2044 595.574 107.01 591.059C153.487 588.68 197.961 583.068 237.001 573.674C276.9 564.036 308.075 551.225 341.681 538.11C352.263 533.962 362.416 529.692 372.284 525.3C410.609 508.28 445.788 491.688 500.988 481.135C552.327 471.313 607.813 466.189 659.437 467.714C672.165 468.08 684.606 468.934 696.904 470.215C730.939 473.693 762.258 480.159 798.724 483.331C821.747 485.344 844.342 484.917 866.222 482.721C925.855 476.743 972.76 457.832 1000.79 437.214C1004.65 434.408 1008.08 431.54 1011.09 428.673C1026.39 414.338 1036.25 398.539 1042.83 381.763C1050.84 361.389 1054.13 339.672 1058.56 318.444C1062.85 298.679 1068.72 277.634 1079.01 256.527C1096.17 220.963 1126.06 184.972 1168.39 156.546C1193.56 139.77 1223.02 126.167 1256.2 114.882C1315.97 94.4461 1387.9 81.5748 1467.84 70.5946C1511.17 64.6164 1555.93 60.4683 1601.12 57.9062" stroke="#D1DEFF" stroke-miterlimit="10"/>
<path d="M-142.246 576.357C-70.1718 597.403 24.6403 605.272 112.731 600.087C158.922 597.342 203.253 590.936 241.864 580.444C281.191 569.769 311.508 555.738 344.256 541.708C354.552 537.316 364.276 532.741 373.858 528.166C410.753 510.353 444.502 492.968 499.416 482.11C549.753 472.227 605.954 467.896 658.58 470.824C671.593 471.556 684.321 472.777 696.762 474.424C731.369 478.999 763.259 486.868 799.582 490.65C822.749 493.09 845.201 492.724 866.509 490.406C925.141 483.94 971.76 462.467 997.644 440.202C1001.22 437.152 1004.37 434.041 1007.08 430.99C1020.67 415.74 1028.39 399.331 1033.4 382.372C1039.54 361.754 1041.69 340.281 1046.84 319.358C1051.7 299.715 1059.42 278.609 1071.29 257.441C1091.17 221.816 1122.92 186.07 1166.25 158.07C1192.13 141.416 1222.16 128.057 1255.77 117.016C1316.26 97.0684 1388.33 84.6851 1468.27 73.7048C1511.6 67.7876 1556.22 63.5175 1601.12 60.7725" stroke="#D1DEFF" stroke-miterlimit="10"/>
<path d="M-135.811 581.726C-24.5529 618.266 136.47 620.645 246.87 587.216C285.767 575.443 315.083 560.192 346.973 545.308C396.024 522.371 429.344 496.995 497.843 483.025C559.335 470.459 632.982 468.202 696.905 478.633C732.228 484.367 764.404 493.518 800.727 497.971C897.255 509.744 977.481 468.751 1003.22 433.431C1029.53 397.44 1024.39 358.155 1035.11 320.395C1049.84 268.117 1093.03 203.699 1164.1 159.656C1238.89 113.356 1344.29 93.9578 1468.84 76.9994C1512.03 71.0822 1556.51 66.8121 1601.41 63.884" stroke="#D1DEFF" stroke-miterlimit="10"/>
</g>
</svg>
