<svg width="1315" height="793" viewBox="0 0 1315 793" fill="none" xmlns="http://www.w3.org/2000/svg">
<g opacity="0.1">
<path d="M593.429 679.472C700.401 687.729 799.998 677.754 871.78 651.37C957.195 620.043 1001.38 568.041 1035 514.825C1068.61 461.609 1094.34 405.375 1150.66 360.085C1207.16 314.777 1300.3 280.617 1424.47 284.369C1502.37 286.742 1587.18 303.738 1663.88 304.121C1906.51 305.302 1966.33 146.214 2211.75 151.78C2316.59 154.151 2431.99 187.404 2539.48 194.615C2680.09 204.119 2793.51 163.058 2806.97 97.8007" stroke="white" stroke-miterlimit="10"/>
<path d="M578.663 673.287C667.08 677.923 752.824 671.372 823.03 654.85C836.866 651.654 850.02 647.967 862.516 644.009C913.882 627.602 952.581 605.507 983.284 581.057C1006.82 562.395 1025.89 542.377 1043.26 521.632C1053.47 509.449 1063.38 496.961 1073.53 484.117C1096.4 454.522 1117.6 422.641 1143.55 393.198C1150.99 384.721 1158.9 376.531 1167.3 368.629C1188.38 348.866 1214.78 330.932 1246.69 316.586C1291.9 296.32 1348.19 283.112 1417.17 282.921C1490.67 282.748 1572.75 296.979 1649.39 296.62C1660.83 296.538 1671.8 296.167 1682.57 295.594C1752.06 291.578 1807.59 276.221 1858.12 256.007C1938.72 223.73 2005.68 178.861 2099.11 158.366C2131.23 151.331 2166.44 147.225 2206.69 147.418C2286.83 147.839 2372.91 165.912 2457.87 177.317C2482.83 180.621 2507.93 183.469 2532.43 184.929C2673.96 193.873 2791.03 156.594 2810.29 97.6855" stroke="white" stroke-miterlimit="10"/>
<path d="M564.097 667.202C651.76 669.616 738.703 662.181 811.829 646.691C826.244 643.658 839.999 640.352 853.174 636.656C907.201 621.634 949.558 601.92 983.719 580.64C1009.61 564.265 1031.18 547.072 1051.72 528.64C1063.73 517.811 1075.51 506.558 1087.56 494.387C1114.82 466.516 1137.8 433.702 1162.25 402.977C1169.22 394.184 1176.39 385.595 1184.12 377.176C1203.17 356.433 1226.17 337.322 1254.4 321.729C1294.72 299.756 1344.8 284.103 1409.75 281.533C1478.55 278.709 1558.47 290.323 1634.86 289.235C1646.22 289.053 1657.38 288.667 1668.23 287.975C1738.36 283.912 1796.08 270.657 1848.64 251.763C1932.68 221.759 2002.05 177.095 2095.15 155.483C2127.01 148.127 2162.13 143.472 2201.72 142.962C2280.73 141.96 2365.87 157.872 2450.89 168.114C2475.94 171.096 2500.94 173.636 2525.65 175.09C2667.82 183.386 2788.91 150.103 2814.05 97.4732" stroke="white" stroke-miterlimit="10"/>
<path d="M549.486 661.122C636.296 661.197 724.641 653.077 800.871 638.61C815.866 635.741 830.302 632.7 844.077 629.387C900.848 615.64 946.966 598.427 984.308 580.254C1012.67 566.284 1036.81 551.817 1060.07 535.645C1073.69 526.197 1087.7 516.154 1101.47 504.678C1132.96 478.561 1158.08 444.773 1180.66 412.788C1187.17 403.677 1193.68 394.565 1200.59 385.863C1217.49 364.03 1237.18 343.834 1261.9 326.965C1297.06 303.185 1339.89 283.823 1402 280.082C1467.43 276.138 1543.67 283.583 1619.98 281.743C1631.26 281.461 1642.51 280.957 1653.48 280.368C1724.23 276.257 1784.16 265.119 1838.66 247.674C1926.14 219.958 1997.86 175.619 2090.98 152.848C2122.77 145.151 2157.43 139.977 2196.55 138.742C2274.6 136.289 2358.62 150.044 2443.52 159.131C2468.47 161.806 2493.66 164.123 2518.48 165.469C2661.57 173.197 2786.31 143.751 2817.42 97.545" stroke="white" stroke-miterlimit="10"/>
<path d="M534.986 654.97C620.759 652.705 710.684 643.879 789.737 630.359C805.233 627.775 820.248 624.899 834.804 621.955C894.418 609.597 944.118 594.922 984.718 579.761C1015.53 568.215 1042.16 556.391 1068.33 542.704C1083.74 534.632 1099.62 525.842 1115.31 515.052C1151.1 490.586 1178.1 455.957 1199.28 422.777C1205.4 413.226 1211.08 403.828 1217.14 394.619C1232 371.793 1248.45 350.387 1269.48 332.251C1299.55 306.754 1337.56 286.342 1394.56 278.717C1453.97 270.753 1529.24 276.769 1605.4 274.291C1616.77 273.891 1628.03 273.388 1638.92 272.697C1710.29 268.538 1772.41 259.533 1828.94 243.429C1919.76 217.918 1993.81 173.912 2086.78 149.994C2118.48 141.953 2152.68 136.257 2191.15 134.308C2268.35 130.497 2351.13 141.974 2436.02 150C2461.05 152.347 2486.24 154.455 2511.17 155.692C2655.17 162.847 2783.82 137.354 2820.46 97.554" stroke="white" stroke-miterlimit="10"/>
<path d="M520.467 648.896C605.386 644.258 696.797 634.618 778.7 622.274C794.778 619.857 810.474 617.25 825.812 614.677C888.274 603.718 941.64 591.478 985.422 579.469C1018.7 570.363 1047.73 561.321 1077.08 549.998C1094.28 543.31 1111.93 535.679 1129.63 525.681C1169.65 502.996 1198.73 467.502 1218.29 432.905C1223.95 423.03 1229.06 413.206 1234.2 403.606C1246.84 379.792 1260.04 357.162 1277.36 337.746C1302.25 310.412 1334.21 287.701 1387.13 277.417C1441.93 266.843 1514.75 270.1 1590.83 266.859C1602.11 266.357 1613.47 265.735 1624.65 265.13C1696.65 260.924 1760.86 253.964 1819.62 239.415C1913.68 216.02 1990.37 172.431 2083.1 147.473C2114.72 139.086 2148.47 132.863 2186.45 130.179C2262.7 124.897 2344.35 134.185 2429.3 141.024C2454.42 143.042 2479.61 144.941 2504.83 146.05C2649.57 152.649 2782.04 131.03 2824.66 97.747" stroke="white" stroke-miterlimit="10"/>
<path d="M506.224 642.738C590.195 635.831 683.077 625.374 767.976 613.978C784.632 611.729 801.108 609.497 816.844 607.11C881.965 597.58 938.989 587.797 986.124 578.948C1021.94 572.183 1053.64 566.032 1085.62 557.145C1104.62 551.854 1124.14 545.497 1143.75 536.198C1188.08 515.197 1219.05 478.866 1237.19 443.068C1242.27 432.768 1246.92 422.623 1251.02 412.529C1261.5 387.611 1271.27 363.777 1285.16 343.166C1305.12 314.081 1330.56 288.994 1379.84 276.105C1429.92 263.027 1500.53 263.363 1576.35 259.37C1587.72 258.749 1598.91 258.144 1610.18 257.42C1682.97 253.148 1749.19 248.367 1809.79 235.201C1907.27 214.152 1986.29 170.916 2078.74 144.699C2110 135.88 2143.74 129.198 2181.06 125.79C2256.33 119.026 2336.84 126.103 2421.66 131.758C2446.68 133.46 2471.96 135.026 2497.38 136.127C2643.01 142.139 2779.2 124.548 2827.59 97.6348" stroke="white" stroke-miterlimit="10"/>
<path d="M491.723 636.227C574.812 626.918 669.073 615.763 756.877 605.443C774.109 603.365 791.083 601.425 807.595 599.414C875.547 591.307 936.041 584.016 986.522 578.349C1024.79 574.06 1059.16 570.818 1093.85 564.264C1114.63 560.38 1136.03 555.307 1157.64 546.819C1206.19 527.642 1239.13 490.364 1255.73 453.268C1260.53 442.633 1264.14 431.995 1267.6 421.599C1276.01 395.686 1282.33 370.649 1292.5 348.758C1307.07 317.851 1326.6 290.437 1371.87 274.964C1417.23 259.371 1485.34 256.68 1561.15 252.017C1572.43 251.293 1583.71 250.568 1595.27 249.93C1668.77 245.713 1737.05 243.005 1799.76 231.319C1900.55 212.533 1982.07 169.654 2074.25 142.402C2105.42 133.238 2138.68 126.026 2175.51 121.874C2249.8 113.621 2329.16 118.468 2413.84 122.927C2438.93 124.293 2464.21 125.643 2489.73 126.63C2636.23 132.045 2776.01 118.407 2830.18 98.1349" stroke="white" stroke-miterlimit="10"/>
<path d="M477.74 629.633C559.922 617.915 655.434 605.959 746.118 596.726C764.023 594.923 781.567 593.155 798.673 591.542C869.435 584.867 933.562 580.065 987.014 577.63C1027.62 575.727 1064.65 575.408 1102.22 571.184C1124.78 568.716 1147.94 564.831 1171.55 557.164C1224.4 539.713 1259.2 501.636 1274.26 463.269C1278.48 452.217 1281.62 441.268 1284.03 430.387C1290.28 403.391 1293.25 377.271 1299.85 354.094C1309.19 321.366 1322.54 291.773 1363.95 273.474C1404.47 255.485 1470.42 249.718 1546.11 244.278C1557.3 243.45 1568.76 242.709 1580.33 242.071C1654.41 237.804 1724.85 237.28 1789.36 227.001C1893.53 210.602 1977.33 168.13 2069.18 139.633C2100.25 130.129 2133.04 122.39 2169.36 117.491C2242.46 107.762 2320.55 110.257 2405.62 113.679C2430.61 114.722 2456.06 115.835 2481.57 116.603C2628.62 121.319 2772.33 111.844 2832.34 98.1366" stroke="white" stroke-miterlimit="10"/>
<path d="M463.53 619.979C544.407 605.923 641.199 593.296 734.708 585.148C752.958 583.539 771.23 582.153 789.143 580.801C862.432 575.463 929.95 573.262 986.601 574.003C1029.54 574.571 1069.04 577.043 1109.31 575.272C1133.6 574.22 1158.56 571.639 1184 564.73C1240.89 549.218 1277.77 510.574 1290.82 471.248C1294.53 459.965 1297.07 448.68 1298.52 437.498C1302.45 409.739 1302.09 382.611 1305.09 358.322C1309.39 324.104 1316.49 292.552 1353.54 271.587C1389.29 251.307 1452.54 242.521 1527.82 236.206C1539.07 235.258 1550.41 234.413 1562.13 233.758C1636.61 229.435 1708.93 230.951 1775.46 222.306C1882.63 208.249 1968.44 166.453 2059.89 137.085C2090.59 127.313 2123.16 119.056 2158.52 113.465C2230.43 102.284 2307.15 102.482 2391.87 104.632C2416.77 105.213 2442.25 106.19 2467.97 106.806C2615.52 110.803 2762.41 105.282 2828.2 98.2858" stroke="white" stroke-miterlimit="10"/>
<path d="M449.561 610.192C529.282 593.816 627.133 580.544 723.146 573.382C741.914 571.946 760.805 570.835 779.258 569.876C855.144 565.959 925.924 566.221 985.751 570.092C1031.02 573.099 1073.07 578.425 1115.92 578.971C1142.1 579.299 1168.67 578.023 1195.93 571.865C1256.73 558.171 1295.47 519.006 1306.87 478.727C1310.25 467.206 1311.82 455.633 1312.49 444.145C1314.29 415.637 1310.42 387.552 1309.63 362.2C1308.63 326.452 1309.48 292.993 1342.34 269.392C1373.6 246.951 1433.94 234.981 1508.8 228.024C1519.92 226.975 1531.41 226.114 1543.11 225.457C1617.96 221.078 1692.24 224.705 1760.66 217.573C1870.88 205.933 1958.73 164.707 2049.47 134.41C2079.96 124.362 2111.94 115.63 2146.69 109.324C2217.38 96.7139 2292.72 94.6401 2377.05 95.5269C2401.77 95.7685 2427.26 96.3864 2453.1 96.9704C2601.09 100.247 2751.22 98.7277 2822.47 98.2724" stroke="white" stroke-miterlimit="10"/>
<path d="M435.879 600.561C514.345 582.016 613.206 567.887 711.899 561.899C731.279 560.735 750.504 559.809 769.672 559.222C847.954 556.721 922.335 559.374 985.147 566.349C1032.62 571.656 1077.41 579.778 1122.93 582.711C1150.82 584.416 1179.24 584.29 1208.22 578.991C1273.09 567.072 1313.5 527.416 1323.23 486.206C1326 474.369 1326.97 462.48 1326.86 450.692C1326.42 421.351 1319.16 392.432 1314.78 366.023C1308.58 328.878 1303.48 293.633 1332.06 267.337C1358.64 242.788 1416.16 227.78 1490.67 220.071C1501.83 218.905 1513.2 217.942 1525.05 217.267C1600.42 212.815 1676.47 218.539 1746.48 212.813C1859.74 203.556 1949.52 163.017 2039.7 131.79C2069.98 121.471 2101.27 112.17 2135.5 105.262C2204.95 91.242 2278.9 86.9248 2363.09 86.6476C2387.81 86.5371 2413.22 86.9187 2439.08 87.3683C2587.29 89.9447 2740.72 92.2516 2817.7 98.3321" stroke="white" stroke-miterlimit="10"/>
<path d="M422.421 591.087C499.694 570.284 599.564 555.527 700.889 550.475C720.777 549.478 740.609 548.818 760.309 548.613C841.148 547.489 918.753 552.533 984.714 562.549C1034.39 570.124 1081.82 581.12 1129.9 586.303C1159.58 589.466 1189.68 590.49 1220.45 585.919C1289.19 575.766 1331.41 535.609 1339.58 493.585C1341.85 481.538 1342.21 469.339 1341.14 457.275C1338.4 427.233 1328.01 397.361 1319.86 369.932C1308.67 331.399 1297.54 294.298 1321.48 265.382C1343.58 238.74 1398.27 220.737 1472.23 212.302C1483.26 211.037 1494.78 210.058 1506.59 209.382C1582.31 204.873 1660.29 212.646 1732.16 208.39C1848.5 201.364 1940.01 161.519 2029.62 129.375C2059.5 118.806 2090.37 109.029 2123.98 101.426C2192.18 86.0158 2264.71 79.4848 2348.48 77.9734C2373.2 77.515 2398.52 77.663 2424.39 77.9795C2572.99 79.8455 2729.78 86.0238 2812.2 98.4638" stroke="white" stroke-miterlimit="10"/>
<path d="M409.232 581.7C485.117 558.688 586.147 543.292 689.998 539.276C710.388 538.443 730.924 538.146 751.228 538.2C834.602 538.432 915.487 545.713 984.608 558.943C1036.58 568.853 1086.53 582.581 1137.06 589.88C1168.44 594.38 1200.19 596.536 1232.84 592.783C1305.52 584.469 1349.44 543.717 1355.95 500.795C1357.79 488.424 1357.29 476.055 1355.34 463.603C1350.37 432.757 1336.62 402.084 1324.72 373.653C1308.28 333.676 1291.51 294.937 1310.99 263.423C1328.72 234.823 1380.19 213.683 1453.87 204.615C1464.77 203.252 1476.33 202.157 1488.11 201.48C1564.25 197.013 1644.05 206.705 1717.66 203.797C1836.97 199.085 1930.45 159.792 2019.38 126.862C2048.94 115.93 2079.49 105.784 2112.11 97.5281C2179.05 80.7477 2250.16 72.0326 2333.49 69.3021C2358.01 68.5168 2383.42 68.4171 2409.49 68.5848C2558.43 69.7467 2718.27 79.6559 2806.4 98.448" stroke="white" stroke-miterlimit="10"/>
<path d="M396.234 572.588C470.9 547.374 572.797 531.262 679.157 528.267C700.146 527.695 721.004 527.572 742.008 527.981C827.802 529.45 911.977 539.153 984.223 555.339C1038.38 567.454 1090.96 583.978 1144.21 593.449C1177.18 599.383 1210.77 602.639 1245.19 599.591C1321.87 592.97 1367.5 551.838 1372.17 508.041C1373.49 495.466 1372.39 482.794 1369.49 470.073C1362.41 438.53 1345.2 406.965 1329.75 377.527C1308.17 336.22 1285.7 295.763 1300.56 261.701C1314 231.05 1362.45 207.013 1435.57 197.236C1446.51 195.76 1457.86 194.683 1469.97 193.971C1546.42 189.446 1628.13 201.131 1703.39 199.667C1825.67 197.237 1921.01 158.595 2009.24 124.668C2038.58 113.476 2068.51 102.881 2100.51 93.9478C2166.08 75.7132 2235.86 64.9417 2319.02 61.0909C2343.53 59.9661 2368.92 59.5222 2394.91 59.6765C2543.92 60.0606 2707.18 73.8343 2800.71 98.8119" stroke="white" stroke-miterlimit="10"/>
<path d="M383.529 563.637C457.062 536.349 559.976 519.51 668.82 517.519C690.124 517.122 711.753 517.236 733.276 518.012C821.391 520.814 908.988 532.673 984.269 551.89C1040.78 566.162 1095.62 585.478 1151.57 597.09C1186.22 604.324 1221.45 608.68 1257.83 606.524C1338.3 601.587 1385.86 559.945 1388.7 515.285C1389.52 502.508 1387.54 489.455 1383.87 476.454C1374.58 444.125 1354.03 411.781 1335.03 381.352C1308.42 338.622 1280.1 296.49 1290.34 259.916C1299.33 227.261 1344.77 200.365 1417.48 189.871C1428.29 188.3 1439.68 187.109 1451.75 186.395C1528.68 181.794 1612.11 195.462 1689.08 195.307C1814.2 195.025 1911.55 157.007 1999.09 122.31C2028.2 110.86 2057.53 99.823 2088.89 90.2206C2153 70.6664 2221.52 57.7491 2304.21 52.7092C2328.52 51.2658 2353.99 50.5808 2379.89 50.5066C2529.2 50.2033 2695.48 67.6066 2794.58 98.6688" stroke="white" stroke-miterlimit="10"/>
<path d="M370.878 554.805C442.998 525.382 547.019 507.918 658.233 506.819C680.028 506.577 702.172 507.057 724.288 508.08C814.89 512.182 905.644 526.304 983.852 548.421C1042.63 564.942 1099.98 586.888 1158.45 600.633C1194.77 609.151 1231.74 614.693 1269.87 613.218C1354.12 609.94 1403.42 567.799 1404.6 522.257C1405 509.163 1402.34 495.927 1397.73 482.662C1386.16 449.665 1362.55 416.413 1339.67 385.032C1307.98 341.003 1274.17 297.176 1279.83 258.114C1284.65 223.555 1326.88 193.635 1399.28 182.528C1410.14 180.847 1421.5 179.657 1433.7 178.925C1510.94 174.265 1596.35 189.976 1674.86 191.129C1802.99 193.166 1902.08 155.67 1988.9 119.99C2017.6 108.3 2046.67 96.7893 2077.23 86.5409C2140.07 65.6627 2207.13 50.6408 2289.36 44.4263C2313.65 42.6514 2339.02 41.7451 2364.92 41.544C2514.54 40.5632 2683.92 61.6544 2788.58 98.732" stroke="white" stroke-miterlimit="10"/>
<path d="M358.576 546.243C429.451 514.688 534.286 496.524 648.226 496.482C670.607 496.491 693.238 497.121 715.942 498.387C809.015 503.771 903.085 520.114 984.208 545.096C1045.15 563.743 1105 588.289 1166.15 604.126C1204.23 614.01 1242.73 620.528 1282.7 619.823C1370.88 618.164 1421.74 575.537 1421.37 529.216C1421.26 515.921 1418.01 502.388 1412.36 488.764C1398.7 455.086 1371.68 420.968 1345.3 388.612C1308.45 343.199 1269.29 297.793 1270.09 256.189C1270.85 219.633 1309.71 186.95 1381.6 175.042C1392.32 173.267 1403.72 171.964 1415.89 171.232C1493.41 166.512 1580.7 184.146 1660.91 186.574C1791.95 190.802 1892.75 153.814 1979.05 117.353C2007.51 105.407 2035.87 93.3637 2065.71 82.5739C2127.18 60.2875 2192.89 43.2826 2274.81 35.8901C2298.8 33.7064 2324.35 32.6622 2350.25 32.3358C2499.97 30.7019 2672.63 55.4218 2782.65 98.4619" stroke="white" stroke-miterlimit="10"/>
<path d="M346.298 537.77C415.756 504.115 521.677 485.331 637.961 486.158C660.828 486.319 683.869 487.209 707.26 488.814C802.798 495.469 900.002 514.029 984.212 541.838C1047.59 562.674 1109.76 589.816 1173.41 607.743C1213.16 618.885 1253.28 626.467 1295.08 626.523C1386.9 626.383 1439.68 583.435 1437.57 536.132C1436.86 522.536 1432.95 508.82 1426.53 494.916C1410.7 460.456 1380.39 425.567 1350.35 392.254C1308.46 345.556 1263.95 298.362 1260.12 254.427C1256.65 215.902 1292.41 180.347 1363.82 167.855C1374.41 165.988 1385.94 164.671 1398.25 163.919C1476.07 159.141 1565.24 178.683 1647.24 182.47C1781.19 188.867 1883.87 152.352 1969.54 115.01C1997.78 102.807 2025.53 90.3292 2054.74 78.8872C2114.76 55.316 2179.1 36.1348 2260.74 27.7875C2284.71 25.28 2310.06 23.9219 2336.23 23.5524C2486.24 21.2586 2661.89 49.4969 2777.55 98.5282" stroke="white" stroke-miterlimit="10"/>
<path d="M333.858 529.366C402.169 493.709 508.884 474.229 627.593 476.011C650.941 476.32 674.664 477.549 698.462 479.409C796.275 487.338 896.944 508.058 984.053 538.682C1049.68 561.702 1114.16 591.417 1180.48 611.396C1221.7 623.799 1263.72 632.514 1307.25 633.224C1403.06 634.759 1457.27 591.214 1453.63 543.128C1452.59 529.312 1447.81 515.219 1440.46 501.054C1422.57 465.913 1388.78 430.066 1355.37 395.883C1308.38 347.814 1258.57 299.059 1249.92 252.622C1242.42 212.129 1274.83 173.861 1345.83 160.676C1356.46 158.701 1367.86 157.288 1380.13 156.536C1458.32 151.795 1549.26 173.13 1632.88 178.278C1769.61 186.723 1874.18 150.878 1959.23 112.659C1987.05 100.218 2014.38 87.2929 2042.95 75.2043C2101.7 50.343 2164.58 29.1203 2245.74 19.6343C2269.68 16.806 2294.92 15.2341 2321.09 14.7418C2471.37 11.7948 2650.28 43.5967 2771.29 98.4793" stroke="white" stroke-miterlimit="10"/>
<path d="M321.496 521.168C388.388 483.439 496.168 463.345 617.37 465.96C641.123 466.53 665.5 467.885 689.805 470.094C789.961 479.173 893.837 502.167 984.016 535.571C1051.79 560.664 1118.86 593.013 1187.84 615.03C1230.8 628.764 1274.6 638.507 1319.67 639.88C1419.19 642.995 1475.1 598.923 1469.66 549.967C1468.12 535.947 1462.76 521.556 1454.66 507.111C1434.43 471.207 1397.57 434.578 1360.71 399.429C1308.91 350.069 1253.62 299.564 1240.2 250.848C1228.69 208.397 1257.94 167.417 1328.36 153.56C1338.85 151.494 1350.38 150.067 1362.79 149.296C1441.44 144.48 1534.08 167.709 1619.38 174.094C1758.98 184.666 1865.43 149.265 1949.77 110.28C1977.37 97.582 2004.09 84.2277 2032.03 71.4962C2089.51 45.3516 2150.94 22.1033 2231.79 11.4721C2255.53 8.34256 2280.85 6.5421 2307.01 5.92865C2457.29 2.2571 2639.45 37.5979 2765.89 98.3851" stroke="white" stroke-miterlimit="10"/>
<path d="M309.197 513.095C374.841 473.293 483.401 452.508 607.004 456.059C730.608 459.61 867.942 487.519 983.785 532.552C1097.42 576.746 1209.41 640.99 1331.68 646.564C1435.06 651.225 1492.65 606.621 1485.41 556.797C1478.18 506.973 1422.23 453.637 1365.38 402.915C1308.52 352.193 1248.07 300.029 1230.07 249.033C1212.07 198.036 1249.22 147.931 1344.79 141.977C1423.72 137.101 1518.21 162.195 1605.28 169.901C1747.65 182.483 1855.87 147.627 1939.59 107.766C2023.31 67.9048 2097.7 20.734 2216.86 3.34692C2376.39 -19.8279 2604.67 20.0454 2759.55 98.1519" stroke="white" stroke-miterlimit="10"/>
<path d="M296.925 507.982C361.808 467.731 469.271 446.387 591.975 449.013C639.103 450.102 688.231 454.603 737.664 462.359C816.847 474.782 896.319 495.443 967.933 522.582C1056.45 556.045 1144.04 601.573 1235.69 623.819C1262.31 630.27 1289.12 634.689 1316.47 636.301C1419.68 642.495 1478.46 601.347 1477.19 553.673C1476.08 517.431 1447.36 477.482 1409.79 438.065C1397.66 425.241 1384.56 412.405 1371.49 399.778C1318.18 348.308 1261.34 295.27 1245.85 243.665C1230.55 192.994 1267.95 143.409 1362.56 136.864C1440.64 131.377 1534.41 155.115 1621.31 162.77C1763.56 175.388 1873.07 143.991 1958.49 108.02C1968.14 104.019 1977.43 99.8424 1986.81 95.7619C2061.39 62.8451 2133.34 27.7449 2239.7 14.7727C2266.54 11.4522 2295.63 9.92951 2325.59 9.80646C2474.15 9.63109 2653.81 47.2678 2780.31 107.603" stroke="white" stroke-miterlimit="10"/>
<path d="M284.658 502.735C348.769 462.013 455.017 439.995 576.904 441.781C623.662 442.537 672.593 446.714 721.722 454.075C800.518 465.962 879.906 485.905 951.833 512.434C1040.69 545.135 1128.66 589.877 1220.43 612.692C1246.79 619.243 1273.56 623.94 1300.9 626.021C1404.1 633.758 1464.22 596.086 1468.35 550.536C1471.78 515.727 1447.2 475.38 1412.57 435.355C1401.3 422.343 1389.22 409.3 1377 396.486C1327.37 344.125 1274.28 290.28 1261.24 238.153C1248.61 187.909 1286.41 138.816 1379.68 131.491C1456.89 125.382 1549.67 147.675 1636.65 155.363C1778.49 167.941 1889.54 140.126 1976.81 108.076C1986.57 104.473 1996.33 100.87 2005.82 97.1869C2081.9 67.9151 2155.36 36.6528 2262.07 26.1198C2289.12 23.4245 2318.04 22.3645 2348.11 22.7958C2496.84 24.6807 2676.51 61.5007 2800.65 117.086" stroke="white" stroke-miterlimit="10"/>
<path d="M272.567 497.484C335.826 456.373 441.028 433.643 561.993 434.48C608.454 434.783 657.013 438.653 705.935 445.715C784.418 456.953 863.648 476.297 935.891 502.225C1025.1 534.175 1113.63 578.133 1205.33 601.56C1231.72 608.297 1258.33 613.183 1285.56 615.644C1388.63 624.859 1449.93 590.714 1460.02 547.464C1467.77 514.015 1447.72 473.209 1416.07 432.757C1405.84 419.529 1394.64 406.287 1383.28 393.274C1337.18 339.997 1288.06 285.285 1277.41 232.5C1267.46 182.662 1305.57 133.943 1397.87 126C1474.39 119.24 1566.25 140.177 1653.14 147.923C1794.66 160.572 1907.16 136.286 1996.2 108.318C2006.16 105.216 2016.02 102.015 2025.79 98.7169C2103.43 73.0193 2178.32 45.7555 2285.3 37.8124C2312.37 35.7685 2341.4 35.2599 2371.37 36.0595C2520.09 40.0602 2699.95 76.0619 2821.72 126.856" stroke="white" stroke-miterlimit="10"/>
<path d="M266.375 493.104C328.658 451.619 432.372 428.235 552.354 428.266C598.342 428.21 646.603 431.72 695.2 438.224C773.217 448.736 852.146 467.373 924.592 492.572C1014.01 523.612 1102.98 566.582 1194.45 590.51C1220.53 597.321 1247.04 602.469 1274.1 605.296C1376.75 616.056 1439.45 585.446 1454.83 544.644C1467.1 512.568 1451.45 471.694 1422.61 430.78C1413.27 417.404 1403.04 404.113 1392.63 390.838C1350.39 336.935 1304.86 281.508 1296.84 228.345C1289.52 179.113 1327.89 131.043 1418.63 122.295C1494.2 114.991 1584.89 134.347 1671.58 141.978C1812.58 154.49 1926.15 133.95 2016.79 110.082C2026.83 107.397 2036.87 104.712 2046.81 101.928C2125.73 80.0403 2201.92 56.7918 2308.99 51.3526C2336.19 49.9508 2365.08 50.0101 2395.17 51.2518C2543.55 57.3327 2723.26 92.3117 2842.31 138.037" stroke="white" stroke-miterlimit="10"/>
<path d="M261.737 488.934C322.989 447.108 425.243 423.178 543.971 422.188C589.459 421.766 637.296 424.807 685.566 430.952C763.177 440.812 841.845 458.597 914.289 483.046C1004.15 513.212 1093.26 555.052 1184.44 579.454C1210.48 586.411 1236.89 591.816 1263.58 595.025C1365.82 607.206 1429.8 580.301 1450.74 542.092C1467.44 511.55 1456.01 470.456 1430.45 429.186C1421.99 415.677 1412.82 402.236 1403.47 388.811C1364.83 334.255 1323.17 278.251 1317.85 224.647C1312.9 175.995 1351.66 128.609 1441.15 119.23C1515.81 111.263 1605.27 128.997 1691.75 136.713C1832.06 149.177 1946.61 132.211 2038.71 112.607C2049.1 110.427 2059.2 108.165 2069.31 105.902C2149.53 87.7551 2226.88 68.6879 2333.96 65.7691C2361.11 65.0305 2389.92 65.544 2419.93 67.2444C2567.88 75.4031 2747.36 109.3 2863.82 149.841" stroke="white" stroke-miterlimit="10"/>
<path d="M257.15 484.776C317.363 442.608 418.222 418.011 535.431 416.125C580.415 415.333 627.824 417.901 675.941 423.666C752.863 432.788 831.467 449.91 903.981 473.486C994.014 502.687 1083.53 543.47 1174.43 568.346C1200.32 575.352 1226.43 581.031 1253.11 584.59C1355.04 598.299 1420.19 575.028 1446.59 539.335C1467.99 510.211 1460.8 469.113 1438.08 427.425C1430.78 413.865 1422.4 400.191 1413.94 386.633C1379.19 331.507 1341.15 274.845 1338.45 220.917C1336.15 172.937 1375.12 126.258 1463.08 116.161C1536.63 107.542 1624.97 123.739 1711.2 131.323C1850.71 143.638 1966.42 130.47 2060.05 115.046C2070.5 113.292 2080.78 111.555 2091.12 109.701C2172.55 95.4378 2251.12 80.4659 2358.04 80.1014C2385.12 80.0305 2413.95 81.1003 2443.77 83.163C2591.29 93.4122 2770.41 126.118 2884.2 161.549" stroke="white" stroke-miterlimit="10"/>
<path d="M252.754 480.514C311.742 438.018 411.296 412.85 527.231 409.925C571.707 408.761 618.785 410.952 666.368 416.152C742.774 424.511 821.032 440.883 893.894 463.661C984.094 491.89 1073.84 531.624 1164.62 556.959C1190.3 564.129 1216.36 569.952 1242.67 573.896C1344.1 589.16 1411.03 569.599 1442.38 536.494C1468.58 508.898 1465.56 467.702 1445.78 425.694C1439.37 412.001 1432.06 398.177 1424.48 384.485C1393.54 328.69 1359.05 271.485 1359.07 217.118C1359.14 169.734 1398.59 123.851 1485.09 112.913C1557.63 103.736 1644.73 118.285 1730.71 125.736C1869.59 137.882 1986.27 128.555 2081.25 117.358C2091.86 116.133 2102.37 114.807 2112.71 113.499C2195.23 103.047 2275.02 92.1997 2382.03 94.4894C2409.23 95.0737 2437.89 96.7205 2467.62 99.2472C2614.86 111.583 2793.55 143.203 2904.74 173.37" stroke="white" stroke-miterlimit="10"/>
<path d="M248.136 476.295C306.169 433.552 404.03 407.624 518.782 403.753C562.923 402.196 609.39 403.924 656.636 408.754C732.622 416.446 810.431 431.96 883.462 453.951C973.828 481.199 1063.98 519.858 1154.46 545.672C1179.99 552.89 1205.76 558.99 1232.15 563.388C1333.24 580.199 1401.77 564.391 1438.14 533.779C1469.17 507.726 1470.03 466.351 1453.4 424.007C1448.06 410.164 1441.63 396.206 1434.95 382.382C1407.75 326.033 1376.9 268.17 1379.74 213.463C1382.11 166.798 1422.12 121.602 1507.24 109.916C1578.84 100.06 1664.71 112.948 1750.45 120.481C1888.62 132.572 2006.33 126.997 2102.91 120.139C2113.59 119.346 2124.27 118.552 2134.94 117.759C2218.83 111.229 2299.64 104.552 2406.55 109.53C2433.68 110.791 2462.35 113.001 2492.08 115.878C2638.84 130.331 2817.27 160.839 2925.68 185.719" stroke="white" stroke-miterlimit="10"/>
<path d="M243.627 472.069C300.593 428.982 396.946 402.492 510.401 397.567C554.026 395.631 600.153 396.975 647.137 401.314C722.417 408.247 800.048 422.978 873.244 444.172C963.771 470.428 1054.15 508.015 1144.5 534.288C1169.8 541.67 1195.52 547.914 1221.53 552.702C1322.27 571.067 1392.58 559.022 1433.72 531.06C1469.75 506.549 1474.62 465.102 1460.84 422.345C1456.4 408.371 1450.97 394.381 1445.26 380.308C1421.89 323.296 1394.51 264.796 1400.18 209.757C1404.92 163.707 1445.4 119.325 1528.87 106.803C1599.33 96.2806 1684.06 107.593 1769.54 114.987C1906.87 126.919 2025.7 125.221 2123.77 122.632C2134.79 122.357 2145.53 121.999 2156.27 121.64C2241.22 118.976 2323.33 116.581 2430.2 124.146C2457.26 126.088 2485.83 128.765 2515.47 132.11C2661.73 148.69 2839.71 178.087 2945.69 197.605" stroke="white" stroke-miterlimit="10"/>
<path d="M239.025 467.786C294.917 424.355 389.653 397.198 501.902 391.31C545.007 388.993 590.514 389.865 637.232 393.71C711.98 399.86 789.253 413.819 862.713 434.311C953.577 459.549 1044.18 496.056 1134.21 522.805C1159.36 530.235 1184.88 536.858 1210.76 541.903C1310.87 561.747 1383.32 553.675 1429.21 528.165C1470.35 505.311 1479.03 463.594 1468.33 420.626C1464.78 406.521 1460.43 392.383 1455.61 378.178C1436.01 320.62 1412.29 261.468 1420.8 206.099C1427.74 160.688 1468.76 117.011 1550.93 103.83C1620.37 92.7368 1704.02 102.343 1789.05 109.615C1925.82 121.469 2045.19 123.505 2144.85 125.313C2155.92 125.477 2166.83 125.657 2177.73 125.838C2264.02 127.148 2347.13 128.98 2453.95 139.148C2481.12 141.757 2509.52 145.021 2539.05 148.838C2684.81 167.556 2862.41 195.716 2965.7 209.967" stroke="white" stroke-miterlimit="10"/>
<path d="M234.695 463.428C289.321 419.676 382.7 391.936 493.628 384.978C536.207 382.276 581.265 382.656 627.634 386.118C701.941 391.58 779.026 404.739 852.365 424.332C943.381 448.555 1034.38 483.946 1123.99 511.066C1148.9 518.659 1174.36 525.426 1199.97 530.963C1299.7 552.372 1374.18 548.199 1424.57 525.3C1471.1 504.204 1483.23 462.261 1475.59 418.873C1473.22 404.724 1469.66 390.357 1465.75 376.024C1450 317.815 1429.76 258.04 1441.29 202.336C1450.43 157.581 1492.09 114.723 1572.67 100.797C1641.14 89.0118 1723.36 96.9316 1808.3 104.261C1944.21 115.945 2064.67 121.905 2165.79 128.036C2177.03 128.742 2188.16 129.346 2199.22 130.068C2286.56 135.292 2370.94 141.46 2477.52 154.26C2504.6 157.557 2533 161.393 2562.51 165.565C2707.92 186.411 2885.03 213.432 2985.61 222.157" stroke="white" stroke-miterlimit="10"/>
<path d="M230.298 459.039C283.923 415.059 375.549 386.552 485.238 378.617C527.284 375.528 571.988 375.513 617.978 378.369C691.735 383.033 768.444 395.399 841.934 414.166C933.094 437.36 1024.49 471.616 1113.75 499.2C1138.51 506.836 1163.66 513.88 1189.05 519.792C1288.49 542.867 1365.09 542.718 1419.85 522.131C1471.77 502.81 1487.44 460.535 1482.96 416.84C1481.5 402.568 1479.02 388.059 1476 373.601C1464.03 314.874 1447.29 254.491 1461.83 198.468C1473.17 154.385 1515.36 112.262 1594.52 97.5708C1661.83 85.1082 1742.88 91.4111 1827.53 98.5922C1962.66 110.2 2084.08 120.001 2186.47 130.493C2197.94 131.625 2209.05 132.791 2220.35 133.94C2308.82 143.198 2394.34 153.623 2500.94 169.148C2528.11 173.118 2556.33 177.545 2585.74 182.19C2730.6 205.183 2907.38 231.031 3005.33 234.294" stroke="white" stroke-miterlimit="10"/>
<path d="M225.735 454.48C278.248 410.178 368.307 381.107 476.643 372.088C518.15 368.609 562.395 368.094 608.025 370.559C681.045 374.435 757.551 385.983 831.187 403.914C922.585 426.167 1014.26 459.173 1103.18 487.216C1127.88 494.994 1152.79 502.196 1177.97 508.483C1276.83 533.142 1355.72 537.02 1414.87 518.982C1472.18 501.452 1491.49 458.955 1490 414.98C1489.62 400.57 1488.04 385.939 1485.93 371.359C1477.82 312.008 1464.4 251.046 1481.95 194.714C1495.49 151.318 1538.29 110.045 1615.84 94.6016C1682.17 81.4422 1762.04 86.1161 1846.13 93.2801C1980.54 104.688 2102.83 118.465 2206.75 133.422C2218.38 135.101 2229.73 136.695 2241 138.408C2330.66 151.601 2417.07 166.436 2523.56 184.595C2550.65 189.257 2578.76 194.157 2608.06 199.277C2752.35 224.42 2928.79 249.079 3023.93 246.864" stroke="white" stroke-miterlimit="10"/>
<path d="M221.502 449.889C272.889 405.277 361.262 375.544 468.33 365.538C509.471 361.65 553.171 360.75 598.334 362.718C670.886 365.885 746.9 376.52 820.676 393.603C912.382 414.783 1004.26 446.637 1092.82 475.13C1117.18 482.962 1142.05 490.524 1167.01 497.185C1265.45 523.408 1346.63 531.55 1410.05 515.758C1472.77 500.253 1495.43 457.242 1497.1 412.984C1497.62 398.457 1497.05 383.812 1496.09 368.979C1491.77 309.14 1481.65 247.398 1502.41 190.979C1518.15 148.287 1561.46 107.778 1637.57 91.5661C1702.71 77.7258 1781.39 80.7592 1865.17 87.7656C1998.66 98.9824 2121.88 116.627 2227.14 136.081C2238.82 138.206 2250.42 140.451 2261.93 142.594C2352.69 159.853 2440.22 178.977 2546.6 199.772C2573.6 205.128 2601.69 210.603 2630.78 216.095C2774.47 243.387 2950.46 266.737 3043.05 259.101" stroke="white" stroke-miterlimit="10"/>
<path d="M217.183 445.279C267.255 400.381 354.208 370.074 459.894 358.974C500.485 354.693 543.714 353.287 588.584 354.739C660.561 357.088 736.177 366.905 810.087 383.13C901.915 403.242 994.169 433.914 1082.36 462.849C1106.66 470.819 1131.28 478.534 1156.02 485.57C1253.86 513.37 1337.33 525.792 1405.28 512.343C1473.59 498.861 1499.69 455.447 1504.25 410.831C1505.67 396.192 1506.18 381.416 1506.13 366.469C1505.67 306.038 1498.88 243.749 1522.65 187.054C1540.3 144.996 1584.39 105.349 1659.14 88.4688C1723.1 73.9467 1800.66 75.211 1884.03 82.1746C2016.88 93.2787 2140.84 114.818 2247.5 138.662C2259.33 141.338 2271.16 144.013 2282.54 146.621C2374.58 167.94 2463.04 191.383 2569.29 214.818C2596.37 220.851 2624.27 226.919 2653.41 232.868C2796.68 262.291 2972.11 284.435 3061.87 271.27" stroke="white" stroke-miterlimit="10"/>
<path d="M212.86 440.606C261.786 395.416 347.026 364.454 451.416 352.36C491.452 347.684 534.306 345.872 578.7 346.82C650.093 348.347 725.483 357.32 799.342 372.696C891.285 391.729 983.907 421.203 1071.73 450.571C1095.85 458.575 1120.15 466.561 1144.67 473.969C1241.89 503.344 1327.74 520.158 1399.84 508.877C1473.56 497.445 1503.27 453.622 1510.73 408.661C1513.33 393.998 1514.64 379.01 1515.49 363.954C1518.72 302.964 1515.16 240.044 1542.32 183.275C1561.98 141.967 1606.74 103.093 1679.94 85.5626C1742.7 70.3586 1819.06 69.9644 1902.2 76.8643C2034.1 87.7638 2159.06 113.29 2266.93 141.547C2278.99 144.654 2290.8 147.898 2302.5 151.039C2395.52 176.341 2485.08 204.092 2591.22 230.39C2618.1 237.015 2645.97 243.659 2675 250.081C2817.54 281.546 2992.68 302.556 3079.77 283.825" stroke="white" stroke-miterlimit="10"/>
<path d="M208.551 435.847C256.422 390.475 339.94 358.861 442.924 345.667C482.401 340.596 524.774 338.273 568.968 338.801C639.693 339.621 714.852 347.745 788.734 362.145C880.786 380.089 973.773 408.354 1061.21 438.15C1085.09 446.304 1109.24 454.544 1133.71 462.306C1230.49 493.235 1318.43 514.366 1395.06 505.451C1474.46 496.162 1507.23 451.769 1517.95 406.659C1521.46 391.89 1523.85 376.779 1525.61 361.616C1532.8 300.163 1532.47 236.624 1562.63 179.606C1584.38 138.94 1629.73 100.969 1701.45 82.6684C1763.19 66.7654 1838.15 64.7228 1920.95 71.4536C2052.01 82.2458 2177.85 111.661 2287.1 144.322C2299.31 147.981 2311.35 151.657 2323.2 155.351C2417.29 184.742 2507.94 216.809 2613.93 245.749C2640.89 253.053 2668.74 260.272 2697.47 267.184C2839.38 300.79 3014.1 320.553 3098.35 296.257" stroke="white" stroke-miterlimit="10"/>
<path d="M204.556 431.056C251.263 385.412 333.045 353.152 434.531 338.976C473.444 333.509 515.332 330.674 559.041 330.693C629.169 330.682 703.91 337.968 777.909 351.486C870.064 368.332 963.127 395.289 1050.46 425.588C1074.16 433.77 1098.17 442.261 1122.23 450.409C1218.47 483.004 1306.84 506.371 1389.55 501.811C1476.3 496.981 1510.73 449.807 1524.34 404.375C1528.93 389.487 1532.04 374.291 1534.88 359.009C1545.76 297.026 1548.55 232.783 1582.38 175.806C1606.02 135.813 1652.23 98.844 1722.29 79.7919C1782.82 63.2083 1856.64 59.3754 1939.11 66.1548C2069.37 76.7135 2196.01 110.136 2306.46 147.217C2318.72 151.326 2330.9 155.554 2342.8 159.696C2438.04 193.059 2529.69 229.561 2635.34 261.156C2662.19 269.153 2690.01 276.946 2718.69 284.211C2859.95 319.951 3034.25 338.453 3115.82 308.566" stroke="white" stroke-miterlimit="10"/>
<path d="M200.428 426.218C245.788 380.32 326.112 347.497 426.177 332.218C464.525 326.354 506.029 323.109 549.251 322.618C618.883 321.877 693.104 328.219 767.22 340.852C859.656 356.58 952.897 382.327 1039.84 413.044C1063.29 421.374 1087.04 430.013 1110.87 438.531C1206.48 472.692 1298.96 502.662 1384.24 498.089C1474.56 493.263 1514.34 447.667 1531.12 401.999C1536.61 387.01 1540.81 371.694 1544.54 356.31C1559.4 293.885 1565.14 228.955 1602.34 171.936C1627.89 132.619 1674.96 96.6547 1743.42 76.7301C1802.92 59.4475 1875.34 53.9564 1957.46 60.5618C2086.85 71.0055 2214.27 108.222 2326.28 149.92C2338.69 154.582 2351.09 159.243 2363.14 163.939C2459.44 201.4 2552.17 242.227 2657.65 276.465C2684.4 285.157 2712.2 293.526 2740.65 301.16C2881.26 339.038 3054.85 356.189 3133.84 320.801" stroke="white" stroke-miterlimit="10"/>
<path d="M196.199 419.272C240.167 373.446 318.456 340.199 416.883 323.99C454.724 317.741 495.438 314.005 538.23 312.97C606.884 311.386 680.667 316.782 754.715 328.392C847.02 342.846 940.404 367.114 1026.77 397.95C1050 406.229 1073.48 415.152 1097.21 423.941C1192.09 459.433 1286.45 493.413 1375.89 491.09C1471.36 488.532 1514.34 442.688 1534.13 397.141C1540.48 382.168 1545.81 366.957 1550.3 351.491C1568.66 289.031 1577.36 223.919 1617.72 167.293C1645.01 128.948 1692.62 94.1433 1759.28 73.6938C1817.35 55.8387 1888.52 48.6689 1969.89 55.0189C2097.97 65.0897 2226.07 105.91 2339.05 151.614C2351.66 156.662 2364.01 161.846 2376.36 167.03C2473.6 208.092 2567.17 252.956 2672.26 289.488C2699.03 298.77 2726.46 307.542 2754.82 315.67C2894.64 355.273 3067.17 370.948 3143.17 330.229" stroke="white" stroke-miterlimit="10"/>
<path d="M192.283 412.275C251.22 349.073 374.761 308.849 527.3 303.487C679.739 298.024 859.192 327.39 1013.62 383.014C1129.24 424.723 1250.31 484.278 1367.15 483.842C1467.53 483.525 1513.91 437.329 1536.5 391.944C1573.76 316.747 1578.12 232.606 1632.39 162.546C1686.83 92.4699 1807.98 36.1019 1981.64 49.4257C2122.69 60.1922 2265.75 113.796 2388.79 169.845C2511.84 225.894 2629.23 288.23 2768.14 329.616C2907.05 371.003 3078.53 385.085 3151.5 339.138" stroke="white" stroke-miterlimit="10"/>
</g>
</svg>
