<svg width="25" height="24" viewBox="0 0 25 24" fill="none" xmlns="http://www.w3.org/2000/svg">
<path d="M6.05469 4H14.0547C15.1156 4 16.133 4.42143 16.8831 5.17157C17.6333 5.92172 18.0547 6.93913 18.0547 8C18.0547 9.06087 17.6333 10.0783 16.8831 10.8284C16.133 11.5786 15.1156 12 14.0547 12H6.05469V4Z" stroke="#A7A7A7" stroke-width="2" stroke-linecap="round" stroke-linejoin="round"/>
<path d="M6.05469 12H15.0547C16.1156 12 17.133 12.4214 17.8831 13.1716C18.6333 13.9217 19.0547 14.9391 19.0547 16C19.0547 17.0609 18.6333 18.0783 17.8831 18.8284C17.133 19.5786 16.1156 20 15.0547 20H6.05469V12Z" stroke="#A7A7A7" stroke-width="2" stroke-linecap="round" stroke-linejoin="round"/>
</svg>
