<svg width="281" height="200" viewBox="0 0 281 200" fill="none" xmlns="http://www.w3.org/2000/svg">
<path d="M132.042 -20.6979C135.071 -18.0135 139.627 -18.0135 142.655 -20.6979L162.181 -38.0051C166.285 -41.6426 172.748 -40.1667 174.867 -35.1085L184.941 -11.0509C186.504 -7.31748 190.609 -5.33992 194.503 -6.44467L219.587 -13.5614C224.862 -15.0579 230.045 -10.9253 229.76 -5.44995L228.407 20.5866C228.197 24.6277 231.038 28.1894 235.024 28.8833L260.728 33.3573C266.13 34.2977 269.007 40.2716 266.373 45.0814L253.842 67.9623C251.897 71.5129 252.912 75.9565 256.204 78.3117L277.417 93.4853C281.877 96.6754 281.879 103.305 277.42 106.497L256.2 121.688C252.91 124.043 251.897 128.486 253.841 132.035L266.373 154.919C269.007 159.728 266.13 165.702 260.728 166.643L235.024 171.117C231.038 171.811 228.197 175.372 228.407 179.413L229.76 205.45C230.045 210.925 224.862 215.058 219.587 213.561L194.503 206.445C190.609 205.34 186.504 207.317 184.941 211.051L174.867 235.108C172.748 240.167 166.285 241.643 162.181 238.005L142.655 220.698C139.627 218.013 135.071 218.013 132.042 220.698L112.517 238.005C108.413 241.643 101.949 240.167 99.8311 235.108L89.757 211.051C88.1936 207.317 84.0882 205.34 80.1943 206.445L55.1103 213.561C49.8357 215.058 44.653 210.925 44.9375 205.45L46.2907 179.413C46.5008 175.372 43.66 171.811 39.6734 171.117L13.97 166.643C8.56732 165.702 5.69103 159.728 8.32511 154.919L20.857 132.035C22.8009 128.486 21.7878 124.043 18.4971 121.688L-2.72223 106.497C-7.18089 103.305 -7.1796 96.6754 -2.7197 93.4853L18.4933 78.3117C21.7859 75.9565 22.8002 71.5129 20.8557 67.9623L8.32511 45.0814C5.69103 40.2716 8.5673 34.2977 13.9699 33.3573L39.6734 28.8833C43.66 28.1894 46.5008 24.6277 46.2907 20.5866L44.9375 -5.44995C44.653 -10.9253 49.8357 -15.0579 55.1103 -13.5614L80.1943 -6.44467C84.0882 -5.33992 88.1937 -7.31749 89.757 -11.0509L99.8311 -35.1085C101.949 -40.1667 108.413 -41.6426 112.517 -38.0051L132.042 -20.6979Z" fill="white"/>
</svg>
