<svg width="294" height="201" viewBox="0 0 294 201" fill="none" xmlns="http://www.w3.org/2000/svg">
<path d="M132.042 -30.1659C135.071 -27.4815 139.627 -27.4815 142.656 -30.1659L165.034 -50.0019C169.138 -53.6395 175.601 -52.1635 177.72 -47.1053L189.266 -19.5319C190.829 -15.7985 194.935 -13.8209 198.829 -14.9257L227.579 -23.0825C232.853 -24.579 238.036 -20.4465 237.751 -14.9711L236.2 14.8706C235.99 18.9118 238.831 22.4734 242.818 23.1673L272.277 28.295C277.68 29.2354 280.556 35.2093 277.922 40.0191L263.56 66.2437C261.615 69.7943 262.63 74.2379 265.922 76.5931L290.235 93.9842C294.695 97.1743 294.697 103.804 290.238 106.996L265.918 124.406C262.628 126.762 261.615 131.204 263.559 134.754L277.922 160.981C280.556 165.79 277.68 171.764 272.277 172.705L242.818 177.832C238.831 178.526 235.99 182.088 236.2 186.129L237.751 215.971C238.036 221.446 232.853 225.579 227.579 224.082L198.829 215.925C194.935 214.821 190.829 216.798 189.266 220.532L177.72 248.105C175.601 253.163 169.138 254.639 165.034 251.002L142.656 231.166C139.627 228.481 135.071 228.481 132.042 231.166L109.664 251.002C105.56 254.639 99.0965 253.163 96.9783 248.105L85.432 220.532C83.8686 216.798 79.7631 214.821 75.8693 215.925L47.1193 224.082C41.8447 225.579 36.662 221.446 36.9466 215.971L38.4975 186.129C38.7075 182.088 35.8668 178.526 31.8802 177.832L2.42104 172.705C-2.9816 171.764 -5.85786 165.79 -3.22378 160.981L11.1393 134.754C13.0832 131.204 12.0701 126.762 8.77941 124.406L-15.5401 106.996C-19.9988 103.804 -19.9975 97.1744 -15.5376 93.9842L8.77552 76.5931C12.0681 74.2379 13.0824 69.7943 11.138 66.2437L-3.22378 40.0191C-5.85786 35.2093 -2.98158 29.2354 2.42105 28.295L31.8802 23.1673C35.8668 22.4734 38.7075 18.9118 38.4975 14.8706L36.9466 -14.9711C36.662 -20.4465 41.8447 -24.579 47.1193 -23.0825L75.8693 -14.9257C79.7631 -13.8209 83.8686 -15.7985 85.432 -19.5319L96.9783 -47.1053C99.0965 -52.1635 105.56 -53.6395 109.664 -50.002L132.042 -30.1659Z" fill="white"/>
</svg>
