<svg width="332" height="144" viewBox="0 0 332 144" fill="none" xmlns="http://www.w3.org/2000/svg">
<path d="M145.486 101.707C145.486 101.668 145.488 101.639 145.493 101.601C146.382 95.3437 149.492 42.3419 192.448 38.4849C219.732 37.3267 250.014 60.0722 281.07 60.0722C298.165 60.0722 313.802 53.1431 326.191 40.0006C326.442 39.7338 326.895 39.9092 326.895 40.2759V84.1792C326.895 84.9933 326.585 85.7796 326.017 86.3621C313.281 99.4027 297.331 106.277 279.934 106.277C248.878 106.277 222.367 84.6893 191.312 84.6893C174.543 84.6893 159.178 91.3562 146.905 104.014C146.394 104.541 145.486 104.185 145.486 103.452V101.707Z" fill="url(#paint0_linear_1871_4495)"/>
<path d="M8.37495 43.6573V28.9868H78.5328V43.6573H52.268V114.643H34.6398V43.6573H8.37495ZM84.8411 114.643H65.6749L95.3707 28.9868H118.205L147.782 114.643H128.734L122.286 94.8855H91.289L84.8411 114.643ZM95.7848 81.0432H117.79L107.083 48.2714H106.492L95.7848 81.0432ZM151.076 28.9868L171.898 94.294H172.727L193.667 28.9868H213.307L183.729 114.643H160.896L131.2 28.9868H151.076ZM220.585 114.643V28.9868H278.084V43.6573H238.332V64.4798H275.126V79.1503H238.332V99.9729H278.202V114.643H220.585Z" fill="white"/>
<defs>
<linearGradient id="paint0_linear_1871_4495" x1="318.663" y1="30.794" x2="120.673" y2="126.271" gradientUnits="userSpaceOnUse">
<stop stop-color="#64B4FF"/>
<stop offset="0.324999" stop-color="#1A5BFF"/>
<stop offset="1" stop-color="#233D81"/>
</linearGradient>
</defs>
</svg>
