<svg width="106" height="46" viewBox="0 0 106 46" fill="none" xmlns="http://www.w3.org/2000/svg">
<path d="M48.0924 19.5337C48.0924 19.2752 48.1909 19.0255 48.3715 18.8406C52.4156 14.6994 57.4807 12.5166 63.0053 12.5166C72.8671 12.5166 81.2857 19.3717 91.1474 19.3717C95.8469 19.3717 100.199 17.7228 103.836 14.5725C104.534 13.9679 105.7 14.4366 105.7 15.36V27.027C105.7 27.2855 105.601 27.5352 105.42 27.7202C101.376 31.8613 96.3112 34.0441 90.7866 34.0441C80.9249 34.0441 72.5063 27.189 62.6445 27.189C57.9451 27.189 53.5928 28.8379 49.9562 31.9882C49.2583 32.5928 48.0924 32.1241 48.0924 31.2007V19.5337Z" fill="#1A5BFF"/>
<path d="M1.28196 9.29947H23.5608V13.9581H15.2204V36.5H9.62246V13.9581H1.28196V9.29947ZM22.1708 36.5L31.6008 9.29947H38.8518L48.2442 36.5H42.1955L40.1479 30.2258H30.3046L28.2571 36.5H22.1708ZM38.7203 25.8302L35.3202 15.4233H35.1323L31.7323 25.8302H38.7203ZM59.3649 30.038H59.6278L66.2777 9.29947H72.5143L63.1218 36.5H55.8709L46.4408 9.29947H52.7526L59.3649 30.038ZM75.595 9.29947H93.8539V13.9581H81.2305V20.5704H92.9147V25.2291H81.2305V31.8413H93.8915V36.5H75.595V9.29947Z" fill="white"/>
</svg>
