<svg width="25" height="24" viewBox="0 0 25 24" fill="none" xmlns="http://www.w3.org/2000/svg">
<path d="M21.0547 11.5C21.0581 12.8199 20.7498 14.1219 20.1547 15.3C19.4491 16.7118 18.3644 17.8992 17.0221 18.7293C15.6798 19.5594 14.1329 19.9994 12.5547 20C11.2348 20.0035 9.9328 19.6951 8.75469 19.1L3.05469 21L4.95469 15.3C4.35962 14.1219 4.05125 12.8199 4.05469 11.5C4.0553 9.92179 4.4953 8.37488 5.32541 7.03258C6.15551 5.69028 7.34294 4.6056 8.75469 3.90003C9.9328 3.30496 11.2348 2.99659 12.5547 3.00003H13.0547C15.139 3.11502 17.1077 3.99479 18.5838 5.47089C20.0599 6.94699 20.9397 8.91568 21.0547 11V11.5Z" stroke="#A7A7A7" stroke-width="2" stroke-linecap="round" stroke-linejoin="round"/>
</svg>
