<svg width="390" height="875" viewBox="0 0 390 875" fill="none" xmlns="http://www.w3.org/2000/svg">
<g opacity="0.1" clip-path="url(#clip0_2769_4945)">
<path d="M-107.781 750.618C-122.15 713.275 -92.3712 664.967 -53.7209 633.31C-15.0707 601.654 31.9535 580.468 73.6579 552.189C185.29 476.395 250.785 346.274 231.306 238.848C225.057 204.463 211.044 172.716 204.443 138.375C197.887 104.101 199.677 65.0433 222.632 31.0903C255.577 -17.8082 321.778 -42.2687 381.278 -52.9436C440.779 -63.6185 501.787 -65.6842 558.717 -90.6682C633.515 -123.487 688.377 -191.529 716.241 -259.941C744.105 -328.354 749.095 -398.379 753.711 -467.079" stroke="#D1DEFF" stroke-miterlimit="10"/>
<path d="M-112.438 749.202C-125.931 711.46 -96.2819 663.336 -57.6348 631.487C-40.8787 617.693 -22.6346 605.906 -3.80608 594.792C20.9195 580.166 46.4132 566.673 70.2412 551.099C118.857 519.3 159.424 478.075 188.223 431.89C210.488 396.168 226.149 358.406 233.607 320.757C238.993 293.951 239.794 267.335 235.631 241.849C233.769 230.464 231.029 219.285 227.982 208.218C221.795 185.757 214.292 163.799 210.344 140.696C205.815 114.484 206.45 85.743 217.919 58.7038C221.486 50.2531 225.983 42.0472 231.676 34.1011C255.526 0.903667 294.969 -20.005 336.863 -33.9176C354.936 -39.9466 373.516 -44.6653 391.274 -48.3408C411.188 -52.4073 431.069 -55.7706 450.682 -59.3414C489.203 -66.3945 526.785 -74.2699 561.48 -91.4731C584.101 -102.629 603.888 -117.213 621.824 -134.338C657.999 -169.082 685.654 -215.075 703.066 -261.711C707.799 -274.454 711.911 -287.36 715.626 -300.288C731.803 -357.761 738.442 -415.964 746 -471.873" stroke="#D1DEFF" stroke-miterlimit="10"/>
<path d="M-117.003 747.726C-129.576 709.651 -100.101 661.646 -61.4569 629.605C-44.7461 615.744 -26.4146 603.897 -7.4537 592.791C17.3622 578.298 42.9495 565.131 67.1359 549.898C116.252 519.025 157.639 479.383 187.416 433.703C210.437 398.343 227.121 361.152 236.039 323.778C242.352 297.025 243.771 270.379 240.134 244.73C238.492 233.293 235.927 221.997 232.967 210.87C227.086 188.299 219.8 166.097 216.291 142.89C212.289 116.515 213.677 87.9452 226.295 61.0991C230.218 52.7967 234.938 44.7316 240.811 37.0521C265.559 4.80261 305.156 -14.7515 346.963 -28.6049C365.168 -34.6265 383.654 -39.6708 401.274 -43.7387C421.046 -48.39 440.74 -52.4049 459.678 -56.7828C497.073 -65.3096 532.517 -74.4593 564.16 -92.2194C584.659 -103.687 601.932 -118.221 617.533 -135.221C649.124 -169.776 673.597 -216.141 689.721 -263.362C694.14 -276.379 698.029 -289.426 701.609 -302.555C717.503 -361.197 726.678 -420.731 737.99 -476.363" stroke="#D1DEFF" stroke-miterlimit="10"/>
<path d="M-121.703 746.242C-133.355 707.835 -104.187 659.941 -65.5008 627.774C-48.79 613.913 -30.4165 601.94 -11.4104 590.901C13.4507 576.475 39.2187 563.574 63.589 548.8C113.16 518.786 155.544 480.803 186.255 435.56C209.944 400.623 227.872 363.95 238.118 326.844C245.49 300.15 247.526 273.475 244.328 247.723C242.906 236.234 240.473 224.945 237.775 213.641C232.156 190.892 225.219 168.453 222.062 145.203C218.5 118.724 220.727 90.2659 234.362 63.6055C238.595 55.3847 243.496 47.5861 249.637 40.114C275.195 8.87164 315.034 -9.387 356.841 -23.2404C375.046 -29.262 393.529 -34.4988 411.14 -39.144C430.815 -44.3135 450.099 -49.1206 468.585 -54.1649C504.854 -64.1653 538.334 -74.7077 566.793 -93.0323C585.257 -104.872 599.842 -119.237 613.153 -136.046C640.25 -170.278 661.497 -217.081 676.241 -265.021C680.305 -278.186 683.969 -291.566 687.5 -304.954C703.065 -364.832 714.909 -425.69 729.887 -480.987" stroke="#D1DEFF" stroke-miterlimit="10"/>
<path d="M-126.357 744.827C-137.133 706.02 -108.094 658.311 -69.4115 625.951C-52.6587 611.965 -34.2852 599.992 -15.1887 589.086C9.76277 574.793 35.6664 562.092 60.2658 547.844C110.292 518.689 153.628 482.298 185.23 437.617C209.675 403.043 228.759 366.949 240.332 330.11C248.764 303.476 251.417 276.772 248.658 250.916C247.411 239.309 245.197 227.969 242.587 216.605C237.275 193.746 230.554 171.063 227.924 147.649C224.933 121.075 227.735 92.7134 242.653 66.2536C247.154 58.2401 252.365 50.5232 258.6 43.3768C285.055 13.0824 325.048 -3.82157 366.813 -17.5491C385.064 -23.5041 403.541 -29.1259 421.013 -34.1635C440.504 -39.792 459.643 -45.3763 477.454 -51.2279C512.551 -62.7685 544.113 -74.6369 569.432 -93.4593C585.861 -105.67 597.759 -119.867 608.821 -136.61C631.334 -170.652 649.357 -217.702 662.943 -266.412C666.606 -279.792 670.134 -293.373 673.617 -307.019C688.898 -368.067 703.324 -430.189 722.01 -485.277" stroke="#D1DEFF" stroke-miterlimit="10"/>
<path d="M-130.924 743.351C-140.866 704.271 -111.914 656.621 -73.2347 624.069C-56.527 610.015 -38.0663 597.984 -18.9246 587.144C6.07212 572.918 32.2017 560.55 56.9398 546.694C107.466 518.464 151.71 483.599 184.29 439.422C209.491 405.212 229.598 369.688 242.631 333.123C252.077 306.483 255.305 279.875 253.028 253.79C252 242.132 249.961 230.673 247.438 219.25C242.475 196.154 236.016 173.293 233.738 149.836C231.187 123.158 234.828 94.9081 250.851 68.5748C255.662 60.643 261.054 53.1927 267.557 46.2537C294.822 16.9664 335.012 1.29121 376.822 -12.3697C395.16 -18.3838 413.633 -24.1981 431.009 -29.7538C450.403 -35.9005 469.178 -42.2104 486.492 -48.7951C520.462 -61.8093 550.061 -75.0705 572.195 -94.4573C586.676 -107.098 595.799 -121.067 604.614 -137.746C622.588 -171.531 637.384 -219.02 649.636 -268.382C652.986 -282.036 656.246 -295.824 659.593 -309.671C674.546 -371.955 691.553 -435.341 714.08 -490.211" stroke="#D1DEFF" stroke-miterlimit="10"/>
<path d="M-135.624 741.868C-144.646 702.456 -115.914 654.857 -77.1469 622.246C-60.4392 608.193 -41.9365 596.035 -22.7496 585.262C2.42472 571.11 28.6027 559.002 53.6119 545.546C104.593 518.175 149.834 484.968 183.26 441.288C209.217 407.44 230.48 372.494 244.841 336.197C255.347 309.616 259.191 282.98 257.354 256.791C256.458 245.14 254.639 233.63 252.377 222.03C247.676 198.756 241.479 175.718 239.64 152.157C237.528 125.376 241.878 97.2298 259.183 71.0971C264.349 63.3135 269.963 56.004 276.647 49.3316C304.81 20.9922 345.154 6.67157 386.964 -6.98937C405.302 -13.0035 423.815 -19.1359 441.051 -25.084C460.349 -31.7489 478.759 -38.7844 495.618 -46.2279C528.374 -60.6567 556.272 -75.488 575.092 -95.2542C587.58 -108.392 594.016 -122.193 600.585 -138.613C614.02 -172.143 625.635 -220.003 636.64 -270.077C639.635 -283.879 642.714 -297.933 646.013 -312.039C660.682 -375.493 680.313 -440.269 706.461 -494.871" stroke="#D1DEFF" stroke-miterlimit="10"/>
<path d="M-140.191 740.391C-148.292 700.647 -119.734 653.167 -81.0577 620.422C-64.308 606.243 -45.8051 594.085 -26.4858 583.32C-1.26633 569.235 25.0051 557.452 50.3306 544.462C101.812 518.017 147.96 486.335 182.278 443.218C208.99 409.734 231.409 375.366 247.01 339.395C258.575 312.874 263.037 286.208 261.639 259.916C260.963 248.214 259.318 236.585 257.144 224.926C252.75 201.541 246.769 178.259 245.37 154.595C243.784 127.651 248.799 99.7347 267.296 73.6693C272.685 66.0265 278.567 58.9243 285.474 52.3927C314.447 25.0605 355.033 12.0354 396.755 -1.56638C415.226 -7.573 433.69 -13.9645 450.743 -20.3717C469.944 -27.5548 488.076 -35.3751 504.352 -43.4925C535.981 -59.3948 561.912 -75.8112 577.508 -95.8237C588.136 -109.451 591.71 -122.965 596.03 -139.32C604.882 -172.66 613.273 -220.766 622.987 -271.618C625.668 -285.694 628.479 -299.956 631.73 -314.321C646.07 -379.011 668.328 -444.985 698.184 -499.377" stroke="#D1DEFF" stroke-miterlimit="10"/>
<path d="M-144.844 738.975C-152.069 698.831 -123.641 651.536 -84.9673 618.599C-68.2627 604.353 -49.6727 592.137 -30.3081 581.438C-4.99826 567.486 21.4087 555.903 46.9181 543.372C98.8547 517.786 145.954 487.696 181.251 445.083C208.719 411.962 232.294 378.172 249.223 342.468C261.802 315.941 266.839 289.371 265.922 262.85C265.466 251.096 263.908 239.408 261.908 227.63C257.776 204.068 252.145 180.549 251.097 156.841C249.951 129.794 255.761 101.923 275.365 76.1762C281.109 68.6817 287.215 61.7203 294.302 55.4552C324.173 29.0709 364.826 17.4596 406.636 3.79863C425.106 -2.208 443.522 -8.85864 460.611 -15.7765C479.715 -23.4778 497.528 -31.9569 513.216 -40.9407C543.718 -58.3167 567.77 -76.3774 580.098 -96.7027C588.775 -110.953 589.531 -124.113 591.694 -140.27C595.962 -173.42 601.216 -221.832 609.683 -273.395C612.01 -287.619 614.64 -302.147 617.71 -316.779C631.766 -382.639 656.561 -449.943 690.17 -504.059" stroke="#D1DEFF" stroke-miterlimit="10"/>
<path d="M-149.457 737.434C-155.761 696.957 -127.553 649.714 -88.8371 616.651C-72.1325 602.405 -53.5877 590.122 -34.0908 579.43C-8.73569 565.545 17.8973 554.295 43.5906 542.224C96.0274 517.563 143.992 489.124 180.222 446.948C208.445 414.19 233.177 380.978 251.433 345.542C265.072 319.074 270.726 292.476 270.248 265.851C270.012 254.045 268.674 242.305 266.848 230.41C263.11 206.677 257.608 182.974 257.087 159.103C256.468 131.893 262.897 104.185 283.785 78.6393C289.751 71.2855 296.17 64.5981 303.48 58.4738C334.161 33.0966 375.055 22.7807 416.865 9.1198C435.423 3.05402 453.836 -3.78909 470.741 -11.166C489.703 -19.4521 507.197 -28.5902 522.387 -38.3071C551.676 -57.0975 573.846 -76.995 583.04 -97.4332C589.767 -112.307 587.751 -125.046 587.665 -141.138C587.395 -174.031 589.422 -222.882 596.601 -275.03C598.527 -289.47 600.977 -304.265 604.043 -319.089C617.816 -386.118 645.146 -454.753 682.509 -508.593" stroke="#D1DEFF" stroke-miterlimit="10"/>
<path d="M-154.109 736.016C-159.58 695.267 -131.459 648.082 -92.7464 614.827C-76.0871 600.515 -57.455 588.172 -37.8676 577.614C-12.4222 563.862 14.3463 552.812 40.3108 541.14C93.2026 517.338 142.119 490.492 179.328 448.82C208.307 416.425 234.282 383.732 253.778 348.622C268.477 322.214 274.747 295.586 274.709 268.858C274.693 257.001 273.529 245.143 271.791 233.188C268.314 209.278 263.161 185.337 262.993 161.422C262.858 134.176 269.95 106.505 292.074 81.0936C298.396 73.8881 305.037 67.3415 312.528 61.4837C344.107 37.0545 385.11 28.0267 426.878 14.4915C445.481 8.49239 463.888 1.2644 480.654 -6.50486C499.432 -15.25 516.736 -25.232 531.297 -35.6894C559.459 -55.9535 579.614 -77.6952 585.675 -98.2463C590.273 -113.817 585.705 -126.188 583.329 -142.088C578.475 -174.792 577.366 -223.948 583.165 -276.815C584.778 -291.529 587.005 -306.464 589.978 -321.614C603.422 -389.88 633.466 -459.771 674.538 -513.402" stroke="#D1DEFF" stroke-miterlimit="10"/>
<path d="M-158.764 734.6C-163.36 693.451 -135.368 646.452 -96.7458 613.063C-80.0444 598.625 -61.4123 586.282 -41.6926 575.732C-16.2019 562.046 10.66 551.322 36.8956 540.05C90.2876 517.174 140.111 491.853 178.211 450.744C207.946 418.712 235.077 386.597 255.901 351.754C271.659 325.406 278.546 298.749 278.903 271.851C279.106 259.942 278.03 248.025 276.466 235.951C273.251 211.864 268.405 187.813 268.63 163.728C268.935 136.378 276.734 108.812 300.141 83.6003C306.685 76.5355 313.682 70.1371 321.267 64.6051C353.656 41.1831 394.9 33.4506 436.668 19.9154C455.359 13.8571 473.762 6.43672 490.431 -1.85072C509.114 -11.114 526.097 -21.755 540.116 -33.0121C567.064 -54.6906 585.072 -78.2841 588.265 -98.9331C590.78 -115.134 583.572 -127.077 578.993 -142.846C569.555 -175.36 565.222 -224.762 569.863 -278.4C571.12 -293.262 573.121 -308.53 576.004 -323.813C589.164 -393.249 621.745 -464.471 666.57 -517.826" stroke="#D1DEFF" stroke-miterlimit="10"/>
<path d="M-163.376 733.058C-167.051 691.576 -139.279 644.628 -100.615 611.114C-83.9132 596.676 -65.2391 584.208 -45.4742 573.724C-19.8059 560.112 7.14954 549.714 33.569 538.901C87.4161 516.883 138.192 493.154 177.27 452.549C207.761 420.88 236.048 389.343 258.199 354.768C275.017 328.48 282.434 301.853 283.317 274.792C283.652 262.89 282.883 250.862 281.407 238.73C278.499 214.532 273.869 190.236 274.579 166.115C275.411 138.603 283.785 111.132 308.473 86.1217C315.328 79.1386 322.506 73.0068 330.358 67.6822C363.645 45.2081 405.044 38.8302 446.857 25.3617C465.547 19.3034 483.902 11.6239 500.52 2.88495C519.106 -6.8965 535.725 -18.2631 549.201 -30.3199C575.068 -53.4054 590.709 -78.799 590.988 -99.6126C591.287 -116.451 581.528 -128.026 574.659 -143.603C560.549 -175.869 553.122 -225.702 556.429 -279.992C557.286 -295.069 559.064 -310.478 561.94 -326.146C574.771 -396.817 609.934 -469.304 658.467 -522.449" stroke="#D1DEFF" stroke-miterlimit="10"/>
<path d="M-168.032 731.641C-170.786 689.827 -143.188 642.998 -104.482 609.358C-87.8258 594.853 -69.0644 582.326 -49.2543 571.908C-23.5408 558.364 3.59542 548.232 30.1988 537.878C84.5009 516.719 136.274 494.648 176.198 454.54C207.357 423.293 236.888 392.275 260.367 357.967C278.331 331.68 286.278 305.082 287.6 277.919C288.155 265.965 287.561 253.819 286.259 241.568C283.7 217.133 279.332 192.66 280.482 168.435C281.752 140.82 290.833 113.454 316.717 88.7029C323.84 81.9272 331.328 75.8769 339.361 70.8189C373.458 49.3519 415.099 44.2695 456.825 30.8602C475.56 24.8685 493.909 16.8041 510.388 7.67279C528.877 -2.62684 545.177 -14.6524 558.111 -27.5089C582.764 -52.0089 596.083 -79.1357 593.668 -100.166C591.664 -117.583 579.485 -128.782 570.368 -144.294C551.719 -176.303 541.111 -226.508 543.171 -281.509C543.715 -296.86 545.225 -312.477 548.011 -328.278C560.558 -400.119 598.303 -473.87 650.544 -526.806" stroke="#D1DEFF" stroke-miterlimit="10"/>
<path d="M-172.597 730.165C-174.475 687.952 -147.007 641.308 -108.304 607.475C-91.6053 592.845 -72.8439 580.317 -52.9886 569.967C-27.1848 556.555 0.0870416 546.623 27.0068 536.736C81.8091 516.503 134.489 495.957 175.392 456.352C207.307 425.469 238.126 395.037 262.8 360.988C281.824 334.76 290.388 308.134 292.104 280.8C292.834 268.729 292.371 256.589 291.244 244.22C288.992 219.675 284.841 194.958 286.43 170.629C288.227 142.852 297.883 115.582 325.049 91.0316C332.482 84.3375 340.151 78.5539 348.452 73.7033C383.401 53.1176 425.241 49.4564 466.967 36.0471C485.79 29.9963 504.136 21.7394 520.518 12.0899C538.91 1.27206 554.933 -11.5382 567.237 -25.1353C590.764 -51.1089 601.719 -79.8434 596.565 -101.156C592.171 -119.093 577.615 -130.042 566.339 -145.355C543.02 -177.115 529.362 -227.685 530.043 -283.405C530.232 -298.904 531.561 -314.787 534.253 -330.914C546.472 -403.992 586.886 -479.066 642.88 -531.726" stroke="#D1DEFF" stroke-miterlimit="10"/>
<path d="M-177.298 728.683C-178.342 686.196 -151.006 639.544 -112.348 605.645C-95.6501 591.014 -76.8467 578.361 -56.8137 568.085C-30.9647 554.74 -3.4669 545.141 23.5915 535.646C78.8489 516.272 132.394 497.377 174.275 458.277C206.945 427.757 238.921 397.902 264.923 364.121C285.006 337.953 294.099 311.357 296.342 283.86C297.292 271.737 297.049 259.546 296.009 247.118C294.019 222.395 290.217 197.441 292.157 173.068C294.394 145.187 304.67 118.081 333.206 93.6721C340.949 87.0595 348.886 81.4833 357.368 76.8993C393.127 57.3207 435.164 54.8884 476.848 41.6049C495.716 35.6207 514.055 26.9789 530.299 16.937C548.462 5.59354 564.297 -7.86823 576.06 -22.265C598.505 -49.6456 607.009 -79.9285 599.112 -101.717C592.374 -120.107 575.44 -130.805 561.916 -146.053C534.012 -177.623 517.131 -228.439 516.653 -284.929C516.441 -300.643 517.59 -316.793 520.279 -333.113C532.214 -407.36 575.164 -483.765 634.912 -536.149" stroke="#D1DEFF" stroke-miterlimit="10"/>
<path d="M-181.865 727.207C-181.988 684.387 -154.827 637.854 -116.172 603.762C-99.5194 589.065 -80.6287 576.353 -60.5505 566.143C-34.6111 552.931 -7.065 543.592 20.2646 534.497C76.0221 516.048 130.519 498.745 173.246 460.141C206.673 429.984 239.892 400.648 267.133 367.194C288.321 341.152 297.987 314.46 300.669 286.86C301.838 274.685 301.683 262.435 300.904 249.829C299.221 224.995 295.635 199.798 298.016 175.322C300.737 147.404 311.63 120.268 341.493 96.1264C349.459 89.6547 357.664 84.2858 366.414 79.9092C403.071 61.2786 445.262 60.2009 486.946 46.9174C505.901 40.8741 524.237 32.0399 540.384 21.4798C558.451 9.61812 573.921 -4.56923 585.141 -19.7657C606.372 -48.5607 612.513 -80.4512 601.965 -102.581C592.881 -121.424 573.482 -131.813 557.842 -146.989C525.226 -178.184 505.292 -229.557 503.525 -286.633C503.045 -302.554 503.926 -318.912 506.435 -335.497C518.041 -410.981 563.572 -488.65 627.074 -540.758" stroke="#D1DEFF" stroke-miterlimit="10"/>
<path d="M-186.517 725.79C-185.72 682.638 -158.733 636.223 -120.082 601.939C-103.387 587.116 -84.4959 574.403 -64.3726 564.26C-38.2555 551.123 -10.6611 542.042 16.9848 533.414C73.1974 515.823 128.647 500.113 172.352 462.013C206.534 432.219 240.954 403.528 269.479 370.274C291.813 344.233 302.009 317.57 305.13 289.868C306.519 277.641 306.538 265.272 305.847 252.607C304.425 227.596 301.101 202.221 303.921 177.641C307.169 149.561 318.724 122.463 349.696 98.6401C357.972 92.2499 366.444 87.0885 375.329 82.9118C412.797 65.2883 455.229 65.5061 496.913 52.2226C515.868 46.1792 534.156 37.0859 550.252 26.0743C568.222 13.6944 583.46 -1.21101 594.051 -17.1481C614.155 -47.4167 617.936 -80.7223 604.512 -103.335C593.129 -122.564 571.262 -132.836 553.419 -147.88C516.264 -178.819 493.149 -230.564 490.003 -288.358C489.123 -304.495 489.822 -321.119 492.328 -337.897C503.65 -414.55 551.763 -493.484 618.928 -545.448" stroke="#D1DEFF" stroke-miterlimit="10"/>
<path d="M-191.217 724.307C-189.544 680.756 -162.819 634.518 -124.038 600.049C-107.343 585.226 -88.4978 572.447 -68.242 562.311C-42.0798 549.241 -14.2594 540.494 13.5252 532.257C70.238 515.593 126.594 501.407 171.191 463.87C206.129 434.439 241.75 406.393 271.557 373.34C294.951 347.359 305.676 320.726 309.279 292.794C310.887 280.516 311.126 268.096 310.522 255.372C309.45 230.124 306.388 204.571 309.647 179.888C313.334 151.704 325.552 124.643 357.85 101.088C366.394 94.9052 375.135 89.9513 384.243 85.9154C422.608 69.2399 465.108 70.8713 506.791 57.5878C525.879 51.5519 544.119 42.1996 560.03 30.7289C577.904 17.8309 592.777 2.19983 602.826 -14.537C621.849 -46.2125 623.178 -81.0666 607.058 -104.088C593.375 -123.704 569.172 -133.851 548.993 -148.77C507.255 -179.52 480.915 -231.511 476.61 -290.076C475.33 -306.427 475.894 -323.251 478.306 -340.355C489.299 -418.244 540.082 -498.501 610.912 -550.13" stroke="#D1DEFF" stroke-miterlimit="10"/>
<path d="M-195.785 722.831C-193.278 679.007 -166.641 632.829 -127.95 598.226C-111.3 583.336 -92.3673 570.498 -71.9791 560.37C-45.7265 547.433 -17.7706 538.885 10.2431 531.175C67.4109 515.369 124.764 502.842 170.295 465.742C205.988 436.675 242.853 409.147 273.813 376.479C298.311 350.625 309.608 323.897 313.738 295.802C315.479 283.531 315.892 270.993 315.55 258.091C314.784 232.732 311.939 206.935 315.637 182.149C319.851 153.803 332.643 126.839 366.224 103.484C375.078 97.3827 384.087 92.6361 393.289 88.9259C432.464 73.2575 475.205 76.1844 516.934 62.9675C536.022 56.9317 554.3 47.2611 570.161 35.3389C587.937 21.9227 602.579 5.57355 611.997 -11.9038C629.939 -44.9863 628.863 -81.3223 609.955 -104.886C593.885 -124.828 567.347 -134.851 544.965 -149.639C498.642 -180.198 469.167 -232.495 463.483 -291.779C461.934 -308.337 462.185 -325.435 464.506 -342.672C475.216 -421.732 528.535 -503.319 603.206 -554.732" stroke="#D1DEFF" stroke-miterlimit="10"/>
<path d="M-200.437 721.415C-197.01 677.258 -170.546 631.198 -131.814 596.47C-115.122 581.454 -96.1891 568.616 -75.7557 558.555C-49.4579 545.684 -21.3212 537.403 6.8764 530.152C64.5445 515.271 122.805 504.27 169.226 467.733C205.675 439.029 243.787 412.212 275.984 379.679C301.587 353.951 313.456 327.126 318.025 298.928C319.985 286.606 320.573 273.949 320.318 260.988C319.814 235.452 317.318 209.419 321.368 184.588C326.021 156.138 339.431 129.145 374.385 106.124C383.461 100.164 392.738 95.6245 402.208 92.1217C442.28 77.4012 485.131 81.6162 526.905 68.4659C546.08 62.3709 564.356 52.5078 580.032 40.1266C597.625 26.2514 611.989 9.11749 620.865 -9.15956C637.68 -43.7157 634.243 -81.4668 612.593 -105.506C594.223 -125.835 565.217 -135.741 540.632 -150.396C489.683 -180.64 457.068 -233.434 450.183 -293.363C448.234 -310.136 448.349 -327.434 450.577 -344.997C460.958 -425.293 516.904 -508.078 595.283 -559.281" stroke="#D1DEFF" stroke-miterlimit="10"/>
<path d="M-205.05 719.872C-198.854 656.132 -147.63 589.488 -79.5384 556.546C0.718258 517.69 97.6206 523.292 168.239 469.471C205.444 441.13 244.712 414.892 278.236 382.625C316.624 345.699 325.469 306.527 325.168 263.633C324.756 208.557 314.736 151.142 382.626 108.512C431.655 77.6979 485.31 89.9575 536.87 73.771C577.591 60.9458 614.125 29.3621 629.814 -6.66774C645.502 -42.6975 639.75 -81.797 615.312 -106.378C594.642 -127.093 563.214 -136.815 536.381 -151.406C465.363 -189.833 426.545 -266.05 436.642 -347.515C446.739 -428.98 505.308 -513.155 587.354 -564.023" stroke="#D1DEFF" stroke-miterlimit="10"/>
<path d="M-197.234 723.134C-188.345 662.238 -136.518 597.422 -69.3597 564.043C-35.7595 547.29 0.608533 538.001 36.3564 528.548C73.0282 518.955 108.951 509.383 141.346 491.794C151.751 486.101 161.878 479.623 171.369 472.019C207.114 443.403 244.831 416.757 278 384.342C315.642 347.63 325.555 309.095 327.082 267.394C327.455 257.802 327.563 248.195 327.804 238.595C328.536 210.372 330.817 182.558 346.943 157.127C355.972 142.833 369.204 129.288 388.76 116.805C436.862 85.9391 488.532 95.4589 537.431 78.353C543.921 76.0919 550.316 73.3126 556.439 70.1335C587.054 54.238 612.732 27.681 624.644 -1.89668C638.93 -37.3648 632.747 -75.7836 608.84 -100.335C588.609 -121.153 558.224 -131.778 532.264 -146.96C487.512 -173.137 456.135 -214.901 442.912 -263.139C435.877 -288.916 434.059 -316.577 437.924 -344.687C445.115 -396.066 471.433 -448.351 510.532 -493.056C533.005 -518.705 559.754 -541.805 589.528 -560.632" stroke="#D1DEFF" stroke-miterlimit="10"/>
<path d="M-189.332 726.336C-177.838 668.343 -125.32 605.296 -59.0078 571.421C-25.7208 554.394 9.7948 544.223 44.4706 533.941C79.98 523.385 114.52 512.902 145.715 494.668C155.764 488.827 165.403 482.193 174.584 474.508C208.956 445.558 245.081 418.63 277.808 386.126C314.661 349.754 325.641 311.663 328.908 271.215C329.681 261.837 330.28 252.578 330.967 243.259C332.993 216.007 336.398 189.474 353.021 164.777C362.454 150.889 375.689 137.537 394.76 125.091C441.98 94.2394 491.62 100.953 537.857 82.9273C543.993 80.518 549.944 77.6497 555.757 74.389C584.602 58.1371 608.565 31.8677 619.295 2.80003C632.178 -32.1064 625.611 -69.7778 602.32 -94.3581C582.617 -115.339 553.146 -126.681 528.187 -142.64C485.006 -169.881 454.899 -212.215 442.69 -260.46C436.182 -286.399 434.894 -314.031 439.288 -342.111C447.277 -393.252 474.044 -445.063 513.23 -489.828C535.703 -515.476 562.233 -538.524 591.828 -557.426" stroke="#D1DEFF" stroke-miterlimit="10"/>
<path d="M-181.428 729.538C-167.242 674.389 -114.167 613.104 -48.7876 578.792C-15.9462 561.484 18.8947 550.506 52.4954 539.201C86.9748 527.689 120.043 516.162 149.994 497.409C159.642 491.353 168.926 484.571 177.71 476.864C210.709 447.58 245.152 420.236 277.568 387.651C313.63 351.426 325.724 314.039 330.818 274.784C331.95 265.747 333.082 256.71 334.172 247.799C337.539 221.584 341.977 196.198 359.142 172.301C368.846 158.813 382.171 145.594 400.803 133.252C447.096 102.348 494.708 106.447 538.414 87.3171C544.194 84.7596 549.836 81.8096 555.339 78.4673C582.414 61.8591 604.661 35.8774 614.295 7.26057C625.909 -27.0767 618.825 -64.0083 596.151 -88.6178C576.842 -109.769 548.46 -121.947 524.374 -138.497C482.85 -166.863 453.838 -209.647 442.731 -257.958C436.749 -284.06 435.991 -311.661 440.873 -339.585C449.66 -390.489 476.875 -441.827 516.062 -486.591C538.493 -512.114 564.977 -535.229 594.305 -554.337" stroke="#D1DEFF" stroke-miterlimit="10"/>
<path d="M-173.525 732.74C-156.691 680.368 -102.967 620.979 -38.4345 586.17C-5.95149 568.521 28.0823 556.728 60.6982 544.535C94.1024 532.001 125.656 519.556 154.45 500.225C163.744 494.02 172.585 487.149 181.014 479.293C212.686 449.742 245.49 422.05 277.552 389.316C312.78 353.364 326.03 316.556 332.82 278.485C334.397 269.73 335.975 260.975 337.511 252.345C342.172 227.101 347.688 202.93 365.396 179.832C375.458 166.685 388.922 153.859 407.024 141.486C452.39 110.529 497.93 111.948 539.062 91.8398C544.532 89.2006 549.818 86.1024 554.878 82.671C580.183 65.7065 600.628 40.0716 609.167 11.9056C619.379 -21.8699 611.822 -57.995 589.808 -82.7596C570.937 -104.014 543.6 -117.094 520.473 -134.295C480.475 -163.793 452.778 -207.08 442.727 -255.523C437.272 -281.787 437.176 -309.352 442.368 -337.194C451.952 -387.861 479.571 -438.79 518.936 -483.481C541.367 -509.004 567.631 -532.067 596.781 -551.25" stroke="#D1DEFF" stroke-miterlimit="10"/>
<path d="M-165.755 735.936C-146.229 686.408 -91.9018 628.847 -28.3474 593.534C3.73512 575.67 37.1362 562.944 68.5897 549.788C100.877 536.358 131.003 522.935 158.596 502.959C167.489 496.54 175.976 489.52 184.007 481.642C214.306 451.757 245.473 423.716 277.091 390.893C311.573 355.156 325.847 318.918 334.51 282.107C336.488 273.566 338.557 265.159 340.583 256.878C346.452 232.662 353.266 209.655 371.471 187.29C381.892 174.484 395.226 161.842 413.022 149.58C457.596 118.771 501.015 117.25 539.485 96.2225C544.6 93.4351 549.531 90.1886 554.239 86.8014C577.732 69.6063 596.504 44.1332 603.86 16.4773C612.757 -16.7957 604.683 -52.1809 583.331 -76.9081C564.9 -98.2657 538.651 -112.182 516.352 -130.041C478.011 -160.662 451.497 -204.46 442.461 -252.91C437.532 -279.337 437.966 -306.871 443.646 -334.557C454.027 -384.987 482.095 -435.443 521.547 -480.193C543.936 -505.589 570.068 -528.66 598.95 -548.05" stroke="#D1DEFF" stroke-miterlimit="10"/>
<path d="M-157.852 739.138C-135.633 692.453 -80.7483 636.655 -18.0821 600.971C13.5548 582.826 46.236 569.226 76.7047 555.181C107.917 540.729 136.528 526.387 162.965 505.833C171.458 499.199 179.547 492.157 187.223 484.131C216.149 453.912 245.679 425.521 276.987 392.617C310.636 357.153 326.065 321.493 336.424 285.867C338.847 277.608 341.362 269.483 343.746 261.542C350.91 238.297 358.803 216.504 377.55 194.939C388.242 182.533 401.712 170.091 419.022 157.866C462.757 126.945 504.103 122.744 539.913 100.797C544.672 97.8609 549.206 94.5921 553.646 90.9974C575.369 73.446 592.425 48.2606 598.686 21.0555C606.181 -11.6558 597.722 -46.2936 576.987 -71.0501C558.995 -92.5111 533.703 -107.27 512.451 -125.839C475.681 -157.526 450.523 -201.951 442.414 -250.349C438.012 -276.939 438.975 -304.443 445.098 -332.04C456.19 -382.173 484.707 -432.155 524.246 -476.964C546.635 -502.361 572.634 -525.439 601.293 -544.97" stroke="#D1DEFF" stroke-miterlimit="10"/>
<path d="M-149.95 742.34C-125.125 698.558 -69.4627 644.47 -7.72982 608.349C23.5487 589.863 55.468 575.515 84.8615 560.448C115.043 545.041 142.182 529.654 167.376 508.581C175.514 501.799 183.202 494.542 190.481 486.493C218.08 456.007 246.014 427.142 276.792 394.208C309.74 359.025 326.148 323.869 338.379 289.502C341.203 281.458 344.208 273.681 347.084 266.089C355.588 243.881 364.646 223.243 383.803 202.47C394.898 190.471 408.371 178.222 425.198 166.034C468.05 135.127 507.324 128.245 540.514 105.253C544.919 102.169 549.142 98.8181 553.185 95.2011C573.138 77.2933 588.391 52.4548 593.557 25.7005C599.65 -6.4491 590.806 -40.3396 570.642 -65.1919C553.045 -86.8229 528.929 -102.477 508.417 -121.645C473.392 -154.515 449.33 -199.391 442.322 -247.855C438.447 -274.607 439.985 -302.015 446.55 -329.523C458.44 -379.419 487.406 -428.927 527.077 -473.728C549.424 -498.999 575.291 -522.085 603.727 -541.756" stroke="#D1DEFF" stroke-miterlimit="10"/>
<path d="M-142.047 745.543C-114.53 704.605 -58.2187 652.412 2.49046 615.721C33.4137 597.087 64.5226 581.732 92.9314 565.776C121.951 549.406 147.663 533.041 171.7 511.39C179.437 504.393 186.683 497.047 193.652 488.917C219.791 458.156 246.22 428.95 276.643 395.867C308.844 360.898 326.409 326.32 340.335 293.139C343.605 285.376 347.055 277.88 350.377 270.569C360.088 249.391 370.357 229.975 390.011 209.936C401.465 198.277 414.986 186.287 431.373 174.202C473.344 143.31 510.587 133.621 541.116 109.71C545.21 106.544 549.079 103.045 552.724 99.406C570.907 81.1419 584.445 56.5909 588.428 30.3467C593.206 -1.30041 583.845 -34.4511 564.257 -59.2068C547.099 -80.9412 524.072 -97.4312 504.474 -117.317C471.019 -151.251 448.227 -196.697 442.234 -245.167C438.885 -272.082 441.04 -299.519 448.006 -326.813C460.694 -376.471 490.108 -425.505 529.779 -470.306C552.039 -495.518 577.905 -518.603 605.987 -538.423" stroke="#D1DEFF" stroke-miterlimit="10"/>
<path d="M-134.231 748.803C-104.022 710.71 -47.1077 660.345 12.7554 623.157C43.3202 604.182 73.6672 588.079 101.001 571.101C128.99 553.776 153.187 536.492 176.024 514.197C183.318 507.11 190.296 499.557 196.822 491.338C221.589 460.243 246.38 430.688 276.406 397.583C307.774 362.887 326.494 328.887 342.161 296.958C345.877 289.477 349.773 282.263 353.54 275.233C364.546 255.026 375.981 236.765 396.089 217.584C407.902 206.266 421.339 194.528 437.374 182.487C478.417 151.543 513.676 139.114 541.543 114.283C545.282 110.969 548.795 107.322 552.044 103.66C568.456 85.0399 580.279 60.7766 583.08 35.0424C586.5 4.02365 576.709 -28.4463 557.692 -53.2979C541.061 -75.1948 518.904 -92.4689 500.353 -113.064C468.556 -148.123 446.946 -194.079 442.054 -242.615C439.232 -269.692 441.917 -297.099 449.325 -324.304C462.811 -373.725 492.674 -422.285 532.432 -467.145C554.737 -492.29 580.339 -515.391 608.33 -535.344" stroke="#D1DEFF" stroke-miterlimit="10"/>
<path d="M-126.329 752.006C-93.4718 716.689 -35.9094 668.22 23.0203 630.595C53.1395 611.339 82.7666 594.362 109.115 576.495C136.075 558.214 158.712 539.945 180.393 517.072C187.287 509.77 193.822 502.128 200.038 493.827C223.432 462.398 246.631 432.561 276.256 399.241C306.923 364.826 326.709 331.271 344.162 300.661C348.278 293.394 352.665 286.528 356.835 279.906C369.049 260.728 381.781 243.63 402.3 225.242C414.516 214.331 427.957 202.785 443.507 190.781C483.668 159.851 516.851 144.549 542.102 118.865C545.486 115.403 548.602 111.734 551.628 107.931C566.316 89.0212 576.29 65.0381 578.083 39.6956C580.188 9.17939 569.926 -22.4841 551.526 -47.3649C535.334 -69.3652 514.265 -87.475 496.542 -108.729C466.315 -144.852 446.062 -191.436 442.098 -239.92C439.934 -267.153 443.017 -294.537 451 -321.645C465.283 -370.829 495.595 -418.915 535.441 -463.834C557.658 -488.92 583.173 -511.962 610.896 -532.122" stroke="#D1DEFF" stroke-miterlimit="10"/>
<path d="M-118.471 755.141C-82.9211 722.669 -24.8009 675.961 33.2828 637.84C63.0889 618.309 91.9088 600.518 117.095 581.688C142.892 562.444 164.102 543.197 184.627 519.746C191.12 512.23 197.3 504.439 203.119 496.116C225.14 464.353 246.701 434.167 276.017 400.765C305.937 366.565 326.879 333.588 345.94 304.221C350.502 297.237 355.202 290.645 359.95 284.312C373.459 266.104 387.315 250.287 408.331 232.632C420.905 222.062 434.394 210.775 449.592 198.816C488.827 167.833 519.937 149.85 542.614 123.188C545.643 119.578 548.449 115.827 551.032 111.935C563.95 92.6685 572.208 68.973 572.819 44.1405C573.522 14.186 562.829 -16.7967 545.092 -41.6401C529.294 -63.8104 509.315 -82.756 492.551 -104.66C463.937 -141.975 444.912 -189.002 441.961 -237.493C440.325 -264.888 444.069 -292.235 452.362 -319.261C467.444 -368.207 498.204 -415.819 538.095 -460.673C560.358 -485.692 585.695 -508.807 613.153 -528.983" stroke="#D1DEFF" stroke-miterlimit="10"/>
<path d="M-110.568 758.344C-72.4131 728.774 -13.6023 683.836 43.548 645.277C72.9084 625.466 101.054 606.867 125.165 587.015C149.932 566.816 169.715 546.591 188.95 522.554C195.089 514.89 200.914 506.951 206.29 498.538C226.938 466.442 246.907 435.973 275.735 402.416C304.867 368.556 326.92 336.09 347.809 307.916C352.816 301.213 357.961 294.903 363.201 288.918C377.917 271.74 393.071 257.086 414.542 240.289C427.433 230.186 441.012 219.032 455.725 207.11C494.078 176.141 523.158 155.352 543.174 127.771C545.847 124.012 548.343 120.179 550.529 116.265C561.677 96.6423 568.133 73.2936 567.648 48.9119C566.949 19.5192 555.871 -10.7162 538.706 -35.6555C523.347 -57.9292 504.457 -77.7105 488.52 -100.273C461.477 -138.653 443.809 -186.308 441.873 -234.806C440.763 -262.363 445.037 -289.68 453.818 -316.551C469.652 -365.326 500.906 -412.398 540.884 -457.31C563.06 -482.27 588.31 -505.327 615.587 -525.769" stroke="#D1DEFF" stroke-miterlimit="10"/>
<path d="M-102.752 761.606C-61.9047 734.88 -2.536 691.704 53.7262 652.775C82.641 632.681 110.066 613.209 133.193 592.468C156.885 571.246 175.153 550.103 193.232 525.488C198.97 517.609 204.353 509.581 209.332 501.146C228.607 468.716 246.939 437.898 275.456 404.259C303.887 370.68 327.051 338.725 349.548 311.796C354.955 305.308 360.592 299.346 366.19 293.702C382.114 277.553 398.566 264.062 420.446 248.058C433.695 238.295 447.278 227.334 461.552 215.514C498.978 184.494 526.072 160.965 543.382 132.397C545.745 128.557 547.84 124.509 549.716 120.514C559.094 100.534 563.835 77.4734 562.254 53.5426C560.24 24.6524 548.691 -4.77655 532.142 -29.7451C517.31 -52.1813 499.289 -72.7466 484.4 -96.0192C459.014 -135.523 442.528 -183.688 441.607 -232.193C441.023 -259.913 445.827 -287.2 455.051 -313.981C471.682 -362.52 503.385 -409.117 543.451 -454.088C565.671 -478.982 590.657 -502.053 617.711 -522.636" stroke="#D1DEFF" stroke-miterlimit="10"/>
<path d="M-94.8493 764.808C-51.3091 740.926 8.74993 699.519 64.0336 660.086C92.6352 639.719 119.253 619.431 141.305 597.669C163.879 575.551 180.72 553.43 197.598 528.17C202.981 520.142 207.963 511.9 212.545 503.442C230.36 470.737 247.186 439.578 275.217 405.784C302.901 372.418 327.222 341.042 351.458 315.365C357.312 309.158 363.394 303.477 369.437 298.115C386.656 282.937 403.915 270.26 426.609 255.456C440.442 246.367 453.76 235.391 467.637 223.549C504.181 192.542 529.112 166.2 543.893 136.72C545.901 132.731 547.599 128.662 549.165 124.584C556.773 104.249 559.798 81.4752 557.035 58.0544C553.619 29.7259 541.64 0.977644 525.753 -23.9535C511.361 -46.493 494.383 -67.9608 480.366 -91.825C456.551 -132.393 441.422 -181.187 441.382 -229.706C441.413 -257.648 446.705 -284.779 456.371 -311.472C473.8 -359.772 505.952 -405.896 546.062 -450.801C568.196 -475.635 593.181 -498.706 619.925 -519.371" stroke="#D1DEFF" stroke-miterlimit="10"/>
<path d="M-86.9466 768.01C-40.7138 746.972 19.858 707.261 74.2988 667.524C102.409 646.808 128.44 625.655 149.419 603.062C170.919 579.922 186.245 556.882 201.967 531.045C206.95 522.802 211.534 514.537 215.761 505.931C232.158 472.826 247.525 441.392 275.112 407.508C302.008 374.483 327.572 343.626 353.459 319.067C359.758 313.142 366.286 307.743 372.82 302.728C391.246 288.58 410.165 277.599 432.995 262.994C447.051 254.047 460.507 243.463 473.99 231.791C509.607 200.732 532.553 171.649 544.672 141.25C546.325 137.114 547.713 132.962 548.881 128.862C554.764 108.237 555.942 85.7437 552.084 62.7738C547.353 34.9478 534.901 7.00625 519.499 -17.9616C505.588 -40.7303 489.571 -62.8489 476.51 -87.5564C454.178 -129.131 440.407 -178.553 441.468 -227.137C442.025 -255.241 447.934 -282.402 458.001 -308.88C476.228 -356.943 508.696 -402.6 549.026 -447.557C571.205 -472.325 595.925 -495.411 622.534 -516.275" stroke="#D1DEFF" stroke-miterlimit="10"/>
<path d="M-79.1306 771.272C-30.2053 753.078 30.9697 715.195 84.5191 674.895C112.317 653.905 137.54 631.937 157.444 608.322C177.914 584.227 191.813 560.209 206.201 533.719C210.828 525.328 215.012 516.848 218.841 508.22C233.866 474.781 247.64 443.065 274.828 408.966C301.022 376.222 327.697 345.876 355.238 322.629C361.982 316.985 369.001 311.934 375.935 307.134C395.343 293.682 415.786 284.198 439.025 270.385C453.44 261.778 466.945 251.453 479.943 239.818C514.632 208.707 535.461 176.877 545.052 145.566C546.349 141.281 547.382 136.981 548.24 132.8C552.266 111.877 551.815 89.6125 546.862 67.0935C540.774 39.8958 527.892 12.6349 513.107 -12.3622C499.636 -35.2343 484.662 -58.2553 472.474 -83.5543C451.799 -126.253 439.298 -176.244 441.287 -224.776C442.415 -252.976 448.809 -280.174 459.318 -306.562C478.255 -354.329 511.259 -399.571 551.677 -444.587C573.814 -469.229 598.402 -492.323 624.787 -513.328" stroke="#D1DEFF" stroke-miterlimit="10"/>
<path d="M-71.228 774.474C-19.7424 759.116 42.1681 723.07 94.7842 682.332C122.136 661.061 146.64 638.219 165.559 613.716C184.866 588.657 197.338 563.662 210.57 536.594C214.797 527.988 218.538 519.419 222.057 510.71C235.709 476.936 247.846 444.871 274.636 410.751C300.084 378.22 327.961 348.519 357.151 326.39C364.296 320.961 371.76 316.192 379.144 311.866C400.027 299.651 421.413 291.181 445.149 278.102C459.967 269.902 473.475 259.77 485.988 248.171C519.751 217.008 538.595 182.438 545.524 150.207C546.466 145.774 547.189 141.393 547.65 137.189C549.905 115.91 547.739 93.933 541.603 71.9239C534.113 45.2879 520.802 18.7076 506.679 -6.25209C493.646 -29.2275 479.762 -53.0842 468.489 -79.1007C449.384 -122.864 438.285 -173.417 441.156 -221.964C442.898 -250.385 449.734 -277.494 460.818 -303.786C480.553 -351.315 514.006 -396.083 554.424 -441.099C576.56 -465.741 601.016 -488.842 627.092 -509.929" stroke="#D1DEFF" stroke-miterlimit="10"/>
<path d="M-63.3715 777.609C-9.19335 765.095 53.2751 730.81 105.003 689.702C131.909 668.149 155.738 644.5 173.582 618.975C191.86 592.961 202.904 566.987 214.848 539.334C218.719 530.58 221.973 521.856 225.182 513.064C237.329 478.949 248.005 446.61 274.395 412.274C299.142 380.025 327.861 350.627 358.973 330.017C366.609 324.937 374.428 320.315 382.303 316.338C404.394 305.152 427.123 297.912 451.223 285.558C466.358 277.825 479.824 267.818 491.985 256.264C524.866 225.115 541.547 187.731 545.947 154.588C546.579 150.074 546.859 145.603 546.965 141.251C547.451 119.616 543.482 97.9857 536.251 76.4275C527.445 50.2941 513.662 24.5204 500.111 -0.535222C487.605 -23.6731 474.59 -48.314 464.364 -75.0404C446.917 -119.928 437.088 -171.05 440.973 -219.603C443.242 -248.187 450.74 -275.258 462.134 -301.469C482.667 -348.761 516.569 -393.055 557.119 -438.063C579.213 -462.58 603.536 -485.688 629.431 -507.042" stroke="#D1DEFF" stroke-miterlimit="10"/>
<path d="M-55.4673 780.811C1.40346 771.142 64.4751 738.686 115.312 697.014C141.905 675.188 164.881 650.657 181.741 624.243C198.943 597.207 208.473 570.315 219.26 542.083C222.644 533.174 225.675 524.308 228.441 515.428C239.216 480.979 248.387 448.298 274.247 413.933C298.293 381.964 328.349 353.411 360.975 333.72C369.011 328.854 377.235 324.64 385.687 320.952C409.028 310.67 432.925 304.777 457.523 293.156C473.061 285.83 486.53 276.016 498.252 264.565C530.206 233.364 544.814 193.299 546.64 159.178C546.917 154.515 546.887 149.963 546.596 145.589C545.312 123.597 539.627 102.255 531.213 81.2064C521.006 55.6347 506.925 30.5491 493.903 5.52344C481.879 -17.8437 469.866 -43.2611 460.512 -70.5791C444.636 -116.531 436.209 -168.215 440.975 -216.783C443.904 -245.522 451.799 -272.571 463.681 -298.625C485.012 -345.681 519.362 -389.501 559.999 -434.568C582.007 -459.025 606.242 -482.074 631.915 -503.569" stroke="#D1DEFF" stroke-miterlimit="10"/>
<path d="M-47.6518 784.073C11.9116 777.247 75.5863 746.619 125.49 704.511C151.637 682.403 173.939 657.065 189.723 629.629C205.808 601.697 213.911 573.826 223.497 544.95C226.525 535.893 229.069 526.871 231.525 517.909C240.839 483.186 248.551 450.23 274.01 415.65C297.4 384.029 328.48 356.046 362.756 337.473C371.238 332.889 379.907 328.957 388.718 325.609C413.221 316.29 438.507 311.694 463.469 300.798C479.411 293.88 492.838 284.192 504.121 272.844C535.102 241.523 547.638 198.778 546.935 163.745C546.857 158.934 546.472 154.234 545.87 149.778C542.861 127.497 535.416 106.375 525.907 85.7776C514.384 60.7084 499.786 36.3628 487.427 11.3745C475.842 -12.096 464.918 -38.3491 456.479 -66.3846C442.215 -113.527 435.103 -165.714 440.796 -214.229C444.251 -243.131 452.677 -270.15 465.001 -296.115C487.129 -342.933 521.928 -386.279 562.566 -431.346C584.618 -455.737 608.676 -478.86 634.039 -500.436" stroke="#D1DEFF" stroke-miterlimit="10"/>
<path d="M-39.7492 787.275C55.1983 781.166 155.202 717.148 197.793 634.955C212.802 606.001 219.391 577.212 227.82 547.758C240.755 502.408 242.285 460.9 273.728 417.3C301.935 378.132 345.196 345.197 391.923 330.148C417.721 321.799 444.13 318.484 469.59 308.322C537.204 281.25 555.782 203.276 545.321 154.04C534.713 103.835 502.47 63.0474 481.041 17.3583C451.299 -45.8482 429.927 -134.09 440.662 -211.609C451.994 -293.133 501.925 -357.928 565.355 -427.985C587.32 -452.316 611.291 -475.38 636.517 -497.156" stroke="#D1DEFF" stroke-miterlimit="10"/>
</g>
<defs>
<clipPath id="clip0_2769_4945">
<rect width="1459.68" height="805.12" fill="white" transform="translate(-552 208.218) rotate(-34.1409)"/>
</clipPath>
</defs>
</svg>
