<svg width="1982" height="612" viewBox="0 0 1982 612" fill="none" xmlns="http://www.w3.org/2000/svg">
<g opacity="0.1">
<path d="M86.8032 529.98C99.1016 500.455 169.317 482.826 236.815 479.41C304.313 475.994 373.241 482.704 441.598 482.704C624.644 482.643 797.25 428.901 857.169 353.259C876.332 329.041 884.769 303.176 903.503 278.837C922.236 254.558 953.983 230.829 1005.61 219.299C1079.83 202.646 1172.78 215.456 1247.71 234.062C1322.65 252.667 1392.72 277.312 1475.66 285.852C1584.63 297.076 1698.04 277.739 1781.41 246.689C1864.78 215.639 1923.7 173.853 1981.19 132.738" stroke="#D1DEFF" stroke-miterlimit="10"/>
<path d="M82.6555 527.113C96.241 497.71 166.17 480.142 233.811 476.604C263.127 475.079 292.586 475.445 322.188 476.482C361.086 477.824 399.983 480.203 438.594 480.569C517.39 481.301 594.326 472.7 661.824 455.985C714.021 443.053 760.355 426.033 797.393 405.598C823.849 391.08 845.013 374.731 859.743 356.98C866.321 349.049 871.755 340.875 876.76 332.64C886.914 315.926 895.208 298.967 908.364 282.802C923.237 264.44 945.832 246.689 979.295 234.611C989.734 230.829 1001.03 227.596 1013.47 225.033C1065.53 214.358 1125.73 218.018 1183.36 227.108C1208.25 231.012 1232.7 235.953 1255.44 241.199C1280.89 247.116 1305.77 253.46 1330.51 259.56C1379.14 271.517 1427.33 282.558 1479.38 286.523C1513.27 289.146 1546.59 288.414 1579.77 285.303C1646.84 278.898 1712.91 261.817 1767.97 239.979C1782.98 234.001 1797.42 227.657 1811.44 221.129C1873.36 191.971 1925.13 158.298 1976.18 126.455" stroke="#D1DEFF" stroke-miterlimit="10"/>
<path d="M78.6513 524.245C93.5238 495.026 163.167 477.457 230.951 473.797C260.267 472.211 289.869 472.577 319.614 473.675C358.511 475.139 397.266 477.762 436.02 478.494C514.672 480.019 591.323 472.76 659.536 456.778C712.305 444.394 759.353 428.168 797.822 408.525C825.279 394.434 847.158 378.33 862.603 360.7C869.467 352.831 875.187 344.657 880.335 336.422C890.918 319.768 899.641 302.749 913.369 286.705C928.957 268.466 952.267 251.142 986.874 239.673C997.599 236.135 1009.04 233.085 1021.48 230.767C1073.82 221.068 1133.17 225.643 1190.66 234.732C1215.68 238.697 1240.28 243.394 1263.16 248.336C1288.9 253.826 1314.07 259.682 1338.67 264.989C1387.14 275.542 1433.91 284.875 1482.96 287.193C1514.7 288.719 1545.16 286.949 1575.62 282.923C1637.4 274.688 1700.18 256.022 1754.24 233.268C1769.11 226.985 1783.41 220.458 1797.42 213.748C1859.92 183.735 1915.55 150.306 1970.6 120.232" stroke="#D1DEFF" stroke-miterlimit="10"/>
<path d="M74.5054 521.317C90.6649 492.281 159.879 474.651 227.806 470.93C257.122 469.344 286.867 469.649 316.612 470.808C355.509 472.333 394.264 475.2 432.875 476.298C511.385 478.555 587.892 472.76 656.82 457.449C710.018 445.615 758.067 430.242 797.823 411.332C826.424 397.729 849.018 381.868 865.035 364.361C872.185 356.553 878.048 348.439 883.626 340.204C894.637 323.551 903.932 306.531 918.09 290.61C934.249 272.492 958.417 255.595 994.025 244.676C1005.04 241.321 1016.48 238.515 1029.06 236.441C1081.54 227.717 1140.18 233.208 1197.66 242.297C1222.69 246.262 1247.43 250.837 1270.74 255.412C1296.77 260.536 1322.08 265.721 1346.67 270.418C1395.01 279.569 1440.63 287.194 1486.53 287.804C1516.28 288.231 1543.59 285.425 1571.33 280.545C1627.82 270.601 1687.31 250.288 1740.37 226.497C1754.95 219.97 1769.25 213.138 1783.41 206.245C1846.48 175.317 1906.11 142.193 1965.03 113.889" stroke="#D1DEFF" stroke-miterlimit="10"/>
<path d="M70.3574 518.45C87.804 489.535 156.732 471.967 224.802 468.124C254.261 466.476 284.006 466.781 313.751 468.062C352.649 469.71 391.403 472.76 429.871 474.285C508.238 477.274 584.602 472.882 654.102 458.302C707.872 447.017 756.78 432.499 797.822 414.32C827.567 401.205 850.877 385.588 867.465 368.203C874.902 360.395 881.051 352.343 886.771 344.107C898.211 327.515 907.936 310.435 922.808 294.635C939.683 276.701 964.423 260.108 1001.32 249.86C1012.47 246.749 1024.2 244.126 1036.64 242.296C1089.41 234.549 1147.18 240.954 1204.53 250.104C1229.55 254.13 1254.58 258.461 1278.03 262.731C1304.2 267.49 1329.94 272.126 1354.4 276.03C1402.59 283.716 1447.06 289.694 1489.82 288.657C1517.56 287.986 1541.73 284.143 1566.9 278.348C1618.1 266.575 1674.15 244.736 1726.49 219.969C1740.79 213.137 1755.1 206.122 1769.4 199.046C1833.03 167.264 1896.53 134.445 1959.45 107.849" stroke="#D1DEFF" stroke-miterlimit="10"/>
<path d="M66.3533 515.583C84.9439 486.851 153.729 469.283 221.942 465.318C251.401 463.61 281.289 463.915 311.034 465.257C349.931 466.965 388.686 470.32 427.011 472.15C505.235 475.932 581.456 472.882 651.671 459.035C706.013 448.298 755.636 434.573 798.108 417.188C828.997 404.499 852.879 389.188 870.182 371.863C877.905 364.116 884.34 356.064 890.203 347.829C902.215 331.236 912.369 314.156 927.67 298.479C945.117 280.666 970.715 264.501 1008.75 254.802C1020.19 251.873 1031.92 249.494 1044.5 247.908C1097.42 241.137 1154.48 248.396 1211.82 257.608C1236.99 261.634 1262.16 265.843 1285.9 269.747C1312.35 274.139 1338.24 278.165 1362.69 281.398C1410.74 287.681 1454.07 291.951 1493.68 289.206C1519.57 287.437 1540.45 282.557 1563.04 275.847C1608.94 262.305 1661.71 238.819 1713.05 213.077C1727.21 205.939 1741.37 198.68 1755.67 191.421C1819.88 158.724 1887.23 126.21 1954.3 101.383" stroke="#D1DEFF" stroke-miterlimit="10"/>
<path d="M62.2056 512.655C82.0832 484.106 150.582 466.477 218.939 462.512C248.398 460.804 278.429 461.048 308.174 462.451C347.214 464.281 385.825 467.819 424.15 470.015C502.231 474.529 578.309 472.943 649.097 459.767C704.01 449.579 754.491 436.708 798.25 420.055C830.284 407.854 854.88 392.787 872.756 375.585C880.621 367.898 887.342 359.907 893.635 351.672C906.076 335.08 916.658 317.999 932.532 302.444C950.55 284.753 976.863 268.954 1016.19 259.926C1027.92 257.242 1039.79 255.046 1052.37 253.704C1105.57 247.908 1161.77 256.083 1219.11 265.294C1244.28 269.32 1269.74 273.346 1293.62 276.945C1320.36 280.971 1346.39 284.387 1370.98 286.888C1418.75 291.769 1461.36 294.331 1497.54 289.938C1521.57 287.01 1539.3 281.093 1559.18 273.59C1599.79 258.279 1649.27 233.207 1699.75 206.488C1713.62 199.107 1727.78 191.604 1742.22 184.162C1807.01 150.611 1878.36 118.341 1949.29 95.2217" stroke="#D1DEFF" stroke-miterlimit="10"/>
<path d="M58.2021 509.788C79.3668 481.423 147.58 463.793 215.936 459.706C245.538 457.937 275.569 458.181 305.457 459.645C344.497 461.536 382.966 465.318 421.291 467.941C499.229 473.248 575.164 473.004 646.523 460.56C702.009 450.922 753.348 438.904 798.251 422.983C831.428 411.271 856.74 396.447 875.188 379.367C883.339 371.742 890.346 363.751 896.781 355.515C909.652 338.984 920.663 321.843 937.109 306.409C955.842 288.841 982.727 273.468 1023.34 264.989C1035.21 262.488 1047.22 260.536 1059.95 259.377C1113.29 254.558 1168.78 263.647 1225.98 272.858C1251.29 276.946 1276.89 280.789 1300.91 284.022C1327.94 287.682 1354.25 290.488 1378.71 292.318C1426.33 295.795 1467.94 296.527 1500.69 290.61C1523 286.584 1537.3 279.63 1554.6 271.211C1589.92 254.07 1635.97 227.473 1685.59 199.718C1699.32 192.031 1713.34 184.284 1727.92 176.659C1793.28 142.193 1868.5 110.289 1943.43 88.8779" stroke="#D1DEFF" stroke-miterlimit="10"/>
<path d="M54.0544 506.921C76.5062 478.677 144.433 461.109 212.933 456.899C242.535 455.069 272.709 455.313 302.597 456.839C341.637 458.852 380.105 462.817 418.287 465.806C496.082 471.845 571.874 473.004 643.949 461.292C700.006 452.202 752.203 441.039 798.394 425.85C832.715 414.564 858.599 400.046 877.761 383.027C886.198 375.463 893.349 367.471 900.07 359.236C913.369 342.705 924.953 325.563 941.827 310.252C961.133 292.806 988.876 277.799 1030.49 269.991C1042.65 267.734 1054.8 265.965 1067.53 265.05C1121.16 261.207 1175.64 271.211 1232.98 280.422C1258.3 284.509 1284.04 288.169 1308.49 291.097C1335.81 294.392 1362.26 296.649 1386.71 297.686C1434.19 299.76 1474.95 298.662 1504.26 291.158C1524.86 285.912 1535.73 277.982 1550.46 268.771C1580.49 249.799 1623.24 221.678 1672.01 192.946C1685.45 185.016 1699.47 177.025 1714.05 169.156C1779.98 133.836 1859.06 102.176 1938 82.5334" stroke="#D1DEFF" stroke-miterlimit="10"/>
<path d="M50.05 503.993C73.7888 475.932 141.43 458.303 210.072 454.033C239.674 452.203 269.848 452.386 299.879 453.972C338.919 456.046 377.388 460.316 415.427 463.671C493.079 470.503 568.585 473.065 641.374 462.024C698.004 453.484 751.059 443.175 798.536 428.717C834.002 417.92 860.6 403.646 880.335 386.748C889.058 379.245 896.495 371.315 903.502 363.08C917.373 346.609 929.243 329.407 946.832 314.217C966.853 296.893 995.168 282.253 1038.07 275.115C1050.37 273.041 1062.67 271.577 1075.54 270.845C1129.31 267.978 1183.08 278.898 1240.42 288.109C1265.88 292.196 1291.76 295.734 1316.36 298.296C1343.96 301.163 1370.56 302.871 1395.01 303.237C1442.2 303.908 1482.24 300.858 1508.13 291.952C1527 285.486 1534.44 276.64 1546.59 266.514C1571.33 245.774 1610.8 216.005 1658.57 186.358C1671.72 178.123 1685.74 169.888 1700.47 161.897C1766.96 125.723 1849.91 94.307 1932.85 76.4336" stroke="#D1DEFF" stroke-miterlimit="10"/>
<path d="M45.9041 501.126C70.7869 473.248 138.285 455.619 207.07 451.227C236.672 449.335 266.989 449.518 297.02 451.227C336.06 453.423 374.529 457.876 412.568 461.597C490.077 469.161 565.44 473.126 638.944 462.817C696.146 454.826 750.202 445.37 798.824 431.645C835.433 421.336 862.747 407.305 883.053 390.53C892.063 383.088 899.785 375.158 906.935 366.923C921.235 350.452 933.677 333.25 951.696 318.182C972.288 301.041 1001.32 286.706 1045.51 280.178C1058.09 278.348 1070.53 277.067 1083.4 276.579C1137.46 274.688 1190.37 286.462 1247.57 295.734C1273.03 299.882 1299.2 303.176 1323.94 305.433C1351.68 307.934 1378.71 309.032 1403.02 308.666C1450.07 307.934 1489.25 302.871 1511.7 292.562C1528.72 284.754 1533.01 275.054 1542.45 264.074C1561.9 241.503 1598.08 210.21 1644.84 179.526C1657.85 170.986 1671.72 162.568 1686.6 154.332C1753.67 117.243 1840.61 86.1937 1927.56 70.0283" stroke="#D1DEFF" stroke-miterlimit="10"/>
<path d="M41.7563 498.259C67.9262 470.503 135.138 452.935 203.924 448.421C233.669 446.469 263.986 446.652 294.16 448.421C333.2 450.678 371.525 455.375 409.564 459.462C486.93 467.819 562.15 473.126 636.227 463.549C694.001 456.107 748.914 447.506 798.823 434.512C836.576 424.691 864.605 410.905 885.484 394.19C894.779 386.809 902.644 378.879 910.081 370.644C924.81 354.173 937.681 337.032 956.271 322.025C977.436 305.006 1007.18 291.037 1052.66 285.181C1065.38 283.534 1078.11 282.497 1090.84 282.253C1145.04 281.337 1197.23 294.026 1254.44 303.298C1280.03 307.446 1306.35 310.618 1331.37 312.509C1359.4 314.644 1386.57 315.193 1410.88 314.095C1457.65 311.96 1495.83 304.823 1515.13 293.233C1530.29 284.144 1531.29 273.59 1538.16 261.756C1552.31 237.355 1585.06 204.537 1631.11 172.877C1643.84 164.093 1657.71 155.369 1672.58 147.012C1740.22 109.069 1831.03 78.2635 1921.98 63.8672" stroke="#D1DEFF" stroke-miterlimit="10"/>
<path d="M37.7524 495.331C65.2093 467.758 132.136 450.129 201.064 445.554C230.809 443.602 261.269 443.724 291.443 445.554C330.626 447.933 368.808 452.874 406.704 457.327C483.927 466.416 559.004 473.127 633.796 464.281C692.142 457.388 747.913 449.641 799.109 437.38C838.006 428.046 866.607 414.504 888.201 397.912C897.639 390.592 905.934 382.722 913.513 374.487C928.671 358.078 941.971 340.875 961.133 326.052C983.013 309.155 1013.33 295.49 1060.09 290.305C1073.11 288.841 1085.83 288.048 1098.7 288.048C1153.19 288.109 1204.53 301.712 1261.73 311.046C1287.33 315.194 1313.78 318.183 1339.09 319.769C1367.41 321.538 1394.72 321.477 1419.03 319.647C1465.65 316.17 1502.55 306.897 1518.71 293.965C1531.86 283.534 1529.72 272.127 1533.87 259.438C1542.59 233.208 1572.19 198.803 1617.24 166.167C1629.68 157.078 1643.41 148.172 1658.57 139.57C1726.78 100.712 1821.45 70.2117 1916.4 57.5234" stroke="#D1DEFF" stroke-miterlimit="10"/>
<path d="M33.6047 492.465C62.3487 465.075 128.989 447.445 198.06 442.809C227.805 440.796 258.408 440.918 288.582 442.809C327.765 445.249 365.948 450.435 403.701 455.254C480.78 465.075 555.715 473.249 631.078 465.075C689.853 458.731 746.626 451.838 799.109 440.308C839.293 431.463 868.466 418.165 890.632 401.694C900.356 394.435 908.936 386.566 916.801 378.331C932.532 361.921 946.26 344.719 965.995 330.018C988.447 313.242 1019.48 299.944 1067.39 295.43C1080.54 294.21 1093.56 293.6 1106.43 293.844C1161.05 294.881 1211.68 309.399 1268.74 318.732C1294.33 322.941 1321.08 325.687 1346.53 326.968C1375.13 328.371 1402.59 327.761 1426.9 325.199C1473.23 320.318 1508.84 308.972 1522.14 294.759C1533.15 282.985 1528 270.785 1529.58 257.182C1533.01 229.182 1559.32 193.191 1603.51 159.579C1615.81 150.185 1629.39 141.035 1644.55 132.312C1713.34 92.5998 1811.87 62.4041 1910.83 51.4238" stroke="#D1DEFF" stroke-miterlimit="10"/>
<path d="M29.6008 489.597C59.6318 462.329 125.986 444.761 195.2 440.003C225.088 437.929 255.691 438.051 285.865 440.003C325.048 442.565 363.231 447.933 400.984 453.179C477.92 463.793 552.712 473.31 628.79 465.867C688.137 460.072 745.911 454.094 799.538 443.236C840.866 434.879 870.754 421.824 893.492 405.415C903.502 398.156 912.226 390.348 920.377 382.112C936.536 365.764 950.694 348.5 971 333.921C994.167 317.268 1025.77 304.274 1074.96 300.431C1088.41 299.394 1101.42 299.028 1114.43 299.516C1169.35 301.468 1219.11 316.963 1276.17 326.296C1301.91 330.505 1328.8 333.128 1354.54 334.043C1383.43 335.08 1411.17 333.86 1435.34 330.566C1481.53 324.283 1515.71 310.924 1526.14 295.368C1534.87 282.253 1526.86 269.199 1525.86 254.802C1523.86 224.972 1547.02 187.457 1590.21 152.808C1602.22 143.17 1615.81 133.775 1631.11 124.808C1700.47 84.1811 1803 54.2903 1905.96 45.0791" stroke="#D1DEFF" stroke-miterlimit="10"/>
<path d="M25.4536 486.669C56.6286 459.584 122.84 441.955 192.054 437.136C221.942 435.061 252.688 435.122 283.005 437.197C322.188 439.82 360.371 445.493 397.981 451.044C474.774 462.39 549.28 473.309 626.073 466.599C685.992 461.353 744.624 456.229 799.538 446.103C842.01 438.234 872.47 425.423 895.923 409.136C906.219 401.938 915.229 394.19 923.523 385.955C940.111 369.607 954.841 352.343 975.577 337.886C999.315 321.355 1031.49 308.727 1082.12 305.555C1095.84 304.701 1109 304.579 1122.01 305.311C1177.07 308.239 1226.12 324.588 1283.04 333.982C1308.78 338.252 1335.95 340.631 1361.83 341.241C1390.86 341.851 1418.89 340.143 1443.06 336.117C1489.11 328.492 1521.71 313.12 1529.43 296.1C1535.87 281.704 1525 267.795 1521.43 252.484C1514.13 220.824 1533.87 181.783 1576.34 146.159C1588.07 136.215 1601.65 126.577 1617.1 117.488C1687.02 76.0069 1793.42 46.3601 1900.39 38.918" stroke="#D1DEFF" stroke-miterlimit="10"/>
<path d="M21.4495 483.801C53.9115 456.9 119.837 439.27 189.194 434.329C219.082 432.194 249.971 432.255 280.288 434.39C319.471 437.135 357.51 442.991 395.121 448.908C471.771 461.048 546.134 473.37 623.499 467.331C683.99 462.634 743.623 458.364 799.681 448.969C843.297 441.649 874.472 429.022 898.497 412.857C909.079 405.719 918.232 397.972 926.955 389.737C943.972 373.45 959.131 356.125 980.439 341.79C1004.75 325.441 1037.64 313.058 1089.55 310.618C1103.42 309.947 1116.72 310.069 1129.88 311.045C1185.22 314.949 1233.41 332.213 1290.33 341.607C1316.21 345.877 1343.53 348.134 1369.7 348.378C1399.01 348.622 1427.19 346.304 1451.35 341.546C1497.11 332.518 1528.29 315.132 1533.29 296.771C1537.44 281.093 1523.57 266.331 1517.56 250.166C1504.69 216.737 1521.43 176.049 1562.9 139.509C1574.48 129.322 1587.92 119.439 1603.37 110.106C1673.87 67.7102 1784.12 38.3685 1895.1 32.6953" stroke="#D1DEFF" stroke-miterlimit="10"/>
<path d="M17.3032 480.935C51.0523 454.216 116.691 436.587 186.192 431.524C216.223 429.328 247.112 429.389 277.429 431.585C316.755 434.452 354.651 440.491 392.261 446.835C468.769 459.707 542.988 473.432 621.069 468.125C682.132 463.977 742.623 460.621 799.968 451.898C844.871 445.066 876.618 432.683 901.215 416.639C912.083 409.563 921.522 401.816 930.388 393.581C947.835 377.293 963.422 359.969 985.302 345.756C1010.33 329.529 1043.93 317.451 1096.85 315.682C1111 315.194 1124.45 315.56 1137.6 316.719C1193.09 321.599 1240.56 339.778 1297.48 349.172C1323.36 353.442 1350.82 355.516 1377.28 355.455C1406.88 355.333 1435.34 352.466 1459.36 346.976C1504.98 336.545 1534.58 317.268 1536.73 297.382C1538.59 280.484 1521.86 264.746 1513.27 247.726C1495.11 212.529 1508.56 170.255 1549.03 132.678C1560.32 122.185 1573.77 112.059 1589.35 102.604C1660.43 59.3538 1774.54 30.3171 1889.52 26.291" stroke="#D1DEFF" stroke-miterlimit="10"/>
<path d="M13.1555 478.006C48.1917 451.41 113.402 433.78 183.188 428.656C213.219 426.46 244.108 426.46 274.568 428.717C313.894 431.645 351.791 437.989 389.258 444.639C465.622 458.303 539.699 473.37 618.351 468.795C679.986 465.196 741.335 462.756 799.967 454.704C846.015 448.36 878.334 436.22 903.645 420.238C914.8 413.223 924.524 405.537 933.533 397.301C951.552 381.014 967.569 363.69 990.02 349.598C1015.62 333.494 1049.94 321.721 1104.14 320.683C1118.44 320.439 1132.02 321.05 1145.32 322.392C1201.1 328.248 1247.57 347.341 1304.49 356.735C1330.51 361.066 1358.11 362.957 1384.71 362.53C1414.6 362.042 1443.2 358.565 1467.23 352.343C1512.7 340.57 1540.73 319.28 1540.16 297.991C1539.73 279.874 1520.28 263.22 1508.98 245.286C1485.53 208.258 1495.54 164.459 1535.3 125.906C1546.31 115.109 1559.75 104.799 1575.48 95.1001C1647.13 50.935 1765.25 22.2033 1884.09 19.9463" stroke="#D1DEFF" stroke-miterlimit="10"/>
<path d="M9.15161 475.139C45.3318 448.726 110.399 431.096 180.185 425.85C210.216 423.593 241.248 423.593 271.851 425.911C311.177 428.961 349.074 435.488 386.398 442.565C462.619 456.961 536.553 473.492 615.92 469.588C678.127 466.538 740.477 464.952 800.11 457.632C847.302 451.837 880.336 439.88 906.363 424.02C917.66 417.066 927.67 409.38 937.109 401.145C955.556 384.918 972.002 367.533 995.026 353.563C1021.34 337.581 1056.23 326.113 1111.72 325.747C1126.3 325.686 1140.03 326.54 1153.19 328.126C1209.1 334.958 1254.87 354.966 1311.78 364.422C1337.81 368.753 1365.69 370.461 1392.58 369.729C1422.75 368.875 1451.64 364.849 1475.52 357.894C1520.85 344.779 1547.31 321.538 1544.02 298.723C1541.16 279.386 1518.99 261.817 1505.12 243.029C1476.38 204.171 1483.1 158.847 1521.85 119.257C1532.72 108.215 1546.02 97.6012 1561.75 87.7799C1633.97 42.7608 1755.95 14.2732 1878.94 13.7852" stroke="#D1DEFF" stroke-miterlimit="10"/>
<path d="M5.00391 472.272C42.4711 446.041 107.252 428.412 177.182 423.105C207.356 420.787 238.388 420.787 268.991 423.166C308.317 426.277 346.213 433.048 383.394 440.49C459.473 455.679 533.263 473.553 613.203 470.381C675.982 467.88 739.19 467.27 800.11 460.56C848.445 455.314 882.194 443.54 908.793 427.802C920.377 420.909 930.673 413.222 940.254 404.987C959.131 388.761 976.149 371.375 999.601 357.528C1026.49 341.668 1062.09 330.443 1118.87 330.87C1133.6 330.992 1147.47 332.09 1160.77 333.921C1216.97 341.729 1261.87 362.591 1318.79 372.107C1344.96 376.439 1372.99 378.025 1400.01 376.927C1430.33 375.707 1459.5 371.07 1483.39 363.384C1528.58 348.866 1553.46 323.733 1547.45 299.455C1542.3 278.897 1517.28 260.353 1500.83 240.71C1466.65 200.083 1470.23 153.112 1508.13 112.607C1518.71 101.261 1532.01 90.4636 1547.88 80.3984C1620.67 34.4642 1746.51 6.34254 1873.5 7.56256" stroke="#D1DEFF" stroke-miterlimit="10"/>
<path d="M1 469.344C56.4858 432.011 164.74 412.003 266.274 420.299C385.968 430.059 490.505 474.773 610.772 471.052C674.123 469.1 738.189 469.344 800.396 463.366C871.612 456.534 911.367 435.732 943.687 408.708C985.158 373.999 1017.62 333.738 1126.3 335.873C1204.81 337.398 1255.72 367.898 1325.94 379.672C1381.42 388.944 1446.49 384.674 1491.54 368.753C1536.58 352.831 1559.89 325.868 1551.17 300.065C1543.73 278.287 1515.85 258.828 1496.83 238.27C1446.35 183.979 1460.79 119.683 1534.15 72.8952C1607.51 26.1071 1737.36 -1.7706 1868.21 1.21847" stroke="#D1DEFF" stroke-miterlimit="10"/>
<path d="M7.29272 474.713C63.6366 440.308 171.176 421.703 271.994 429.328C322.475 433.11 370.382 442.748 417.716 452.021C466.195 461.598 513.815 470.87 563.581 473.615C579.597 474.469 595.9 474.713 612.345 473.981C674.266 471.236 736.902 470.565 798.823 464.343C869.039 457.328 909.509 437.38 942.972 411.882C950.694 406.025 958.131 400.047 965.71 394.13C988.019 376.745 1011.76 360.274 1049.22 351.185C1070.25 346.061 1095.42 343.194 1126.88 343.682C1204.38 344.78 1255.15 372.719 1323.08 382.784C1332.09 384.126 1341.38 385.102 1350.68 385.712C1397.16 388.762 1446.21 383.028 1482.1 369.547C1525.14 353.381 1547.45 326.662 1539.3 301.103C1532.44 279.447 1506.41 259.866 1488.82 239.308C1458.5 203.866 1455.07 164.337 1476.95 128.469C1488.68 109.314 1507.7 91.1967 1533.44 75.2143C1580.63 46.0555 1649.99 24.461 1727.92 13.0537C1772.69 6.52656 1820.31 3.41549 1868.07 4.26951" stroke="#D1DEFF" stroke-miterlimit="10"/>
<path d="M13.728 480.08C70.7869 448.603 177.754 431.401 278.001 438.355C328.338 441.832 375.959 450.555 422.721 458.852C470.628 467.331 517.39 475.444 566.298 477.274C582.028 477.884 597.902 477.823 614.061 476.908C674.695 473.37 735.758 471.845 797.25 465.379C866.322 458.242 907.65 439.026 942.114 415.053C950.122 409.501 957.845 403.95 965.71 398.399C988.734 382.173 1012.76 366.983 1050.23 358.565C1071.39 353.868 1096.42 351.123 1127.31 351.428C1203.81 352.16 1254.44 377.476 1320.08 385.833C1328.8 386.931 1337.66 387.663 1346.67 388.09C1391.43 390.164 1438.34 383.881 1472.52 370.216C1513.56 353.807 1534.87 327.393 1527.43 302.078C1521.28 280.544 1496.83 260.902 1480.96 240.283C1453.21 204.841 1451.64 165.496 1474.66 130.054C1487.1 111.021 1506.7 93.1478 1533.01 77.4094C1580.92 48.7387 1650.42 27.6322 1728.5 16.2249C1773.26 9.69776 1820.59 6.52568 1868.21 7.25769" stroke="#D1DEFF" stroke-miterlimit="10"/>
<path d="M20.1633 485.448C78.0802 456.899 184.333 441.039 283.864 447.322C333.915 450.433 381.393 458.363 427.727 465.561C475.204 473.004 521.108 479.836 569.015 480.812C584.46 481.117 600.047 480.812 615.778 479.714C675.125 475.383 734.615 472.882 795.82 466.232C863.891 458.851 905.934 440.551 941.542 418.102C949.693 412.917 957.845 407.732 965.853 402.608C989.592 387.602 1013.9 373.571 1051.37 365.885C1072.53 361.554 1097.56 358.931 1127.88 359.114C1203.38 359.419 1253.72 382.233 1317.36 388.822C1325.8 389.676 1334.38 390.225 1343.1 390.469C1386.14 391.567 1430.9 384.734 1463.51 370.887C1502.69 354.295 1522.86 328.125 1516.13 303.053C1510.56 281.581 1487.96 261.877 1473.52 241.259C1448.49 205.817 1448.49 166.654 1472.8 131.639C1485.96 112.729 1506.12 95.0994 1532.87 79.6661C1581.49 51.4834 1651.13 30.8649 1729.21 19.4576C1773.83 12.9914 1821.16 9.75837 1868.64 10.2464" stroke="#D1DEFF" stroke-miterlimit="10"/>
<path d="M26.5986 490.816C85.3735 465.135 190.911 450.738 289.87 456.351C339.779 459.096 386.97 466.172 432.875 472.394C479.923 478.738 524.827 484.35 571.875 484.472C587.034 484.533 602.192 483.984 617.637 482.642C675.697 477.579 733.614 474.163 794.534 467.27C861.46 459.706 904.361 442.259 940.97 421.275C949.408 416.456 957.845 411.636 966.139 406.878C990.593 393.031 1015.19 380.221 1052.66 373.267C1073.96 369.301 1098.85 366.983 1128.59 366.922C1203.1 366.8 1253.15 387.053 1314.64 391.933C1322.79 392.604 1331.09 392.909 1339.38 392.909C1380.71 393.031 1423.18 385.65 1454.21 371.619C1491.4 354.783 1510.41 328.918 1504.55 304.03C1499.55 282.679 1478.81 262.854 1465.94 242.235C1443.49 206.732 1445.35 167.814 1470.95 133.165C1484.82 114.376 1505.7 97.0518 1532.72 81.8014C1582.06 54.1068 1651.85 33.9153 1730.07 22.63C1774.69 16.1638 1821.74 12.8698 1869.07 13.2358" stroke="#D1DEFF" stroke-miterlimit="10"/>
<path d="M32.8899 496.124C92.5228 473.37 197.345 460.377 295.589 465.257C345.212 467.697 392.404 473.919 437.736 479.044C484.213 484.351 528.258 488.743 574.448 487.95C589.321 487.706 604.194 486.913 619.209 485.388C675.982 479.532 732.326 475.201 792.817 468.063C858.742 460.316 902.358 443.663 940.111 424.264C948.835 419.75 957.558 415.358 966.138 411.027C991.164 398.339 1016.33 386.809 1053.8 380.526C1075.25 376.927 1099.85 374.67 1129.16 374.548C1202.67 374.182 1252.58 391.69 1311.78 394.862C1319.65 395.289 1327.65 395.35 1335.52 395.228C1374.99 394.435 1415.46 386.443 1444.77 372.23C1480.1 355.15 1497.97 329.529 1492.82 304.945C1488.39 283.717 1469.51 263.83 1458.07 243.151C1438.34 207.648 1441.91 168.912 1468.66 134.69C1483.24 116.024 1504.69 98.9434 1532.15 83.998C1582.2 56.7913 1652.13 37.0879 1730.5 25.8026C1774.97 19.3974 1821.88 16.0423 1869.07 16.1643" stroke="#D1DEFF" stroke-miterlimit="10"/>
<path d="M39.3252 501.492C99.8162 481.667 203.924 470.015 301.453 474.286C350.789 476.36 397.838 481.728 442.741 485.876C488.789 490.085 531.833 493.257 577.166 491.61C591.752 491.061 606.196 490.085 620.925 488.316C676.411 481.667 731.182 476.421 791.387 469.1C856.168 461.17 900.642 445.371 939.396 427.436C948.406 423.288 957.415 419.262 966.138 415.297C991.879 403.768 1017.33 393.459 1054.8 387.907C1076.25 384.674 1100.85 382.6 1129.59 382.295C1202.24 381.502 1251.86 396.448 1308.78 397.912C1316.36 398.095 1323.94 397.973 1331.66 397.607C1369.41 395.838 1407.74 387.297 1435.48 372.901C1468.8 355.577 1485.67 330.261 1481.24 305.921C1477.38 284.815 1460.22 264.806 1450.5 244.127C1433.33 208.624 1438.91 170.071 1466.65 136.276C1481.96 117.732 1503.98 100.896 1531.86 86.1942C1582.49 59.4755 1652.56 40.26 1731.07 28.9748C1775.54 22.5696 1822.31 19.1535 1869.36 19.0925" stroke="#D1DEFF" stroke-miterlimit="10"/>
<path d="M45.7605 506.86C106.966 489.963 210.645 479.715 307.459 483.314C356.653 485.022 403.415 489.597 447.89 492.647C493.508 495.819 535.695 497.71 580.026 495.209C594.326 494.416 608.484 493.135 622.784 491.183C676.983 483.802 730.324 477.579 789.957 470.015C853.737 461.963 898.926 446.896 938.825 430.547C948.12 426.704 957.415 423.105 966.424 419.567C992.88 409.258 1018.76 400.169 1056.09 395.289C1077.68 392.482 1102.14 390.53 1130.31 390.042C1201.95 388.883 1251.29 401.267 1306.06 400.962C1313.35 400.901 1320.65 400.596 1327.94 400.047C1363.98 397.302 1400.01 388.212 1426.18 373.633C1457.5 356.065 1473.38 331.054 1469.66 306.897C1466.37 285.852 1451.21 265.782 1442.77 245.042C1428.47 209.539 1435.62 171.169 1464.65 137.801C1480.67 119.379 1503.26 102.847 1531.58 88.3902C1582.92 62.1595 1653.13 43.4321 1731.79 32.2078C1776.12 25.8637 1822.74 22.3866 1869.64 22.1426" stroke="#D1DEFF" stroke-miterlimit="10"/>
<path d="M52.1958 512.228C114.26 498.259 217.223 489.475 313.322 492.281C362.23 493.745 408.849 497.344 452.895 499.418C497.941 501.492 539.27 502.163 582.743 498.808C596.758 497.71 610.486 496.185 624.5 494.05C677.269 485.876 729.18 478.8 788.527 470.991C851.306 462.756 897.353 448.543 938.253 433.658C947.834 430.181 957.415 426.948 966.711 423.776C993.738 414.626 1020.05 406.818 1057.38 402.609C1079.11 400.169 1103.42 398.4 1131.02 397.79C1201.67 396.265 1250.86 406.025 1303.34 404.012C1310.35 403.768 1317.36 403.219 1324.22 402.487C1358.54 398.766 1392.44 389.127 1416.89 374.365C1446.35 356.553 1461.08 331.786 1457.93 307.934C1455.21 287.011 1441.92 266.88 1435.05 246.079C1423.32 210.576 1432.33 172.389 1462.51 139.448C1479.24 121.148 1502.55 104.86 1531.15 90.708C1583.2 64.9654 1653.56 46.7259 1732.21 35.5016C1776.4 29.1575 1823.02 25.6804 1869.64 25.1924" stroke="#D1DEFF" stroke-miterlimit="10"/>
<path d="M58.4883 517.596C121.41 506.555 223.659 499.174 319.186 501.309C367.95 502.407 414.284 505.213 457.9 506.189C502.518 507.226 542.845 506.677 585.46 502.407C599.046 501.065 612.631 499.296 626.217 496.917C677.698 487.949 728.036 479.958 786.954 471.967C848.589 463.549 895.495 450.189 937.395 436.83C947.262 433.719 957.13 430.852 966.711 428.046C994.454 420.055 1021.2 413.467 1058.38 409.989C1080.26 407.915 1104.28 406.268 1131.45 405.536C1201.1 403.584 1250.15 410.782 1300.34 407.061C1307.06 406.573 1313.78 405.78 1320.22 404.865C1352.82 400.168 1384.57 389.981 1407.31 375.036C1434.76 357.04 1448.49 332.518 1446.06 308.849C1444.06 288.047 1432.33 267.795 1427.19 246.993C1418.18 211.491 1428.9 173.487 1460.36 140.973C1477.81 122.794 1501.69 106.751 1530.72 92.8427C1583.49 67.5881 1653.99 49.8367 1732.79 38.6124C1776.98 32.3292 1823.31 28.7301 1869.93 28.1201" stroke="#D1DEFF" stroke-miterlimit="10"/>
<path d="M64.9236 522.965C128.704 514.79 230.237 508.873 325.049 510.337C373.528 511.069 419.718 513.021 462.905 513.021C507.094 513.021 546.42 511.191 588.178 506.067C601.477 504.42 614.633 502.407 627.933 499.845C678.128 490.085 726.892 481.24 785.524 472.943C846.158 464.403 893.922 451.776 936.823 440.003C946.976 437.197 957.13 434.757 966.854 432.377C995.169 425.545 1022.48 420.238 1059.52 417.432C1081.54 415.785 1105.43 414.26 1132.02 413.345C1200.67 411.027 1249.57 415.541 1297.48 410.173C1303.92 409.441 1310.21 408.465 1316.5 407.367C1347.39 401.755 1376.85 390.957 1398.16 375.829C1423.75 357.59 1436.34 333.372 1434.62 309.948C1433.19 289.268 1423.32 268.954 1419.61 248.092C1413.17 212.589 1425.9 174.768 1458.36 142.681C1476.67 124.686 1500.98 108.826 1530.58 95.2223C1584.06 70.4556 1654.71 53.1922 1733.64 41.968C1777.69 35.6848 1823.88 32.0857 1870.36 31.2317" stroke="#D1DEFF" stroke-miterlimit="10"/>
<path d="M71.359 528.271C135.997 523.025 236.815 518.45 331.055 519.243C379.391 519.67 425.295 520.768 467.911 519.67C511.527 518.572 549.996 515.522 590.895 509.544C603.908 507.592 616.779 505.335 629.649 502.59C678.557 492.036 725.748 482.276 784.094 473.797C843.727 465.074 892.349 453.3 936.108 442.991C946.547 440.551 956.844 438.416 966.997 436.464C996.027 430.791 1023.63 426.765 1060.67 424.63C1082.83 423.349 1106.57 422.007 1132.74 420.97C1200.38 418.225 1249 420.177 1294.76 413.1C1300.91 412.124 1306.92 410.965 1312.78 409.623C1341.96 403.035 1369.27 391.689 1388.86 376.378C1412.46 357.894 1424.04 333.921 1423.04 310.801C1422.18 290.182 1414.17 269.808 1412.03 248.945C1408.31 213.382 1422.75 175.805 1456.36 144.145C1475.38 126.271 1500.4 110.716 1530.29 97.2957C1584.49 73.0171 1655.28 56.2417 1734.22 45.0784C1778.26 38.8563 1824.31 35.1352 1870.5 34.1592" stroke="#D1DEFF" stroke-miterlimit="10"/>
<path d="M77.7942 533.64C143.147 531.322 243.394 528.15 336.919 528.272C384.968 528.333 430.73 528.638 472.916 526.442C516.103 524.307 553.714 520.037 593.612 513.144C606.339 510.947 618.924 508.446 631.365 505.457C678.986 494.111 724.604 483.497 782.521 474.713C841.01 465.867 890.49 454.887 935.393 446.103C946.118 444.029 956.701 442.26 967.14 440.735C996.742 436.221 1024.91 433.476 1061.81 432.073C1083.97 431.219 1107.71 429.999 1133.31 428.779C1199.95 425.667 1248.43 424.996 1291.9 416.212C1297.77 414.992 1303.49 413.65 1308.92 412.125C1336.38 404.561 1361.4 392.666 1379.42 377.171C1401.02 358.444 1411.6 334.775 1411.31 311.839C1411.03 291.342 1404.88 270.907 1404.16 249.983C1403.02 214.419 1419.46 177.025 1454.21 145.793C1473.95 128.041 1499.55 112.73 1529.86 99.6145C1584.78 75.7629 1655.71 59.5365 1734.79 48.3732C1778.69 42.1511 1824.6 38.43 1870.79 37.21" stroke="#D1DEFF" stroke-miterlimit="10"/>
<path d="M84.0852 539.008C150.296 539.618 249.828 537.788 342.638 537.3C390.401 536.995 436.02 536.446 477.777 533.274C520.535 530.041 557.145 524.551 596.185 516.804C608.626 514.303 620.782 511.558 632.794 508.386C679.128 496.246 723.173 484.717 780.804 475.75C838.292 466.783 888.629 456.595 934.391 449.275C945.402 447.506 956.271 446.164 966.853 445.005C997.027 441.65 1025.77 440.186 1062.52 439.454C1084.83 438.966 1108.43 437.868 1133.45 436.526C1199.09 432.988 1247.43 429.755 1288.61 419.201C1294.19 417.798 1299.62 416.151 1304.77 414.443C1330.51 405.903 1353.39 393.459 1369.84 377.781C1389.57 358.81 1399.01 335.446 1399.44 312.754C1399.87 292.379 1395.29 271.822 1396.3 250.898C1397.87 215.334 1416.03 178.124 1451.92 147.318C1472.37 129.688 1498.54 114.621 1529.29 101.75C1584.92 78.3861 1655.99 62.6477 1735.22 51.4844C1779.12 45.3233 1824.74 41.4802 1870.79 40.0771" stroke="#D1DEFF" stroke-miterlimit="10"/>
<path d="M90.5205 544.375C157.59 547.913 256.549 547.486 348.644 546.266C396.264 545.656 441.597 544.253 482.925 539.983C525.112 535.713 560.863 529.003 599.045 520.341C611.2 517.596 623.07 514.546 634.653 511.191C679.557 498.258 722.172 485.875 779.374 476.603C835.861 467.452 887.056 458.119 933.819 452.324C945.116 450.921 956.271 449.945 967.139 449.152C998.028 446.956 1027.06 446.346 1063.81 446.712C1086.26 446.895 1109.57 445.675 1134.17 444.15C1198.81 440.246 1246.86 434.329 1285.9 422.128C1291.19 420.481 1296.19 418.651 1301.05 416.76C1325.08 407.244 1345.82 394.251 1360.54 378.39C1378.28 359.175 1386.71 336.055 1387.86 313.668C1388.86 293.415 1386.14 272.736 1388.57 251.812C1392.72 216.248 1412.88 179.22 1449.78 148.781C1471.09 131.273 1497.69 116.511 1528.86 103.884C1585.21 81.0081 1656.42 65.7577 1735.65 54.6555C1779.41 48.4943 1825.02 44.6512 1870.79 43.0652" stroke="#D1DEFF" stroke-miterlimit="10"/>
<path d="M96.9558 549.743C164.883 556.21 263.127 557.064 354.507 555.295C401.842 554.258 447.174 552.062 487.931 546.815C529.688 541.447 564.438 533.517 601.762 524.001C613.632 520.951 625.072 517.718 636.369 514.119C679.986 500.332 721.171 487.156 777.944 477.64C833.287 468.367 885.484 459.888 933.247 455.496C944.83 454.459 956.271 453.849 967.425 453.483C998.886 452.446 1028.49 453.605 1065.24 454.154C1087.84 454.52 1111 453.605 1135.03 452.019C1198.66 447.688 1246.57 439.209 1283.32 425.3C1288.33 423.409 1293.05 421.396 1297.48 419.322C1319.79 408.891 1338.24 395.288 1351.39 379.244C1367.27 359.785 1374.56 336.97 1376.28 314.766C1377.99 294.574 1376.85 273.895 1380.99 252.849C1387.57 217.285 1409.74 180.44 1447.92 150.428C1469.94 133.042 1497.26 118.524 1528.72 106.202C1585.78 83.8141 1656.99 68.9908 1736.5 57.9495C1780.26 51.8494 1825.6 47.8843 1871.36 46.1152" stroke="#D1DEFF" stroke-miterlimit="10"/>
<path d="M103.248 555.112C172.034 564.506 269.563 566.763 360.371 564.262C407.562 562.92 452.609 559.87 492.936 553.526C534.264 547.121 568.156 537.971 604.48 527.478C616.063 524.184 627.217 520.646 638.086 516.864C680.415 502.285 720.027 488.254 776.514 478.433C830.856 469.039 883.911 461.353 932.532 458.486C944.402 457.815 956.128 457.632 967.568 457.571C999.601 457.388 1029.78 460.133 1066.38 461.353C1089.12 462.085 1112.15 461.353 1135.6 459.584C1198.23 454.826 1245.86 443.723 1280.46 428.168C1285.18 426.033 1289.61 423.776 1293.76 421.519C1314.21 410.112 1330.66 395.959 1342.24 379.733C1356.11 360.09 1362.4 337.52 1364.84 315.559C1367.12 295.49 1367.84 274.688 1373.42 253.643C1382.71 218.079 1406.74 181.417 1445.92 151.831C1468.66 134.629 1496.54 120.294 1528.43 108.215C1586.06 86.3158 1657.57 71.9804 1737.22 60.9392C1780.84 54.9 1826.03 50.8739 1871.64 48.9219" stroke="#D1DEFF" stroke-miterlimit="10"/>
<path d="M109.684 560.48C179.184 572.741 276.141 576.462 366.234 573.29C413.139 571.582 458.043 567.678 497.941 560.358C538.698 552.855 571.732 542.484 607.197 531.138C618.494 527.539 629.219 523.757 639.802 519.792C680.844 504.419 718.883 489.474 774.941 479.47C828.282 469.893 882.195 463.121 931.817 461.657C943.973 461.291 955.985 461.474 967.568 461.901C1000.32 463.121 1030.78 466.903 1067.39 468.795C1090.27 469.954 1113.15 469.343 1136.03 467.391C1197.66 462.206 1245.14 448.542 1277.46 431.279C1281.89 428.9 1286.04 426.459 1289.76 424.019C1308.49 411.636 1322.79 396.935 1332.66 380.525C1344.53 360.639 1349.82 338.312 1352.97 316.657C1355.83 296.709 1358.4 275.847 1365.55 254.74C1377.42 219.176 1403.45 182.758 1443.63 153.539C1467.23 136.458 1495.54 122.367 1528 110.594C1586.35 89.1821 1657.99 75.3348 1737.65 64.2935C1781.26 58.2544 1826.31 54.1673 1871.64 52.0322" stroke="#D1DEFF" stroke-miterlimit="10"/>
<path d="M116.119 565.787C186.477 580.977 282.719 586.04 372.097 582.258C418.717 580.184 463.477 575.487 502.947 567.068C543.274 558.528 575.45 546.938 609.914 534.677C620.925 530.834 631.222 526.747 641.518 522.598C681.13 506.372 717.739 490.634 773.511 480.324C825.851 470.625 880.479 464.403 931.102 464.708C943.544 464.769 955.842 465.196 967.712 466.05C1001.03 468.429 1032.06 473.553 1068.53 476.054C1091.41 477.64 1114.15 477.091 1136.6 475.017C1197.23 469.466 1244.43 453.118 1274.6 434.207C1278.75 431.645 1282.46 428.961 1285.9 426.277C1302.91 412.918 1314.93 397.667 1323.22 381.075C1333.23 360.944 1337.38 338.923 1341.24 317.45C1344.81 297.625 1348.96 276.64 1357.83 255.534C1372.41 219.97 1400.3 183.735 1441.63 154.943C1465.94 137.984 1494.97 124.198 1527.72 112.608C1586.78 91.684 1658.57 78.3247 1738.36 67.3444C1781.84 61.3663 1826.74 57.2182 1872.07 54.8391" stroke="#D1DEFF" stroke-miterlimit="10"/>
<path d="M122.554 571.156C193.771 589.273 289.298 595.74 378.104 591.225C424.58 588.846 469.054 583.234 508.095 573.84C547.993 564.202 579.168 551.391 612.774 538.276C623.357 534.128 633.51 529.858 643.377 525.466C681.702 508.446 716.881 491.854 772.081 481.301C823.42 471.479 878.906 466.355 930.53 467.88C943.258 468.246 955.699 469.1 967.998 470.381C1002.03 473.859 1033.35 480.325 1069.82 483.497C1092.84 485.51 1115.44 485.083 1137.32 482.887C1196.95 476.909 1243.85 457.998 1271.88 437.38C1275.74 434.574 1279.18 431.707 1282.18 428.839C1297.48 414.504 1307.35 398.705 1313.93 381.929C1321.93 361.555 1325.22 339.838 1329.66 318.61C1333.95 298.845 1339.81 277.8 1350.11 256.693C1367.27 221.129 1397.15 185.138 1439.48 156.712C1464.65 139.936 1494.11 126.333 1527.29 115.048C1587.06 94.6122 1659 81.7408 1738.94 70.7606C1782.27 64.7824 1827.03 60.6343 1872.22 58.0723" stroke="#D1DEFF" stroke-miterlimit="10"/>
<path d="M128.847 576.523C200.921 597.569 295.733 605.438 383.824 600.253C430.014 597.508 474.346 591.102 512.957 580.61C552.283 569.935 582.6 555.905 615.348 541.874C625.645 537.482 635.369 532.907 644.95 528.332C681.846 510.519 715.595 493.134 770.508 482.276C820.846 472.394 877.047 468.062 929.673 470.99C942.686 471.722 955.413 472.943 967.855 474.59C1002.46 479.165 1034.35 487.034 1070.68 490.816C1093.84 493.256 1116.29 492.89 1137.6 490.572C1196.23 484.106 1242.85 462.633 1268.74 440.368C1272.31 437.318 1275.46 434.207 1278.17 431.157C1291.76 415.906 1299.48 399.497 1304.49 382.538C1310.64 361.92 1312.78 340.447 1317.93 319.524C1322.79 299.881 1330.51 278.775 1342.38 257.607C1362.26 221.982 1394.01 186.236 1437.34 158.236C1463.22 141.582 1493.25 128.223 1526.86 117.182C1587.35 97.2344 1659.43 84.8511 1739.36 73.8708C1782.7 67.9537 1827.31 63.6835 1872.22 60.9385" stroke="#D1DEFF" stroke-miterlimit="10"/>
<path d="M135.282 581.892C246.54 618.432 407.563 620.811 517.962 587.382C556.86 575.609 586.176 560.358 618.066 545.474C667.116 522.537 700.436 497.161 768.936 483.191C830.428 470.625 904.075 468.368 967.998 478.799C1003.32 484.533 1035.5 493.684 1071.82 498.137C1168.35 509.91 1248.57 468.917 1274.31 433.597C1300.63 397.606 1295.48 358.321 1306.2 320.561C1320.93 268.283 1364.12 203.866 1435.19 159.822C1509.99 113.522 1615.38 94.1238 1739.94 77.1654C1783.12 71.2482 1827.6 66.9781 1872.5 64.05" stroke="#D1DEFF" stroke-miterlimit="10"/>
</g>
</svg>
