<svg width="3237" height="905" viewBox="0 0 3237 905" fill="none" xmlns="http://www.w3.org/2000/svg">
<g opacity="0.1">
<path d="M593.429 791.472C700.401 799.729 799.998 789.754 871.78 763.37C957.195 732.044 1001.38 680.041 1035 626.825C1068.61 573.609 1094.34 517.375 1150.66 472.085C1207.16 426.778 1300.3 392.617 1424.47 396.37C1502.37 398.742 1587.18 415.738 1663.88 416.121C1906.51 417.302 1966.33 258.214 2211.75 263.78C2316.59 266.151 2431.99 299.404 2539.48 306.616C2680.09 316.119 2793.51 275.058 2806.97 209.801" stroke="white" stroke-miterlimit="10"/>
<path d="M578.664 785.288C667.081 789.924 752.824 783.372 823.031 766.85C836.866 763.654 850.021 759.967 862.516 756.009C913.882 739.602 952.582 717.507 983.285 693.058C1006.82 674.395 1025.89 654.377 1043.26 633.632C1053.47 621.449 1063.38 608.961 1073.53 596.117C1096.4 566.522 1117.6 534.641 1143.55 505.199C1150.99 496.721 1158.9 488.531 1167.3 480.63C1188.38 460.866 1214.78 442.932 1246.7 428.586C1291.9 408.32 1348.19 395.112 1417.17 394.921C1490.67 394.748 1572.75 408.979 1649.39 408.62C1660.83 408.538 1671.8 408.167 1682.57 407.594C1752.06 403.578 1807.59 388.222 1858.12 368.007C1938.72 335.731 2005.68 290.861 2099.11 270.366C2131.23 263.331 2166.44 259.225 2206.69 259.418C2286.83 259.839 2372.91 277.912 2457.87 289.317C2482.83 292.621 2507.93 295.469 2532.43 296.929C2673.96 305.873 2791.03 268.594 2810.29 209.686" stroke="white" stroke-miterlimit="10"/>
<path d="M564.097 779.202C651.76 781.616 738.702 774.181 811.829 758.692C826.244 755.658 839.999 752.353 853.174 748.656C907.201 733.634 949.558 713.92 983.719 692.641C1009.61 676.265 1031.18 659.072 1051.72 640.64C1063.73 629.811 1075.51 618.558 1087.56 606.388C1114.82 578.517 1137.8 545.702 1162.25 514.977C1169.22 506.184 1176.39 497.595 1184.12 489.176C1203.17 468.433 1226.17 449.322 1254.4 433.729C1294.72 411.756 1344.8 396.103 1409.75 393.533C1478.55 390.709 1558.47 402.323 1634.86 401.235C1646.22 401.053 1657.38 400.667 1668.23 399.975C1738.36 395.912 1796.08 382.657 1848.64 363.763C1932.68 333.759 2002.05 289.095 2095.15 267.483C2127.01 260.127 2162.13 255.472 2201.72 254.962C2280.73 253.96 2365.87 269.873 2450.89 280.114C2475.94 283.096 2500.94 285.637 2525.65 287.09C2667.82 295.386 2788.91 262.103 2814.05 209.473" stroke="white" stroke-miterlimit="10"/>
<path d="M549.486 773.122C636.296 773.197 724.641 765.077 800.871 750.61C815.866 747.741 830.302 744.7 844.077 741.387C900.848 727.64 946.966 710.427 984.309 692.254C1012.67 678.284 1036.81 663.817 1060.07 647.645C1073.69 638.197 1087.7 628.154 1101.47 616.679C1132.96 590.562 1158.08 556.773 1180.66 524.788C1187.17 515.677 1193.68 506.565 1200.59 497.863C1217.49 476.03 1237.18 455.835 1261.9 438.965C1297.06 415.185 1339.89 395.823 1402 392.082C1467.43 388.138 1543.67 395.584 1619.98 393.743C1631.26 393.461 1642.51 392.957 1653.48 392.368C1724.23 388.257 1784.16 377.12 1838.66 359.674C1926.14 331.958 1997.86 287.619 2090.98 264.848C2122.77 257.151 2157.43 251.977 2196.55 250.742C2274.6 248.289 2358.62 262.044 2443.52 271.132C2468.47 273.806 2493.66 276.123 2518.48 277.469C2661.57 285.197 2786.31 255.751 2817.42 209.545" stroke="white" stroke-miterlimit="10"/>
<path d="M534.986 766.97C620.759 764.705 710.684 755.879 789.736 742.359C805.233 739.775 820.248 736.899 834.803 733.955C894.418 721.597 944.118 706.922 984.717 691.761C1015.53 680.215 1042.16 668.391 1068.33 654.704C1083.74 646.632 1099.62 637.842 1115.31 627.052C1151.1 602.586 1178.1 567.958 1199.28 534.777C1205.4 525.226 1211.08 515.829 1217.14 506.62C1232 483.793 1248.45 462.387 1269.48 444.251C1299.55 418.754 1337.56 398.342 1394.56 390.717C1453.97 382.753 1529.24 388.77 1605.4 386.291C1616.77 385.891 1628.03 385.388 1638.92 384.697C1710.29 380.538 1772.41 371.533 1828.94 355.429C1919.76 329.918 1993.81 285.913 2086.78 261.994C2118.48 253.953 2152.68 248.257 2191.15 246.308C2268.35 242.497 2351.13 253.974 2436.01 262C2461.05 264.347 2486.24 266.456 2511.17 267.692C2655.17 274.847 2783.82 249.354 2820.46 209.554" stroke="white" stroke-miterlimit="10"/>
<path d="M520.467 760.896C605.386 756.258 696.797 746.618 778.7 734.274C794.778 731.857 810.474 729.25 825.812 726.677C888.274 715.718 941.64 703.479 985.422 691.469C1018.7 682.363 1047.73 673.321 1077.08 661.998C1094.28 655.31 1111.93 647.679 1129.63 637.681C1169.65 614.996 1198.73 579.502 1218.29 544.905C1223.95 535.031 1229.06 525.207 1234.2 515.606C1246.84 491.792 1260.04 469.162 1277.36 449.746C1302.25 422.412 1334.21 399.701 1387.13 389.417C1441.93 378.843 1514.75 382.1 1590.83 378.859C1602.11 378.357 1613.47 377.735 1624.65 377.131C1696.65 372.924 1760.86 365.964 1819.62 351.415C1913.68 328.02 1990.37 284.431 2083.1 259.473C2114.72 251.086 2148.47 244.863 2186.45 242.179C2262.7 236.897 2344.35 246.185 2429.3 253.024C2454.42 255.042 2479.61 256.941 2504.83 258.051C2649.57 264.649 2782.04 243.03 2824.66 209.747" stroke="white" stroke-miterlimit="10"/>
<path d="M506.224 754.738C590.195 747.831 683.077 737.374 767.976 725.978C784.632 723.729 801.108 721.498 816.844 719.11C881.966 709.58 938.989 699.798 986.124 690.948C1021.94 684.183 1053.64 678.032 1085.62 669.145C1104.62 663.854 1124.14 657.497 1143.75 648.198C1188.08 627.197 1219.05 590.866 1237.19 555.068C1242.27 544.768 1246.92 534.623 1251.02 524.529C1261.5 499.611 1271.27 475.777 1285.16 455.166C1305.12 426.081 1330.56 400.994 1379.84 388.105C1429.92 375.027 1500.53 375.363 1576.35 371.37C1587.72 370.749 1598.91 370.144 1610.18 369.42C1682.97 365.148 1749.19 360.368 1809.79 347.201C1907.27 326.152 1986.29 282.916 2078.74 256.699C2110 247.88 2143.74 241.198 2181.06 237.79C2256.33 231.026 2336.84 238.103 2421.66 243.758C2446.68 245.46 2471.96 247.026 2497.38 248.127C2643.01 254.139 2779.2 236.549 2827.59 209.635" stroke="white" stroke-miterlimit="10"/>
<path d="M491.723 748.227C574.812 738.918 669.073 727.763 756.877 717.443C774.109 715.365 791.083 713.425 807.596 711.414C875.547 703.307 936.041 696.016 986.522 690.349C1024.79 686.061 1059.16 682.818 1093.85 676.264C1114.63 672.38 1136.03 667.307 1157.64 658.819C1206.19 639.642 1239.13 602.364 1255.73 565.269C1260.53 554.633 1264.14 543.995 1267.6 533.599C1276.01 507.686 1282.33 482.649 1292.5 460.758C1307.07 429.852 1326.6 402.437 1371.87 386.964C1417.23 371.371 1485.34 368.68 1561.15 364.017C1572.43 363.293 1583.71 362.568 1595.27 361.93C1668.77 357.713 1737.05 355.005 1799.76 343.319C1900.55 324.533 1982.07 281.654 2074.25 254.402C2105.42 245.238 2138.68 238.027 2175.51 233.874C2249.8 225.621 2329.16 230.468 2413.84 234.927C2438.93 236.293 2464.21 237.643 2489.73 238.63C2636.23 244.045 2776.01 230.407 2830.18 210.135" stroke="white" stroke-miterlimit="10"/>
<path d="M477.74 741.633C559.922 729.915 655.434 717.959 746.118 708.726C764.023 706.924 781.568 705.155 798.673 703.542C869.435 696.867 933.563 692.065 987.015 689.63C1027.62 687.727 1064.65 687.408 1102.22 683.184C1124.78 680.716 1147.94 676.831 1171.55 669.164C1224.4 651.713 1259.2 613.637 1274.26 575.269C1278.48 564.217 1281.62 553.268 1284.03 542.387C1290.28 515.391 1293.25 489.271 1299.85 466.094C1309.19 433.367 1322.54 403.773 1363.95 385.474C1404.48 367.485 1470.42 361.718 1546.11 356.278C1557.3 355.45 1568.76 354.709 1580.33 354.071C1654.41 349.804 1724.85 349.28 1789.36 339.001C1893.53 322.602 1977.33 280.13 2069.18 251.633C2100.25 242.129 2133.04 234.39 2169.36 229.491C2242.47 219.762 2320.55 222.257 2405.62 225.679C2430.61 226.722 2456.06 227.835 2481.57 228.603C2628.62 233.319 2772.33 223.844 2832.34 210.137" stroke="white" stroke-miterlimit="10"/>
<path d="M463.53 731.979C544.407 717.923 641.2 705.296 734.708 697.148C752.959 695.539 771.231 694.153 789.143 692.801C862.432 687.463 929.95 685.262 986.601 686.003C1029.54 686.571 1069.04 689.043 1109.31 687.272C1133.6 686.22 1158.56 683.64 1184 676.73C1240.89 661.219 1277.77 622.574 1290.82 583.248C1294.53 571.965 1297.07 560.68 1298.52 549.498C1302.45 521.739 1302.09 494.611 1305.09 470.322C1309.39 436.104 1316.49 404.553 1353.54 383.587C1389.29 363.307 1452.54 354.521 1527.82 348.206C1539.07 347.258 1550.41 346.413 1562.13 345.758C1636.61 341.435 1708.93 342.951 1775.46 334.306C1882.63 320.249 1968.44 278.453 2059.89 249.085C2090.59 239.313 2123.16 231.056 2158.52 225.465C2230.43 214.284 2307.15 214.482 2391.87 216.632C2416.77 217.213 2442.25 218.19 2467.97 218.806C2615.52 222.803 2762.41 217.282 2828.2 210.286" stroke="white" stroke-miterlimit="10"/>
<path d="M449.561 722.192C529.281 705.816 627.133 692.544 723.146 685.383C741.914 683.947 760.804 682.835 779.258 681.877C855.144 677.959 925.924 678.221 985.751 682.093C1031.02 685.099 1073.07 690.425 1115.92 690.971C1142.1 691.299 1168.67 690.023 1195.93 683.865C1256.73 670.171 1295.47 631.006 1306.87 590.727C1310.25 579.206 1311.82 567.633 1312.49 556.145C1314.29 527.637 1310.42 499.552 1309.63 474.2C1308.63 438.452 1309.48 404.993 1342.34 381.392C1373.6 358.951 1433.94 346.981 1508.8 340.025C1519.92 338.975 1531.41 338.114 1543.11 337.457C1617.96 333.078 1692.24 336.706 1760.66 329.573C1870.88 317.933 1958.73 276.708 2049.47 246.41C2079.96 236.362 2111.94 227.63 2146.69 221.325C2217.38 208.714 2292.72 206.64 2377.05 207.527C2401.77 207.769 2427.26 208.387 2453.1 208.971C2601.09 212.247 2751.22 210.728 2822.47 210.273" stroke="white" stroke-miterlimit="10"/>
<path d="M435.879 712.561C514.345 694.016 613.207 679.887 711.899 673.899C731.279 672.735 750.504 671.809 769.672 671.222C847.955 668.721 922.335 671.375 985.147 678.349C1032.62 683.657 1077.41 691.778 1122.93 694.711C1150.82 696.416 1179.24 696.29 1208.22 690.991C1273.09 679.073 1313.5 639.416 1323.23 598.206C1326 586.369 1326.97 574.48 1326.86 562.693C1326.42 533.351 1319.16 504.432 1314.78 478.023C1308.58 440.878 1303.48 405.633 1332.06 379.337C1358.64 354.788 1416.16 339.78 1490.67 332.071C1501.83 330.905 1513.2 329.942 1525.05 329.267C1600.42 324.815 1676.47 330.539 1746.48 324.813C1859.74 315.556 1949.52 275.017 2039.7 243.79C2069.98 233.471 2101.27 224.17 2135.5 217.262C2204.95 203.242 2278.9 198.925 2363.09 198.648C2387.81 198.537 2413.22 198.919 2439.08 199.368C2587.29 201.945 2740.72 204.252 2817.7 210.332" stroke="white" stroke-miterlimit="10"/>
<path d="M422.421 703.087C499.694 682.285 599.564 667.527 700.888 662.475C720.776 661.478 740.609 660.818 760.309 660.613C841.148 659.49 918.752 664.533 984.714 674.549C1034.39 682.124 1081.82 693.12 1129.9 698.303C1159.58 701.467 1189.68 702.49 1220.45 697.92C1289.19 687.767 1331.41 647.609 1339.58 605.586C1341.85 593.538 1342.21 581.339 1341.14 569.275C1338.4 539.233 1328.01 509.361 1319.86 481.932C1308.67 443.399 1297.54 406.298 1321.48 377.382C1343.58 350.74 1398.27 332.737 1472.23 324.302C1483.26 323.037 1494.78 322.058 1506.59 321.382C1582.31 316.873 1660.29 324.646 1732.16 320.39C1848.5 313.364 1940.01 273.519 2029.62 241.375C2059.5 230.807 2090.37 221.03 2123.98 213.426C2192.18 198.016 2264.71 191.485 2348.48 189.974C2373.2 189.515 2398.52 189.663 2424.39 189.98C2572.99 191.846 2729.78 198.024 2812.2 210.464" stroke="white" stroke-miterlimit="10"/>
<path d="M409.232 693.7C485.117 670.688 586.147 655.292 689.998 651.277C710.388 650.444 730.925 650.146 751.229 650.2C834.602 650.433 915.487 657.713 984.608 670.943C1036.58 680.853 1086.53 694.581 1137.06 701.881C1168.44 706.38 1200.19 708.536 1232.84 704.783C1305.52 696.469 1349.44 655.717 1355.95 612.795C1357.79 600.425 1357.29 588.055 1355.34 575.603C1350.37 544.757 1336.62 514.085 1324.72 485.653C1308.28 445.676 1291.51 406.937 1310.99 375.423C1328.72 346.823 1380.19 325.683 1453.87 316.615C1464.77 315.253 1476.33 314.157 1488.11 313.48C1564.25 309.014 1644.05 318.705 1717.66 315.797C1836.97 311.085 1930.45 271.792 2019.38 238.862C2048.94 227.93 2079.49 217.784 2112.11 209.528C2179.05 192.748 2250.16 184.033 2333.49 181.302C2358.01 180.517 2383.42 180.417 2409.49 180.585C2558.43 181.747 2718.27 191.656 2806.4 210.448" stroke="white" stroke-miterlimit="10"/>
<path d="M396.234 684.588C470.9 659.375 572.797 643.262 679.158 640.267C700.146 639.695 721.004 639.572 742.009 639.981C827.802 641.45 911.977 651.153 984.223 667.339C1038.38 679.454 1090.96 695.978 1144.21 705.449C1177.18 711.384 1210.77 714.64 1245.19 711.591C1321.87 704.97 1367.5 663.839 1372.17 620.041C1373.49 607.466 1372.39 594.794 1369.49 582.074C1362.41 550.53 1345.2 518.965 1329.75 489.527C1308.17 448.221 1285.7 407.763 1300.56 373.701C1314 343.05 1362.45 319.013 1435.57 309.236C1446.51 307.76 1457.86 306.683 1469.97 305.971C1546.42 301.446 1628.13 313.131 1703.39 311.667C1825.67 309.237 1921.01 270.595 2009.24 236.668C2038.58 225.476 2068.51 214.881 2100.51 205.948C2166.08 187.713 2235.86 176.942 2319.02 173.091C2343.53 171.966 2368.92 171.522 2394.91 171.677C2543.92 172.061 2707.18 185.834 2800.71 210.812" stroke="white" stroke-miterlimit="10"/>
<path d="M383.529 675.637C457.062 648.349 559.976 631.51 668.82 629.519C690.124 629.122 711.753 629.236 733.276 630.012C821.391 632.814 908.988 644.673 984.269 663.89C1040.78 678.163 1095.62 697.478 1151.57 709.09C1186.22 716.324 1221.45 720.681 1257.83 718.524C1338.3 713.587 1385.86 671.946 1388.7 627.285C1389.52 614.508 1387.54 601.455 1383.87 588.454C1374.58 556.125 1354.03 523.782 1335.03 493.352C1308.42 450.623 1280.1 408.491 1290.34 371.916C1299.33 339.261 1344.77 312.366 1417.48 301.871C1428.29 300.3 1439.68 299.109 1451.75 298.396C1528.68 293.795 1612.11 307.462 1689.08 307.307C1814.2 307.025 1911.55 269.007 1999.09 234.31C2028.2 222.86 2057.53 211.823 2088.89 202.221C2153 182.667 2221.52 169.749 2304.21 164.709C2328.52 163.266 2353.99 162.581 2379.89 162.507C2529.2 162.203 2695.48 179.607 2794.58 210.669" stroke="white" stroke-miterlimit="10"/>
<path d="M370.878 666.805C442.998 637.382 547.02 619.918 658.233 618.819C680.028 618.577 702.172 619.058 724.288 620.08C814.89 624.182 905.645 638.305 983.852 660.421C1042.63 676.942 1099.98 698.888 1158.45 712.633C1194.77 721.151 1231.74 726.693 1269.87 725.219C1354.12 721.941 1403.42 679.799 1404.6 634.257C1405 621.163 1402.34 607.927 1397.73 594.662C1386.16 561.665 1362.55 528.413 1339.67 497.032C1307.98 453.003 1274.17 409.176 1279.83 370.114C1284.65 335.555 1326.88 305.635 1399.28 294.528C1410.14 292.847 1421.5 291.657 1433.7 290.925C1510.94 286.265 1596.35 301.976 1674.86 303.129C1803 305.166 1902.08 267.67 1988.9 231.99C2017.6 220.3 2046.67 208.789 2077.23 198.541C2140.07 177.663 2207.13 162.641 2289.36 156.426C2313.65 154.652 2339.02 153.745 2364.92 153.544C2514.54 152.563 2683.92 173.655 2788.58 210.732" stroke="white" stroke-miterlimit="10"/>
<path d="M358.577 658.243C429.451 626.689 534.286 608.524 648.226 608.482C670.607 608.492 693.238 609.121 715.942 610.387C809.015 615.772 903.085 632.114 984.208 657.096C1045.15 675.743 1105 700.289 1166.15 716.126C1204.23 726.01 1242.73 732.528 1282.7 731.823C1370.88 730.165 1421.74 687.537 1421.37 641.216C1421.26 627.921 1418.01 614.389 1412.36 600.764C1398.7 567.086 1371.68 532.968 1345.3 500.612C1308.45 455.2 1269.29 409.793 1270.09 368.189C1270.85 331.633 1309.71 298.95 1381.6 287.042C1392.32 285.267 1403.72 283.965 1415.89 283.232C1493.41 278.513 1580.7 296.146 1660.91 298.574C1791.95 302.802 1892.75 265.814 1979.05 229.354C2007.51 217.408 2035.87 205.364 2065.71 194.574C2127.18 172.288 2192.89 155.283 2274.81 147.89C2298.8 145.707 2324.35 144.662 2350.25 144.336C2499.97 142.702 2672.63 167.422 2782.65 210.462" stroke="white" stroke-miterlimit="10"/>
<path d="M346.298 649.77C415.757 616.115 521.677 597.331 637.962 598.159C660.828 598.319 683.869 599.209 707.26 600.814C802.799 607.47 900.002 626.029 984.212 653.838C1047.59 674.674 1109.76 701.817 1173.41 719.744C1213.16 730.885 1253.28 738.468 1295.08 738.523C1386.9 738.383 1439.68 695.435 1437.58 648.132C1436.86 634.537 1432.95 620.82 1426.53 606.916C1410.7 572.456 1380.39 537.567 1350.35 504.254C1308.46 457.556 1263.95 410.362 1260.12 366.427C1256.65 327.902 1292.41 292.348 1363.83 279.855C1374.41 277.988 1385.94 276.671 1398.25 275.92C1476.07 271.142 1565.24 290.683 1647.24 294.47C1781.19 300.867 1883.87 264.352 1969.55 227.01C1997.78 214.807 2025.53 202.329 2054.74 190.887C2114.76 167.316 2179.1 148.135 2260.74 139.788C2284.71 137.28 2310.06 135.922 2336.23 135.553C2486.24 133.259 2661.89 161.497 2777.55 210.528" stroke="white" stroke-miterlimit="10"/>
<path d="M333.858 641.366C402.168 605.709 508.883 586.229 627.593 588.011C650.941 588.32 674.663 589.55 698.462 591.409C796.274 599.338 896.943 620.058 984.053 650.682C1049.68 673.702 1114.16 703.417 1180.48 723.396C1221.7 735.799 1263.72 744.514 1307.25 745.224C1403.06 746.759 1457.27 703.214 1453.63 655.128C1452.59 641.313 1447.81 627.219 1440.46 613.054C1422.57 577.913 1388.78 542.066 1355.37 507.883C1308.38 459.814 1258.57 411.059 1249.92 364.622C1242.42 324.129 1274.83 285.861 1345.83 272.676C1356.46 270.701 1367.86 269.288 1380.13 268.536C1458.32 263.796 1549.26 285.13 1632.88 290.279C1769.61 298.723 1874.18 262.879 1959.23 224.659C1987.05 212.218 2014.38 199.293 2042.95 187.204C2101.7 162.343 2164.58 141.12 2245.74 131.634C2269.68 128.806 2294.92 127.234 2321.09 126.742C2471.37 123.795 2650.28 155.597 2771.29 210.479" stroke="white" stroke-miterlimit="10"/>
<path d="M321.496 633.168C388.387 595.439 496.168 575.346 617.37 577.96C641.123 578.53 665.5 579.885 689.805 582.094C789.96 591.173 893.837 614.167 984.015 647.571C1051.79 672.664 1118.86 705.014 1187.84 727.03C1230.8 740.764 1274.6 750.507 1319.67 751.881C1419.19 754.995 1475.09 710.923 1469.65 661.967C1468.12 647.947 1462.76 633.556 1454.66 619.111C1434.43 583.207 1397.57 546.578 1360.71 511.429C1308.91 462.069 1253.62 411.564 1240.2 362.848C1228.69 320.397 1257.94 279.417 1328.36 265.56C1338.85 263.494 1350.38 262.067 1362.79 261.296C1441.44 256.48 1534.08 279.71 1619.38 286.095C1758.98 296.666 1865.43 261.265 1949.77 222.28C1977.37 209.582 2004.09 196.228 2032.03 183.496C2089.51 157.352 2150.94 134.103 2231.79 123.472C2255.53 120.343 2280.85 118.542 2307.01 117.929C2457.29 114.257 2639.45 149.598 2765.89 210.385" stroke="white" stroke-miterlimit="10"/>
<path d="M309.198 625.095C374.842 585.293 483.401 564.508 607.005 568.059C730.608 571.61 867.942 599.519 983.785 644.552C1097.42 688.746 1209.41 752.991 1331.68 758.565C1435.06 763.225 1492.65 718.621 1485.41 668.797C1478.18 618.973 1422.23 565.637 1365.38 514.915C1308.53 464.193 1248.07 412.029 1230.07 361.033C1212.07 310.036 1249.22 259.931 1344.79 253.977C1423.72 249.101 1518.21 274.195 1605.29 281.901C1747.65 294.484 1855.87 259.627 1939.59 219.766C2023.31 179.905 2097.7 132.734 2216.86 115.347C2376.39 92.1722 2604.67 132.046 2759.55 210.152" stroke="white" stroke-miterlimit="10"/>
<path d="M296.925 619.982C361.808 579.731 469.271 558.387 591.975 561.013C639.104 562.102 688.231 566.603 737.665 574.359C816.847 586.782 896.32 607.443 967.934 634.582C1056.45 668.046 1144.04 713.573 1235.69 735.819C1262.31 742.27 1289.12 746.689 1316.47 748.301C1419.68 754.495 1478.46 713.347 1477.19 665.673C1476.08 629.431 1447.36 589.482 1409.79 550.065C1397.66 537.241 1384.56 524.405 1371.49 511.779C1318.18 460.308 1261.34 407.27 1245.85 355.665C1230.55 304.994 1267.95 255.409 1362.56 248.864C1440.64 243.377 1534.41 267.116 1621.31 274.771C1763.56 287.388 1873.07 255.991 1958.49 220.02C1968.14 216.019 1977.43 211.843 1986.81 207.762C2061.4 174.845 2133.34 139.745 2239.7 126.773C2266.54 123.452 2295.63 121.93 2325.6 121.807C2474.15 121.631 2653.81 159.268 2780.31 219.603" stroke="white" stroke-miterlimit="10"/>
<path d="M284.658 614.735C348.768 574.013 455.016 551.996 576.903 553.781C623.661 554.537 672.593 558.714 721.721 566.075C800.517 577.962 879.906 597.906 951.833 624.434C1040.69 657.135 1128.66 701.877 1220.43 724.692C1246.79 731.243 1273.56 735.941 1300.9 738.021C1404.09 745.758 1464.22 708.086 1468.35 662.536C1471.78 627.728 1447.2 587.38 1412.57 547.355C1401.29 534.343 1389.22 521.3 1377 508.486C1327.37 456.125 1274.28 402.28 1261.24 350.153C1248.61 299.909 1286.41 250.817 1379.68 243.491C1456.89 237.383 1549.66 259.675 1636.65 267.363C1778.49 279.942 1889.54 252.126 1976.81 220.076C1986.57 216.473 1996.33 212.87 2005.82 209.187C2081.9 179.915 2155.36 148.653 2262.07 138.12C2289.12 135.425 2318.04 134.365 2348.11 134.796C2496.84 136.681 2676.51 173.501 2800.65 229.086" stroke="white" stroke-miterlimit="10"/>
<path d="M272.567 609.484C335.826 568.373 441.027 545.643 561.993 546.48C608.454 546.783 657.012 550.653 705.935 557.715C784.418 568.953 863.648 588.297 935.891 614.225C1025.1 646.175 1113.63 690.133 1205.33 713.56C1231.72 720.298 1258.33 725.183 1285.56 727.644C1388.63 736.859 1449.93 702.714 1460.02 659.464C1467.77 626.015 1447.72 585.209 1416.07 544.757C1405.84 531.529 1394.64 518.287 1383.28 505.274C1337.18 451.997 1288.06 397.285 1277.41 344.5C1267.46 294.662 1305.57 245.943 1397.87 238C1474.39 231.241 1566.25 252.177 1653.14 259.923C1794.66 272.572 1907.16 248.286 1996.2 220.318C2006.16 217.216 2016.02 214.015 2025.79 210.717C2103.43 185.019 2178.32 157.756 2285.3 149.812C2312.37 147.769 2341.4 147.26 2371.37 148.06C2520.09 152.06 2699.95 188.062 2821.72 238.857" stroke="white" stroke-miterlimit="10"/>
<path d="M266.375 605.104C328.657 563.619 432.372 540.235 552.354 540.266C598.342 540.21 646.603 543.72 695.2 550.224C773.217 560.736 852.146 579.373 924.592 604.572C1014.01 635.612 1102.98 678.582 1194.45 702.51C1220.53 709.321 1247.04 714.469 1274.1 717.296C1376.75 728.056 1439.45 697.446 1454.83 656.644C1467.1 624.568 1451.45 583.694 1422.61 542.78C1413.27 529.405 1403.04 516.113 1392.63 502.839C1350.39 448.935 1304.86 393.508 1296.84 340.345C1289.52 291.113 1327.89 243.043 1418.63 234.295C1494.2 226.991 1584.89 246.347 1671.58 253.978C1812.58 266.49 1926.15 245.95 2016.79 222.082C2026.83 219.397 2036.87 216.712 2046.81 213.928C2125.73 192.04 2201.92 168.792 2308.99 163.353C2336.19 161.951 2365.08 162.01 2395.17 163.252C2543.55 169.333 2723.26 204.312 2842.31 250.037" stroke="white" stroke-miterlimit="10"/>
<path d="M261.737 600.934C322.989 559.108 425.244 535.178 543.972 534.188C589.46 533.766 637.297 536.807 685.567 542.952C763.177 552.813 841.846 570.597 914.289 595.046C1004.15 625.212 1093.26 667.053 1184.44 691.454C1210.48 698.411 1236.89 703.816 1263.58 707.025C1365.82 719.206 1429.8 692.301 1450.74 654.092C1467.44 623.551 1456.01 582.456 1430.45 541.186C1421.99 527.677 1412.82 514.236 1403.47 500.811C1364.83 446.255 1323.17 390.251 1317.85 336.647C1312.9 287.995 1351.66 240.609 1441.15 231.23C1515.81 223.263 1605.27 240.997 1691.75 248.713C1832.06 261.177 1946.61 244.211 2038.72 224.607C2049.1 222.427 2059.2 220.165 2069.31 217.903C2149.53 199.755 2226.88 180.688 2333.96 177.769C2361.11 177.031 2389.92 177.544 2419.93 179.245C2567.88 187.403 2747.36 221.301 2863.82 261.841" stroke="white" stroke-miterlimit="10"/>
<path d="M257.151 596.776C317.363 554.608 418.223 530.011 535.432 528.125C580.416 527.333 627.824 529.901 675.941 535.666C752.863 544.788 831.467 561.91 903.981 585.486C994.014 614.687 1083.53 655.471 1174.43 680.346C1200.32 687.352 1226.43 693.032 1253.11 696.59C1355.04 710.299 1420.19 687.028 1446.59 651.336C1467.99 622.211 1460.8 581.114 1438.08 539.425C1430.78 525.865 1422.4 512.191 1413.94 498.633C1379.19 443.507 1341.15 386.845 1338.46 332.917C1336.15 284.937 1375.12 238.258 1463.08 228.161C1536.63 219.542 1624.97 235.739 1711.2 243.323C1850.71 255.638 1966.42 242.47 2060.05 227.047C2070.5 225.292 2080.78 223.555 2091.13 221.701C2172.55 207.438 2251.12 192.466 2358.04 192.102C2385.12 192.031 2413.95 193.1 2443.77 195.163C2591.29 205.412 2770.41 238.118 2884.2 273.549" stroke="white" stroke-miterlimit="10"/>
<path d="M252.754 592.515C311.742 550.018 411.296 524.85 527.231 521.925C571.706 520.761 618.785 522.952 666.368 528.152C742.773 536.512 821.032 552.883 893.894 575.661C984.094 603.89 1073.84 643.624 1164.62 668.959C1190.29 676.13 1216.36 681.952 1242.67 685.896C1344.1 701.161 1411.03 681.599 1442.37 648.494C1468.58 620.898 1465.56 579.702 1445.78 537.694C1439.37 524.001 1432.06 510.177 1424.48 496.485C1393.54 440.69 1359.05 383.485 1359.07 329.118C1359.14 281.734 1398.59 235.851 1485.09 224.913C1557.62 215.736 1644.73 230.285 1730.71 237.736C1869.59 249.882 1986.27 240.556 2081.25 229.358C2091.86 228.133 2102.37 226.807 2112.71 225.499C2195.23 215.047 2275.02 204.2 2382.03 206.489C2409.23 207.074 2437.88 208.721 2467.62 211.247C2614.86 223.583 2793.55 255.203 2904.74 285.37" stroke="white" stroke-miterlimit="10"/>
<path d="M248.136 588.295C306.168 545.552 404.03 519.624 518.781 515.753C562.923 514.196 609.389 515.924 656.636 520.754C732.622 528.446 810.431 543.96 883.462 565.951C973.828 593.199 1063.98 631.859 1154.46 657.672C1179.99 664.89 1205.75 670.99 1232.15 675.388C1333.24 692.2 1401.77 676.391 1438.14 645.779C1469.17 619.726 1470.03 578.351 1453.4 536.007C1448.06 522.165 1441.63 508.206 1434.95 494.382C1407.75 438.033 1376.9 380.17 1379.74 325.463C1382.11 278.798 1422.12 233.602 1507.24 221.916C1578.84 212.06 1664.71 224.948 1750.45 232.481C1888.62 244.572 2006.33 238.997 2102.91 232.139C2113.59 231.346 2124.27 230.552 2134.94 229.759C2218.83 223.229 2299.64 216.552 2406.55 221.53C2433.68 222.791 2462.35 225.001 2492.08 227.878C2638.84 242.331 2817.27 272.839 2925.68 297.719" stroke="white" stroke-miterlimit="10"/>
<path d="M243.626 584.069C300.592 540.983 396.946 514.492 510.401 509.567C554.026 507.631 600.153 508.975 647.136 513.314C722.416 520.247 800.048 534.978 873.244 556.173C963.771 582.428 1054.15 620.016 1144.5 646.288C1169.8 653.67 1195.52 659.914 1221.53 664.702C1322.27 683.067 1392.58 671.022 1433.72 643.06C1469.75 618.549 1474.62 577.102 1460.84 534.345C1456.4 520.371 1450.97 506.381 1445.26 492.308C1421.89 435.296 1394.51 376.796 1400.18 321.757C1404.92 275.707 1445.4 231.326 1528.86 218.803C1599.33 208.281 1684.06 219.593 1769.54 226.987C1906.87 238.919 2025.69 237.221 2123.77 234.632C2134.79 234.357 2145.53 233.999 2156.27 233.641C2241.22 230.976 2323.33 228.581 2430.2 236.147C2457.26 238.088 2485.83 240.765 2515.47 244.111C2661.73 260.69 2839.71 290.088 2945.69 309.605" stroke="white" stroke-miterlimit="10"/>
<path d="M239.025 579.786C294.917 536.355 389.653 509.198 501.903 503.311C545.008 500.993 590.515 501.866 637.232 505.71C711.98 511.861 789.253 525.819 862.714 546.311C953.577 571.55 1044.18 608.056 1134.21 634.805C1159.36 642.235 1184.88 648.858 1210.77 653.903C1310.87 673.747 1383.32 665.675 1429.21 640.165C1470.35 617.311 1479.03 575.595 1468.33 532.626C1464.78 518.521 1460.43 504.383 1455.61 490.178C1436.01 432.62 1412.29 373.468 1420.8 318.099C1427.74 272.688 1468.76 229.011 1550.93 215.83C1620.37 204.737 1704.02 214.344 1789.05 221.616C1925.82 233.469 2045.19 235.505 2144.85 237.313C2155.92 237.477 2166.83 237.657 2177.73 237.838C2264.02 239.148 2347.13 240.98 2453.95 251.148C2481.12 253.758 2509.52 257.021 2539.05 260.838C2684.81 279.556 2862.41 307.716 2965.7 321.967" stroke="white" stroke-miterlimit="10"/>
<path d="M234.695 575.428C289.321 531.676 382.701 503.936 493.628 496.978C536.207 494.276 581.266 494.656 627.634 498.118C701.941 503.58 779.026 516.739 852.365 536.333C943.381 560.556 1034.38 595.946 1123.99 623.066C1148.9 630.659 1174.36 637.426 1199.97 642.963C1299.7 664.372 1374.18 660.199 1424.57 637.3C1471.1 616.204 1483.23 574.261 1475.59 530.873C1473.22 516.725 1469.66 502.358 1465.75 488.024C1450 429.815 1429.77 370.04 1441.29 314.336C1450.43 269.581 1492.09 226.723 1572.68 212.797C1641.15 201.012 1723.36 208.932 1808.31 216.261C1944.21 227.945 2064.67 233.905 2165.79 240.036C2177.03 240.742 2188.16 241.346 2199.22 242.069C2286.56 247.293 2370.94 253.46 2477.52 266.261C2504.6 269.557 2533 273.393 2562.51 277.565C2707.92 298.411 2885.04 325.432 2985.61 334.158" stroke="white" stroke-miterlimit="10"/>
<path d="M230.298 571.039C283.923 527.059 375.549 498.552 485.238 490.618C527.283 487.528 571.988 487.513 617.978 490.369C691.734 495.033 768.444 507.399 841.934 526.167C933.094 549.36 1024.49 583.616 1113.75 611.2C1138.51 618.836 1163.66 625.88 1189.05 631.792C1288.49 654.867 1365.09 654.718 1419.85 634.131C1471.77 614.81 1487.44 572.535 1482.96 528.84C1481.5 514.568 1479.02 500.059 1476 485.601C1464.03 426.874 1447.29 366.492 1461.83 310.468C1473.17 266.385 1515.36 224.263 1594.52 209.571C1661.83 197.108 1742.88 203.411 1827.53 210.592C1962.66 222.2 2084.08 232.001 2186.46 242.493C2197.94 243.625 2209.05 244.791 2220.35 245.94C2308.82 255.199 2394.34 265.623 2500.94 281.148C2528.11 285.118 2556.33 289.545 2585.74 294.19C2730.6 317.183 2907.38 343.031 3005.33 346.294" stroke="white" stroke-miterlimit="10"/>
<path d="M225.736 566.48C278.248 522.178 368.307 493.107 476.643 484.088C518.151 480.609 562.395 480.094 608.025 482.559C681.045 486.436 757.551 497.984 831.188 515.915C922.586 538.167 1014.26 571.173 1103.18 599.216C1127.88 606.994 1152.79 614.196 1177.97 620.483C1276.83 645.142 1355.72 649.02 1414.87 630.982C1472.18 613.452 1491.49 570.955 1490 526.98C1489.62 512.57 1488.04 497.939 1485.93 483.36C1477.82 424.008 1464.4 363.046 1481.95 306.714C1495.49 263.318 1538.29 222.045 1615.85 206.602C1682.17 193.442 1762.04 198.116 1846.13 205.28C1980.54 216.688 2102.83 230.465 2206.75 245.422C2218.38 247.101 2229.73 248.695 2241 250.408C2330.66 263.601 2417.07 278.436 2523.56 296.595C2550.65 301.257 2578.76 306.157 2608.06 311.277C2752.35 336.42 2928.79 361.079 3023.93 358.864" stroke="white" stroke-miterlimit="10"/>
<path d="M221.502 561.89C272.889 517.277 361.262 487.544 468.329 477.538C509.47 473.65 553.17 472.75 598.334 474.719C670.885 477.885 746.9 488.521 820.675 505.604C912.381 526.783 1004.26 558.637 1092.82 587.13C1117.18 594.963 1142.05 602.524 1167.01 609.186C1265.45 635.408 1346.63 643.55 1410.05 627.758C1472.77 612.253 1495.43 569.242 1497.1 524.984C1497.62 510.457 1497.04 495.812 1496.09 480.979C1491.77 421.14 1481.65 359.398 1502.41 302.979C1518.15 260.287 1561.46 219.778 1637.57 203.566C1702.71 189.726 1781.39 192.759 1865.16 199.766C1998.66 210.982 2121.88 228.627 2227.14 248.081C2238.82 250.207 2250.42 252.451 2261.93 254.594C2352.69 271.853 2440.22 290.977 2546.6 311.772C2573.6 317.128 2601.69 322.603 2630.78 328.096C2774.47 355.387 2950.46 378.737 3043.05 371.101" stroke="white" stroke-miterlimit="10"/>
<path d="M217.184 557.279C267.255 512.381 354.209 482.074 459.894 470.974C500.485 466.693 543.714 465.287 588.585 466.739C660.561 469.088 736.177 478.905 810.087 495.131C901.915 515.242 994.17 545.914 1082.36 574.849C1106.66 582.819 1131.28 590.535 1156.02 597.57C1253.86 625.371 1337.33 637.792 1405.28 624.344C1473.59 610.861 1499.69 567.447 1504.25 522.831C1505.67 508.192 1506.18 493.416 1506.13 478.469C1505.67 418.038 1498.88 355.749 1522.65 299.054C1540.3 256.996 1584.4 217.349 1659.14 200.469C1723.1 185.947 1800.66 187.211 1884.03 194.175C2016.88 205.279 2140.84 226.819 2247.5 250.662C2259.33 253.338 2271.16 256.013 2282.54 258.621C2374.58 279.94 2463.04 303.383 2569.29 326.818C2596.37 332.851 2624.27 338.919 2653.41 344.869C2796.68 374.291 2972.11 396.436 3061.87 383.27" stroke="white" stroke-miterlimit="10"/>
<path d="M212.86 552.606C261.785 507.416 347.026 476.454 451.416 464.36C491.452 459.684 534.305 457.872 578.699 458.82C650.092 460.347 725.483 469.32 799.341 484.696C891.284 503.729 983.907 533.203 1071.73 562.571C1095.85 570.575 1120.15 578.562 1144.67 585.969C1241.89 615.344 1327.74 632.158 1399.84 620.878C1473.56 609.445 1503.27 565.622 1510.72 520.661C1513.33 505.998 1514.64 491.011 1515.49 475.955C1518.72 414.964 1515.16 352.044 1542.32 295.275C1561.98 253.967 1606.74 215.094 1679.94 197.563C1742.7 182.359 1819.06 181.965 1902.2 188.864C2034.1 199.764 2159.06 225.29 2266.93 253.547C2278.99 256.655 2290.8 259.898 2302.5 263.04C2395.52 288.341 2485.08 316.092 2591.22 342.39C2618.1 349.015 2645.97 355.659 2675 362.081C2817.54 393.546 2992.68 414.556 3079.77 395.825" stroke="white" stroke-miterlimit="10"/>
<path d="M208.551 547.847C256.422 502.475 339.94 470.861 442.923 457.667C482.401 452.596 524.774 450.274 568.967 450.801C639.693 451.621 714.852 459.745 788.733 474.145C880.786 492.089 973.772 520.354 1061.21 550.15C1085.09 558.305 1109.24 566.544 1133.71 574.306C1230.49 605.235 1318.42 626.366 1395.06 617.451C1474.46 608.162 1507.23 563.769 1517.95 518.66C1521.46 503.89 1523.85 488.779 1525.6 473.616C1532.8 412.163 1532.47 348.624 1562.63 291.606C1584.38 250.94 1629.73 212.969 1701.45 194.669C1763.19 178.766 1838.15 176.723 1920.95 183.454C2052.01 194.246 2177.85 223.661 2287.1 256.322C2299.31 259.981 2311.35 263.658 2323.2 267.351C2417.29 296.742 2507.94 328.809 2613.93 357.749C2640.89 365.053 2668.74 372.272 2697.47 379.184C2839.38 412.79 3014.1 432.553 3098.35 408.257" stroke="white" stroke-miterlimit="10"/>
<path d="M204.557 543.056C251.263 497.412 333.045 465.152 434.531 450.976C473.445 445.509 515.333 442.674 559.041 442.693C629.17 442.683 703.911 449.968 777.91 463.486C870.064 480.332 963.128 507.289 1050.46 537.588C1074.16 545.77 1098.17 554.261 1122.23 562.409C1218.47 595.004 1306.84 618.371 1389.55 613.811C1476.3 608.981 1510.73 561.807 1524.34 516.375C1528.93 501.487 1532.04 486.291 1534.88 471.009C1545.76 409.026 1548.55 344.783 1582.38 287.806C1606.02 247.813 1652.23 210.844 1722.29 191.792C1782.82 175.208 1856.64 171.376 1939.11 178.155C2069.37 188.714 2196.02 222.136 2306.46 259.217C2318.72 263.326 2330.9 267.554 2342.8 271.697C2438.04 305.059 2529.69 341.561 2635.34 373.156C2662.19 381.153 2690.01 388.947 2718.69 396.211C2859.95 431.951 3034.25 450.453 3115.82 420.566" stroke="white" stroke-miterlimit="10"/>
<path d="M200.428 538.219C245.789 492.32 326.112 459.497 426.177 444.218C464.526 438.354 506.029 435.109 549.252 434.618C618.883 433.877 693.104 440.219 767.221 452.853C859.656 468.58 952.897 494.327 1039.84 525.044C1063.29 533.374 1087.04 542.013 1110.87 550.531C1206.48 584.693 1298.96 614.662 1384.24 610.089C1474.56 605.263 1514.34 559.667 1531.12 513.999C1536.61 499.01 1540.81 483.694 1544.54 468.31C1559.4 405.885 1565.14 340.956 1602.34 283.936C1627.89 244.619 1674.96 208.655 1743.42 188.73C1802.92 171.448 1875.34 165.957 1957.46 172.562C2086.85 183.006 2214.27 220.222 2326.28 261.92C2338.69 266.582 2351.09 271.244 2363.14 275.939C2459.44 313.4 2552.17 354.227 2657.66 388.465C2684.4 397.158 2712.2 405.526 2740.65 413.16C2881.26 451.038 3054.85 468.189 3133.84 432.801" stroke="white" stroke-miterlimit="10"/>
<path d="M196.199 531.272C240.168 485.446 318.456 452.199 416.883 435.991C454.724 429.741 495.438 426.005 538.23 424.97C606.884 423.386 680.667 428.782 754.715 440.392C847.02 454.846 940.405 479.114 1026.77 509.95C1050 518.229 1073.48 527.153 1097.21 535.941C1192.09 571.433 1286.45 605.413 1375.89 603.09C1471.36 600.532 1514.34 554.689 1534.13 509.141C1540.48 494.168 1545.81 478.957 1550.3 463.491C1568.66 401.031 1577.36 335.919 1617.72 279.293C1645.01 240.948 1692.62 206.143 1759.28 185.694C1817.35 167.839 1888.52 160.669 1969.89 167.019C2097.97 177.09 2226.07 217.91 2339.05 263.614C2351.66 268.662 2364.01 273.846 2376.36 279.03C2473.6 320.092 2567.17 364.956 2672.26 401.488C2699.03 410.77 2726.46 419.543 2754.82 427.67C2894.64 467.273 3067.17 482.948 3143.17 442.23" stroke="white" stroke-miterlimit="10"/>
<path d="M192.283 524.275C251.22 461.074 374.761 420.849 527.3 415.487C679.739 410.024 859.193 439.39 1013.62 495.014C1129.24 536.723 1250.31 596.278 1367.15 595.842C1467.53 595.525 1513.91 549.329 1536.5 503.944C1573.76 428.747 1578.12 344.606 1632.39 274.546C1686.83 204.47 1807.98 148.102 1981.64 161.426C2122.7 172.192 2265.75 225.796 2388.79 281.845C2511.84 337.894 2629.23 400.23 2768.14 441.617C2907.05 483.003 3078.53 497.085 3151.5 451.138" stroke="white" stroke-miterlimit="10"/>
</g>
</svg>
