<svg width="1441" height="1200" viewBox="0 0 1441 1200" fill="none" xmlns="http://www.w3.org/2000/svg">
<g opacity="0.2">
<path d="M-337.959 1010.16C-325.661 940.949 -255.445 899.621 -187.947 891.613C-120.449 883.605 -51.5207 899.335 16.8355 899.335C199.881 899.192 372.488 773.205 432.407 595.879C451.57 539.106 460.007 478.472 478.741 421.414C497.474 364.498 529.221 308.869 580.846 281.841C655.065 242.801 748.018 272.832 822.953 316.448C897.887 360.065 967.959 417.838 1050.9 437.859C1159.87 464.172 1273.27 418.84 1356.65 346.05C1440.02 273.261 1498.94 175.303 1556.42 78.9175" stroke="#D1DEFF" stroke-width="1.43005" stroke-miterlimit="10"/>
<path d="M-342.106 1003.44C-328.521 934.515 -258.592 893.329 -190.951 885.035C-161.635 881.46 -132.176 882.318 -102.574 884.749C-63.6764 887.895 -24.7791 893.472 13.8322 894.33C92.6277 896.046 169.564 875.883 237.062 836.7C289.259 806.383 335.593 766.484 372.631 718.578C399.087 684.543 420.251 646.217 434.981 604.603C441.559 586.012 446.993 566.85 451.998 547.544C462.152 508.361 470.446 468.606 483.602 430.709C498.475 387.665 521.07 346.051 554.533 317.736C564.972 308.869 576.269 301.29 588.711 295.284C640.765 270.258 700.97 278.838 758.6 300.146C783.483 309.298 807.937 320.882 830.675 333.18C856.13 347.052 881.012 361.924 905.752 376.225C954.374 404.254 1002.57 430.137 1054.62 439.433C1088.51 445.582 1121.83 443.866 1155.01 436.573C1222.08 421.557 1288.15 381.516 1343.2 330.32C1358.22 316.306 1372.66 301.433 1386.68 286.132C1448.6 217.775 1500.37 138.837 1551.42 64.1885" stroke="#D1DEFF" stroke-width="1.43005" stroke-miterlimit="10"/>
<path d="M-346.111 996.721C-331.238 928.222 -261.595 887.037 -193.811 878.456C-164.495 874.738 -134.893 875.596 -105.148 878.171C-66.2508 881.603 -27.4965 887.752 11.2577 889.468C89.9103 893.043 166.561 876.025 234.774 838.558C287.543 809.528 334.591 771.489 373.059 725.441C400.516 692.407 422.396 654.654 437.841 613.326C444.705 594.878 450.425 575.716 455.573 556.41C466.156 517.37 474.879 477.471 488.607 439.861C504.195 397.103 527.505 356.49 562.112 329.605C572.837 321.31 584.277 314.16 596.719 308.726C649.058 285.988 708.405 296.714 765.893 318.021C790.919 327.317 815.516 338.328 838.397 349.911C864.137 362.782 889.306 376.51 913.903 388.952C962.382 413.691 1009.14 435.571 1058.19 441.005C1089.94 444.58 1120.4 440.433 1150.86 430.995C1212.64 411.689 1275.42 367.93 1329.47 314.589C1344.35 299.86 1358.65 284.558 1372.66 268.828C1435.15 198.469 1490.78 120.103 1545.84 49.6016" stroke="#D1DEFF" stroke-width="1.43005" stroke-miterlimit="10"/>
<path d="M-350.257 989.857C-334.097 921.787 -264.883 880.458 -196.956 871.735C-167.64 868.017 -137.895 868.732 -108.15 871.449C-69.2527 875.024 -30.4985 881.745 8.11277 884.319C86.6223 889.611 163.13 876.025 232.058 840.131C285.256 812.388 333.305 776.351 373.061 732.02C401.661 700.13 424.256 662.948 440.273 621.906C447.423 603.601 453.286 584.582 458.863 565.276C469.875 526.236 479.17 486.338 493.328 449.013C509.487 406.541 533.655 366.929 569.263 341.331C580.274 333.466 591.715 326.887 604.299 322.025C656.782 301.576 715.414 314.446 772.902 335.754C797.927 345.049 822.667 355.774 845.977 366.5C872.004 378.512 897.316 390.668 921.912 401.679C970.248 423.13 1015.87 441.005 1061.77 442.435C1091.52 443.436 1118.83 436.858 1146.57 425.418C1203.06 402.108 1262.55 354.487 1315.6 298.716C1330.19 283.414 1344.49 267.398 1358.65 251.238C1421.71 178.735 1481.35 101.083 1540.26 34.729" stroke="#D1DEFF" stroke-width="1.43005" stroke-miterlimit="10"/>
<path d="M-354.405 983.136C-336.958 915.352 -268.03 874.167 -199.96 865.157C-170.501 861.296 -140.756 862.011 -111.011 865.014C-72.1136 868.875 -33.3593 876.026 5.10895 879.601C83.4755 886.608 159.84 876.312 229.34 842.133C283.11 815.678 332.017 781.643 373.06 739.027C402.805 708.281 426.115 671.672 442.703 630.916C450.139 612.611 456.289 593.734 462.009 574.429C473.449 535.532 483.173 495.49 498.046 458.452C514.92 416.409 539.66 377.511 576.556 353.487C587.71 346.193 599.436 340.044 611.878 335.754C664.646 317.592 722.42 332.608 779.765 354.059C804.791 363.497 829.817 373.65 853.27 383.661C879.439 394.815 905.18 405.683 929.634 414.836C977.827 432.854 1022.3 446.869 1065.06 444.438C1092.8 442.864 1116.97 433.855 1142.14 420.27C1193.33 392.67 1249.39 341.474 1301.73 283.414C1316.03 267.398 1330.33 250.952 1344.63 234.364C1408.27 159.858 1471.76 82.9218 1534.69 20.5718" stroke="#D1DEFF" stroke-width="1.43005" stroke-miterlimit="10"/>
<path d="M-358.409 976.415C-339.819 909.06 -271.033 867.874 -202.82 858.579C-173.361 854.575 -143.473 855.29 -113.728 858.436C-74.831 862.44 -36.0767 870.305 2.24855 874.595C80.4721 883.462 156.694 876.312 226.909 843.849C281.251 818.681 330.873 786.504 373.346 745.748C404.235 716.003 428.116 680.109 445.42 639.496C453.142 621.334 459.577 602.457 465.441 583.152C477.453 544.255 487.606 504.213 502.908 467.461C520.354 425.704 545.952 387.807 583.991 365.07C595.432 358.206 607.158 352.628 619.742 348.91C672.654 333.037 729.713 350.054 787.058 371.648C812.227 381.086 837.396 390.954 861.134 400.106C887.59 410.402 913.474 419.841 937.928 427.42C985.977 442.149 1029.31 452.16 1068.92 445.724C1094.8 441.577 1115.68 430.137 1138.28 414.406C1184.18 382.659 1236.95 327.603 1288.29 267.255C1302.45 250.523 1316.6 233.506 1330.9 216.488C1395.11 139.837 1462.47 63.616 1529.54 5.41309" stroke="#D1DEFF" stroke-width="1.43005" stroke-miterlimit="10"/>
<path d="M-362.557 969.55C-342.679 902.624 -274.18 861.295 -205.823 852C-176.365 847.996 -146.334 848.568 -116.589 851.857C-77.5484 856.147 -38.9371 864.442 -0.611835 869.59C77.4687 880.172 153.547 876.454 224.334 845.565C279.248 821.683 329.729 791.509 373.488 752.469C405.521 723.868 430.118 688.546 447.994 648.219C455.859 630.2 462.58 611.466 468.872 592.161C481.314 553.264 491.896 513.222 507.77 476.756C525.788 435.285 552.101 398.246 591.427 377.082C603.154 370.79 615.023 365.641 627.607 362.495C680.805 348.91 737.006 368.072 794.351 389.666C819.52 399.104 844.975 408.543 868.856 416.98C895.598 426.418 921.625 434.427 946.222 440.29C993.985 451.73 1036.6 457.736 1072.78 447.44C1096.81 440.576 1114.54 426.704 1134.42 409.115C1175.03 373.221 1224.51 314.446 1274.99 251.81C1288.86 234.506 1303.02 216.917 1317.46 199.47C1382.24 120.817 1453.6 45.168 1524.53 -9.03076" stroke="#D1DEFF" stroke-width="1.43005" stroke-miterlimit="10"/>
<path d="M-366.56 962.829C-345.395 896.332 -277.182 855.004 -208.826 845.422C-179.224 841.275 -149.193 841.847 -119.305 845.279C-80.2647 849.713 -41.7965 858.579 -3.47123 864.728C74.4663 877.169 150.402 876.597 221.761 847.425C277.247 824.83 328.586 796.658 373.489 759.334C406.666 731.877 431.978 697.127 450.426 657.085C458.577 639.21 465.584 620.476 472.019 601.17C484.89 562.416 495.901 522.232 512.346 486.052C531.08 444.866 557.965 408.829 598.578 388.952C610.448 383.088 622.46 378.512 635.187 375.795C688.528 364.498 744.014 385.805 801.216 407.399C826.528 416.98 852.126 425.99 876.15 433.569C903.178 442.149 929.491 448.727 953.945 453.018C1001.57 461.169 1043.18 462.885 1075.93 449.013C1098.24 439.575 1112.54 423.273 1129.84 403.538C1165.16 363.354 1211.21 301.004 1260.83 235.937C1274.56 217.918 1288.58 199.756 1303.16 181.881C1368.52 101.083 1443.74 26.2918 1518.67 -23.9028" stroke="#D1DEFF" stroke-width="1.43005" stroke-miterlimit="10"/>
<path d="M-370.708 956.108C-348.256 889.897 -280.329 848.712 -211.83 838.845C-182.228 834.554 -152.054 835.127 -122.166 838.702C-83.1256 843.421 -44.6573 852.716 -6.47508 859.723C71.3195 873.881 147.112 876.598 219.186 849.141C275.244 827.833 327.441 801.663 373.631 766.055C407.952 739.599 433.836 705.564 452.999 665.666C461.436 647.933 468.586 629.2 475.307 609.894C488.607 571.14 500.19 530.956 517.065 495.061C536.371 454.162 564.113 418.983 605.728 400.678C617.883 395.387 630.039 391.24 642.766 389.095C696.393 380.086 750.877 403.538 808.222 425.132C833.534 434.713 859.275 443.294 883.729 450.158C911.043 457.88 937.499 463.171 961.952 465.602C1009.43 470.465 1050.19 467.891 1079.5 450.301C1100.09 438.003 1110.96 419.412 1125.69 397.818C1155.72 353.344 1198.48 287.419 1247.25 220.064C1260.69 201.473 1274.7 182.739 1289.29 164.292C1355.22 81.492 1434.3 7.27259 1513.24 -38.7749" stroke="#D1DEFF" stroke-width="1.43005" stroke-miterlimit="10"/>
<path d="M-374.712 949.244C-350.973 883.462 -283.332 842.133 -214.69 832.123C-185.088 827.833 -154.914 828.262 -124.883 831.98C-85.8425 836.842 -47.3742 846.853 -9.33493 854.718C68.3166 870.734 143.823 876.741 216.612 850.857C273.242 830.836 326.297 806.668 373.774 772.776C409.24 747.464 435.839 714.001 455.573 674.389C464.296 656.799 471.733 638.209 478.74 618.903C492.611 580.292 504.481 539.965 522.07 504.356C542.091 463.743 570.406 429.422 613.307 412.69C625.606 407.828 637.904 404.396 650.775 402.68C704.544 395.959 758.314 421.557 815.659 443.15C841.114 452.732 866.998 461.026 891.594 467.032C919.194 473.753 945.793 477.758 970.247 478.616C1017.44 480.189 1057.48 473.038 1083.36 452.16C1102.24 437.001 1109.68 416.266 1121.83 392.527C1146.57 343.905 1186.04 274.119 1233.8 204.619C1246.96 185.313 1260.98 166.007 1275.7 147.274C1342.2 62.472 1425.14 -11.1753 1508.09 -53.0757" stroke="#D1DEFF" stroke-width="1.43005" stroke-miterlimit="10"/>
<path d="M-378.858 942.523C-353.975 877.169 -286.477 835.841 -217.692 825.545C-188.09 821.112 -157.773 821.541 -127.742 825.545C-88.7015 830.693 -50.2332 841.132 -12.194 849.855C65.3145 867.588 140.678 876.883 214.182 852.716C271.384 833.982 325.44 811.816 374.062 779.64C410.671 755.472 437.985 722.581 458.291 683.255C467.301 665.808 475.023 647.218 482.173 627.912C496.473 589.301 508.915 548.974 526.934 513.652C547.526 473.467 576.556 439.861 620.745 424.56C633.329 420.27 645.77 417.266 658.641 416.122C712.697 411.689 765.608 439.289 822.81 461.026C848.265 470.75 874.435 478.472 899.175 483.764C926.917 489.627 953.945 492.201 978.256 491.343C1025.3 489.627 1064.49 477.757 1086.94 453.59C1103.96 435.285 1108.25 412.547 1117.69 386.806C1137.13 333.895 1173.31 260.533 1220.08 188.602C1233.09 168.581 1246.96 148.847 1261.83 129.541C1328.9 42.5943 1415.85 -30.1951 1502.8 -68.0913" stroke="#D1DEFF" stroke-width="1.43005" stroke-miterlimit="10"/>
<path d="M-383.006 935.801C-356.836 870.734 -289.624 829.549 -220.839 818.967C-191.094 814.39 -160.777 814.82 -130.603 818.967C-91.5624 824.258 -53.2372 835.269 -15.198 844.85C62.1676 864.442 137.388 876.884 211.464 854.432C269.238 836.985 324.152 816.822 374.061 786.362C411.814 763.338 439.843 731.019 460.722 691.835C470.017 674.532 477.882 655.941 485.318 636.636C500.048 598.024 512.918 557.84 531.509 522.661C552.674 482.763 582.419 450.015 627.894 436.286C640.622 432.425 653.349 429.994 666.076 429.422C720.275 427.277 772.472 457.022 829.674 478.759C855.271 488.483 881.584 495.919 906.61 500.352C934.639 505.357 961.81 506.644 986.121 504.07C1032.88 499.065 1071.07 482.334 1090.37 455.163C1105.53 433.855 1106.53 409.115 1113.39 381.372C1127.55 324.171 1160.3 247.234 1206.35 173.015C1219.08 152.422 1232.95 131.972 1247.82 112.381C1315.46 23.4318 1406.27 -48.7856 1497.22 -82.5347" stroke="#D1DEFF" stroke-width="1.43005" stroke-miterlimit="10"/>
<path d="M-387.01 928.937C-359.553 864.299 -292.627 822.971 -223.698 812.245C-193.953 807.669 -163.494 807.955 -133.32 812.245C-94.1363 817.823 -55.9541 829.406 -18.0579 839.845C59.1646 861.153 134.242 876.883 209.034 856.148C267.379 839.988 323.151 821.827 374.347 793.083C413.244 771.203 441.845 739.456 463.439 700.559C472.877 683.398 481.171 664.95 488.751 645.645C503.909 607.177 517.209 566.849 536.371 532.099C558.251 492.487 588.568 460.454 635.33 448.298C648.344 444.866 661.071 443.007 673.942 443.007C728.426 443.15 779.765 475.04 836.967 496.92C862.565 506.644 889.02 513.652 914.332 517.37C942.647 521.517 969.961 521.374 994.272 517.084C1040.89 508.932 1077.79 487.196 1093.95 456.879C1107.1 432.425 1104.96 405.683 1109.1 375.938C1117.83 314.446 1147.43 233.791 1192.48 157.284C1204.92 135.976 1218.65 115.098 1233.8 94.934C1302.02 3.84006 1396.69 -67.6623 1491.64 -97.4072" stroke="#D1DEFF" stroke-width="1.43005" stroke-miterlimit="10"/>
<path d="M-391.158 922.216C-362.414 858.007 -295.774 816.679 -226.702 805.81C-196.957 801.091 -166.354 801.377 -136.18 805.81C-96.9972 811.53 -58.8149 823.686 -21.0617 834.983C56.0178 858.007 130.952 877.17 206.316 858.007C265.091 843.135 321.863 826.975 374.346 799.947C414.53 779.211 443.703 748.036 465.869 709.425C475.593 692.408 484.174 673.96 492.039 654.654C507.77 616.186 521.498 575.859 541.233 541.395C563.684 502.068 594.716 470.893 642.623 460.311C655.779 457.451 668.793 456.021 681.663 456.593C736.291 459.024 786.915 493.059 843.973 514.939C869.571 524.806 896.313 531.241 921.768 534.244C950.369 537.534 977.826 536.103 1002.14 530.097C1048.47 518.657 1084.08 492.058 1097.38 458.738C1108.39 431.138 1103.24 402.537 1104.81 370.647C1108.25 305.008 1134.56 220.635 1178.75 141.84C1191.05 119.817 1204.63 98.3663 1219.79 77.9166C1288.57 -15.1794 1387.1 -85.9667 1486.06 -111.708" stroke="#D1DEFF" stroke-width="1.43005" stroke-miterlimit="10"/>
<path d="M-395.161 915.495C-365.13 851.572 -298.776 810.386 -229.562 799.232C-199.674 794.37 -169.071 794.656 -138.897 799.232C-99.7135 805.238 -61.5314 817.823 -23.7781 830.121C53.1584 855.004 127.95 877.313 204.028 859.866C263.375 846.28 321.149 832.266 374.776 806.811C416.104 787.22 445.992 756.617 468.73 718.148C478.74 701.131 487.464 682.826 495.615 663.521C511.774 625.195 525.932 584.725 546.239 550.547C569.405 511.507 601.009 481.047 650.203 472.037C663.645 469.606 676.659 468.748 689.672 469.892C744.586 474.468 794.351 510.792 851.41 532.671C877.151 542.539 904.036 548.688 929.777 550.833C958.664 553.264 986.407 550.404 1010.57 542.682C1056.77 527.952 1090.94 496.634 1101.38 460.168C1110.11 429.422 1102.1 398.819 1101.1 365.07C1099.09 295.141 1122.26 207.193 1165.45 125.966C1177.46 103.371 1191.05 81.3487 1206.35 60.327C1275.71 -34.9141 1378.24 -104.986 1481.2 -126.58" stroke="#D1DEFF" stroke-width="1.43005" stroke-miterlimit="10"/>
<path d="M-399.309 908.631C-368.134 845.137 -301.922 803.808 -232.708 792.511C-202.82 787.649 -172.074 787.792 -141.757 792.654C-102.574 798.803 -64.3917 812.103 -26.7815 825.116C50.012 851.715 124.517 877.313 201.311 861.582C261.23 849.284 319.862 837.271 374.776 813.533C417.248 795.085 447.708 765.054 471.161 726.872C481.457 709.997 490.466 691.836 498.761 672.53C515.349 634.205 530.079 593.734 550.814 559.842C574.553 521.088 606.729 491.486 657.353 484.05C671.081 482.048 684.238 481.762 697.251 483.478C752.308 490.342 801.359 528.667 858.274 550.69C884.015 560.7 911.186 566.278 937.07 567.708C966.1 569.138 994.129 565.134 1018.3 555.695C1064.34 537.82 1096.95 501.782 1104.67 461.884C1111.11 428.135 1100.24 395.53 1096.66 359.636C1089.37 285.416 1109.1 193.893 1151.58 110.379C1163.3 87.069 1176.89 64.4742 1192.33 43.1665C1262.26 -54.0766 1368.66 -123.577 1475.63 -141.023" stroke="#D1DEFF" stroke-width="1.43005" stroke-miterlimit="10"/>
<path d="M-403.313 901.909C-370.851 838.844 -304.926 797.516 -235.569 785.932C-205.681 780.927 -174.792 781.07 -144.475 786.075C-105.291 792.51 -67.2521 806.239 -29.6419 820.11C47.0086 848.568 121.371 877.455 198.737 863.298C259.228 852.286 318.86 842.276 374.918 820.253C418.535 803.093 449.71 773.491 473.734 735.595C484.317 718.863 493.469 700.701 502.192 681.396C519.21 643.214 534.369 602.6 555.676 568.994C579.987 530.669 612.878 501.639 664.789 495.919C678.66 494.346 691.96 494.632 705.116 496.92C760.459 506.072 808.651 546.542 865.567 568.565C891.451 578.575 918.765 583.867 944.935 584.439C974.251 585.011 1002.42 579.576 1026.59 568.422C1072.35 547.257 1103.53 506.501 1108.53 463.457C1112.68 426.705 1098.81 392.097 1092.8 354.201C1079.93 275.835 1096.66 180.451 1138.13 94.7907C1149.72 70.9089 1163.16 47.7422 1178.6 25.8625C1249.11 -73.5257 1359.36 -142.311 1470.33 -155.61" stroke="#D1DEFF" stroke-width="1.43005" stroke-miterlimit="10"/>
<path d="M-407.459 895.188C-373.71 832.552 -308.071 791.224 -238.571 779.354C-208.54 774.206 -177.651 774.349 -147.334 779.497C-108.007 786.219 -70.1111 800.376 -32.5008 815.249C44.0066 845.423 118.226 877.599 196.307 865.157C257.37 855.433 317.861 847.568 375.205 827.118C420.109 811.101 451.856 782.071 476.453 744.461C487.321 727.873 496.759 709.711 505.626 690.405C523.072 652.223 538.66 611.61 560.54 578.29C585.565 540.251 619.171 511.936 672.083 507.789C686.241 506.645 699.683 507.502 712.84 510.22C768.325 521.66 815.803 564.275 872.719 586.298C898.602 596.308 926.059 601.171 952.515 601.028C982.117 600.742 1010.58 594.02 1034.6 581.15C1080.22 556.696 1109.82 511.507 1111.97 464.887C1113.82 425.275 1097.09 388.38 1088.51 348.481C1070.35 265.968 1083.79 166.866 1124.26 78.7746C1135.56 54.1778 1149 30.439 1164.59 8.27333C1235.66 -93.117 1349.78 -161.187 1464.76 -170.625" stroke="#D1DEFF" stroke-width="1.43005" stroke-miterlimit="10"/>
<path d="M-411.607 888.324C-376.571 825.974 -311.361 784.645 -241.574 772.633C-211.543 767.485 -180.654 767.485 -150.194 772.776C-110.868 779.64 -72.9719 794.513 -35.5047 810.1C40.8598 842.133 114.936 877.456 193.589 866.73C255.224 858.293 316.573 852.573 375.205 833.696C421.252 818.824 453.571 790.366 478.883 752.898C490.037 736.453 499.762 718.434 508.771 699.129C526.79 660.946 542.806 620.333 565.258 587.299C590.856 549.546 625.177 521.946 679.376 519.515C693.676 518.943 707.261 520.373 720.561 523.519C776.333 537.247 822.809 582.008 879.725 604.031C905.752 614.184 933.352 618.617 959.951 617.616C989.839 616.472 1018.44 608.321 1042.46 593.734C1087.94 566.134 1115.97 516.226 1115.4 466.317C1114.97 423.845 1095.52 384.804 1084.22 342.761C1060.77 255.957 1070.78 153.28 1110.53 62.901C1121.55 37.5892 1134.99 13.4214 1150.72 -9.31635C1222.36 -112.852 1340.49 -180.207 1459.32 -185.498" stroke="#D1DEFF" stroke-width="1.43005" stroke-miterlimit="10"/>
<path d="M-415.61 881.603C-379.43 819.682 -314.363 778.353 -244.577 766.055C-214.546 760.764 -183.514 760.764 -152.911 766.198C-113.585 773.348 -75.6883 788.65 -38.3641 805.238C37.8574 838.987 111.791 877.742 191.158 868.589C253.365 861.439 315.715 857.721 375.348 840.56C422.54 826.975 455.574 798.946 481.601 761.765C492.898 745.462 502.908 727.444 512.347 708.138C530.794 670.099 547.24 629.343 570.264 596.594C596.576 559.127 631.47 532.242 686.955 531.384C701.542 531.241 715.27 533.243 728.427 536.962C784.342 552.978 830.103 599.884 887.019 622.049C913.046 632.203 940.932 636.207 967.817 634.491C997.991 632.489 1026.88 623.05 1050.76 606.748C1096.09 576.002 1122.55 521.517 1119.26 468.033C1116.4 422.701 1094.23 381.515 1080.36 337.47C1051.62 246.376 1058.34 140.124 1097.09 47.3136C1107.96 21.4298 1121.26 -3.45304 1136.99 -26.4768C1209.21 -132.014 1331.19 -198.797 1454.18 -199.941" stroke="#D1DEFF" stroke-width="1.43005" stroke-miterlimit="10"/>
<path d="M-419.758 874.882C-382.291 813.39 -317.51 772.061 -247.581 759.62C-217.407 754.186 -186.375 754.186 -155.772 759.763C-116.445 767.056 -78.5492 782.93 -41.368 800.376C34.7105 835.984 108.501 877.885 188.44 870.449C251.219 864.585 314.428 863.155 375.348 847.425C423.683 835.127 457.432 807.527 484.031 770.631C495.615 754.472 505.911 736.453 515.492 717.148C534.369 679.108 551.386 638.352 574.839 605.89C601.724 568.709 637.332 542.396 694.105 543.397C708.834 543.683 722.706 546.257 736.005 550.547C792.206 568.852 837.11 617.759 894.025 640.068C920.195 650.221 948.224 653.94 975.252 651.365C1005.57 648.505 1034.74 637.637 1058.62 619.618C1103.81 585.583 1128.7 526.665 1122.69 469.75C1117.54 421.557 1092.52 378.084 1076.07 332.036C1041.89 236.795 1045.47 126.681 1083.36 31.7263C1093.95 5.12742 1107.25 -20.1844 1123.12 -43.7802C1195.91 -151.463 1321.75 -217.388 1448.74 -214.528" stroke="#D1DEFF" stroke-width="1.43005" stroke-miterlimit="10"/>
<path d="M-423.762 868.017C-368.276 780.498 -260.022 733.593 -158.489 753.041C-38.7937 775.922 65.7427 880.745 186.01 872.021C249.361 867.445 313.427 868.017 375.634 854.003C446.85 837.986 486.605 789.222 518.924 725.871C560.396 644.501 592.858 550.118 701.541 555.123C780.051 558.698 830.961 630.2 901.176 657.8C956.662 679.537 1021.73 669.527 1066.78 632.203C1111.82 594.878 1135.13 531.67 1126.41 471.179C1118.97 420.127 1091.09 374.508 1072.07 326.316C1021.59 199.041 1036.03 48.3146 1109.39 -61.37C1182.75 -171.055 1312.6 -236.408 1443.45 -229.4" stroke="#D1DEFF" stroke-width="1.43005" stroke-miterlimit="10"/>
<path d="M-417.469 880.602C-361.125 799.947 -253.586 756.331 -152.768 774.206C-102.287 783.073 -54.3804 805.667 -7.04588 827.404C41.4327 849.856 89.0533 871.592 138.819 878.028C154.835 880.03 171.138 880.602 187.583 878.886C249.504 872.45 312.141 870.877 374.062 856.291C444.277 839.845 484.747 793.083 518.21 733.307C525.932 719.578 533.369 705.564 540.948 691.693C563.257 650.936 586.995 612.325 624.463 591.017C645.484 579.005 670.653 572.284 702.114 573.428C779.623 576.002 830.389 641.498 898.317 665.094C907.326 668.24 916.621 670.528 925.917 671.958C972.393 679.108 1021.44 665.666 1057.34 634.062C1100.38 596.165 1122.69 533.529 1114.54 473.611C1107.68 422.844 1081.65 376.939 1064.06 328.747C1033.74 245.661 1030.31 152.994 1052.19 68.9073C1063.92 24.0039 1082.94 -18.4685 1108.68 -55.9357C1155.87 -124.292 1225.23 -174.916 1303.16 -201.657C1347.92 -216.959 1395.54 -224.252 1443.31 -222.25" stroke="#D1DEFF" stroke-width="1.43005" stroke-miterlimit="10"/>
<path d="M-411.034 893.186C-353.975 819.395 -247.008 779.068 -146.762 795.37C-96.424 803.522 -48.8034 823.971 -2.04093 843.42C45.8656 863.298 92.6282 882.317 141.536 886.608C157.266 888.038 173.14 887.894 189.299 885.749C249.933 877.455 310.996 873.88 372.488 858.722C441.559 841.99 482.888 796.943 517.352 740.743C525.36 727.729 533.082 714.716 540.948 701.702C563.971 663.663 587.996 628.055 625.463 608.32C646.628 597.309 671.654 590.874 702.543 591.589C779.05 593.305 829.674 652.652 895.313 672.243C904.036 674.818 912.903 676.534 921.912 677.535C966.672 682.397 1013.58 667.667 1047.76 635.634C1088.8 597.166 1110.11 535.245 1102.67 475.898C1096.52 425.417 1072.07 379.37 1056.19 331.034C1028.45 247.949 1026.88 155.711 1049.9 72.6249C1062.34 28.0075 1081.93 -13.8929 1108.25 -50.7881C1156.15 -118 1225.65 -167.48 1303.73 -194.222C1348.49 -209.523 1395.83 -216.96 1443.45 -215.243" stroke="#D1DEFF" stroke-width="1.43005" stroke-miterlimit="10"/>
<path d="M-404.599 905.77C-346.682 838.844 -240.43 801.663 -140.899 816.392C-90.847 823.686 -43.3694 842.276 2.96408 859.151C50.4416 876.597 96.346 892.614 144.253 894.902C159.697 895.617 175.285 894.902 191.015 892.328C250.362 882.175 309.852 876.311 371.058 860.724C439.128 843.42 481.171 800.519 516.78 747.893C524.931 735.738 533.082 723.582 541.09 711.57C564.829 676.391 589.14 643.5 626.607 625.481C647.772 615.328 672.798 609.179 703.115 609.608C778.621 610.323 828.959 663.806 892.596 679.251C901.033 681.253 909.613 682.54 918.337 683.112C961.381 685.686 1006.14 669.67 1038.75 637.208C1077.93 598.31 1098.09 536.961 1091.37 478.186C1085.8 427.849 1063.2 381.658 1048.76 333.323C1023.73 250.237 1023.73 158.428 1048.04 76.3434C1061.2 32.012 1081.36 -9.31635 1108.1 -45.4965C1156.73 -111.565 1226.37 -159.9 1304.45 -186.642C1349.07 -201.801 1396.4 -209.38 1443.88 -208.236" stroke="#D1DEFF" stroke-width="1.43005" stroke-miterlimit="10"/>
<path d="M-398.164 918.355C-339.389 858.15 -233.851 824.401 -134.892 837.557C-84.9834 843.992 -37.7919 860.581 8.11258 875.168C55.1611 890.04 100.064 903.196 147.113 903.482C162.272 903.625 177.43 902.338 192.875 899.192C250.934 887.323 308.851 879.315 369.771 863.155C436.698 845.423 479.599 804.523 516.208 755.33C524.645 744.032 533.083 732.735 541.377 721.58C565.831 689.118 590.428 659.087 627.895 642.785C649.202 633.49 674.085 628.055 703.83 627.912C778.336 627.626 828.387 675.104 889.879 686.544C898.03 688.117 906.325 688.832 914.619 688.832C955.947 689.118 998.42 671.815 1029.45 638.924C1066.63 599.454 1085.65 538.821 1079.79 480.475C1074.78 430.423 1054.05 383.947 1041.18 335.611C1018.73 252.382 1020.59 161.145 1046.18 79.9187C1060.05 35.8732 1080.93 -4.74011 1107.96 -40.4913C1157.3 -105.415 1227.08 -152.75 1305.31 -179.206C1349.93 -194.364 1396.97 -202.087 1444.31 -201.228" stroke="#D1DEFF" stroke-width="1.43005" stroke-miterlimit="10"/>
<path d="M-391.872 930.797C-332.239 877.456 -227.417 846.996 -129.173 858.436C-79.5499 864.156 -32.3583 878.743 12.9741 890.755C59.4506 903.197 103.496 913.493 149.687 911.634C164.559 911.062 179.432 909.203 194.447 905.628C251.22 891.899 307.564 881.746 368.055 865.014C433.98 846.853 477.596 807.813 515.349 762.337C524.073 751.755 532.796 741.458 541.376 731.305C566.402 701.56 591.571 674.532 629.038 659.803C650.489 651.366 675.086 646.074 704.402 645.788C777.906 644.93 827.815 685.973 887.018 693.409C894.884 694.41 902.892 694.553 910.757 694.267C950.226 692.408 990.697 673.674 1020.01 640.354C1055.33 600.313 1073.21 540.251 1068.06 482.62C1063.63 432.854 1044.75 386.235 1033.31 337.756C1013.58 254.528 1017.15 163.72 1043.89 83.494C1058.48 39.7346 1079.93 -0.306718 1107.39 -35.3429C1157.44 -99.1229 1227.37 -145.313 1305.74 -171.769C1350.21 -186.785 1397.12 -194.65 1444.31 -194.364" stroke="#D1DEFF" stroke-width="1.43005" stroke-miterlimit="10"/>
<path d="M-385.437 943.381C-324.946 896.904 -220.839 869.59 -123.31 879.601C-73.9729 884.463 -26.9243 897.047 17.9791 906.772C64.0266 916.639 107.071 924.075 152.404 920.214C166.99 918.927 181.433 916.639 196.163 912.492C251.649 896.904 306.419 884.606 366.624 867.445C431.405 848.855 475.88 811.816 514.634 769.773C523.643 760.049 532.653 750.61 541.376 741.315C567.117 714.287 592.572 690.119 630.039 677.106C651.49 669.527 676.086 664.665 704.83 663.95C777.477 662.091 827.099 697.127 884.015 700.559C891.594 700.988 899.174 700.702 906.896 699.844C944.649 695.697 982.974 675.676 1010.72 641.927C1044.04 601.314 1060.91 541.967 1056.48 484.908C1052.62 435.428 1035.46 388.523 1025.73 340.044C1008.57 256.815 1014.15 166.436 1041.89 87.2119C1057.19 43.7385 1079.22 4.26923 1107.1 -30.1949C1157.73 -92.8309 1227.8 -137.877 1306.31 -164.333C1350.78 -179.349 1397.54 -187.357 1444.59 -187.5" stroke="#D1DEFF" stroke-width="1.43005" stroke-miterlimit="10"/>
<path d="M-379.001 955.965C-317.795 916.353 -214.117 892.328 -117.303 900.765C-68.1093 904.77 -21.3468 915.495 23.1276 922.645C68.7461 930.081 110.933 934.515 155.264 928.651C169.564 926.792 183.722 923.789 198.022 919.213C252.221 901.909 305.562 887.323 365.195 869.591C428.975 850.714 474.164 815.392 514.063 777.066C523.358 768.057 532.653 759.62 541.662 751.326C568.118 727.158 594.002 705.85 631.327 694.41C652.92 687.832 677.374 683.255 705.546 682.111C777.191 679.394 826.528 708.424 881.299 707.709C888.592 707.566 895.885 706.851 903.178 705.564C939.216 699.129 975.253 677.821 1001.42 643.643C1032.74 602.458 1048.61 543.826 1044.9 487.196C1041.61 437.859 1026.45 390.811 1018.01 342.189C1003.71 258.961 1010.86 169.011 1039.89 90.7872C1055.91 47.5998 1078.5 8.8455 1106.82 -25.0466C1158.16 -86.5386 1228.37 -130.441 1307.02 -156.754C1351.35 -171.626 1397.97 -179.778 1444.88 -180.35" stroke="#D1DEFF" stroke-width="1.43005" stroke-miterlimit="10"/>
<path d="M-372.566 968.55C-310.502 935.802 -207.539 915.209 -111.44 921.787C-62.5323 925.219 -15.9128 933.657 28.1326 938.519C73.1791 943.381 114.507 944.954 157.981 937.089C171.995 934.515 185.724 930.94 199.738 925.935C252.507 906.772 304.418 890.183 363.764 871.879C426.543 852.573 472.591 819.253 513.49 784.36C523.072 776.209 532.653 768.629 541.948 761.193C568.976 739.742 595.289 721.438 632.613 711.571C654.35 705.85 678.661 701.703 706.261 700.273C776.905 696.698 826.098 719.579 878.581 714.86C885.588 714.288 892.596 713.001 899.46 711.285C933.781 702.561 967.673 679.966 992.127 645.359C1021.59 603.602 1036.32 545.542 1033.17 489.627C1030.45 440.577 1017.15 393.385 1010.29 344.621C998.562 261.392 1007.57 171.871 1037.75 94.6485C1054.48 51.7471 1077.79 13.5648 1106.39 -19.6122C1158.44 -79.9602 1228.8 -122.719 1307.45 -149.031C1351.64 -163.904 1398.26 -172.055 1444.88 -173.199" stroke="#D1DEFF" stroke-width="1.43005" stroke-miterlimit="10"/>
<path d="M-366.274 981.134C-303.352 955.25 -201.104 937.946 -105.576 942.952C-56.8119 945.526 -10.4784 952.104 33.138 954.392C77.7555 956.823 118.083 955.536 160.698 945.526C174.284 942.38 187.869 938.233 201.454 932.655C252.936 911.634 303.274 892.9 362.192 874.166C423.827 854.432 470.732 823.114 512.633 791.796C522.5 784.503 532.367 777.781 541.949 771.203C569.692 752.469 596.433 737.025 633.615 728.874C655.494 724.012 679.519 720.15 706.69 718.434C776.333 713.858 825.384 730.733 875.578 722.009C882.3 720.865 889.021 719.006 895.456 716.861C928.061 705.85 959.808 681.968 982.546 646.932C1010 604.746 1023.73 547.258 1021.3 491.772C1019.3 443.007 1007.57 395.53 1002.42 346.765C993.414 263.537 1004.14 174.445 1035.6 98.2232C1053.05 55.6078 1076.93 17.9976 1105.96 -14.6075C1158.73 -73.8114 1229.23 -115.426 1308.02 -141.739C1352.21 -156.468 1398.55 -164.905 1445.17 -166.335" stroke="#D1DEFF" stroke-width="1.43005" stroke-miterlimit="10"/>
<path d="M-359.838 993.718C-296.058 974.555 -194.525 960.684 -99.713 964.116C-51.2344 965.832 -5.04388 970.408 38.1435 970.408C82.332 970.408 121.658 966.118 163.416 954.106C176.715 950.245 189.871 945.526 203.171 939.519C253.366 916.639 302.13 895.903 360.762 876.454C421.396 856.434 469.16 826.832 512.061 799.232C522.214 792.653 532.368 786.933 542.092 781.356C570.407 765.34 597.721 752.898 634.759 746.32C656.782 742.459 680.663 738.884 707.262 736.739C775.905 731.305 824.812 741.887 872.719 729.302C879.154 727.586 885.446 725.298 891.738 722.724C922.627 709.568 952.086 684.256 973.394 648.791C998.992 606.032 1011.58 549.26 1009.86 494.346C1008.43 445.867 998.563 398.247 994.845 349.339C988.409 266.11 1001.14 177.447 1033.6 102.227C1051.9 60.0406 1076.21 22.8594 1105.82 -9.03061C1159.3 -67.0905 1229.94 -107.561 1308.88 -133.874C1352.93 -148.603 1399.12 -157.04 1445.6 -159.042" stroke="#D1DEFF" stroke-width="1.43005" stroke-miterlimit="10"/>
<path d="M-353.403 1006.16C-288.765 993.861 -187.947 983.136 -93.7069 984.995C-45.3714 985.996 0.533157 988.57 43.1485 985.996C86.765 983.422 125.233 976.271 166.133 962.257C179.146 957.681 192.016 952.39 204.887 945.954C253.794 921.215 300.986 898.334 359.332 878.456C418.965 858.007 467.586 830.407 511.346 806.239C521.785 800.519 532.081 795.514 542.235 790.937C571.265 777.638 598.865 768.2 635.903 763.194C658.069 760.191 681.807 757.045 707.977 754.614C775.618 748.179 824.24 752.755 870.001 736.167C876.151 733.878 882.157 731.161 888.02 728.015C917.193 712.571 944.507 685.972 964.098 650.078C987.694 606.747 999.278 550.547 998.277 496.348C997.419 448.012 989.41 400.249 987.265 351.341C983.547 267.969 997.99 179.879 1031.6 105.659C1050.62 63.7588 1075.64 27.2926 1105.53 -4.16842C1159.73 -61.0843 1230.52 -100.411 1309.45 -126.58C1353.5 -141.167 1399.55 -149.89 1445.74 -152.178" stroke="#D1DEFF" stroke-width="1.43005" stroke-miterlimit="10"/>
<path d="M-346.968 1018.74C-281.615 1013.31 -181.368 1005.87 -87.8433 1006.16C-39.7938 1006.3 5.96767 1007.02 48.154 1001.87C91.3414 996.864 128.952 986.854 168.85 970.694C181.577 965.546 194.162 959.683 206.603 952.676C254.224 926.077 299.842 901.194 357.759 880.601C416.248 859.866 465.728 834.125 510.631 813.532C521.356 808.67 531.939 804.523 542.378 800.948C571.98 790.366 600.152 783.93 637.047 780.641C659.213 778.639 682.952 775.779 708.55 772.919C775.19 765.626 823.668 764.053 867.142 743.46C873.005 740.6 878.725 737.454 884.159 733.879C911.616 716.146 936.642 688.26 954.661 651.937C976.254 608.035 986.836 552.549 986.55 498.779C986.264 450.729 980.115 402.823 979.4 353.772C978.256 270.401 994.702 182.739 1029.45 109.52C1049.19 67.9061 1074.78 32.0119 1105.1 1.26594C1160.02 -54.6489 1230.95 -92.6881 1310.03 -118.858C1353.93 -133.444 1399.83 -142.168 1446.02 -145.028" stroke="#D1DEFF" stroke-width="1.43005" stroke-miterlimit="10"/>
<path d="M-340.677 1031.33C-274.466 1032.76 -174.935 1028.47 -82.1248 1027.32C-34.3612 1026.61 11.2573 1025.32 53.0146 1017.89C95.773 1010.31 132.382 997.437 171.422 979.275C183.864 973.412 196.019 966.977 208.032 959.541C254.365 931.083 298.411 904.055 356.041 883.033C413.529 862.011 463.867 838.13 509.628 820.969C520.64 816.822 531.508 813.676 542.09 810.959C572.264 803.093 601.008 799.661 637.761 797.945C660.069 796.801 683.665 794.227 708.691 791.081C774.33 782.787 822.666 775.208 863.851 750.468C869.428 747.179 874.862 743.317 880.01 739.313C905.751 719.293 928.632 690.12 945.077 653.368C964.812 608.893 974.251 554.122 974.68 500.925C975.109 453.161 970.532 404.968 971.533 355.918C973.106 272.546 991.268 185.313 1027.16 113.096C1047.61 71.7677 1073.78 36.4455 1104.53 6.27155C1160.16 -48.4992 1231.23 -85.3945 1310.45 -111.564C1354.36 -126.008 1399.98 -135.017 1446.02 -138.306" stroke="#D1DEFF" stroke-width="1.43005" stroke-miterlimit="10"/>
<path d="M-334.242 1043.91C-267.173 1052.21 -168.213 1051.21 -76.1183 1048.35C-28.4978 1046.92 16.8347 1043.63 58.1631 1033.62C100.349 1023.61 136.101 1007.88 174.283 987.569C186.438 981.134 198.308 973.984 209.891 966.118C254.794 935.801 297.41 906.771 354.612 885.035C411.099 863.584 462.294 841.704 509.057 828.119C520.354 824.83 531.508 822.542 542.377 820.683C573.266 815.534 602.296 814.104 639.048 814.962C661.5 815.391 684.809 812.531 709.406 808.956C774.044 799.804 822.094 785.933 861.134 757.332C866.425 753.471 871.43 749.18 876.293 744.747C900.317 722.438 921.053 691.979 935.783 654.797C953.515 609.751 961.952 555.552 963.097 503.069C964.098 455.592 961.38 407.113 963.812 358.063C967.959 274.691 988.122 187.887 1025.02 116.528C1046.33 75.4854 1072.92 40.8783 1104.1 11.2763C1160.44 -42.3504 1231.66 -78.1016 1310.88 -104.128C1354.64 -118.572 1400.26 -127.581 1446.02 -131.299" stroke="#D1DEFF" stroke-width="1.43005" stroke-miterlimit="10"/>
<path d="M-327.807 1056.5C-259.879 1071.66 -161.635 1073.66 -70.2552 1069.51C-22.9207 1067.08 22.4118 1061.93 63.1681 1049.63C104.925 1037.05 139.676 1018.46 177 996.149C188.869 988.999 200.31 981.42 211.607 972.982C255.223 940.663 296.409 909.774 353.182 887.466C408.524 865.729 460.721 845.851 508.485 835.555C520.068 833.124 531.508 831.694 542.663 830.836C574.124 828.405 603.726 831.122 640.478 832.409C663.073 833.267 686.239 831.122 710.264 827.404C773.901 817.25 821.808 797.373 858.56 764.767C863.565 760.334 868.284 755.615 872.717 750.753C895.026 726.299 913.474 694.409 926.63 656.799C942.504 611.18 949.797 557.697 951.513 505.643C953.229 458.309 952.085 409.83 956.232 360.493C962.81 277.122 984.976 190.747 1023.16 120.389C1045.18 79.6322 1072.5 45.5971 1103.96 16.7102C1161.01 -35.7725 1232.23 -70.5227 1311.74 -96.4065C1355.5 -110.707 1400.83 -120.002 1446.6 -124.149" stroke="#D1DEFF" stroke-width="1.43005" stroke-miterlimit="10"/>
<path d="M-321.514 1069.08C-252.728 1091.1 -155.199 1096.4 -64.3913 1090.53C-17.1998 1087.39 27.8467 1080.24 68.174 1065.36C109.502 1050.35 143.394 1028.9 179.718 1004.3C191.301 996.578 202.455 988.284 213.324 979.418C255.653 945.24 295.265 912.349 351.752 889.325C406.094 867.302 459.149 849.284 507.77 842.562C519.64 840.989 531.366 840.56 542.806 840.417C574.839 839.988 605.013 846.423 641.623 849.284C664.36 851 687.384 849.284 710.837 845.137C773.473 833.982 821.093 807.955 855.7 771.489C860.42 766.484 864.853 761.193 869 755.902C889.45 729.16 905.895 695.983 917.479 657.943C931.35 611.896 937.642 558.984 940.073 507.503C942.361 460.454 943.076 411.689 948.654 362.353C957.949 278.981 981.974 193.035 1021.16 123.678C1043.89 83.3507 1071.78 49.7446 1103.67 21.4297C1161.3 -29.909 1232.8 -63.5151 1312.46 -89.3989C1356.07 -103.556 1401.26 -112.995 1446.88 -117.571" stroke="#D1DEFF" stroke-width="1.43005" stroke-miterlimit="10"/>
<path d="M-315.079 1081.67C-245.578 1110.41 -148.621 1119.13 -58.5282 1111.7C-11.6227 1107.69 33.2807 1098.54 73.179 1081.38C113.935 1063.79 146.969 1039.48 182.435 1012.88C193.732 1004.44 204.457 995.578 215.04 986.282C256.082 950.245 294.121 915.209 350.179 891.756C403.52 869.305 457.433 853.431 507.055 849.999C519.211 849.141 531.223 849.57 542.806 850.571C575.554 853.431 606.014 862.297 642.623 866.73C665.504 869.448 688.385 868.017 711.266 863.441C772.901 851.286 820.378 819.253 852.697 778.783C857.13 773.205 861.278 767.485 864.996 761.765C883.729 732.735 898.03 698.271 907.897 659.803C919.766 613.183 925.058 560.843 928.204 510.077C931.064 463.314 933.638 414.407 940.788 364.927C952.657 281.555 978.684 196.182 1018.87 127.682C1042.46 87.641 1070.78 54.607 1103.24 27.0071C1161.59 -23.1875 1233.23 -55.6496 1312.89 -81.5334C1356.5 -95.6909 1401.55 -105.272 1446.88 -110.277" stroke="#D1DEFF" stroke-width="1.43005" stroke-miterlimit="10"/>
<path d="M-308.643 1094.11C-238.285 1129.72 -142.043 1141.59 -52.6647 1132.72C-6.04522 1127.86 38.7152 1116.85 78.1845 1097.11C118.512 1077.09 150.688 1049.92 185.152 1021.18C196.163 1012.17 206.46 1002.58 216.756 992.86C256.368 954.821 292.977 917.926 348.749 893.758C401.089 871.021 455.717 856.434 506.341 857.149C518.782 857.292 531.08 858.293 542.95 860.295C576.27 865.872 607.302 877.885 643.768 883.748C666.649 887.466 689.386 886.179 711.838 881.317C772.472 868.303 819.664 829.978 849.838 785.647C853.985 779.641 857.703 773.348 861.135 767.056C878.153 735.738 890.165 699.987 898.459 661.09C908.47 613.898 912.617 562.273 916.478 511.936C920.053 465.459 924.2 416.266 933.066 366.786C947.653 283.414 975.539 198.47 1016.87 130.971C1041.18 91.2162 1070.21 58.8971 1102.96 31.7262C1162.02 -17.3244 1233.81 -48.6424 1313.6 -74.3833C1357.08 -88.3977 1401.98 -98.122 1447.31 -103.699" stroke="#D1DEFF" stroke-width="1.43005" stroke-miterlimit="10"/>
<path d="M-302.208 1106.69C-230.992 1149.16 -135.465 1164.32 -46.6587 1153.74C-0.182182 1148.16 44.2922 1135.01 83.3325 1112.98C123.231 1090.39 154.406 1060.36 188.012 1029.61C198.594 1019.89 208.748 1009.88 218.615 999.582C256.94 959.683 292.119 920.786 347.319 896.046C398.658 873.022 454.144 861.01 505.768 864.585C518.496 865.443 530.937 867.445 543.235 870.448C577.27 878.6 608.589 893.758 645.055 901.194C668.079 905.913 690.673 904.912 712.553 899.764C772.186 885.75 819.091 841.418 847.12 793.083C850.981 786.505 854.414 779.783 857.417 773.062C872.718 739.456 882.585 702.418 889.164 663.092C897.172 615.328 900.461 564.418 904.894 514.653C909.184 468.319 915.048 418.983 925.344 369.503C942.504 286.131 972.392 201.759 1014.72 135.118C1039.89 95.7921 1069.35 63.9021 1102.53 37.4462C1162.3 -10.4603 1234.23 -40.6343 1314.17 -66.3752C1357.5 -80.3896 1402.26 -90.1139 1447.45 -96.1201" stroke="#D1DEFF" stroke-width="1.43005" stroke-miterlimit="10"/>
<path d="M-295.916 1119.28C-223.841 1168.61 -129.029 1187.06 -40.9383 1174.91C5.25223 1168.47 49.5837 1153.45 88.1949 1128.86C127.521 1103.83 157.838 1070.94 190.586 1038.05C200.883 1027.75 210.607 1017.03 220.188 1006.3C257.083 964.546 290.832 923.789 345.746 898.335C396.084 875.168 452.285 865.015 504.91 871.879C517.924 873.595 530.651 876.455 543.093 880.316C577.7 891.041 609.59 909.489 645.913 918.355C669.08 924.075 691.532 923.217 712.839 917.783C771.471 902.625 818.091 852.287 843.974 800.09C847.55 792.94 850.696 785.647 853.413 778.497C866.998 742.746 874.72 704.277 879.726 664.522C885.875 616.186 888.02 565.849 893.168 516.798C898.03 470.751 905.752 421.271 917.622 371.649C937.499 288.134 969.247 204.333 1012.58 138.694C1038.46 99.6537 1068.49 68.3357 1102.1 42.4519C1162.59 -4.31066 1234.66 -33.3406 1314.6 -59.0814C1357.93 -72.9529 1402.55 -82.9632 1447.45 -89.3984" stroke="#D1DEFF" stroke-width="1.43005" stroke-miterlimit="10"/>
<path d="M-289.48 1131.86C-178.222 1217.52 -17.1992 1223.1 93.2004 1144.73C132.098 1117.13 161.414 1081.38 193.304 1046.49C242.354 992.717 275.674 933.227 344.174 900.479C405.666 871.02 479.313 865.729 543.236 890.183C578.558 903.625 610.734 925.076 647.057 935.515C743.586 963.115 823.811 867.016 849.552 784.216C875.865 699.843 870.717 607.748 881.442 519.229C896.171 396.674 939.359 245.661 1010.43 142.411C1085.22 33.8708 1190.62 -11.6047 1315.18 -51.36C1358.36 -65.2314 1402.84 -75.2417 1447.74 -82.106" stroke="#D1DEFF" stroke-width="1.43005" stroke-miterlimit="10"/>
</g>
</svg>
