<svg width="25" height="24" viewBox="0 0 25 24" fill="none" xmlns="http://www.w3.org/2000/svg">
<path d="M17.0547 2H7.05469C4.29326 2 2.05469 4.23858 2.05469 7V17C2.05469 19.7614 4.29326 22 7.05469 22H17.0547C19.8161 22 22.0547 19.7614 22.0547 17V7C22.0547 4.23858 19.8161 2 17.0547 2Z" stroke="#A7A7A7" stroke-width="2" stroke-linecap="round" stroke-linejoin="round"/>
<path d="M16.0544 11.3698C16.1778 12.2021 16.0357 13.052 15.6482 13.7988C15.2607 14.5456 14.6475 15.1512 13.896 15.5295C13.1445 15.9077 12.2928 16.0394 11.4622 15.9057C10.6315 15.7721 9.86416 15.3799 9.26923 14.785C8.67431 14.1901 8.28213 13.4227 8.14846 12.592C8.0148 11.7614 8.14646 10.9097 8.52472 10.1582C8.90298 9.40667 9.50858 8.79355 10.2554 8.40605C11.0022 8.01856 11.8521 7.8764 12.6844 7.99981C13.5333 8.1257 14.3192 8.52128 14.9261 9.12812C15.5329 9.73496 15.9285 10.5209 16.0544 11.3698Z" stroke="#A7A7A7" stroke-width="2" stroke-linecap="round" stroke-linejoin="round"/>
<path d="M17.5547 6.5H17.5647" stroke="#A7A7A7" stroke-width="2" stroke-linecap="round" stroke-linejoin="round"/>
</svg>
