<svg width="1440" height="1426" viewBox="0 0 1440 1426" fill="none" xmlns="http://www.w3.org/2000/svg">
<g opacity="0.1">
<path d="M-59.1266 877.754C-35.4119 832.521 21.8936 819.265 69.9811 828.484C118.069 837.703 161.898 863.671 208.807 878.623C334.453 918.562 480.707 869.086 560.96 759.414C586.64 724.297 605.811 684.16 631.259 648.751C656.676 613.441 690.739 581.869 732.131 574.447C791.679 563.65 848.84 604.775 890.637 651.365C932.435 697.955 967.771 753.284 1020.27 785.289C1089.24 827.342 1177.07 820.76 1250.35 788.598C1323.62 756.435 1385.68 701.498 1446.4 647.337" stroke="#D1DEFF" stroke-miterlimit="10"/>
<path d="M-61.6227 874.626C-37.0302 829.706 20.1012 816.392 68.3774 825.431C89.2961 829.363 109.331 836.405 129.116 844.572C155.124 855.27 180.594 867.658 206.913 876.703C260.63 895.138 317.917 897.965 372.936 885.51C415.486 875.868 456.132 858.285 492.171 833.103C517.872 815.244 540.89 793.247 560.219 767.556C568.853 756.078 576.827 743.953 584.539 731.634C600.188 706.63 614.687 680.823 632.112 657.371C651.856 630.717 676.585 606.747 705.83 594.396C714.96 590.52 724.395 587.726 734.267 586.276C775.547 580.278 814.981 599.415 849.829 626.831C864.885 638.636 879.108 652.035 891.995 665.556C906.399 680.765 920.189 696.544 934.007 711.894C961.181 742.009 988.535 770.539 1022.21 788.389C1044.12 800.078 1067.38 806.177 1091.77 808.37C1141.14 812.614 1195.37 799.25 1244.51 775.727C1257.92 769.275 1271.13 762.102 1284.14 754.537C1341.79 720.592 1394.81 677.072 1446.4 636.377" stroke="#D1DEFF" stroke-miterlimit="10"/>
<path d="M-63.2868 868.888C-37.9029 824.568 19.0686 811.215 67.5443 820.101C88.5111 823.939 108.661 831.018 128.53 839.321C154.497 850.224 179.765 862.982 206.014 872.662C259.267 892.371 315.703 897.339 370.868 886.255C413.554 877.649 454.303 861.533 490.93 837.975C517.109 821.044 540.501 799.614 560.263 774.292C569.064 762.982 577.237 750.925 585.048 738.644C600.962 713.846 615.789 688.044 633.549 664.929C653.725 638.644 678.733 615.541 708.465 604.447C717.67 601.035 727.114 598.574 736.866 597.525C777.864 593.195 816.268 613.642 851.052 641.033C866.19 652.97 880.653 666.005 893.811 679.062C908.649 693.638 922.904 708.686 937.05 722.714C964.884 750.515 992.172 775.954 1024.67 790.471C1045.7 799.907 1067.54 803.698 1090.56 803.814C1137.29 803.935 1190.11 787.291 1239.06 762.081C1252.54 755.108 1265.76 747.612 1278.87 739.756C1337.39 704.574 1392.96 662.327 1446.4 625.418" stroke="#D1DEFF" stroke-miterlimit="10"/>
<path d="M-64.9509 863.149C-38.7993 819.429 17.8447 805.878 66.3908 814.681C87.332 818.512 107.587 825.515 127.398 833.908C153.301 844.898 178.409 858.041 204.337 868.274C257.045 889.12 312.555 896.424 367.8 886.584C410.447 878.961 451.395 864.454 488.487 842.375C515.171 826.493 538.904 805.624 558.977 780.636C567.935 769.492 576.167 757.571 584.266 745.389C600.461 720.696 615.669 695.032 633.643 672.218C654.131 646.268 679.481 624.055 709.582 614.074C718.879 611.023 728.186 608.959 737.898 608.336C778.44 605.62 815.829 627.38 850.566 654.746C865.683 666.673 880.288 679.53 893.911 692.075C909.115 706.107 923.796 720.082 938.239 733.107C966.663 758.571 994.014 780.959 1025.2 791.992C1045.39 799.194 1065.59 800.602 1087.16 798.728C1131.08 794.902 1182.45 774.857 1231.2 747.745C1244.59 740.313 1257.95 732.323 1271.24 724.201C1330.57 687.664 1388.67 646.802 1443.79 613.626" stroke="#D1DEFF" stroke-miterlimit="10"/>
<path d="M-66.6151 857.411C-39.6331 814.17 16.8196 800.665 65.5627 809.311C86.649 813.079 106.919 820.087 126.683 828.683C152.542 839.878 177.576 853.326 203.204 864.229C255.474 886.249 310.198 895.817 365.493 887.302C408.276 880.705 449.396 867.782 487.014 847.18C514.246 832.345 538.356 812.032 558.768 787.367C567.926 776.287 576.326 764.527 584.527 752.376C600.991 727.876 616.531 702.205 634.941 679.746C655.834 654.251 681.432 632.662 712.088 624.059C721.362 621.437 730.777 619.735 740.27 619.48C780.53 618.422 816.885 641.494 851.522 668.939C866.621 680.97 881.561 693.498 895.453 705.582C910.958 719.054 926.231 732.235 941 743.942C970.11 767.001 997.553 786.467 1027.46 794.139C1046.86 799.12 1065.45 798.156 1085.74 794.233C1127.01 786.279 1176.84 763.006 1225.63 734.155C1239 726.166 1252.46 717.878 1265.95 709.492C1326.14 671.696 1386.78 632.181 1443.79 602.667" stroke="#D1DEFF" stroke-miterlimit="10"/>
<path d="M-68.2792 851.672C-40.6127 809.026 15.7617 795.526 64.6928 804.02C85.8222 807.695 106.203 814.738 125.948 823.435C151.793 834.732 176.686 848.677 202.075 860.047C253.87 883.331 307.83 895.067 363.258 887.93C406.166 882.376 447.381 870.927 485.578 851.962C513.381 838.096 537.728 818.431 558.598 794.051C567.92 783.145 576.515 771.462 584.813 759.355C601.667 735.007 617.497 709.458 636.137 687.318C657.358 662.176 683.327 641.498 714.495 634.059C723.874 631.803 733.165 630.503 742.635 630.681C782.505 631.261 817.954 655.562 852.587 683.101C867.797 695.16 882.911 707.517 897.201 719.065C913.105 732.001 928.806 744.217 943.935 754.831C973.698 775.572 1001.26 792.006 1029.91 796.219C1048.61 799.012 1065.49 795.65 1084.49 789.689C1123.06 777.724 1171.49 751.094 1220.11 720.481C1233.54 711.977 1247.03 703.274 1260.62 694.603C1321.69 655.502 1384.83 617.387 1443.79 591.708" stroke="#D1DEFF" stroke-miterlimit="10"/>
<path d="M-67.2036 845.933C-38.7421 803.871 17.4884 790.218 66.539 798.75C87.6776 802.428 108.198 809.406 127.921 818.206C153.813 829.736 178.525 843.95 203.736 855.919C255.078 880.369 308.204 894.462 363.7 888.55C406.733 884.02 448.11 874.155 486.826 856.667C515.172 843.85 539.891 824.741 561.096 800.688C570.487 789.915 579.249 778.395 587.843 766.384C604.995 742.132 621.123 716.679 640.098 694.866C661.654 670.051 687.932 650.128 719.648 644.067C729.101 642.273 738.4 641.303 747.747 641.879C787.324 644.114 821.727 669.72 856.378 697.263C871.596 709.325 887.01 721.449 901.563 732.535C917.862 744.941 933.986 756.199 949.6 765.655C979.909 784.057 1007.88 797.561 1035.03 798.348C1053.06 798.852 1068.32 793.117 1085.88 785.274C1121.73 769.278 1168.75 739.356 1217.3 706.976C1230.66 698.014 1244.28 688.917 1258.07 679.982C1320 639.626 1385.78 602.795 1446.53 580.748" stroke="#D1DEFF" stroke-miterlimit="10"/>
<path d="M-68.8676 840.195C-39.6404 798.737 16.3394 785.023 65.4035 793.346C86.6505 796.952 107.15 803.923 126.919 812.844C152.752 824.463 177.213 839.03 202.177 851.682C252.956 877.367 305.235 893.594 360.69 888.995C403.79 885.48 445.274 877.192 484.36 861.151C513.212 849.382 538.274 830.837 559.79 807.121C569.337 796.516 578.289 785.065 586.974 773.092C604.375 749.048 620.816 723.605 640.104 702.127C662.069 677.681 688.496 658.588 720.781 653.701C730.228 652.235 739.489 651.693 748.831 652.596C787.961 656.442 821.361 683.358 855.877 710.848C871.145 723.03 886.735 734.878 901.561 745.391C918.228 757.255 934.847 767.575 950.694 775.902C981.599 791.976 1009.8 802.276 1035.36 799.83C1052.76 798.171 1066.19 790.002 1082.43 780.111C1115.57 759.991 1160.97 726.854 1209.43 692.617C1222.84 683.133 1236.47 673.612 1250.44 664.415C1313.18 622.718 1381.36 587.344 1443.92 568.957" stroke="#D1DEFF" stroke-miterlimit="10"/>
<path d="M-70.5318 834.457C-40.4823 793.51 15.2957 779.861 64.552 788.032C85.8439 791.545 106.455 798.551 126.207 807.575C151.997 819.396 176.383 834.262 201.077 847.48C251.417 874.329 302.908 892.814 358.505 889.583C401.736 887.103 443.388 880.41 482.995 865.863C512.425 855.055 537.729 837.149 559.708 813.709C569.422 803.274 578.472 791.863 587.354 779.963C605.051 756.031 621.884 730.732 641.407 709.565C663.706 685.463 690.54 667.172 723.182 663.608C732.704 662.606 741.974 662.396 751.195 663.698C790.04 669.205 822.308 697.386 856.952 724.906C872.232 737.088 888.029 748.67 903.32 758.782C920.387 770.115 937.401 779.576 953.671 786.617C985.227 800.385 1013.81 807.53 1037.84 801.768C1054.71 797.76 1066.28 787.263 1081.17 775.531C1111.63 751.302 1155.57 715.003 1203.96 679.028C1217.3 669.095 1231.07 659.188 1245.17 649.605C1308.76 606.691 1379.5 572.602 1443.92 557.997" stroke="#D1DEFF" stroke-miterlimit="10"/>
<path d="M-72.1959 828.718C-41.3782 788.339 14.1703 774.504 63.4902 782.585C84.7535 786.089 105.367 792.987 125.157 802.132C150.877 814.04 175.067 829.39 199.437 843.16C249.193 871.243 299.687 891.921 355.358 889.912C398.644 888.43 440.393 883.293 480.461 870.2C510.39 860.422 536.034 843.059 558.325 819.933C568.196 809.656 577.404 798.404 586.476 786.562C604.522 762.848 621.573 737.506 641.508 716.686C664.216 692.93 691.227 675.347 724.365 673.14C733.879 672.462 743.078 672.775 752.29 674.402C790.676 681.508 821.926 711.003 856.514 738.507C871.868 750.713 887.801 762.122 903.356 771.663C920.814 782.357 938.184 790.95 954.778 796.893C986.818 808.306 1015.88 812.112 1038.25 803.31C1054.55 796.938 1064.24 784.199 1077.82 770.413C1105.54 742.141 1148.03 702.429 1196.16 664.73C1209.45 654.233 1223.33 643.924 1237.58 634.168C1301.94 589.966 1375.13 557.089 1441.31 546.206" stroke="#D1DEFF" stroke-miterlimit="10"/>
<path d="M-74.6921 825.59C-43.1305 785.626 12.375 771.684 61.8917 779.586C83.2019 782.985 103.926 789.919 123.662 799.275C149.332 811.398 173.437 827.071 197.627 841.459C246.927 870.746 296.622 893.7 352.452 892.997C395.882 892.501 437.913 888.931 478.428 877.217C508.921 868.437 534.963 851.562 557.617 828.681C567.668 818.531 577.089 807.304 586.274 795.455C604.646 771.756 622.121 746.459 642.318 725.86C665.359 702.445 692.738 685.449 726.472 684.489C736.064 684.263 745.273 684.899 754.364 686.922C792.468 695.673 822.69 726.432 857.158 754.057C872.485 766.385 888.746 777.479 904.564 786.571C922.317 796.717 940.307 804.422 957.192 809.147C989.881 818.253 1019.42 818.582 1040.19 806.704C1055.93 797.71 1063.91 782.85 1076.09 767.03C1101.17 734.522 1142.26 691.468 1190.3 651.723C1203.68 640.66 1217.57 629.984 1232.06 619.825C1297.37 574.092 1373.2 542.546 1441.31 535.246" stroke="#D1DEFF" stroke-miterlimit="10"/>
<path d="M-76.3562 819.852C-43.9634 780.382 11.3473 766.494 60.9628 774.21C82.4181 777.547 103.158 784.486 122.977 793.977C148.636 806.204 172.536 822.249 196.557 837.238C245.388 867.795 294.328 892.915 350.208 893.545C393.775 894.08 435.98 892.102 477.024 881.874C508.067 874.149 534.486 857.837 557.511 835.191C567.731 825.206 577.253 814.014 586.638 802.232C605.31 778.635 623.054 753.538 643.619 733.172C666.999 710.091 694.693 693.857 728.985 694.281C738.587 694.387 747.872 695.486 756.746 697.877C794.469 708.259 823.754 740.356 858.253 767.987C873.691 780.35 890.128 791.28 906.345 799.841C924.5 809.458 942.888 816.304 960.165 819.841C993.411 826.608 1023.36 823.348 1042.64 808.702C1057.78 797.22 1063.94 780.252 1074.8 762.483C1097.2 725.847 1136.74 679.573 1184.82 638.1C1198.13 626.582 1212.19 615.415 1226.75 605.062C1292.93 558.087 1371.33 527.81 1441.31 524.287" stroke="#D1DEFF" stroke-miterlimit="10"/>
<path d="M-75.2806 811.373C-42.1275 772.498 12.9595 758.445 62.6476 766.078C84.0783 769.409 104.924 776.272 124.686 785.853C150.349 798.298 173.994 814.695 197.697 830.235C245.989 861.926 294.043 889.275 349.972 891.241C393.598 892.786 435.901 892.378 477.405 883.621C508.948 876.939 535.607 861.153 559.038 838.868C569.315 829.018 579.091 818.023 588.567 806.276C607.486 782.882 625.54 757.79 646.385 737.854C670.171 715.136 698.071 699.526 732.86 701.317C742.553 701.782 751.701 703.275 760.535 706.091C797.904 718.111 826.086 751.487 860.509 779.195C875.928 791.548 892.537 802.202 909.089 810.322C927.607 819.396 946.388 825.273 964.025 827.613C997.83 832.153 1027.97 825.133 1045.77 807.617C1060.21 793.516 1064.66 774.478 1074.09 754.732C1093.69 713.943 1131.86 664.416 1179.71 621.148C1192.97 609.075 1207.01 597.581 1221.88 586.897C1288.86 538.569 1369.67 509.634 1441.43 509.756" stroke="#D1DEFF" stroke-miterlimit="10"/>
<path d="M-76.9447 808.374C-42.9889 770.087 11.9361 755.983 61.79 763.561C83.2678 766.797 104.227 773.696 123.974 783.381C149.626 795.933 173.165 812.733 196.599 828.843C244.454 861.706 291.69 891.419 347.702 894.616C391.369 897.159 433.945 898.37 475.98 891.095C508.174 885.497 535.113 870.239 558.885 848.284C569.331 838.598 579.308 827.668 588.984 815.986C608.303 792.721 626.659 767.727 647.843 748.119C671.969 725.729 700.186 710.879 735.438 714.021C745.108 714.916 754.365 716.772 763.079 719.987C800.068 733.637 827.312 768.353 861.667 796.038C877.067 808.494 894.014 818.817 910.835 826.476C929.755 835.022 948.933 840.041 966.963 841.194C1001.32 843.396 1031.67 832.724 1048.18 812.502C1061.85 795.75 1064.65 774.764 1072.78 752.967C1089.67 708.144 1126.42 655.323 1174.21 610.289C1187.53 597.691 1201.61 585.772 1216.55 574.893C1284.41 525.316 1367.76 497.741 1441.43 501.536" stroke="#D1DEFF" stroke-miterlimit="10"/>
<path d="M-78.6088 799.896C-43.8313 762.119 10.8808 748.076 60.9166 755.498C82.533 758.671 103.502 765.573 123.228 775.359C148.829 788.11 172.287 805.206 195.513 822.011C242.886 856.13 289.353 887.994 345.498 892.554C389.29 896.127 432.096 899.059 474.582 893.143C507.319 888.602 534.628 873.914 558.763 852.202C569.407 842.586 579.451 831.795 589.323 820.185C608.905 797.131 627.586 772.15 649.101 752.882C673.658 730.867 702.115 716.654 737.917 721.179C747.693 722.436 756.827 724.692 765.517 728.336C802.246 743.541 828.414 779.647 862.79 807.329C878.298 819.815 895.415 829.971 912.632 837.098C931.947 845.113 951.646 849.206 969.964 849.142C1004.97 849.039 1035.38 834.795 1050.62 811.778C1063.42 792.354 1064.68 769.365 1071.46 745.727C1085.55 696.764 1120.92 640.812 1168.57 593.91C1181.82 580.863 1196.03 568.557 1211.2 557.322C1279.93 506.428 1365.9 480.266 1441.43 487.837" stroke="#D1DEFF" stroke-miterlimit="10"/>
<path d="M-80.2729 794.158C-44.8319 756.922 9.75566 742.732 59.7628 750.036C81.3532 753.201 102.426 760.027 122.16 770.034C147.695 782.873 170.962 800.455 193.9 817.713C240.728 852.97 286.207 887.032 342.397 892.918C386.245 897.494 429.147 901.987 472.09 897.529C505.323 894.021 532.872 879.848 557.415 858.486C568.214 849.03 578.415 838.399 588.378 826.819C608.24 803.855 627.301 778.997 649.03 760.017C673.895 738.321 702.527 724.821 738.92 730.737C748.786 732.351 757.88 735.031 766.433 739.069C802.705 755.877 827.898 793.201 862.094 820.934C877.549 833.511 894.965 843.326 912.416 849.981C932.025 857.324 952.15 860.678 970.826 859.417C1006.39 857.088 1036.74 839.217 1050.86 813.222C1062.74 791.213 1062.49 766.212 1067.98 740.524C1079.39 687.43 1113.17 628.243 1160.8 579.588C1174 565.98 1188.32 553.274 1203.64 541.869C1273.14 489.694 1361.54 464.748 1438.82 476.046" stroke="#D1DEFF" stroke-miterlimit="10"/>
<path d="M-81.937 788.419C-45.6966 751.782 8.72273 737.548 58.9232 744.698C80.559 747.77 101.744 754.631 121.461 764.741C146.952 777.783 170.045 795.634 192.812 813.489C239.169 850.01 283.86 886.328 340.13 893.446C384.114 899.051 427.287 905.163 470.661 902.16C504.414 899.806 532.371 886.098 557.252 865.072C568.22 855.783 578.522 845.189 588.782 833.708C608.912 810.949 628.304 786.097 650.369 767.451C675.541 746.19 704.551 733.254 741.472 740.652C751.347 742.597 760.419 745.707 768.95 750.175C804.94 768.64 829.094 807.263 863.319 834.999C878.885 847.61 896.476 857.26 914.325 863.386C934.335 870.201 954.887 872.599 973.953 870.153C1010.06 865.491 1040.49 844.046 1053.44 815.285C1064.42 790.7 1062.54 763.658 1066.79 736.057C1075.28 678.881 1107.86 616.382 1155.28 566.044C1168.52 552.015 1182.88 538.889 1198.32 527.093C1268.72 473.589 1359.66 450.016 1438.82 465.086" stroke="#D1DEFF" stroke-miterlimit="10"/>
<path d="M-83.6011 782.681C-46.5639 746.66 7.68692 732.395 58.0834 739.395C79.8639 742.407 101.065 749.274 120.768 759.485C146.315 772.76 169.237 790.876 191.805 809.425C237.729 847.103 281.638 885.667 338.059 894.151C382.182 900.789 425.501 908.591 469.438 906.981C503.843 905.718 532.079 892.552 557.296 871.872C568.432 862.755 578.932 852.234 589.292 840.795C609.72 818.152 629.408 793.417 651.809 775.115C677.416 754.232 706.773 741.969 744.06 750.687C754.045 752.996 763.095 756.536 771.539 761.302C807.152 781.389 830.372 821.329 864.631 849.065C880.211 861.674 898.011 871.06 916.228 876.758C936.64 883.045 957.687 884.622 977.045 880.965C1013.81 874.01 1044.14 849.173 1055.91 817.329C1065.94 790.279 1062.59 761.04 1065.51 731.505C1071.25 670.332 1102.39 604.586 1149.67 552.394C1162.87 537.82 1177.35 524.311 1192.97 512.362C1264.22 457.657 1357.71 435.478 1438.82 454.127" stroke="#D1DEFF" stroke-miterlimit="10"/>
<path d="M-85.2652 776.942C-47.4449 741.41 6.44685 727.045 57.006 733.992C78.7583 736.996 99.9628 743.755 119.704 754.085C145.185 767.446 167.915 786.042 190.193 805.04C235.541 843.942 278.592 884.623 334.954 894.402C379.128 902.043 422.505 911.503 466.923 911.254C501.818 911.025 530.289 898.38 555.939 877.96C567.227 869.007 577.882 858.65 588.33 847.246C609.131 824.735 629.095 800.101 651.802 782.127C677.712 761.571 707.367 749.959 745.11 760.133C755.053 762.866 764.064 766.829 772.499 771.919C807.753 793.634 829.773 834.815 863.981 862.526C879.605 875.256 897.573 884.366 916.053 889.493C936.823 895.24 958.257 895.85 977.971 891.001C1015.28 881.83 1045.55 853.384 1056.17 818.681C1065.26 789.16 1060.53 757.857 1062.06 726.256C1065.13 660.983 1094.68 592.036 1141.93 538.117C1155.07 522.989 1169.64 509.186 1185.46 496.875C1257.51 440.819 1353.47 419.999 1436.21 442.335" stroke="#D1DEFF" stroke-miterlimit="10"/>
<path d="M-84.1892 771.204C-45.6654 736.231 8.15385 721.848 58.805 728.608C80.6013 731.518 101.917 738.312 121.738 748.777C147.172 762.34 169.824 781.237 191.8 800.899C236.704 840.966 278.931 883.998 335.469 895.035C379.778 903.702 423.426 914.777 468.177 915.946C503.592 916.867 532.471 904.684 558.559 884.626C569.918 875.807 580.773 865.517 591.518 854.21C612.589 831.899 632.884 807.267 655.929 789.622C682.276 769.429 712.18 758.445 750.482 769.999C760.533 773.094 769.521 777.486 777.737 782.942C812.608 806.279 833.685 848.79 867.886 876.606C883.522 889.338 901.792 898.217 920.638 902.914C941.807 908.134 963.733 907.92 983.737 901.856C1021.66 890.483 1051.87 858.533 1061.42 820.764C1069.46 788.735 1063.33 755.353 1063.53 721.805C1063.89 652.41 1091.97 580.279 1139.08 524.473C1152.26 508.922 1166.89 494.597 1182.78 482.093C1255.69 424.797 1354.22 405.242 1438.95 431.376" stroke="#D1DEFF" stroke-miterlimit="10"/>
<path d="M-86.6854 768.076C-47.3128 733.557 6.36877 719.033 57.1912 725.709C79.1354 728.544 100.466 735.343 120.266 745.923C145.682 759.607 168.215 778.939 189.908 799.208C234.316 840.618 275.757 885.899 332.352 898.246C376.802 907.927 420.566 920.781 465.925 923.198C501.873 925.243 531.183 913.459 557.638 893.65C569.179 884.96 580.247 874.696 591.108 863.38C612.508 841.085 633.232 816.494 656.542 799.076C683.257 779.131 713.56 768.649 752.362 781.783C762.423 785.209 771.388 790.037 779.579 795.932C814.156 820.964 834.189 864.785 868.37 892.756C884.11 905.544 902.553 914.269 921.701 918.402C943.173 923.057 965.633 921.896 986.039 914.608C1024.64 900.86 1054.79 865.373 1063.27 824.509C1070.4 789.895 1062.83 754.205 1061.72 718.606C1059.32 644.94 1086.17 569.212 1133.25 511.536C1146.41 495.372 1161.16 480.698 1177.3 467.78C1251.18 408.905 1352.28 390.669 1438.93 420.479" stroke="#D1DEFF" stroke-miterlimit="10"/>
<path d="M-88.1824 761.813C-30.7409 713.234 53.9421 704.377 119.338 740.085C196.442 782.149 245.02 877.745 329.505 898.007C374.004 908.693 417.855 923.107 463.656 926.995C516.083 931.465 554.157 906.331 590.351 869.45C636.813 822.071 679.968 763.692 753.466 790.944C806.568 810.602 825.702 871.348 867.798 905.86C901.079 933.08 947.957 940.372 987.133 924.333C1026.31 908.294 1056.29 869.541 1063.68 825.665C1069.86 788.618 1060.81 750.867 1058.41 713.271C1051.9 613.925 1095.15 512.513 1169.76 452.467C1244.37 392.42 1347.96 375.49 1436.23 408.98" stroke="#D1DEFF" stroke-miterlimit="10"/>
<path d="M-86.4418 770.427C-29.8864 726.852 53.6765 720.175 119.03 754.658C151.772 771.866 179.71 798.028 207.445 823.47C235.808 849.658 263.739 875.163 296.527 890.529C307.094 895.426 318.174 899.395 329.858 901.808C373.846 910.914 417.25 923.547 463.039 927.001C514.94 930.984 553.094 907.429 589.307 873.317C597.649 865.491 605.858 857.403 614.134 849.447C638.476 826.077 663.327 804.508 693.791 797.944C710.896 794.222 729.683 795.076 751.057 802.763C803.769 821.53 824.192 878.064 865.672 909.307C871.169 913.462 877.054 917.085 883.127 920.113C913.496 935.254 950.184 936.681 981.843 922.634C1019.81 905.791 1048.98 867.251 1056.62 823.922C1063.12 787.22 1055.38 749.691 1053.93 712.423C1051.46 648.175 1069.58 583.174 1103.2 529.669C1121.18 501.105 1143.64 475.825 1169.62 455.488C1217.16 418.435 1276.03 398.533 1335.51 397.069C1369.66 396.267 1404.01 401.644 1436.4 413.498" stroke="#D1DEFF" stroke-miterlimit="10"/>
<path d="M-85.3662 783.868C-29.8338 745.106 52.5738 740.516 117.827 773.788C150.6 790.472 178.785 815.103 206.602 838.851C235.109 863.147 263.021 886.597 295.667 900.285C306.156 904.723 317.092 908.099 328.667 910.147C372.155 917.662 414.892 928.548 460.489 931.483C511.641 934.985 550.003 912.744 586.121 881.253C594.503 873.968 602.689 866.619 610.973 859.302C635.21 837.921 659.597 818.448 689.704 812.944C706.68 809.93 725.296 810.939 746.356 818.199C798.532 836.142 820.167 888.449 860.919 916.429C866.342 920.127 872.052 923.26 878.019 925.928C907.69 939.106 943.172 939.145 973.742 924.378C1010.45 906.645 1038.8 868.3 1046.83 825.449C1053.78 789.039 1047.18 751.7 1046.98 714.65C1046.31 650.865 1065.65 586.452 1099.86 533.782C1118.29 505.514 1141.02 480.7 1167.27 460.834C1215.06 424.637 1273.75 405.486 1333.31 404.007C1367.44 403.179 1401.61 408.378 1433.94 419.997" stroke="#D1DEFF" stroke-miterlimit="10"/>
<path d="M-83.4581 791.958C-28.9128 758.212 52.2316 755.669 117.287 787.658C150.028 803.666 178.504 826.946 206.574 848.785C235.303 871.272 263.268 892.422 295.642 904.489C306.084 908.364 316.941 911.278 328.306 912.934C371.283 918.875 413.409 927.823 458.863 930.402C509.407 933.292 547.747 912.736 583.819 884.027C592.101 877.38 600.383 870.733 608.535 864.153C632.604 844.948 656.56 827.455 686.259 823.155C703.03 820.743 721.565 821.953 742.278 828.883C793.943 845.897 816.668 894.002 856.93 918.635C862.279 921.87 867.883 924.639 873.744 926.944C902.718 938.146 936.979 936.83 966.533 921.449C1002.03 903.044 1029.43 864.906 1037.81 822.673C1045.11 786.541 1039.81 749.563 1040.58 712.88C1041.77 649.782 1062.07 586.108 1096.9 534.496C1115.73 506.629 1138.7 482.377 1165.06 463.134C1213.03 427.949 1271.52 409.662 1331.02 408.196C1364.99 407.444 1399.15 412.542 1431.49 423.722" stroke="#D1DEFF" stroke-miterlimit="10"/>
<path d="M-82.3825 802.658C-28.6621 773.702 51.3328 773.369 116.42 804.184C149.29 819.587 178.044 841.448 206.358 861.637C235.394 882.275 263.336 901.251 295.602 911.754C305.987 915.174 316.688 917.6 327.998 918.797C370.523 923.266 412.094 930.388 457.535 932.503C507.45 934.842 545.988 915.822 582.038 889.661C590.338 883.66 598.638 877.659 606.807 871.725C630.8 854.527 654.352 839.049 683.709 835.929C700.409 834.138 718.711 835.812 739.182 842.228C790.442 858.347 814.321 902.297 854.042 923.714C859.295 926.592 864.836 928.905 870.536 930.722C898.872 939.973 931.889 937.253 960.497 921.197C994.787 901.918 1021.28 863.957 1030.18 822.134C1037.82 786.263 1033.87 749.43 1035.73 713.028C1038.73 650.285 1060.21 587.302 1095.79 536.474C1115.08 508.91 1138.42 485.265 1164.91 466.345C1213.19 432.043 1271.62 414.441 1331.23 413.192C1365.25 412.433 1399.29 417.372 1431.63 428.336" stroke="#D1DEFF" stroke-miterlimit="10"/>
<path d="M-80.4748 813.488C-27.7325 789.538 50.9808 791.35 115.913 820.789C148.722 835.618 177.902 856.065 206.374 874.32C235.537 893.123 263.505 909.906 295.634 918.726C305.973 921.584 316.597 923.55 327.698 924.356C369.717 927.259 410.652 932.547 455.889 934.18C505.173 936.01 543.755 918.475 579.734 895.192C588.064 889.76 596.331 884.527 604.468 879.361C628.229 864.205 651.488 850.964 680.472 848.947C697.067 847.789 715.127 849.502 735.321 855.72C785.984 871.213 811.18 910.607 850.189 928.723C855.369 931.139 860.836 932.991 866.3 934.514C893.813 941.863 925.745 937.725 953.243 921.028C986.351 900.982 1011.91 863.23 1021.11 822.125C1029.07 786.632 1026.42 750.161 1029.28 714.028C1034.13 651.973 1056.67 589.762 1092.77 539.963C1112.46 512.8 1136.04 489.718 1162.64 471.423C1211.12 438.134 1269.35 421.397 1329.01 420.197C1362.87 419.515 1396.82 424.325 1429.16 434.852" stroke="#D1DEFF" stroke-miterlimit="10"/>
<path d="M-79.3989 824.189C-27.6018 805.126 49.8778 808.916 114.578 837.2C147.352 851.368 176.846 870.401 205.502 886.978C234.911 903.904 262.798 918.485 294.757 925.716C305.05 928.012 315.467 929.581 326.491 929.921C368.014 931.225 408.317 934.658 453.425 935.901C501.99 937.151 540.708 921.143 576.609 900.407C584.944 895.62 593.216 891.033 601.26 886.482C624.907 873.332 647.725 862.107 676.314 861.259C692.71 860.684 710.663 862.685 730.544 868.474C780.8 883.07 807.088 918.266 845.379 933.098C850.484 935.053 855.748 936.512 861.236 937.605C888.058 942.98 918.788 937.451 945.297 920.069C977.153 899.138 1001.87 861.593 1011.47 820.979C1019.78 785.755 1018.39 749.412 1022.46 713.602C1029.11 652.021 1052.96 590.445 1089.54 541.466C1109.66 514.606 1133.51 491.999 1160.28 474.152C1208.89 441.703 1266.94 425.729 1326.67 424.516C1360.51 423.81 1394.37 428.472 1426.68 438.662" stroke="#D1DEFF" stroke-miterlimit="10"/>
<path d="M-77.4913 832.279C-26.6826 818.2 49.8578 824.235 114.504 851.288C147.415 864.839 177.169 882.52 206.142 897.219C235.838 912.368 263.84 924.681 295.592 930.321C305.828 932.163 316.218 933.179 327.055 933.136C368.116 932.999 407.987 934.56 452.877 935.316C500.868 936.186 539.725 921.575 575.61 903.722C583.989 899.507 592.24 895.689 600.264 891.908C623.784 880.934 646.278 871.819 674.45 872.055C690.739 872.219 708.551 874.399 728.158 879.775C777.98 893.578 805.455 924.522 843.241 936.02C848.283 937.517 853.452 938.618 858.747 939.323C884.928 942.749 914.397 935.858 939.934 917.876C970.558 896.16 994.428 858.958 1004.4 818.855C1013.05 783.906 1013.04 747.945 1017.99 712.365C1026.57 651.491 1051.38 590.651 1088.62 542.737C1109.17 516.282 1133.27 494.342 1160.21 477.029C1209.08 445.609 1267.03 430.525 1326.88 429.493C1360.63 428.882 1394.46 433.436 1426.81 443.31" stroke="#D1DEFF" stroke-miterlimit="10"/>
<path d="M-75.5834 840.369C-25.7412 831.264 49.4971 839.531 114.023 865.118C146.843 878.198 176.988 894.245 206.154 907.252C236.008 920.478 264.035 930.612 295.619 934.677C305.809 935.961 316.024 936.488 326.751 936.088C367.212 934.36 406.515 934.228 451.302 934.535C498.667 934.899 537.64 921.892 573.425 906.67C581.803 903.12 590.054 899.966 598.078 896.848C621.371 887.903 643.479 880.98 671.283 882.312C687.47 883.106 705.076 885.553 724.341 890.602C773.633 903.585 802.355 930.202 839.43 938.417C844.367 939.555 849.462 940.196 854.554 940.51C880.044 941.977 908.302 933.741 932.733 915.118C962.179 892.636 985.112 855.638 995.299 816.213C1004.26 781.638 1005.55 746.035 1011.61 710.75C1021.94 650.526 1047.89 590.48 1085.66 543.586C1106.62 517.527 1131.05 496.176 1158.02 479.451C1207.08 449.035 1264.83 434.811 1324.64 433.794C1358.26 433.161 1392.07 437.716 1424.33 447.125" stroke="#D1DEFF" stroke-miterlimit="10"/>
<path d="M-74.5076 853.81C-25.5303 849.636 48.5822 860.033 113.141 884.436C146.092 896.906 176.487 911.622 205.963 922.767C236.095 934.229 264.101 942.172 295.609 944.563C305.643 945.357 315.899 945.456 326.471 944.563C366.509 941.256 405.254 939.287 449.898 939.197C496.63 939.009 535.8 927.555 571.529 915.005C579.924 912.107 588.194 909.605 596.235 907.14C619.448 900.22 641.246 895.363 668.608 897.853C684.723 899.274 702.092 901.859 721.148 906.621C770.033 918.705 800.019 941.161 836.452 946.106C841.325 946.784 846.356 946.967 851.254 946.889C876.103 946.392 903.207 936.777 926.586 917.449C954.79 894.193 976.941 857.312 987.541 818.28C996.95 784.005 999.389 748.493 1006.64 713.529C1018.85 653.806 1045.93 594.338 1084.41 548.344C1105.83 522.597 1130.56 501.733 1157.73 485.47C1207.1 455.953 1264.76 442.525 1324.74 441.532C1358.38 440.993 1392.09 445.291 1424.46 454.513" stroke="#D1DEFF" stroke-miterlimit="10"/>
<path d="M-72.5999 861.9C-24.5635 862.583 48.2329 875.198 112.591 898.331C145.507 910.133 176.22 923.416 205.881 932.87C236.229 942.543 264.186 948.179 295.518 948.996C305.505 949.232 315.583 948.842 326.044 947.592C365.571 942.725 403.642 939.031 448.206 938.389C494.271 937.789 533.613 927.733 569.173 917.999C577.6 915.663 585.836 913.922 593.747 912.186C616.731 907.286 638.238 904.644 665.128 908.194C681.106 910.339 698.298 913.09 717.04 917.426C765.383 928.687 796.635 946.727 832.317 948.493C837.116 948.713 841.942 948.505 846.832 948.099C870.953 945.744 896.776 934.653 919.243 914.742C946.267 890.717 967.45 854.131 978.4 815.703C988.125 781.797 991.866 746.639 1000.11 711.935C1014.08 652.853 1042.4 594.201 1081.31 549.184C1103.2 523.958 1128.11 503.515 1155.48 487.897C1205.04 459.373 1262.5 446.794 1322.52 445.841C1356.03 445.277 1389.61 449.542 1421.97 458.328" stroke="#D1DEFF" stroke-miterlimit="10"/>
<path d="M-71.5242 872.601C-24.4424 878.204 47.1217 892.813 111.387 914.719C144.338 925.987 175.273 937.815 205.089 945.351C235.592 953.105 263.575 956.557 294.744 955.776C304.688 955.446 314.691 954.589 324.948 952.938C363.987 946.464 401.436 940.905 445.877 939.871C491.327 938.721 530.802 930.2 566.181 922.997C574.611 921.31 582.784 920.089 590.765 919.133C613.631 916.252 634.66 915.738 661.187 920.366C677.064 923.131 694.052 926.14 712.55 930.177C760.395 940.507 792.752 954.319 827.828 952.815C832.554 952.572 837.277 952 841.997 951.099C865.436 946.76 890.066 934.272 911.453 913.643C937.233 888.729 957.617 852.253 968.921 814.414C979.026 780.675 984.097 745.77 993.445 711.353C1009.34 652.671 1038.74 594.685 1078.22 550.519C1100.55 525.596 1125.79 505.759 1153.26 490.459C1203.05 462.809 1260.33 450.997 1320.3 450.1C1353.75 449.61 1387.29 453.628 1419.49 462.144" stroke="#D1DEFF" stroke-miterlimit="10"/>
<path d="M-69.6163 883.431C-23.5055 893.979 47.026 910.782 111.233 931.466C144.22 942.09 175.509 952.609 205.637 958.281C236.421 964.271 264.478 965.571 295.466 963.11C305.349 962.329 315.293 961.022 325.39 958.89C363.991 950.885 400.837 943.63 445.187 942.043C489.961 940.482 529.65 933.478 565.057 929.041C573.501 928.02 581.69 927.463 589.653 927.272C612.333 926.421 633.115 928.131 659.196 933.933C674.87 937.401 691.815 940.618 710.038 944.242C757.444 953.784 791.105 963.312 825.529 958.561C830.19 957.863 834.816 956.935 839.34 955.648C862.126 949.371 885.485 935.524 905.891 914.295C930.43 888.595 949.96 852.455 961.642 815.124C972.061 781.757 978.419 747.205 988.764 713.051C1006.4 655.014 1037.06 597.856 1077.12 554.719C1099.88 530.198 1125.4 510.926 1153.02 496.256C1203.11 469.528 1260.26 458.699 1320.38 457.882C1353.78 457.388 1387.25 461.397 1419.62 469.532" stroke="#D1DEFF" stroke-miterlimit="10"/>
<path d="M-68.4769 893.931C-23.3265 909.415 45.9698 928.223 109.955 947.743C142.912 957.701 174.522 966.793 204.841 970.773C235.88 974.872 263.866 973.954 294.691 969.896C304.532 968.55 314.302 966.745 324.196 964.214C362.307 954.607 398.531 945.492 442.755 943.519C486.881 941.514 526.73 935.959 561.95 934.067C570.428 933.599 578.588 933.795 586.455 934.226C608.915 935.372 629.413 939.282 655.03 946.135C670.602 950.224 687.374 953.602 705.255 956.897C752.164 965.508 787.032 970.828 820.785 962.675C825.343 961.613 829.928 960.123 834.349 958.471C856.453 950.212 878.618 934.976 898.04 913.072C921.429 886.529 940.025 850.588 952.086 813.766C962.945 780.715 970.462 746.271 981.999 712.452C1001.52 654.942 1033.29 598.383 1073.91 556.125C1097.09 531.922 1122.87 513.139 1150.66 498.929C1200.98 473.098 1257.94 463.051 1318.13 462.232C1351.48 461.818 1384.79 465.551 1417.14 473.347" stroke="#D1DEFF" stroke-miterlimit="10"/>
<path d="M-66.8595 902.932C-22.6677 923.356 45.4636 944.307 109.295 962.467C142.291 971.891 174.127 979.526 204.701 981.622C235.865 983.906 263.876 980.815 294.568 975.081C304.333 973.276 314.059 970.913 323.747 967.991C361.264 956.783 396.927 945.968 440.987 943.403C484.493 940.88 524.463 936.901 559.557 937.706C568.037 937.896 576.197 938.749 584.067 939.836C606.402 943.022 626.64 948.38 651.671 957.014C666.984 962.222 683.612 965.337 701.282 968.237C747.663 976.028 783.703 976.916 816.818 965.617C821.302 964.096 825.685 962.215 830.002 960.203C851.421 949.984 872.385 933.391 890.714 910.823C912.842 883.456 930.615 847.707 943.003 811.553C954.187 778.84 963.041 744.619 975.554 711.127C996.832 654.205 1029.86 598.405 1070.96 556.977C1094.65 533.169 1120.56 514.983 1148.5 501.269C1199.02 476.395 1255.79 467.174 1315.92 466.45C1349.14 466.003 1382.44 469.732 1414.66 477.163" stroke="#D1DEFF" stroke-miterlimit="10"/>
<path d="M-62.8481 913.019C-19.5343 938.419 47.5201 961.323 111.219 978.455C144.278 987.132 176.563 993.485 207.286 993.871C238.76 994.277 266.749 988.979 297.329 981.662C307.066 979.297 316.604 976.539 326.233 973.155C363.352 960.266 398.484 947.837 442.426 944.78C485.26 941.806 525.52 939.434 560.614 942.745C569.11 943.593 577.287 945.106 585.14 946.953C607.293 952.154 627.029 960.523 651.995 969.465C667.328 975.009 683.719 978.593 701.048 981.272C747.016 988.158 784.329 984.847 816.795 970.256C821.215 968.274 825.502 966.03 829.624 963.625C850.363 951.531 870.095 933.428 887.458 910.195C908.459 881.996 925.307 846.456 938.006 810.689C949.661 778.198 959.604 744.287 973.373 710.938C996.344 654.49 1030.69 599.369 1072.49 558.878C1096.64 535.401 1122.94 517.751 1150.95 504.583C1201.77 480.636 1258.39 472.103 1318.74 471.543C1351.97 471.196 1385.17 474.669 1417.53 481.81" stroke="#D1DEFF" stroke-miterlimit="10"/>
<path d="M-61.4943 925.587C-19.1539 955.931 46.6207 980.944 110.251 996.74C143.341 1004.88 175.844 1009.77 206.818 1008.26C238.51 1006.88 266.523 999.396 296.901 990.261C306.561 987.432 316.054 984.112 325.477 980.332C362.098 965.857 396.57 951.681 440.44 948.05C482.616 944.644 523.023 943.738 557.885 949.708C566.381 951.213 574.525 953.48 582.41 955.884C604.493 962.595 623.78 973.666 648.276 983.662C663.504 989.828 679.688 993.674 696.704 995.925C742.168 1001.88 780.617 994.225 812.445 976.472C816.792 974.028 821.006 971.323 825.024 968.556C844.981 954.458 863.614 935.015 879.985 911.131C899.7 882.186 915.732 846.815 928.797 811.593C940.782 779.419 952.068 745.709 966.818 712.665C991.654 656.797 1027.17 602.364 1069.42 562.769C1093.95 539.736 1120.53 522.498 1148.69 509.811C1199.62 486.765 1256.14 479.07 1316.54 478.521C1349.61 478.231 1382.72 481.563 1415.05 488.366" stroke="#D1DEFF" stroke-miterlimit="10"/>
<path d="M-59.3012 932.782C-17.8714 967.926 46.8548 995.215 110.431 1009.8C143.56 1017.31 176.45 1020.81 207.668 1017.66C239.57 1014.4 267.648 1004.8 297.902 994.137C307.532 990.767 316.863 986.974 326.19 982.853C362.363 966.877 396.25 950.937 439.966 946.971C481.593 943.103 522.161 943.918 557.032 952.413C565.577 954.482 573.741 957.412 581.482 960.643C603.363 969.801 622.345 982.618 646.532 993.711C661.662 1000.61 677.707 1004.63 694.447 1006.47C739.502 1011.56 779.214 999.765 810.369 978.807C814.648 975.914 818.762 972.859 822.582 969.711C841.871 953.702 859.313 932.957 874.591 908.466C893.046 878.767 908.243 843.662 921.617 809.178C933.91 777.405 946.48 744.083 962.323 711.367C988.894 656.204 1025.64 602.755 1068.39 564.1C1093.46 541.528 1120.22 524.844 1148.63 512.834C1199.82 490.841 1256.24 484.049 1316.72 483.568C1349.83 483.316 1382.91 486.548 1415.18 493.014" stroke="#D1DEFF" stroke-miterlimit="10"/>
<path d="M-57.9275 942.548C-17.4697 982.629 46.0097 1011.92 109.355 1025.35C142.448 1032.18 175.623 1034.35 207.091 1029.31C239.211 1024.27 267.313 1012.48 297.333 1000.1C306.886 996.271 316.074 991.884 325.294 987.399C360.904 969.708 394.198 952.153 437.842 947.613C478.813 943.313 519.554 945.163 554.166 956.741C562.679 959.563 570.905 962.95 578.615 966.936C600.268 978.095 618.928 993.214 642.679 1005.26C657.572 1012.85 673.473 1016.93 689.968 1018.48C734.487 1022.73 775.366 1006.5 805.883 982.385C810.058 979.13 814.001 975.583 817.748 971.974C836.355 953.995 852.503 931.847 866.792 906.706C884.092 876.191 898.344 841.321 912.115 807.28C924.837 775.853 938.553 742.668 955.572 710.317C984.008 655.731 1021.92 602.965 1065.22 565.234C1090.7 543.004 1117.78 526.96 1146.27 515.299C1197.67 494.235 1253.89 488.246 1314.39 487.875C1347.34 487.68 1380.33 490.771 1412.7 496.829" stroke="#D1DEFF" stroke-miterlimit="10"/>
<path d="M-56.5456 955.028C-17.0603 1000.07 45.1491 1031.48 108.437 1043.57C141.568 1049.87 175 1050.47 206.663 1043.73C239.041 1036.79 267.077 1022.77 296.94 1008.8C306.353 1004.36 315.534 999.642 324.583 994.658C359.708 975.364 392.452 956.077 435.806 950.99C476.131 946.249 516.868 950.054 551.508 963.827C560.053 967.206 568.149 971.317 575.925 976.09C597.482 989.19 615.624 1006.56 639.007 1019.69C653.765 1028 669.493 1032.25 685.647 1033.47C729.673 1036.79 771.667 1016.3 801.591 988.898C805.695 985.179 809.537 981.268 813.084 977.262C831.016 957.297 845.978 933.762 859.188 907.921C875.245 876.539 888.759 841.942 902.805 808.39C915.994 777.187 930.927 744.245 948.934 712.173C979.146 658.092 1018.31 606.101 1062.1 569.133C1088.07 547.358 1115.34 531.68 1143.96 520.585C1195.57 500.429 1251.61 495.232 1312.17 494.863C1345 494.62 1377.87 497.666 1410.22 503.385" stroke="#D1DEFF" stroke-miterlimit="10"/>
<path d="M-55.1524 964.733C-16.5274 1014.75 44.5561 1048.32 107.788 1059.19C140.957 1064.84 174.747 1064.13 206.723 1055.53C239.286 1046.78 267.397 1030.6 297.178 1014.95C306.532 1010.06 315.587 1004.75 324.544 999.41C359.136 978.52 391.345 957.635 434.716 952.003C474.436 946.957 515.308 952.224 549.959 968.515C558.523 972.557 566.638 977.329 574.335 982.734C595.748 997.757 613.586 1017.54 636.59 1031.65C651.247 1040.69 666.867 1045.02 682.714 1045.92C726.363 1048.24 769.536 1023.53 798.869 992.984C802.908 988.806 806.683 984.435 810.132 980.069C827.375 958.24 841.19 933.241 853.422 906.754C868.338 874.565 880.944 840.109 895.33 807.204C908.855 776.32 925.105 743.681 944.237 711.852C976.368 658.261 1016.72 607.073 1061.02 571.023C1087.44 549.606 1115.01 534.455 1143.83 523.858C1195.74 504.664 1251.7 500.312 1312.33 499.964C1345.18 499.832 1378.06 502.661 1410.35 508.032" stroke="#D1DEFF" stroke-miterlimit="10"/>
<path d="M-53.7642 974.453C3.68155 1058.28 113.025 1097.4 206.18 1067.15C239 1056.5 267.043 1038.1 296.664 1020.85C342.247 994.256 378.294 960.245 432.581 952.502C481.328 945.508 533.073 957.955 571.559 988.925C592.84 1005.99 610.189 1027.93 632.822 1043.12C693.002 1083.41 769.361 1034.25 805.361 982.4C842.102 929.58 858.948 864.511 885.903 805.4C923.139 723.534 986.216 628.139 1057.87 572.01C1133.25 513.021 1215.69 504.517 1310.03 504.178C1342.75 504 1375.51 506.785 1407.86 511.848" stroke="#D1DEFF" stroke-miterlimit="10"/>
</g>
</svg>
