<svg width="1440" height="1702" viewBox="0 0 1440 1702" fill="none" xmlns="http://www.w3.org/2000/svg">
<g opacity="0.1">
<path d="M-351.232 1203.57C-327.915 1139.22 -254.291 1111.26 -188.849 1114.81C-123.408 1118.36 -60.5995 1144.93 4.3105 1156.3C178.152 1186.63 363.241 1094.5 449.955 934.368C477.698 883.096 495.905 826.334 523.288 774.716C550.648 723.234 590.148 675.154 643.714 657.819C720.756 632.721 803.974 677.001 867.796 731.314C931.619 785.628 988.444 852.713 1063.84 885.724C1162.89 929.103 1278.2 904.491 1369.61 848.541C1461.01 792.591 1533.43 708.426 1604.23 625.532" stroke="#D1DEFF" stroke-miterlimit="10"/>
<path d="M-373.353 1171.09C-309.238 1156.74 -209.214 1157.16 -119.323 1177.87C-73.439 1188.45 -30.5372 1202.48 10.5051 1211.93C52.4742 1221.69 90.9936 1227.17 133.153 1224.66C146.585 1223.91 160.186 1222.19 174.027 1219.11C226.458 1207.51 277.419 1197.93 336.529 1189.77C398.387 1181.1 448.204 1158.87 493.266 1135.81C503.864 1130.46 514.366 1125.65 524.572 1120.94C554.072 1107.59 582.068 1097.23 618.753 1095.6C640.352 1094.58 663.82 1094.87 689.915 1097.75C756.832 1104.96 800.583 1129.31 849.725 1129.3C856.301 1129.32 862.997 1128.66 869.47 1127.67C902.29 1122.54 936.458 1104.92 963.945 1075.1C997.116 1039.21 1019.82 986.354 1026.84 932.731C1033.13 885.626 1029.98 838.137 1033.29 790.508C1038.72 709.181 1063.89 625.516 1106.58 557.648C1130.32 519.679 1159.32 487.582 1192.38 461.142C1252.45 413.143 1326.41 384.967 1405.67 372.847C1450.12 366.076 1495.55 365.698 1540.07 372.087" stroke="#D1DEFF" stroke-miterlimit="10"/>
<path d="M-353.385 1195.46C-328.898 1131.65 -255.545 1103.82 -189.891 1107.13C-161.44 1108.58 -133.598 1114.31 -105.884 1121.57C-69.4594 1131.06 -33.4434 1142.89 3.09364 1150.14C77.6622 1164.91 154.141 1158.39 224.848 1132.07C279.529 1111.7 330.25 1081.17 373.486 1041.42C404.338 1013.2 430.883 979.991 451.868 942.555C461.241 925.83 469.623 908.367 477.622 890.696C493.851 854.828 508.41 818.102 527.276 783.968C548.637 745.185 577.094 709.059 613.641 687.49C625.049 680.73 637.055 675.346 649.883 671.661C703.54 656.34 759.294 674.59 810.464 704.611C832.565 717.527 853.85 732.702 873.385 748.277C895.237 765.812 916.377 784.211 937.478 802.038C978.96 837.001 1020.39 869.837 1068.28 887.414C1099.45 898.952 1131.39 902.856 1164.14 901.39C1230.38 898.165 1299.87 870.786 1360.78 830.881C1377.39 819.948 1393.61 808.097 1409.5 795.764C1479.81 740.553 1542.25 673.508 1603.3 610.456" stroke="#D1DEFF" stroke-miterlimit="10"/>
<path d="M-355.538 1187.35C-329.91 1124.21 -256.842 1096.35 -191.014 1099.41C-162.543 1100.73 -134.568 1106.48 -106.746 1113.9C-70.3748 1123.67 -34.5954 1136.01 1.92853 1144.11C76.039 1160.63 151.705 1157.09 222.791 1132.55C277.789 1113.53 328.867 1084.92 373.139 1047.22C404.766 1020.15 431.889 987.623 453.498 950.605C463.116 934.076 471.767 916.672 479.899 899.036C496.506 863.4 511.491 826.633 530.846 792.891C552.832 754.526 581.793 719.503 619.18 699.511C630.76 693.351 642.828 688.407 655.558 685.272C709.092 672.206 763.664 692.361 814.693 722.343C836.904 735.414 858.42 750.058 878.209 764.963C900.498 781.578 922.101 798.919 943.376 814.933C985.271 846.703 1026.02 875.448 1071.7 888.82C1101.25 897.531 1130.88 898.629 1161.4 894.66C1223.32 886.452 1290.3 854.986 1350.61 812.889C1367.21 801.256 1383.36 788.979 1399.31 776.244C1470.49 719.25 1536.49 653.442 1600.62 595.074" stroke="#D1DEFF" stroke-miterlimit="10"/>
<path d="M-358.514 1182.67C-331.726 1120.08 -259.047 1091.96 -193.072 1094.91C-164.606 1096.22 -136.478 1101.86 -108.686 1109.41C-72.3471 1119.32 -36.6728 1132.21 -0.437089 1141.11C73.2325 1159.25 148.174 1158.96 219.667 1136.01C274.852 1118.26 326.541 1091.7 371.748 1055.8C404.27 1029.98 431.978 998.083 454.088 961.389C463.955 945.025 472.72 927.761 481.262 910.175C498.282 874.568 513.816 837.852 533.535 804.414C556.021 766.372 585.631 732.407 623.751 713.785C635.53 708.075 647.501 703.671 660.269 701.103C713.548 690.228 767.067 712.331 818.08 742.334C840.284 755.414 861.976 769.818 882.31 783.984C905.008 799.837 927.003 815.707 948.511 830.362C990.808 858.979 1031.13 883.716 1074.48 892.729C1102.56 898.64 1129.61 896.878 1157.88 890.524C1215.44 877.573 1279.94 841.807 1339.7 797.152C1356.12 784.906 1372.4 771.927 1388.56 758.786C1460.64 699.752 1530.32 635.21 1597.43 581.383" stroke="#D1DEFF" stroke-miterlimit="10"/>
<path d="M-360.668 1174.56C-332.71 1112.47 -260.343 1084.45 -194.197 1087.14C-165.578 1088.34 -137.456 1093.97 -109.718 1101.8C-73.435 1111.98 -37.8404 1125.28 -1.91652 1135.11C71.3131 1154.88 145.55 1157.71 217.283 1136.51C272.782 1120.09 324.939 1095.59 371.07 1061.56C404.48 1037.03 432.765 1005.81 455.365 969.491C465.502 953.177 474.513 936.101 483.189 918.542C500.588 883.15 516.551 846.375 536.897 813.336C559.985 775.832 590.012 742.653 629.081 725.757C640.897 720.62 653.065 716.676 665.599 714.633C718.754 706.001 771.085 730.013 821.928 760.125C844.103 773.339 866.158 787.24 886.744 800.741C909.717 815.791 932.33 830.496 954.011 843.342C996.74 868.639 1036.61 889.478 1077.62 894.263C1104.22 897.372 1128.69 892.756 1154.87 883.918C1208.11 865.975 1269.94 826.215 1329.4 779.256C1345.67 766.278 1362.01 752.89 1378.37 739.364C1451.32 678.516 1524.53 615.313 1594.76 566.001" stroke="#D1DEFF" stroke-miterlimit="10"/>
<path d="M-364.511 1165.93C-335.543 1104.52 -263.28 1076.53 -196.913 1078.99C-168.253 1080.06 -139.978 1085.72 -112.247 1093.69C-75.9649 1104 -40.4665 1117.99 -4.77561 1128.48C68.0526 1149.99 141.667 1155.84 213.825 1136.44C269.677 1121.39 322.223 1098.84 369.415 1066.88C403.754 1043.54 432.469 1013.14 455.725 977.124C466.111 961.017 475.393 944.011 484.204 926.499C502.146 891.248 518.513 854.592 539.22 821.943C562.805 784.858 593.485 752.828 633.441 737.387C645.463 732.718 657.539 729.33 670.119 727.864C723.053 721.474 774.405 747.273 825.261 777.502C847.589 790.732 869.844 804.373 890.861 817.091C914.267 831.358 937.273 844.707 959.234 856.038C1002.41 878.145 1041.9 894.948 1080.61 895.381C1105.9 895.72 1127.65 888.24 1151.76 876.938C1200.7 854.179 1260.08 810.239 1318.98 760.994C1335.24 747.328 1351.55 733.388 1367.99 719.472C1441.86 656.758 1518.64 594.978 1592.13 550.407" stroke="#D1DEFF" stroke-miterlimit="10"/>
<path d="M-367.487 1161.25C-337.36 1100.36 -265.368 1072.12 -198.897 1074.59C-170.25 1075.65 -141.83 1081.2 -114.139 1089.3C-77.7887 1099.91 -42.5193 1114.3 -6.99255 1125.61C65.3707 1148.76 138.237 1157.85 210.647 1140.01C266.806 1126.24 319.814 1105.7 367.929 1075.54C403.155 1053.44 432.45 1023.65 456.204 987.947C466.702 971.973 476.233 955.123 485.454 937.653C503.807 902.415 520.588 865.77 541.791 833.435C565.873 796.656 597.086 765.51 637.987 751.755C650.18 747.672 662.316 744.709 674.795 743.786C727.593 739.61 777.738 767.344 828.56 797.6C850.873 810.842 873.457 824.132 894.716 836.199C918.522 849.703 941.89 861.716 964.26 871.434C1007.69 890.357 1047.15 903.211 1083.23 899.356C1107.2 896.771 1126.37 886.418 1148.2 872.855C1192.8 845.186 1249.67 797.047 1308.13 745.37C1324.21 731.082 1340.61 716.567 1357.26 702.237C1432 637.578 1512.48 576.895 1588.94 536.715" stroke="#D1DEFF" stroke-miterlimit="10"/>
<path d="M-369.641 1153.14C-338.373 1092.94 -266.658 1064.69 -200.139 1066.88C-171.333 1067.83 -142.913 1073.38 -115.108 1081.64C-78.7813 1092.39 -43.7421 1107.29 -8.38229 1119.56C63.5355 1144.46 135.738 1156.55 208.399 1140.47C264.882 1128.05 318.364 1109.6 367.273 1081.3C403.389 1060.51 433.262 1031.43 457.505 996.124C468.247 980.351 478.048 963.565 487.402 946.135C506.133 911.139 523.338 874.463 545.032 842.529C569.739 806.179 601.321 776.119 643.225 763.83C655.481 760.187 667.656 757.801 680.198 757.316C732.747 755.368 781.856 785.022 832.546 815.236C854.972 828.631 877.766 841.525 899.306 852.787C923.53 865.508 947.411 876.191 969.911 884.373C1013.76 900.11 1052.99 908.681 1086.42 900.838C1109.19 895.507 1125.5 882.264 1145.25 866.233C1185.54 833.603 1239.74 781.517 1297.79 727.423C1313.85 712.441 1330.21 697.369 1347.06 682.667C1422.69 616.116 1506.68 556.963 1586.27 521.334" stroke="#D1DEFF" stroke-miterlimit="10"/>
<path d="M-372.099 1146.77C-339.633 1087 -268.162 1058.81 -201.414 1060.75C-172.564 1061.57 -143.988 1067.14 -116.189 1075.55C-79.8854 1086.58 -44.8947 1101.9 -9.79114 1114.98C61.7508 1141.52 133.314 1156.75 206.417 1142.42C263.267 1131.31 317.265 1114.91 367.143 1088.44C404.204 1068.78 434.522 1040.45 459.438 1005.37C470.437 989.765 480.381 972.987 490.013 955.588C509.167 920.63 526.93 884.015 548.999 852.395C574.22 816.38 606.497 787.257 649.117 776.63C661.557 773.58 673.805 771.626 686.259 771.689C738.731 771.979 786.561 803.549 837.421 833.813C859.862 847.219 882.879 859.737 904.961 870.394C929.617 882.35 953.867 891.832 976.695 898.237C1020.99 910.808 1060.15 915.127 1090.97 903.138C1112.6 894.771 1126.05 878.749 1143.68 860.49C1179.69 822.832 1231.41 766.718 1289.07 710.233C1304.97 694.64 1321.44 679.005 1338.4 663.739C1414.96 595.298 1502.59 537.278 1585.34 506.257" stroke="#D1DEFF" stroke-miterlimit="10"/>
<path d="M-374.252 1138.66C-340.645 1079.52 -269.447 1051.15 -202.563 1052.98C-173.724 1053.79 -145.134 1059.23 -117.233 1067.79C-80.9674 1078.96 -46.1099 1094.96 -11.2995 1108.84C59.7675 1137.13 130.48 1155.46 203.972 1142.75C261.128 1132.98 315.586 1118.64 366.381 1094.04C404.324 1075.67 435.215 1048 460.619 1013.3C471.862 997.884 482.05 981.293 491.951 963.945C511.618 929.225 529.672 892.526 552.365 861.305C578.209 825.689 610.874 797.488 654.438 788.585C666.937 785.969 679.196 784.725 691.71 785.222C743.914 787.729 790.686 821.23 841.527 851.487C864.095 864.914 887.287 877.178 909.642 887.033C934.728 898.074 959.321 906.343 982.405 911.237C1026.97 920.603 1066.2 920.412 1094.3 904.698C1114.78 893.304 1125.33 874.656 1140.86 853.913C1172.54 811.403 1221.76 751.047 1278.81 692.346C1294.55 676.022 1311.11 659.84 1328.25 644.326C1405.67 574.07 1496.83 517.249 1582.66 490.875" stroke="#D1DEFF" stroke-miterlimit="10"/>
<path d="M-378.096 1130.03C-343.495 1071.56 -272.463 1043.2 -205.42 1044.78C-176.568 1045.46 -147.853 1050.92 -120.01 1059.75C-83.805 1071.18 -49.0313 1087.59 -14.3769 1102.27C56.2419 1132.16 126.241 1153.61 200.094 1142.69C257.554 1134.26 312.604 1122.02 364.175 1099.29C402.995 1082.23 434.453 1055.26 460.339 1020.97C471.823 1005.75 482.278 989.225 492.309 971.92C512.372 937.308 530.957 900.743 553.998 869.901C580.299 834.83 613.507 807.465 658.035 800.16C670.705 798.144 683.023 797.337 695.436 798.383C747.507 803.133 793.114 838.381 843.778 868.727C866.315 882.279 889.868 894.033 912.47 903.22C937.828 913.455 963.06 920.419 986.288 923.643C1031.25 929.83 1070.45 924.979 1095.83 905.562C1115.06 890.858 1122.95 869.788 1136.23 846.697C1163.59 799.242 1210.26 734.979 1266.74 673.848C1282.46 656.833 1298.95 640.235 1316.31 624.214C1394.59 552.077 1489.38 496.812 1578.3 474.976" stroke="#D1DEFF" stroke-miterlimit="10"/>
<path d="M-380.767 1123.61C-345.001 1065.65 -274.282 1037.4 -207.206 1038.71C-178.201 1039.28 -149.492 1044.73 -121.543 1053.72C-85.3694 1065.29 -50.8347 1082.21 -16.3314 1097.71C53.8251 1129.35 123.145 1153.78 197.236 1144.61C255.011 1137.51 310.527 1127.34 363.019 1106.47C402.724 1090.71 434.757 1064.42 461.155 1030.37C472.883 1015.35 483.47 998.856 493.77 981.606C514.234 947.081 533.198 910.741 556.751 880.146C583.54 845.46 617.275 819.049 662.75 813.469C675.481 811.89 687.971 811.679 700.15 813.249C751.962 820.214 796.521 857.384 847.175 887.718C869.844 901.289 893.575 912.789 916.589 921.198C942.357 930.655 967.935 936.409 991.446 937.989C1036.68 940.977 1075.73 931.308 1098.62 908.501C1116.59 890.618 1121.69 867.093 1132.87 841.668C1155.91 789.246 1199.91 721.018 1256.08 657.606C1271.62 640.003 1288.22 622.728 1305.63 606.442C1384.77 532.517 1483.1 478.47 1575.11 461.284" stroke="#D1DEFF" stroke-miterlimit="10"/>
<path d="M-383.225 1117.24C-346.277 1059.85 -275.744 1031.37 -208.452 1032.57C-179.422 1033.14 -150.529 1038.48 -122.581 1047.62C-86.2898 1059.49 -51.9585 1076.96 -17.7067 1093.28C52.0836 1126.56 120.773 1154.15 195.318 1146.72C253.469 1140.95 309.51 1132.83 362.982 1113.8C403.616 1099.3 436.125 1073.63 463.177 1039.94C475.028 1025.06 486.008 1008.75 496.453 991.51C517.32 957.157 536.732 920.712 560.778 890.591C588.222 856.261 622.409 830.601 668.882 826.736C681.823 825.613 694.228 825.951 706.456 828.094C758.199 837.305 801.619 876.426 852.291 906.927C874.978 920.512 898.937 931.635 922.361 939.415C948.567 948.106 974.542 952.518 998.361 952.454C1044.03 952.403 1082.73 937.71 1103.18 911.338C1119.79 890.087 1122.24 864.094 1131.18 836.27C1149.8 778.774 1191.48 706.384 1247.14 640.543C1262.54 622.189 1279.09 604.46 1296.88 587.655C1377 511.688 1478.96 458.909 1574.18 446.208" stroke="#D1DEFF" stroke-miterlimit="10"/>
<path d="M-385.378 1109.13C-347.288 1052.38 -277.044 1023.87 -209.606 1024.95C-180.558 1025.38 -151.536 1030.75 -123.618 1040.02C-87.3579 1052.03 -53.1299 1070.04 -19.1652 1087.15C50.1863 1122.05 118.149 1152.89 192.957 1147.07C251.286 1142.61 307.93 1136.57 362.324 1119.41C403.979 1106.23 436.928 1081.21 464.469 1047.9C476.565 1033.21 487.814 1016.96 498.529 999.763C519.933 965.516 539.748 929.154 564.284 899.412C592.217 865.461 626.931 840.752 674.216 838.587C687.194 838.036 699.796 838.832 711.926 841.523C763.409 852.949 805.78 893.995 856.306 924.464C878.964 938.183 903.286 948.802 926.961 955.919C953.577 963.833 979.899 967.034 1004 965.326C1049.94 962.076 1088.23 942.514 1106.46 912.796C1121.56 888.179 1121.47 859.912 1128.32 829.612C1142.61 767.278 1181.77 690.801 1236.99 622.645C1252.37 603.587 1268.88 585.291 1286.71 568.217C1367.69 490.452 1473.17 439.018 1571.5 430.826" stroke="#D1DEFF" stroke-miterlimit="10"/>
<path d="M-390.045 1103.93C-350.785 1047.61 -280.863 1019.15 -213.274 1019.97C-184.08 1020.28 -155.073 1025.65 -127.195 1035.06C-91.0031 1047.34 -56.8679 1065.76 -23.0919 1083.84C45.7697 1120.52 113.028 1154.36 188.191 1150.29C246.821 1147.13 304.029 1143.3 359.223 1127.81C401.755 1115.9 435.276 1091.51 463.332 1058.4C475.697 1043.74 487.057 1027.64 498.042 1010.47C519.827 976.401 540.073 939.937 565.099 910.533C593.658 876.94 628.785 852.982 677.005 852.527C690.176 852.432 702.676 853.774 714.838 857.037C766.205 870.565 807.347 913.688 857.841 944.171C880.621 957.92 905.112 968.292 929.191 974.633C956.208 981.772 983.028 983.646 1007.27 980.26C1053.6 973.818 1091.32 949.466 1107.36 916.224C1120.81 888.184 1118.35 857.497 1123.08 824.957C1132.93 757.547 1169.72 677.042 1224.38 606.316C1239.58 586.642 1256.18 567.778 1274.24 550.16C1356.1 470.346 1465.23 420.196 1566.62 416.617" stroke="#D1DEFF" stroke-miterlimit="10"/>
<path d="M-392.198 1095.82C-351.905 1040.13 -282.049 1011.52 -214.386 1012.22C-185.171 1012.53 -155.982 1017.79 -127.993 1027.5C-91.7972 1039.92 -57.754 1059.04 -24.206 1077.78C44.2883 1116.07 110.777 1153.03 186.386 1150.73C245.385 1148.92 303.113 1147.16 359.279 1133.55C402.734 1122.93 436.723 1099.21 465.425 1066.5C478.044 1052.03 489.656 1036.12 500.782 1018.98C522.985 984.997 543.783 948.642 569.181 919.595C598.25 886.387 633.798 863.359 683.147 864.66C696.528 865.026 709.077 866.943 721.153 870.756C772.311 886.507 812.475 931.427 862.851 962.024C885.626 975.91 910.505 985.783 934.858 991.465C962.201 997.671 989.505 998.499 1014.05 993.474C1060.81 984.001 1097.85 954.875 1111.89 917.901C1123.68 886.61 1118.83 853.535 1121.47 818.52C1127.01 746.135 1161.15 661.658 1215.54 588.648C1230.6 568.248 1247.3 548.844 1265.56 530.984C1348.35 449.382 1461.12 400.456 1565.69 401.541" stroke="#D1DEFF" stroke-miterlimit="10"/>
<path d="M-394.351 1087.71C-352.923 1032.67 -283.36 1004.04 -215.534 1004.49C-186.303 1004.67 -156.987 1009.95 -129.031 1019.79C-92.8926 1032.48 -59.0665 1051.97 -25.6719 1071.53C42.3556 1111.56 108.138 1151.63 184.003 1150.94C243.311 1150.46 301.636 1150.8 358.583 1139.02C402.896 1129.84 437.481 1106.66 466.667 1074.34C479.53 1060.07 491.274 1044.19 502.803 1027.14C525.381 993.376 546.602 956.977 572.487 928.317C602.017 895.635 638.136 873.29 688.405 876.45C701.845 877.252 714.43 879.741 726.543 884.124C777.574 902.109 816.552 948.919 866.915 979.501C889.82 993.404 914.876 1003.02 939.637 1007.93C967.388 1013.36 995.06 1012.84 1019.89 1006.17C1066.91 993.508 1103.37 959.639 1115.36 919.22C1125.47 884.688 1118.11 849.212 1118.77 811.893C1119.71 734.645 1151.62 646.017 1205.4 570.828C1220.42 549.869 1237.08 529.904 1255.42 511.507C1339.09 427.994 1455.37 380.429 1563.01 386.159" stroke="#D1DEFF" stroke-miterlimit="10"/>
<path d="M-396.81 1081.34C-354.23 1026.88 -284.947 998.173 -216.95 998.358C-187.565 998.42 -158.255 1003.7 -130.329 1013.68C-94.1126 1026.67 -60.5039 1046.56 -27.287 1067.09C40.2969 1108.76 105.371 1151.97 181.613 1153.04C241.237 1153.88 300.006 1156.4 357.902 1146.33C403.237 1138.45 438.267 1115.89 467.948 1083.91C481.058 1069.81 493.074 1053.97 504.74 1036.93C527.727 1003.21 549.357 966.852 575.737 938.538C605.898 906.22 642.572 884.658 693.518 889.488C707.155 890.747 719.777 893.808 731.814 898.604C782.584 918.812 820.507 967.587 870.856 998.182C893.754 1012.09 919.012 1021.33 944.16 1025.59C972.32 1030.25 1000.48 1028.54 1025.45 1020.19C1072.89 1004.33 1108.6 965.918 1118.47 921.563C1126.9 883.881 1117.21 845.71 1115.77 806.016C1112.39 723.855 1141.82 631.046 1195.06 553.295C1209.92 531.585 1226.68 511.055 1245.21 492.391C1329.75 406.98 1449.57 360.691 1560.34 370.777" stroke="#D1DEFF" stroke-miterlimit="10"/>
<path d="M-398.963 1073.23C-355.226 1019.3 -286.373 990.544 -218.101 990.644C-188.725 990.707 -159.4 995.847 -131.37 1005.99C-95.1877 1019.11 -61.708 1039.67 -28.7557 1060.84C38.3625 1104.25 102.756 1150.43 179.229 1153.24C239.162 1155.41 298.367 1160.14 357.203 1151.8C403.418 1145.21 438.882 1123.32 469.207 1091.62C482.559 1077.71 494.818 1062.06 506.615 1045.06C530.136 1011.46 552.164 975.204 579.029 947.279C609.674 915.356 646.894 894.615 698.758 901.304C712.431 903.135 725.089 906.767 737.186 911.995C787.829 934.434 824.434 985.067 874.77 1015.65C897.773 1029.71 923.232 1038.55 948.652 1042.02C977.22 1045.89 1005.74 1042.84 1031 1032.86C1078.81 1013.97 1113.81 970.804 1121.65 922.876C1128.38 882.098 1116.47 841.444 1112.81 799.269C1105.12 712.172 1131.88 615.43 1184.8 535.424C1199.51 512.997 1216.33 492.071 1235.08 472.897C1320.5 385.589 1443.96 340.691 1557.67 355.395" stroke="#D1DEFF" stroke-miterlimit="10"/>
<path d="M-403.324 1066.29C-358.557 1012.99 -289.805 984.235 -221.445 984.073C-192.028 984.005 -162.549 989.172 -134.389 999.474C-98.2314 1012.87 -64.8006 1033.84 -32.1294 1055.95C34.6114 1100.97 98.3381 1150.41 175.272 1154.86C235.567 1158.37 295.422 1165.19 354.953 1158.67C402.065 1153.52 438.152 1132.17 469.121 1100.88C482.59 1087.14 495.126 1071.55 507.333 1054.62C531.246 1021.25 553.712 984.946 581.083 957.406C612.371 925.894 650.033 905.947 702.887 914.364C716.767 916.656 729.473 920.86 741.347 926.613C791.774 951.267 827.37 1003.82 877.716 1034.54C900.736 1048.6 926.554 1057.08 952.382 1059.91C981.383 1063.01 1010.41 1058.78 1035.83 1047.14C1084.06 1025.23 1118.34 977.442 1124.2 925.656C1129.09 881.75 1114.95 838.603 1109.17 794.097C1097.16 702.041 1121.39 601.369 1173.79 518.908C1188.46 495.921 1205.27 474.297 1224.08 454.859C1310.41 365.777 1437.5 322.109 1554.53 341.492" stroke="#D1DEFF" stroke-miterlimit="10"/>
<path d="M-405.783 1059.92C-359.864 1007.19 -291.395 978.336 -222.892 978.045C-193.323 977.856 -163.852 983.022 -135.726 993.465C-99.6045 1007.01 -66.2831 1028.54 -33.9051 1051.46C32.3603 1098.27 95.395 1150.74 172.563 1156.91C233.169 1161.74 293.438 1170.89 353.937 1165.94C401.908 1162.2 438.599 1141.35 470.061 1110.39C483.778 1096.82 496.586 1081.26 508.93 1064.34C533.251 1031 556.264 994.745 583.993 967.517C615.775 936.335 654.015 917.028 707.763 927.438C721.704 930.165 734.445 934.942 746.354 941.27C796.651 968.18 831.074 1022.56 881.376 1053.43C904.523 1067.52 930.517 1075.75 956.617 1077.78C985.89 1080.09 1015.42 1074.52 1041.13 1061.21C1089.77 1036.1 1123.3 983.735 1127.17 928.152C1130.38 881.078 1113.92 835.22 1106.04 788.323C1089.59 691.296 1111.5 586.29 1163.45 501.535C1177.97 477.788 1194.85 455.728 1213.9 435.741C1301.12 344.589 1431.72 302.314 1551.84 326.195" stroke="#D1DEFF" stroke-miterlimit="10"/>
<path d="M-408.092 1052.7C-340.705 978.023 -230.044 951.064 -136.916 986.608C-27.1211 1028.46 54.5107 1146.37 170.16 1158.02C231.075 1164.17 291.804 1175.38 353.219 1172.3C423.525 1168.79 469.464 1128.65 510.795 1073.29C563.843 1002.17 610.525 917.077 712.87 939.962C786.807 956.455 823.124 1033.48 885.149 1071.63C934.175 1101.71 997.633 1102.94 1046.67 1074.65C1095.71 1046.36 1128.47 989.631 1130.35 930.18C1131.87 879.993 1113.06 831.613 1103.1 782.24C1076.57 651.808 1115.61 509.694 1203.69 416.736C1291.78 323.778 1426.04 282.725 1549.09 311.219" stroke="#D1DEFF" stroke-miterlimit="10"/>
<path d="M-404.159 1065.87C-337.093 997.967 -227.617 974.079 -134.853 1007.99C-88.3915 1024.89 -46.6804 1054.52 -5.36851 1083.23C36.91 1112.81 78.4935 1141.57 124.685 1156.02C139.562 1160.61 154.952 1163.87 170.861 1164.96C230.76 1169.1 290.522 1178.03 351.789 1174.36C421.248 1170.29 467.544 1132.22 509.369 1080.52C519.01 1068.65 528.428 1056.46 537.957 1044.43C565.993 1009.09 595.026 976.05 634.195 961.872C656.18 953.862 681.217 951.613 710.909 957.947C784.101 973.318 821.324 1044.53 881.884 1078.45C889.914 1082.96 898.359 1086.7 906.948 1089.62C949.895 1104.21 998.745 1099.49 1038.15 1075.19C1085.4 1046.04 1117.11 989.742 1119.43 930.972C1121.44 881.186 1104.42 832.868 1095.81 783.763C1080.97 699.104 1093.27 609.742 1128.17 532.815C1146.86 491.742 1172.05 454.213 1202.8 422.599C1259.11 364.959 1333.49 328 1412.01 315.353C1457.1 308.144 1503.56 309.085 1548.59 318.955" stroke="#D1DEFF" stroke-miterlimit="10"/>
<path d="M-399.865 1078.23C-333.303 1017.03 -224.981 996.186 -132.549 1028.49C-86.13 1044.67 -44.3555 1072.19 -3.2275 1098.61C38.9145 1125.62 80.1146 1151.63 125.825 1163.88C140.518 1167.87 155.612 1170.37 171.313 1171C230.269 1173.15 288.84 1179.88 349.764 1175.59C418.147 1171.05 464.947 1134.77 507.104 1086.66C516.893 1075.52 526.409 1064.34 536.062 1053.18C564.308 1020.56 593.096 990.442 631.98 977.768C653.922 970.74 678.761 968.738 707.966 974.563C780.31 988.939 818.403 1054.23 877.428 1083.92C885.277 1087.84 893.406 1090.96 901.791 1093.41C943.468 1105.52 990.472 1099.21 1028.3 1074.21C1073.72 1044.18 1104.35 988.398 1107.26 930.298C1109.9 880.907 1094.42 832.718 1087.46 783.765C1075.08 699.541 1089.08 610.903 1124.89 535.126C1144.19 494.447 1169.83 457.561 1201.01 426.589C1257.77 370.162 1332.06 334.319 1410.68 321.689C1455.74 314.476 1501.93 315.228 1546.85 324.796" stroke="#D1DEFF" stroke-miterlimit="10"/>
<path d="M-395.571 1090.6C-329.332 1036.11 -222.189 1018.17 -130.147 1048.85C-83.842 1064.17 -41.8788 1089.89 -0.71386 1113.77C41.4414 1138.39 82.343 1161.37 127.451 1171.54C141.998 1174.8 156.92 1176.7 172.29 1176.86C230.352 1177.01 287.829 1181.29 348.569 1176.54C416.115 1171.29 463.245 1137.19 505.897 1092.69C515.679 1082.4 525.461 1072.11 535.083 1061.93C563.534 1032.18 592.144 1004.71 630.749 993.684C652.553 987.478 677.35 985.752 706.068 991.209C777.649 1004.46 816.469 1064.09 874.305 1089.48C881.981 1092.8 889.913 1095.46 898.101 1097.46C938.544 1107.09 983.739 1099.2 1020.15 1073.52C1063.89 1042.77 1093.35 987.347 1096.83 929.914C1099.99 880.755 1086.29 832.737 1080.69 784.02C1070.88 700.247 1086.3 612.281 1123.17 537.679C1143.11 497.393 1169.2 461.151 1200.67 430.936C1257.94 375.727 1332.19 341.006 1410.83 328.38C1455.74 321.283 1501.96 321.899 1546.86 330.898" stroke="#D1DEFF" stroke-miterlimit="10"/>
<path d="M-391.794 1104.65C-325.855 1056.76 -219.94 1042 -128.151 1071.08C-81.8247 1085.55 -39.7845 1109.3 1.36948 1130.92C43.5621 1153 84.0053 1173.08 128.647 1181.19C143.022 1183.85 157.637 1185.14 172.835 1184.7C229.978 1182.99 286.337 1184.96 346.917 1179.62C413.466 1173.78 461.085 1141.74 504.121 1100.7C514.032 1091.28 523.944 1081.86 533.695 1072.56C562.375 1045.53 590.782 1020.85 629.109 1011.47C650.909 1006.11 675.457 1005.05 703.735 1009.86C774.554 1021.99 814.124 1075.81 870.612 1097.01C878.091 1099.88 885.849 1101.94 893.728 1103.32C932.936 1110.48 976.185 1100.97 1011.19 1074.63C1053.13 1043 1081.38 988.077 1085.61 931.201C1089.26 882.415 1077.37 834.434 1073.26 785.982C1065.91 702.505 1083 615.402 1120.95 541.843C1141.53 501.954 1168.18 466.519 1199.85 436.767C1257.62 382.779 1331.86 349.048 1410.6 336.725C1455.53 329.63 1501.52 330.065 1546.33 338.768" stroke="#D1DEFF" stroke-miterlimit="10"/>
<path d="M-387.5 1117.02C-321.931 1075.84 -217.305 1064.1 -125.959 1091.41C-79.8111 1105.15 -37.4598 1126.97 3.55873 1146.03C45.5913 1165.68 85.6762 1182.87 129.839 1188.78C144.054 1190.7 158.485 1191.4 173.34 1190.47C229.542 1186.77 284.736 1186.41 344.971 1180.45C410.606 1174.02 458.568 1143.88 502.045 1106.59C512.104 1097.91 522.114 1089.49 531.964 1081.19C560.717 1056.86 589.149 1035.16 627.192 1027.28C648.972 1022.77 673.211 1021.79 701.09 1026.4C771.015 1037.8 811.503 1085.43 866.458 1102.4C873.757 1104.67 881.335 1106.14 888.85 1107.18C926.632 1111.96 968.198 1100.75 1001.62 1073.71C1041.88 1041.22 1068.94 986.658 1073.73 930.59C1077.87 882.176 1067.78 834.372 1065.06 786.025C1060.3 703.007 1078.95 616.606 1117.8 544.198C1139 504.703 1166.09 469.912 1198.04 440.916C1256.26 388.142 1330.4 355.527 1409.24 343.222C1453.99 336.237 1499.84 336.507 1544.59 344.634" stroke="#D1DEFF" stroke-miterlimit="10"/>
<path d="M-383.723 1131.08C-318.474 1096.63 -215.021 1087.8 -124.081 1113.62C-78.0434 1126.49 -35.4755 1146.37 5.53545 1163.16C47.6088 1180.28 87.2384 1194.57 130.938 1198.41C145.006 1199.61 159.107 1199.82 173.791 1198.3C229.101 1192.61 283.18 1189.95 343.236 1183.53C407.877 1176.51 456.332 1148.44 500.194 1114.62C510.382 1106.8 520.523 1099.26 530.367 1091.81C559.35 1070.21 587.581 1051.3 625.347 1045.07C646.991 1041.38 671.166 1040.82 698.583 1044.92C767.885 1055.23 809.129 1097.05 862.604 1109.81C869.73 1111.48 876.975 1112.47 884.453 1112.94C921.002 1115.25 960.76 1102.45 992.772 1074.74C1031.23 1041.39 1057.22 987.358 1062.59 931.969C1067.23 883.935 1058.81 836.152 1057.71 788.101C1055.39 705.528 1075.86 619.892 1115.51 548.628C1137.34 509.537 1164.88 475.399 1197.14 447.031C1255.74 395.465 1329.84 363.984 1408.84 351.713C1453.6 344.734 1499.35 344.848 1544.06 352.543" stroke="#D1DEFF" stroke-miterlimit="10"/>
<path d="M-379.429 1143.44C-314.632 1115.69 -212.103 1109.94 -121.546 1134.15C-75.4837 1146.17 -32.8596 1164.23 8.19107 1178.49C50.2805 1193.21 89.6137 1204.48 132.713 1206.24C146.611 1206.84 160.565 1206.33 174.919 1204.32C229.313 1196.77 282.436 1191.69 342.065 1184.63C405.825 1177.17 454.686 1150.86 499.024 1120.8C509.367 1113.72 519.614 1107.18 529.565 1100.74C558.756 1082 586.923 1065.9 624.302 1061.16C645.921 1058.45 669.92 1058.14 696.876 1061.74C765.396 1071.06 807.392 1107.08 859.545 1115.52C866.497 1116.6 873.546 1117.13 880.691 1117.11C916.007 1116.94 953.82 1102.54 984.419 1074.16C1021.09 1039.93 1046.01 986.41 1051.98 931.55C1057.14 883.747 1050.64 836.159 1050.79 788.183C1051.18 706.084 1073.07 621.119 1113.78 551.03C1136.25 512.331 1164.22 478.974 1196.81 451.227C1255.9 400.877 1329.98 370.519 1409.12 358.413C1453.73 351.55 1499.39 351.506 1544.04 358.768" stroke="#D1DEFF" stroke-miterlimit="10"/>
<path d="M-375.652 1157.5C-311.222 1136.46 -209.997 1133.87 -119.851 1156.17C-73.9876 1167.59 -31.1371 1183.44 9.8694 1195.42C51.8265 1207.58 90.8053 1215.96 133.406 1215.66C147.145 1215.53 160.781 1214.39 174.928 1211.93C228.251 1202.36 280.328 1195.11 339.753 1187.45C402.605 1179.41 451.923 1155.16 496.617 1128.54C507.083 1122.33 517.454 1116.67 527.528 1111.09C556.794 1095.04 584.852 1081.89 621.949 1078.65C643.549 1076.79 667.33 1076.86 693.777 1080.09C761.457 1088.42 804.327 1118.52 854.953 1122.74C861.703 1123.36 868.573 1123.29 875.379 1122.79C909.432 1120.15 945.408 1104.15 974.438 1075.07C1009.42 1039.97 1033.15 986.814 1039.55 932.733C1045.21 885.299 1040.5 837.883 1042.17 790.033C1045.01 708.362 1068.6 624.115 1110.21 555.171C1133.3 516.863 1161.85 484.171 1194.57 457.153C1254.13 408.013 1328.12 378.768 1407.22 366.655C1451.68 359.764 1497.31 359.716 1541.77 366.379" stroke="#D1DEFF" stroke-miterlimit="10"/>
<path d="M-368.754 1181.71C-304.942 1173.98 -206.149 1177.6 -116.647 1196.68C-70.8774 1206.39 -27.7614 1218.47 13.2696 1225.66C55.2517 1233.02 93.3346 1235.46 135.024 1230.91C148.307 1229.43 161.599 1227.1 175.243 1223.56C226.772 1210 276.583 1198.26 335.552 1189.4C396.519 1180.32 446.868 1159.93 492.26 1140.64C503.011 1136.03 513.617 1132.24 523.792 1128.52C553.382 1117.89 581.421 1110.53 617.714 1110.39C639.285 1110.36 662.575 1110.92 688.206 1113.29C754.333 1119.52 799.022 1137.8 846.649 1133.72C853.051 1133.15 859.413 1132.01 865.824 1130.59C897.379 1123.13 929.616 1103.8 955.814 1073.38C987.311 1036.69 1008.8 984.411 1016.39 931.531C1023.17 884.863 1021.79 837.611 1026.46 790.151C1034.32 709.367 1061.3 626.57 1104.77 559.934C1129.24 522.578 1158.58 491.017 1192.05 465.404C1252.61 418.703 1326.53 391.707 1405.94 379.652C1450.26 372.879 1495.56 372.491 1540.05 378.313" stroke="#D1DEFF" stroke-miterlimit="10"/>
<path d="M-365.282 1197.51C-301.84 1196.47 -204.307 1202.96 -115.137 1220.43C-69.4098 1229.43 -26.2553 1239.54 14.6416 1244.17C56.489 1248.96 94.2175 1248.5 135.408 1241.87C148.534 1239.64 161.644 1236.71 174.947 1232.68C225.545 1217.09 274.201 1203 332.944 1193.64C393.004 1183.95 443.812 1165.57 489.425 1149.68C500.299 1145.93 510.917 1142.84 521.327 1140.14C551.128 1132.22 578.921 1127.76 614.931 1129.12C636.483 1129.93 659.552 1130.86 684.81 1132.89C750.118 1137.97 795.516 1150.45 841.756 1142.16C847.98 1140.99 854.14 1139.38 860.236 1137.34C890.533 1127.38 920.939 1106.41 945.577 1075.25C975.266 1037.61 995.713 985.637 1003.87 933.485C1011.19 886.982 1011.61 839.836 1017.8 792.57C1028.28 711.985 1056.81 629.896 1101.19 564.302C1126.3 527.279 1156.19 496.467 1189.86 471.266C1250.89 425.696 1324.72 399.757 1404.07 387.794C1448.35 381.134 1493.53 380.431 1537.78 385.924" stroke="#D1DEFF" stroke-miterlimit="10"/>
<path d="M-360.988 1209.87C-297.998 1215.54 -201.528 1225.1 -112.74 1240.95C-67.1232 1249.08 -23.7763 1257.39 17.1605 1259.47C59.0241 1261.86 96.4317 1258.52 137.046 1249.67C150.001 1246.85 162.94 1243.32 175.936 1238.67C225.641 1221.08 273.156 1204.81 331.631 1194.7C390.673 1184.55 442 1168.1 488.114 1155.83C499.119 1152.95 509.868 1150.73 520.385 1149.04C550.282 1143.82 578.123 1142.34 613.722 1145.33C635.113 1147.1 658.142 1148.3 682.937 1149.82C747.463 1153.92 793.775 1160.49 838.531 1147.97C844.581 1146.2 850.543 1144.14 856.306 1141.61C885.367 1129.18 913.827 1106.6 937.049 1074.76C964.941 1036.24 984.321 984.786 993.089 933.164C1000.9 887.029 1003.11 840.056 1010.68 792.889C1023.61 712.732 1053.96 631.388 1099.28 566.946C1125.02 530.317 1155.37 500.15 1189.34 475.708C1250.9 431.219 1324.67 406.543 1404.19 394.608C1448.34 387.927 1493.41 387.202 1537.76 392.149" stroke="#D1DEFF" stroke-miterlimit="10"/>
<path d="M-356.645 1221.96C-294.031 1234.35 -198.824 1246.8 -110.526 1261.15C-65.0636 1268.41 -21.5413 1274.77 19.3488 1274.59C61.2132 1274.43 98.129 1268.19 138.242 1257.28C151.038 1253.73 163.658 1249.58 176.311 1244.45C225.078 1224.88 271.432 1206.3 329.673 1195.74C387.779 1185.15 439.577 1170.64 485.903 1161.8C497.053 1159.66 507.899 1158.45 518.401 1157.61C548.367 1155.09 576.231 1156.58 611.408 1161.05C632.778 1163.67 655.611 1165.13 679.896 1166.27C743.602 1169.25 790.761 1170.02 834.015 1153.16C839.862 1150.94 845.67 1148.14 851.23 1145.16C879.03 1130.25 905.652 1106.09 927.439 1073.6C953.646 1034.25 971.809 983.318 981.154 932.395C989.587 886.682 993.34 839.724 1002.53 792.871C1018.03 713.214 1049.93 632.617 1096.14 569.363C1122.5 533.149 1153.27 503.645 1187.53 479.836C1249.54 436.59 1323.21 413.05 1402.82 401.146C1446.92 394.606 1491.74 393.561 1536.01 398.07" stroke="#D1DEFF" stroke-miterlimit="10"/>
<path d="M-352.741 1235.29C-290.431 1254.4 -196.271 1269.92 -108.318 1282.51C-62.8476 1289.07 -19.2383 1293.47 21.6963 1290.76C63.4459 1288.19 100.044 1279.08 139.719 1265.98C152.344 1261.84 164.818 1256.97 177.141 1251.36C224.881 1229.8 270.231 1209.09 328.211 1197.79C385.464 1186.65 437.764 1174.21 484.46 1168.99C495.742 1167.72 506.721 1167.38 517.356 1167.41C547.559 1167.62 575.372 1171.08 610.135 1178.02C631.388 1182.17 654.008 1183.31 677.97 1183.98C740.901 1185.98 788.867 1180.69 830.75 1159.8C836.424 1156.98 841.898 1153.7 847.26 1150.26C873.825 1132.9 898.634 1107.17 918.866 1074.01C943.272 1033.81 960.385 983.303 970.283 933.223C979.205 887.913 984.764 841.025 995.308 794.446C1013.24 715.278 1046.97 635.489 1093.99 573.279C1121.12 537.514 1152.2 508.793 1186.78 485.629C1249.3 443.642 1322.94 421.254 1402.56 409.514C1446.55 402.964 1491.39 401.929 1535.48 405.986" stroke="#D1DEFF" stroke-miterlimit="10"/>
<path d="M-348.562 1248.31C-286.577 1274.15 -193.581 1292.43 -106.074 1303.67C-60.6975 1309.22 -16.7668 1311.84 24.0178 1306.84C65.8015 1301.73 101.937 1289.7 141.143 1274.53C153.62 1269.66 165.762 1264.3 177.912 1258.09C224.777 1234.38 269.092 1211.63 326.774 1199.7C383.001 1188.09 435.928 1177.73 483.033 1175.81C494.445 1175.41 505.554 1175.94 516.295 1176.98C546.591 1179.89 574.256 1187.42 608.955 1194.77C630.276 1199.36 652.645 1201.16 676.093 1201.6C738.254 1202.46 787.104 1191.39 827.496 1166.26C832.996 1162.84 838.272 1159.11 843.3 1155.18C868.602 1135.46 891.484 1107.97 910.301 1074.11C933.045 1033.03 948.958 982.989 959.333 933.385C968.915 888.304 975.972 841.65 988.2 795.055C1008.46 716.244 1044.02 637.151 1092.12 576.075C1119.88 540.68 1151.55 512.608 1186.29 490.161C1249.31 449.361 1322.81 427.914 1402.69 416.346C1446.66 409.927 1491.29 408.566 1535.46 412.212" stroke="#D1DEFF" stroke-miterlimit="10"/>
<path d="M-344.321 1260.98C-282.723 1293.53 -191.028 1314.83 -103.841 1324.32C-58.5138 1329.16 -14.5507 1329.8 26.2295 1322.26C67.984 1314.75 103.76 1299.83 142.373 1282.31C154.666 1276.84 166.648 1270.74 178.454 1264.06C224.377 1238.35 267.505 1213.42 324.995 1200.76C380.28 1188.7 433.67 1180.26 480.955 1181.91C492.487 1182.38 503.69 1183.92 514.575 1185.68C545.055 1190.6 572.618 1201.79 606.89 1210.62C628.187 1216.05 650.331 1218.24 673.291 1218.16C734.624 1217.9 784.202 1200.88 823.179 1171.7C828.499 1167.69 833.596 1163.35 838.422 1158.97C862.326 1136.75 883.51 1107.7 900.895 1073.17C921.797 1031.36 936.657 981.7 947.612 932.773C957.686 888.07 966.555 841.461 980.136 795.113C1002.96 716.769 1040.21 638.41 1089.05 578.469C1117.41 543.609 1149.52 516.047 1184.55 494.22C1247.88 454.615 1321.41 434.309 1401.37 422.76C1445.15 416.451 1489.63 414.926 1533.71 418.132" stroke="#D1DEFF" stroke-miterlimit="10"/>
<path d="M-340.577 1275.23C-279.395 1314.35 -188.772 1338.85 -101.953 1346.72C-56.73 1350.69 -12.5435 1349.39 28.2347 1339.59C69.8999 1329.51 105.36 1311.71 143.513 1292.12C155.661 1285.91 167.337 1279.2 178.95 1272.05C223.986 1244.34 266.002 1217.09 323.185 1203.94C377.62 1191.3 431.493 1185.06 479.201 1190.03C490.89 1191.24 502.227 1193.65 513.061 1196.53C543.684 1204.73 571.125 1218.3 605.151 1228.64C626.426 1235.06 648.399 1237.49 670.899 1236.92C731.482 1235.53 781.957 1212.73 819.453 1179.31C824.601 1174.71 829.501 1169.91 833.993 1165.05C856.664 1140.34 876.036 1109.69 891.871 1074.46C910.977 1031.75 924.796 982.461 936.314 934.324C946.887 889.977 957.549 843.526 972.653 797.289C997.934 719.351 1037 641.851 1086.67 582.883C1115.81 548.431 1148.25 521.481 1183.72 500.43C1247.57 462.03 1321.08 442.842 1401.08 431.292C1444.88 424.983 1489.28 423.299 1533.17 426.048" stroke="#D1DEFF" stroke-miterlimit="10"/>
<path d="M-336.319 1287.8C-275.456 1333.64 -186.013 1361.04 -99.6091 1367.43C-54.5008 1370.53 -10.1258 1367.43 30.6876 1355.09C72.3643 1342.62 107.498 1321.94 145.069 1300.13C157.044 1293.33 168.436 1285.87 179.852 1278.26C223.876 1248.4 264.855 1219.14 321.901 1205.26C375.447 1192.19 429.797 1187.31 477.773 1196.42C489.569 1198.63 501.085 1201.64 512.025 1205.53C542.745 1216.43 570.209 1233.11 603.869 1244.8C624.983 1252.17 646.802 1254.73 668.949 1253.8C728.741 1251.43 780.014 1222.56 816.128 1185.1C821.077 1180.03 825.667 1174.62 829.984 1169.16C851.413 1141.98 868.831 1109.72 883.245 1073.82C900.683 1030.26 913.295 981.479 925.419 933.88C936.623 889.934 948.827 843.479 965.562 797.536C993.425 720.064 1034.19 643.3 1084.79 585.494C1114.57 551.442 1147.58 525.303 1183.25 504.717C1247.6 467.543 1321.07 449.484 1401.2 438.103C1444.86 431.911 1489.16 430.07 1533.16 432.274" stroke="#D1DEFF" stroke-miterlimit="10"/>
<path d="M-332.574 1302.03C-272.092 1354.61 -183.937 1385.05 -97.837 1389.68C-52.7702 1392.07 -8.3306 1386.85 32.4395 1372.23C74.1204 1357.21 108.769 1333.6 145.845 1309.71C157.527 1302.15 168.85 1294.24 179.95 1286.01C223.045 1254.13 262.985 1222.69 319.556 1208.15C372.171 1194.62 426.874 1192.34 475.291 1204.35C487.231 1207.3 498.708 1211.29 509.88 1216.21C540.827 1229.69 568.016 1249.44 601.39 1262.64C622.458 1271 644.08 1273.8 665.72 1272.5C724.697 1268.99 776.685 1234.29 811.422 1192.6C816.194 1186.94 820.582 1181.07 824.563 1175.12C844.74 1145.44 860.334 1111.57 873.19 1074.96C888.821 1030.49 900.501 982.221 913.074 935.24C924.935 891.526 938.794 845.195 956.887 799.464C987.193 722.377 1029.75 646.448 1081.14 589.594C1111.65 556.074 1144.98 530.398 1180.93 510.552C1245.74 474.564 1319.11 457.603 1399.34 446.225C1442.84 439.998 1486.97 438.123 1530.89 439.885" stroke="#D1DEFF" stroke-miterlimit="10"/>
<path d="M-328.304 1314.54C-268.128 1373.84 -181.163 1407.31 -95.4404 1410.32C-50.4813 1411.84 -5.84644 1404.83 34.9646 1387.68C76.527 1370.24 110.853 1343.75 147.488 1317.67C158.999 1309.52 170.039 1300.85 180.942 1292.17C223.007 1258.28 261.914 1224.83 318.356 1209.57C370.066 1195.74 425.159 1195.37 473.996 1210.71C486.07 1214.52 497.679 1219.38 508.849 1225.15C539.921 1241.2 567.115 1264.19 600.129 1278.74C621.175 1288.08 642.647 1291 663.801 1289.34C722.044 1284.57 774.788 1244.07 808.146 1198.34C812.744 1192.08 816.958 1185.62 820.74 1179.21C839.653 1147.2 853.453 1111.61 864.887 1074.33C878.851 1029.02 889.347 981.12 902.479 934.954C914.835 891.62 930.485 845.472 950.099 799.877C983.014 723.125 1027.25 648.075 1079.44 592.364C1110.59 559.248 1144.38 534.225 1180.65 515.006C1245.97 480.249 1319.32 464.42 1399.58 453.054C1443.07 446.97 1487.14 444.803 1530.87 446.11" stroke="#D1DEFF" stroke-miterlimit="10"/>
<path d="M-324.556 1328.76C-233.338 1429.41 -81.4191 1461.55 36.5531 1404.77C78.1166 1384.78 111.955 1355.38 148.092 1327.22C203.693 1283.82 245.322 1232.32 315.851 1212.32C379.176 1194.3 449.977 1201.48 506.548 1235.57C537.82 1254.33 564.759 1280.26 597.485 1296.31C684.479 1338.84 776.788 1260.04 815.14 1184.92C854.299 1108.39 864.891 1019.22 889.951 936.125C924.532 821.056 990.912 683.433 1075.73 596.251C1164.98 504.614 1272.67 478.543 1397.59 461.146C1440.92 455.031 1484.82 452.832 1528.6 453.721" stroke="#D1DEFF" stroke-miterlimit="10"/>
</g>
</svg>
