<svg width="1440" height="2457" viewBox="0 0 1440 2457" fill="none" xmlns="http://www.w3.org/2000/svg">
<g opacity="0.1">
<path d="M-609.379 883.185C-567.641 846.988 -448.82 873.49 -345.308 919.868C-241.796 966.247 -144.164 1029.36 -42.0745 1081.67C231.351 1221.66 531.678 1270.74 681.042 1199.75C728.831 1177 761.905 1143.5 809.15 1120.24C856.346 1097.07 922.544 1084.71 1008.77 1106.41C1132.8 1137.48 1261.48 1228.41 1358.67 1314.49C1455.86 1400.58 1541 1492.28 1658.12 1568.95C1811.98 1669.68 1996.65 1726.59 2145.74 1742.43C2294.83 1758.27 2415.9 1738.81 2534.31 1719.29" stroke="#D1DEFF" stroke-miterlimit="10"/>
<path d="M-614.414 873.906C-570.901 838.97 -452.611 865.386 -348.821 911.683C-303.845 931.761 -260.149 954.864 -216.769 979.111C-159.752 1010.94 -103.554 1044.37 -46.1926 1074.47C70.8786 1135.89 192.547 1181.49 306.533 1207.36C394.684 1227.36 477.31 1236.57 548.756 1233.4C599.726 1231.26 644.242 1222.25 680.258 1206.15C696.345 1198.96 710.916 1190.51 724.895 1181.65C753.26 1163.65 779.041 1143.85 811.455 1128.99C848.167 1112.06 895.926 1101.98 955.432 1108.96C974.006 1111.12 993.429 1114.78 1014.03 1120.35C1100.18 1143.71 1187.18 1195.42 1266.05 1253.53C1300.12 1278.58 1332.73 1304.91 1362.53 1330.39C1395.87 1358.99 1428.01 1387.81 1460.13 1416.14C1523.28 1471.77 1586.51 1525.67 1661.1 1571.61C1709.63 1601.58 1759.96 1625.95 1811.96 1646.53C1917.16 1687.97 2029.3 1712.19 2128.75 1720.64C2155.9 1722.91 2182.47 1724.18 2208.55 1724.84C2324.04 1727.26 2427.94 1714.96 2529.32 1704.92" stroke="#D1DEFF" stroke-miterlimit="10"/>
<path d="M-617.771 868.381C-572.446 834.647 -454.55 860.812 -350.435 907.028C-305.403 927.011 -261.489 950.227 -217.941 974.682C-161.015 1006.71 -105.22 1040.41 -47.9282 1071.19C68.3148 1133.73 188.518 1181.17 303.023 1208.69C391.618 1229.95 474.711 1240.9 547.694 1240.01C599.843 1239.26 645.256 1231.14 682.266 1215.74C698.742 1208.84 713.751 1200.6 727.954 1191.82C756.931 1174.21 783.422 1154.61 816.615 1140.34C854.321 1124.11 902.835 1115.2 963.586 1123.97C982.401 1126.71 1001.9 1130.76 1022.31 1136.7C1108.14 1161.77 1193.14 1214.25 1271.8 1272.27C1306.03 1297.54 1339.04 1323.61 1369.3 1348.75C1403.4 1376.92 1436.35 1405.22 1468.88 1432.24C1532.92 1485.63 1595.36 1535.82 1666.78 1576.93C1712.98 1603.58 1759.86 1624.15 1808.53 1641.24C1907.3 1675.8 2015.81 1695.02 2114.53 1701.25C2141.71 1702.93 2168.23 1703.79 2194.47 1704.16C2311.53 1705.64 2421.05 1696.59 2527.05 1692.29" stroke="#D1DEFF" stroke-miterlimit="10"/>
<path d="M-621.622 860.634C-574.489 828.111 -457.164 853.821 -352.779 900.047C-307.744 920.028 -263.567 943.26 -220.066 967.813C-163.188 999.935 -107.586 1034.02 -50.7966 1065.27C64.656 1128.83 183.497 1178.42 298.559 1207.49C387.375 1229.9 471.306 1242.91 545.653 1244.09C599.14 1244.95 645.445 1237.72 683.231 1222.91C700.094 1216.31 715.276 1208.26 730.129 1199.79C759.764 1182.47 787.127 1163.28 820.881 1149.5C859.364 1133.86 908.84 1126.23 970.664 1136.59C989.765 1139.83 1009.07 1144.25 1029.51 1150.67C1114.79 1177.35 1198 1230.7 1276.65 1288.74C1310.88 1314.02 1344.2 1340.03 1375.38 1364.93C1410.19 1392.77 1443.88 1420.16 1476.89 1446.24C1541.83 1497.37 1603.91 1544.07 1671.98 1580.14C1716.06 1603.56 1759.07 1620.12 1804.36 1633.8C1896.59 1661.66 2001.52 1675.78 2099.6 1679.6C2126.55 1680.67 2153.32 1681.05 2179.92 1681.23C2298.59 1681.67 2413.88 1676.1 2524.29 1677.43" stroke="#D1DEFF" stroke-miterlimit="10"/>
<path d="M-626.656 851.355C-577.728 820.066 -460.893 845.69 -356.198 891.847C-310.901 911.847 -266.722 935.08 -223.314 959.819C-166.529 992.128 -111.067 1026.49 -54.8251 1058.28C59.8419 1122.87 177.358 1174.52 292.682 1205.2C381.909 1228.92 466.432 1243.94 542.104 1247.28C596.9 1249.79 644.065 1243.52 682.591 1229.38C699.873 1223.01 715.426 1215.29 730.484 1206.95C760.694 1190.09 788.729 1171.16 823.438 1158.15C862.825 1143.38 912.897 1136.69 976.103 1149.1C995.222 1152.84 1014.81 1157.76 1034.84 1164.46C1119.77 1192.88 1200.98 1246.97 1279.38 1304.98C1313.57 1330.35 1347.52 1356.19 1379.16 1380.73C1414.48 1408.1 1449.25 1434.95 1482.68 1459.69C1548.57 1508.44 1610.26 1551.7 1674.94 1582.82C1716.9 1603.01 1756.03 1615.57 1798.2 1625.89C1883.97 1646.89 1984.96 1656.07 2082.72 1657.89C2109.48 1658.28 2136.38 1658.4 2163.34 1658.42C2283.52 1658.05 2404.3 1655.97 2519.31 1663.06" stroke="#D1DEFF" stroke-miterlimit="10"/>
<path d="M-630.014 845.83C-579.506 815.661 -462.885 841.148 -357.889 887.215C-312.548 907.116 -268.16 930.456 -224.807 955.289C-168.077 987.69 -112.865 1022.53 -57.0858 1054.68C56.7246 1120.38 172.955 1173.98 288.765 1206.31C378.409 1231.31 463.373 1248.07 540.558 1253.7C596.728 1257.73 644.511 1252.35 684.065 1238.82C701.73 1232.76 717.714 1225.24 732.989 1217C764.063 1200.56 792.747 1181.94 828.008 1169.42C868.162 1155.25 919.183 1149.86 983.663 1163.98C1003.06 1168.21 1022.46 1173.51 1042.51 1180.68C1126.87 1210.71 1206.33 1265.58 1284.66 1323.69C1319.06 1349.17 1353.31 1374.93 1385.67 1399.13C1421.69 1426.16 1457.16 1452.18 1491.11 1475.89C1557.88 1522.36 1619.21 1562.11 1680.53 1588.18C1720.58 1605.25 1755.62 1613.69 1794.67 1620.61C1873.94 1634.81 1971.33 1638.9 2068.37 1638.4C2095.16 1638.21 2122.05 1637.83 2149.15 1637.55C2270.91 1636.16 2397.23 1637.46 2517.04 1650.42" stroke="#D1DEFF" stroke-miterlimit="10"/>
<path d="M-632.826 836.057C-580.583 807.217 -464.388 832.417 -359.21 878.588C-313.882 898.488 -269.244 921.836 -225.95 946.754C-169.116 979.441 -114.273 1014.44 -58.7966 1047.14C54.1952 1113.83 169.021 1169.58 285.11 1203.4C375.141 1229.69 460.675 1248.45 539.166 1256.23C596.631 1261.91 645.261 1257.48 685.546 1244.61C703.364 1238.77 719.715 1231.58 735.618 1223.69C767.309 1207.61 796.609 1189.35 832.603 1177.49C873.487 1163.98 925.258 1159.74 991.103 1175.89C1010.73 1180.72 1030.19 1186.41 1050.03 1193.97C1134.03 1225.72 1211.46 1281.32 1289.79 1339.4C1324.18 1364.86 1358.99 1390.55 1391.8 1414.37C1428.54 1441.04 1464.69 1466.21 1499.43 1488.89C1566.88 1532.95 1628.47 1569.51 1685.95 1590.41C1724.13 1604.27 1755.28 1608.7 1790.89 1612.33C1863.62 1619.77 1957.31 1618.94 2053.79 1616.34C2080.33 1615.56 2107.4 1614.81 2134.84 1614.38C2258.07 1612.17 2390.11 1616.97 2514.27 1635.56" stroke="#D1DEFF" stroke-miterlimit="10"/>
<path d="M-636.677 828.311C-582.624 800.694 -466.814 825.659 -361.509 871.649C-315.906 891.567 -271.257 914.922 -227.786 940.052C-170.987 972.844 -116.538 1008.12 -61.3863 1041.5C50.7915 1109.33 164.373 1167.05 280.777 1202.43C371.258 1230 457.429 1250.72 537.08 1260.49C595.89 1267.79 645.418 1264.26 686.483 1251.99C704.689 1246.45 721.477 1239.47 737.604 1231.68C769.905 1215.99 799.914 1197.94 836.685 1186.69C878.563 1173.89 930.874 1170.72 998.23 1188.69C1017.93 1193.91 1037.41 1200.09 1057.34 1208.04C1140.8 1241.41 1216.46 1297.9 1294.58 1355.9C1329.15 1381.58 1364.33 1407.1 1397.64 1430.47C1435.11 1456.81 1472.18 1481.28 1507.24 1502.81C1575.6 1544.62 1637.16 1577.59 1690.74 1593.51C1727.24 1604.36 1754.1 1604.56 1786.6 1604.8C1852.91 1605.35 1942.72 1599.51 2038.78 1594.61C2065.36 1593.24 2092.42 1592 2120.24 1591.38C2245.1 1588.15 2382.67 1596.43 2511.51 1620.7" stroke="#D1DEFF" stroke-miterlimit="10"/>
<path d="M-642.256 823.279C-586.355 796.787 -471.009 821.596 -365.394 867.499C-319.743 887.318 -274.881 910.783 -231.462 936.009C-174.763 968.992 -120.465 1004.56 -65.8209 1038.39C45.5547 1107.25 157.807 1167.03 274.705 1204.07C365.61 1232.91 452.393 1255.58 533.398 1267.44C593.586 1276.25 643.737 1273.61 685.835 1261.96C704.426 1256.72 721.434 1249.83 737.994 1242.24C770.95 1226.86 801.827 1209.21 839.154 1198.45C881.803 1186.25 935.117 1184.27 1003.44 1204.04C1023.38 1209.85 1042.93 1216.42 1062.66 1224.74C1145.78 1259.83 1219.21 1316.98 1297.53 1375.1C1332.09 1400.79 1367.63 1426.14 1401.82 1449.38C1439.99 1475.37 1477.71 1499.1 1513.4 1519.42C1582.65 1558.95 1644.38 1588.43 1694.09 1599.26C1729 1606.91 1751.51 1602.96 1780.8 1599.99C1840.67 1593.63 1926.8 1582.87 2022.38 1575.76C2048.73 1573.78 2075.99 1572.15 2104 1571.14C2230.42 1566.97 2373.59 1578.53 2507.02 1608.55" stroke="#D1DEFF" stroke-miterlimit="10"/>
<path d="M-645.069 813.507C-587.424 788.337 -472.486 812.863 -366.625 858.783C-320.981 878.603 -276.076 901.97 -232.495 927.394C-175.849 960.464 -121.795 996.488 -67.6568 1030.77C42.8708 1100.73 153.575 1162.45 270.985 1201.08C362.291 1231.22 449.659 1255.89 531.982 1269.89C593.475 1280.35 644.482 1278.65 687.316 1267.66C706.277 1262.75 723.654 1256.19 740.632 1248.83C774.374 1234.01 805.707 1216.53 843.987 1206.53C887.586 1195.1 941.444 1194.15 1011.14 1215.95C1031.15 1222.16 1050.67 1229.31 1070.46 1238.02C1153.01 1274.73 1224.65 1332.73 1302.97 1390.82C1337.74 1416.61 1373.59 1441.87 1408.28 1464.65C1447.22 1490.19 1485.58 1513.18 1521.8 1532.45C1591.73 1569.59 1653.92 1595.51 1699.61 1601.56C1732.91 1606.02 1751.02 1598.05 1777.18 1591.71C1830.52 1578.61 1913.01 1562.84 2007.77 1553.6C2033.93 1550.95 2061.37 1548.95 2089.69 1547.88C2217.59 1542.9 2366.28 1557.84 2504.26 1593.69" stroke="#D1DEFF" stroke-miterlimit="10"/>
<path d="M-648.427 807.981C-589.202 783.928 -474.477 808.313 -368.314 854.142C-322.625 873.863 -277.512 897.337 -234.034 922.949C-177.492 956.207 -123.593 992.516 -69.7535 1027.37C39.9628 1098.35 149.327 1162.12 267.222 1202.42C358.943 1233.82 447.128 1260.56 530.582 1276.54C593.398 1288.61 645.285 1287.82 688.885 1277.42C708.228 1272.81 726.037 1266.46 743.233 1259.2C777.626 1244.69 809.823 1227.62 848.655 1218.11C892.972 1207.37 947.662 1207.42 1018.8 1231.13C1039.03 1237.93 1058.62 1245.47 1078.22 1254.56C1160.41 1292.99 1230.08 1351.66 1308.13 1409.75C1342.84 1435.63 1379.3 1460.74 1414.44 1483.15C1453.88 1508.24 1493.36 1530.61 1529.94 1548.64C1600.75 1583.5 1663.26 1605.65 1704.94 1606.89C1736.53 1607.84 1750.61 1596.13 1773.4 1586.38C1820.31 1566.37 1899.1 1545.68 1993.21 1534.03C2019.4 1530.78 2046.78 1528.38 2075.5 1527.03C2205 1521.01 2359.39 1539.53 2501.99 1581.06" stroke="#D1DEFF" stroke-miterlimit="10"/>
<path d="M-651.24 798.209C-590.223 775.396 -475.99 799.701 -369.732 845.354C-323.783 865.096 -278.667 888.57 -235.02 914.383C-178.522 947.731 -125.021 984.298 -71.4646 1019.7C37.425 1091.78 145.524 1157.52 263.685 1199.4C355.82 1232.11 444.602 1260.85 529.384 1278.98C593.512 1292.7 646.258 1292.87 690.644 1283.05C710.358 1278.77 728.37 1272.55 745.984 1265.53C780.998 1251.38 813.767 1234.77 853.387 1225.83C898.441 1215.76 953.894 1216.96 1026.41 1242.71C1046.72 1249.9 1066.54 1258.04 1085.73 1267.4C1167.37 1307.45 1235.26 1366.96 1313.32 1425.02C1348.26 1451.01 1385.03 1476.03 1420.9 1498.09C1461.05 1522.83 1501.18 1544.46 1538.34 1561.36C1609.84 1593.84 1672.49 1612.04 1710.47 1608.92C1740.29 1606.49 1750.13 1590.97 1769.74 1577.96C1810.17 1551.13 1885.01 1525.54 1978.79 1511.91C2004.73 1508.09 2032.34 1505.24 2061.15 1503.72C2192.14 1496.91 2352.06 1518.84 2499.23 1566.19" stroke="#D1DEFF" stroke-miterlimit="10"/>
<path d="M-657.312 790.956C-594.488 769.362 -480.606 793.327 -374.07 838.993C-328.113 858.734 -282.731 882.226 -239.128 908.139C-182.509 941.793 -129.412 978.639 -76.3566 1014.51C31.7454 1087.64 138.528 1155.44 257.199 1199C349.77 1232.99 439.174 1263.69 525.32 1283.91C590.785 1299.25 644.209 1300.21 689.586 1291.09C709.474 1287 728.088 1281.19 745.924 1274.27C781.547 1260.51 815.024 1244.11 855.37 1235.86C901.416 1226.5 957.499 1228.58 1031.42 1256.35C1052.01 1264.04 1071.64 1272.55 1090.86 1282.4C1172.16 1324.18 1238.04 1384.47 1316.06 1442.66C1350.99 1468.65 1388.13 1493.51 1424.66 1515.32C1465.54 1539.72 1506.37 1560.52 1544.11 1576.29C1616.47 1606.59 1678.9 1620.49 1713.27 1612.87C1741.17 1606.82 1747 1587.56 1763.23 1571.13C1797.03 1537.27 1868.46 1506.76 1961.56 1490.8C1987.33 1486.28 2014.88 1483.02 2044.32 1481.33C2176.93 1473.48 2342.42 1498.78 2494.24 1551.83" stroke="#D1DEFF" stroke-miterlimit="10"/>
<path d="M-659.632 783.405C-595.059 763.138 -481.62 786.924 -374.823 832.618C-328.818 852.27 -283.221 875.872 -239.663 901.876C-183.087 935.62 -130.175 972.833 -77.6152 1009.15C29.709 1083.28 135.132 1153.22 254.122 1198.27C346.895 1233.45 437.114 1266.25 524.592 1288.62C591.585 1305.72 645.657 1307.52 691.775 1299.07C712.033 1295.31 731.066 1289.73 749.321 1283.04C785.781 1269.76 819.88 1253.72 860.969 1246.14C907.755 1237.43 964.603 1240.66 1039.7 1270.35C1060.31 1278.53 1080.22 1287.55 1099.25 1297.77C1179.99 1341.17 1244.1 1402.3 1321.92 1460.35C1356.81 1486.43 1394.57 1511.13 1431.56 1532.58C1473.16 1556.63 1514.64 1576.69 1552.96 1591.34C1626 1619.26 1688.14 1629 1719.24 1617.24C1744.98 1607.5 1746.94 1584.74 1760.05 1564.96C1787.31 1524.38 1855.05 1488.98 1947.6 1470.93C1973.39 1465.85 2000.91 1462.13 2030.44 1460.26C2164.54 1451.62 2335.53 1480.42 2491.97 1539.19" stroke="#D1DEFF" stroke-miterlimit="10"/>
<path d="M-663.482 775.658C-597.074 756.514 -484.122 780.134 -377.038 825.727C-330.782 845.385 -285.197 868.981 -241.701 895.076C-185.239 929.004 -132.492 966.501 -80.2885 1003.48C26.156 1078.72 130.268 1150.63 249.722 1197.33C342.896 1233.77 433.868 1268.73 522.511 1292.98C590.817 1311.68 645.763 1314.38 692.691 1306.43C713.379 1302.87 732.58 1297.48 751.265 1291C788.325 1278.11 823.121 1262.28 864.971 1255.29C912.733 1247.29 970.192 1251.4 1046.67 1283.09C1067.55 1291.77 1087.27 1301.16 1106.31 1311.87C1186.73 1356.88 1248.76 1418.88 1326.54 1476.94C1361.64 1503.13 1399.69 1527.74 1437.39 1548.85C1479.69 1572.54 1522.07 1591.88 1560.75 1605.28C1634.67 1630.9 1696.26 1636.41 1724.16 1620.37C1747.56 1606.79 1745.94 1580.5 1755.84 1557.5C1776.46 1509.9 1840.73 1469.68 1932.62 1449.2C1958.18 1443.5 1985.89 1439.38 2015.83 1437.23C2151.51 1427.54 2328.22 1459.8 2489.21 1524.33" stroke="#D1DEFF" stroke-miterlimit="10"/>
<path d="M-668.024 768.601C-600.08 750.673 -487.308 774.128 -380.178 819.639C-333.922 839.302 -288.073 862.915 -244.456 889.304C-188.037 923.322 -135.523 961.279 -83.7667 998.61C21.9017 1074.85 124.492 1148.68 244.431 1197.08C338.023 1234.82 429.598 1271.76 519.575 1298.15C589.197 1318.5 644.791 1322.04 692.674 1314.86C713.733 1311.63 733.305 1306.58 752.195 1300.22C789.879 1287.69 825.51 1272.33 867.891 1265.9C916.393 1258.56 974.404 1263.69 1052.48 1297.52C1073.65 1306.71 1093.39 1316.58 1112.23 1327.67C1192.11 1374.3 1252.41 1437.03 1329.95 1495.06C1365 1521.33 1403.68 1545.79 1441.83 1566.53C1484.69 1589.67 1527.88 1608.48 1567.14 1620.76C1641.9 1644.22 1702.72 1645.45 1727.7 1625.1C1748.69 1607.82 1743.46 1578.06 1750.22 1551.71C1764.35 1497.3 1824.67 1452.18 1916.23 1429.72C1941.59 1423.35 1969.49 1418.88 1999.73 1416.67C2136.9 1406.18 2319.16 1441.84 2484.72 1512.18" stroke="#D1DEFF" stroke-miterlimit="10"/>
<path d="M-671.874 760.854C-602.128 744.138 -489.769 767.338 -382.327 812.758C-336.023 832.322 -289.963 856.043 -246.397 882.53C-190.08 916.74 -137.932 954.88 -86.4729 992.787C18.3386 1070.16 119.59 1146.07 239.855 1195.92C333.868 1234.94 426.263 1273.96 517.376 1302.33C588.276 1324.38 644.805 1328.73 693.46 1322.14C714.905 1319.21 734.697 1314.25 754.236 1308.2C792.528 1296.06 828.865 1280.9 872.016 1275.06C921.243 1268.41 980.14 1274.44 1059.56 1310.38C1080.8 1319.96 1100.55 1330.32 1119.42 1341.89C1198.94 1390.25 1257.22 1453.77 1334.74 1511.82C1370 1538.21 1408.99 1562.59 1447.86 1582.98C1491.43 1605.78 1535.31 1623.75 1575.15 1634.89C1650.61 1655.95 1710.9 1652.94 1732.9 1628.41C1751.5 1607.37 1742.48 1573.97 1746.31 1544.41C1753.55 1482.93 1810.72 1432.9 1901.54 1408.18C1926.9 1401.31 1954.78 1396.33 1985.22 1393.73C2124.01 1382.18 2311.82 1421.2 2481.96 1497.32" stroke="#D1DEFF" stroke-miterlimit="10"/>
<path d="M-675.232 755.329C-603.689 739.845 -491.741 762.804 -383.981 808.14C-337.412 827.717 -291.35 851.44 -247.833 878.024C-191.398 912.538 -139.611 950.86 -88.4915 989.436C15.5228 1067.85 115.445 1145.84 236.206 1197.36C330.645 1237.66 423.603 1278.75 516.115 1309.13C588.558 1332.91 645.758 1338.06 695.183 1332.07C717.012 1329.45 737.237 1324.69 756.995 1318.75C795.94 1306.92 832.931 1292.06 876.85 1286.83C927.06 1280.89 986.794 1287.93 1067.18 1325.66C1088.7 1335.74 1108.48 1346.59 1127.2 1358.44C1206.16 1408.43 1262.64 1472.84 1340.16 1530.9C1375.42 1557.3 1414.76 1581.51 1454.3 1601.65C1498.59 1624.11 1543.34 1641.44 1583.55 1651.34C1659.91 1670.11 1719.37 1662.95 1738.32 1633.86C1754.48 1609.16 1741.97 1572.03 1742.64 1539.16C1743.41 1470.86 1796.96 1415.8 1887.14 1388.68C1912.31 1381.1 1940.4 1375.73 1971.16 1373.04C2111.51 1360.55 2304.86 1402.96 2479.69 1484.68" stroke="#D1DEFF" stroke-miterlimit="10"/>
<path d="M-678.045 745.557C-604.716 731.317 -493.436 753.993 -385.213 799.466C-338.648 819.048 -292.539 842.675 -248.855 869.456C-192.467 904.055 -140.915 942.831 -90.2436 981.75C12.9437 1061.25 111.606 1141.16 232.63 1194.26C327.48 1235.85 420.987 1279.01 514.875 1311.43C588.628 1336.86 646.47 1342.85 696.89 1337.55C719.088 1335.26 739.681 1330.84 759.641 1325.02C799.415 1313.67 837.022 1299.19 881.678 1294.62C932.622 1289.35 993.163 1297.44 1074.89 1337.29C1096.43 1347.86 1116.22 1359.19 1135.01 1371.43C1213.64 1423.13 1267.92 1488.14 1345.45 1546.17C1380.88 1572.76 1420.58 1596.79 1460.62 1616.48C1505.62 1638.58 1551.06 1655.1 1591.85 1663.87C1669.04 1680.49 1727.71 1669.08 1743.69 1635.79C1757.38 1607.51 1741.51 1566.93 1738.83 1530.62C1733.1 1455.54 1782.67 1395.62 1872.5 1366.54C1897.47 1358.3 1925.69 1352.67 1956.84 1349.74C2098.71 1336.39 2297.75 1382.41 2476.92 1469.82" stroke="#D1DEFF" stroke-miterlimit="10"/>
<path d="M-684.117 738.304C-609.163 725.181 -498.018 747.74 -389.628 793.046C-342.986 812.543 -296.635 836.294 -252.76 863.298C-196.436 898.11 -145.001 937.2 -94.8545 976.701C7.59433 1057.28 104.935 1139.41 226.573 1194.13C321.903 1237.02 416.287 1282.29 511.154 1316.62C586.229 1343.79 645.037 1350.6 696.47 1346.01C718.85 1343.91 739.888 1339.7 760.506 1334.19C800.908 1323.24 839.237 1308.96 884.687 1305C936.643 1300.44 997.841 1309.43 1081.01 1351.33C1102.84 1362.4 1122.67 1374.23 1141.07 1386.75C1219.17 1440.1 1271.68 1506.04 1349.21 1564.21C1384.65 1590.83 1424.95 1614.81 1465.69 1634.25C1511.43 1656.03 1557.77 1671.92 1598.95 1679.45C1677.04 1693.88 1734.96 1678.21 1748.11 1640.44C1759.15 1608.38 1739.95 1564.26 1734.11 1524.62C1721.94 1442.57 1767.87 1377.68 1857.1 1346.17C1882.08 1337.43 1910.34 1331.2 1941.62 1328.07C2085.13 1313.78 2289.88 1363.12 2473.96 1456.49" stroke="#D1DEFF" stroke-miterlimit="10"/>
<path d="M-686.437 730.753C-609.742 718.964 -499.05 741.348 -390.41 786.681C-343.51 806.198 -297.161 829.948 -253.333 857.04C-197.055 891.937 -145.806 931.386 -96.1559 971.323C5.46721 1052.98 101.551 1137.03 223.455 1193.31C319.198 1237.5 414.087 1284.94 510.381 1321.21C586.721 1350.11 646.434 1357.78 698.603 1353.86C721.352 1352.09 742.807 1348.11 763.627 1342.74C804.647 1332.16 843.807 1318.36 889.781 1314.95C942.473 1311.06 1004.53 1321 1088.99 1365.11C1110.89 1376.57 1130.74 1388.88 1149.16 1401.88C1226.93 1456.94 1277.5 1523.49 1354.99 1581.73C1390.65 1608.44 1431.26 1632.33 1472.5 1651.33C1518.74 1672.65 1565.98 1687.82 1607.73 1694.24C1686.7 1706.43 1743.73 1686.71 1753.95 1644.66C1762.51 1609 1739.79 1561.24 1730.75 1518.36C1711.82 1429.53 1754.29 1359.8 1842.91 1326.32C1867.68 1316.92 1896.08 1310.44 1927.75 1307.06C2072.77 1291.91 2282.96 1344.84 2471.66 1443.92" stroke="#D1DEFF" stroke-miterlimit="10"/>
<path d="M-690.836 724.077C-578.391 708.823 -400.858 760.737 -255.787 851.268C-84.7514 957.961 35.9539 1107.09 218.524 1193.38C314.687 1238.85 410.179 1288.26 507.823 1326.62C619.599 1370.56 695.454 1368.83 765.132 1351.78C854.569 1329.86 934.947 1292.45 1095.58 1378.93C1211.63 1441.37 1263.5 1527.49 1359.04 1599.43C1434.56 1656.23 1535.13 1699.42 1615.02 1709.28C1694.91 1719.14 1751.08 1695.3 1758.5 1648.73C1764.64 1609.37 1738.41 1557.94 1726.29 1511.6C1693.91 1389.03 1766.41 1300.68 1913.05 1284.49C2059.68 1268.3 2275.7 1324.57 2468.76 1429.33" stroke="#D1DEFF" stroke-miterlimit="10"/>
<path d="M-685.454 737.178C-574.08 727.135 -398.767 780.675 -254.256 869.599C-181.87 914.068 -117.964 965.616 -54.6222 1016.16C10.1865 1068.05 73.9553 1118.82 146.095 1161.14C169.335 1174.71 193.486 1187.56 218.623 1199.01C313.26 1242.15 407.323 1289.04 504.713 1326.81C615.116 1369.7 691.341 1369.85 761.496 1356.05C777.664 1352.92 793.501 1349.37 809.503 1346.03C856.58 1336.24 905.068 1328.95 968.211 1343.58C1003.66 1351.75 1043.51 1366.58 1090.11 1391.4C1204.98 1452.41 1258.66 1534.42 1352.13 1601.94C1364.52 1610.91 1377.63 1619.53 1391.02 1627.59C1458.01 1667.86 1535.8 1696.53 1600.07 1703.17C1677.14 1711.13 1731.61 1686.92 1739.67 1641.19C1746.57 1602.48 1723.2 1552.31 1713.21 1507.09C1696 1429.14 1722.17 1365.44 1783.24 1326.76C1815.91 1306.14 1858.66 1292.7 1909.75 1287.7C2003.3 1278.76 2123.97 1298.47 2249.38 1340.48C2321.39 1364.65 2394.96 1396.28 2465.61 1434.14" stroke="#D1DEFF" stroke-miterlimit="10"/>
<path d="M-680.621 751.35C-570.505 746.338 -397.191 801.571 -253.046 889.006C-180.653 932.888 -116.472 982.802 -53.2342 1031.4C11.5668 1081.15 74.9498 1129.47 146.512 1169.71C169.513 1182.69 193.258 1194.73 218.106 1205.68C311.427 1246.59 403.794 1290.95 500.715 1327.99C609.483 1369.8 686.402 1371.7 756.843 1361.01C773.195 1358.55 789.121 1355.88 805.26 1353.31C852.485 1345.84 900.383 1340.74 962.985 1356.38C998.302 1365.31 1037.84 1380.21 1083.71 1404.31C1197.34 1463.97 1252.86 1541.83 1344.23 1604.96C1356.39 1613.33 1369.04 1621.25 1382.15 1628.8C1447.33 1666.25 1522.33 1692.41 1584.18 1697.44C1658.45 1703.46 1711.18 1678.93 1720.14 1634.11C1728.01 1596.11 1707.07 1547.04 1699.7 1503.02C1686.36 1427.01 1715.18 1364.98 1777.63 1327.8C1811.28 1307.9 1854.69 1295.25 1906.43 1291.05C2000.66 1283.38 2121.14 1303.91 2246.74 1346.01C2318.73 1370.16 2391.91 1401.46 2462.42 1439.02" stroke="#D1DEFF" stroke-miterlimit="10"/>
<path d="M-675.243 761.275C-566.187 761.554 -394.98 818.392 -251.314 904.247C-179.03 947.346 -114.399 995.909 -50.8973 1042.47C14.1195 1090.28 77.2692 1135.94 148.038 1174.11C170.861 1186.4 194.379 1197.85 218.738 1208.2C310.786 1246.93 401.601 1288.59 498.258 1325.17C605.744 1365.87 682.994 1369.81 753.913 1362.43C770.185 1360.67 786.456 1358.91 802.465 1357.13C849.777 1352.15 897.172 1349.11 959.198 1365.92C994.228 1375.43 1033.67 1390.54 1078.8 1414.02C1191.32 1472.27 1248.45 1545.98 1338.28 1604.84C1350.2 1612.61 1362.58 1620.03 1375.41 1627.08C1438.83 1661.71 1511.07 1685.42 1570.7 1689.01C1642.33 1693.4 1693.13 1668.46 1702.91 1624.64C1711.56 1587.24 1693.39 1539.56 1688.12 1496.7C1678.76 1422.88 1709.72 1362.46 1773.7 1327.05C1808.3 1307.95 1852.34 1296.18 1904.48 1292.84C1999.36 1286.57 2119.66 1308.05 2245.28 1350.2C2317.02 1374.37 2390.26 1405.6 2460.77 1442.68" stroke="#D1DEFF" stroke-miterlimit="10"/>
<path d="M-668.188 774.954C-560.143 780.271 -391.221 838.774 -247.943 923.129C-175.615 965.54 -110.769 1012.56 -47.1685 1057.27C18.0432 1103.05 80.6319 1146.06 150.765 1182.24C173.344 1193.92 196.405 1204.67 220.52 1214.41C311.191 1251.01 400.346 1290.03 496.733 1325.99C602.616 1365.51 680.454 1371.39 751.697 1367.01C768.103 1366.02 784.509 1365.04 800.653 1364.04C848.107 1361.37 894.954 1360.41 956.382 1378.33C991.324 1388.51 1030.3 1403.97 1074.75 1426.62C1186.06 1483.42 1244.75 1552.97 1332.68 1607.53C1344.32 1614.8 1356.46 1621.62 1368.84 1627.96C1430.43 1659.76 1499.67 1680.86 1557.09 1682.94C1625.91 1685.39 1674.75 1660.01 1685.69 1617.11C1695.1 1580.33 1679.83 1533.87 1676.92 1492.2C1671.49 1420.23 1705.05 1361.58 1770.66 1327.68C1806.23 1309.29 1851.09 1298.52 1903.5 1295.66C1999.05 1290.65 2119.19 1312.86 2244.88 1355.27C2316.59 1379.42 2389.43 1410.32 2459.8 1447.09" stroke="#D1DEFF" stroke-miterlimit="10"/>
<path d="M-663.355 789.126C-556.292 799.62 -389.468 859.769 -246.611 942.486C-174.436 984.228 -108.883 1029.95 -45.2387 1072.55C19.9697 1116.32 82.2715 1156.8 151.88 1190.93C174.284 1201.93 197.122 1212.09 220.753 1221.22C310.172 1255.62 397.744 1292.05 493.729 1327.32C598.313 1365.8 676.629 1373.46 748.36 1372.4C764.96 1372.1 781.463 1371.99 797.705 1371.87C845.119 1371.43 891.83 1372.88 952.756 1391.85C987.639 1402.71 1026.16 1418.04 1070.04 1440.29C1180.1 1495.97 1240.78 1561.2 1326.68 1611.41C1338.09 1618.08 1350 1624.31 1361.84 1630.14C1421.41 1659.12 1488.18 1677.74 1543.2 1678.23C1609.47 1678.88 1656.44 1652.99 1668.21 1611.09C1678.39 1574.91 1665.93 1529.75 1665.21 1489.06C1663.84 1419.13 1699.83 1362.04 1766.85 1329.66C1803.4 1311.99 1848.95 1302.03 1901.79 1299.96C1998.06 1296.24 2118.09 1319.33 2244.05 1361.87C2315.54 1386.01 2388.24 1416.72 2458.62 1453.02" stroke="#D1DEFF" stroke-miterlimit="10"/>
<path d="M-658.521 803.298C-552.52 818.943 -387.875 880.582 -245.655 961.787C-173.643 1002.73 -107.655 1047.02 -43.9026 1087.78C21.5091 1129.51 83.2584 1167.33 152.239 1199.47C174.449 1209.78 196.784 1219.32 220.174 1227.85C308.272 1260.03 394.192 1293.82 489.867 1328.57C592.856 1365.87 671.759 1375.48 743.813 1377.42C760.546 1377.91 777.184 1378.58 793.345 1379.13C840.901 1381 887.064 1384.55 947.393 1404.64C981.976 1416.05 1020.34 1431.66 1063.49 1453.18C1172.57 1507.53 1234.82 1568.58 1318.63 1614.38C1329.8 1620.46 1341.21 1626.07 1353.03 1631.41C1410.79 1657.56 1474.77 1673.68 1527.58 1672.66C1591.04 1671.39 1636.27 1645.18 1648.92 1604.19C1659.87 1568.63 1650.09 1524.59 1651.94 1485.2C1654.43 1417.22 1693.28 1361.93 1761.45 1330.94C1798.97 1313.99 1845.18 1304.83 1898.45 1303.45C1995.18 1300.89 2115 1324.81 2241.14 1367.43C2312.61 1391.56 2385.12 1422.06 2455.41 1457.95" stroke="#D1DEFF" stroke-miterlimit="10"/>
<path d="M-654.181 815.248C-549.386 835.966 -386.426 899.467 -244.687 979.121C-172.57 1019.41 -106.355 1062.27 -42.3499 1101.02C23.2677 1140.83 84.7743 1176.04 152.964 1206.1C174.949 1215.82 197.108 1224.67 220.012 1232.6C306.804 1262.67 391.396 1293.87 486.448 1327.81C588.081 1364.17 667.507 1375.46 740.045 1380.72C756.971 1381.9 773.705 1383.44 789.963 1384.87C837.64 1389.18 883.498 1394.94 943.106 1415.96C977.579 1428.14 1015.65 1443.84 1058.11 1464.64C1166.03 1517.68 1229.9 1574.58 1311.94 1616.03C1322.88 1621.51 1334.02 1626.62 1345.34 1631.36C1401.34 1654.69 1462.36 1668.22 1512.99 1665.71C1573.68 1662.51 1617.2 1636 1630.78 1595.81C1642.54 1560.76 1635.8 1518.13 1639.63 1479.61C1646.4 1413.78 1687.47 1359.94 1757.26 1330.57C1795.77 1314.35 1842.61 1306.08 1896.35 1305.4C1993.81 1304.14 2113.51 1328.92 2239.86 1371.76C2311.1 1395.88 2383.48 1426.18 2453.72 1461.7" stroke="#D1DEFF" stroke-miterlimit="10"/>
<path d="M-648.31 827.395C-544.593 853.332 -383.904 918.562 -242.628 996.42C-170.756 1036.1 -103.989 1077.32 -39.8604 1114.22C25.7633 1151.89 86.9444 1184.55 154.511 1212.63C176.305 1221.66 198.01 1229.81 220.624 1237.24C305.88 1265.01 388.987 1293.81 483.776 1327.17C584.028 1362.5 664.022 1375.81 736.859 1384.14C753.914 1386.11 770.777 1388.45 787.164 1390.67C834.755 1397.23 880.218 1405.32 939.278 1427.38C973.664 1440.25 1011.36 1456.12 1053.06 1476.3C1159.75 1528 1225.49 1580.7 1305.45 1617.75C1316.1 1622.73 1327 1627.25 1337.83 1631.37C1392.02 1651.89 1450.25 1662.95 1498.43 1658.89C1556.5 1653.95 1598.07 1627.01 1612.23 1587.81C1624.71 1553.45 1620.77 1512.22 1626.96 1474.88C1637.52 1411.13 1681.16 1359.12 1752.25 1331.38C1791.7 1315.95 1839.38 1308.66 1893.28 1308.71C1991.35 1308.83 2110.83 1334.52 2237.15 1377.39C2308.15 1401.41 2380.51 1431.72 2450.5 1466.63" stroke="#D1DEFF" stroke-miterlimit="10"/>
<path d="M-643.477 841.567C-540.76 872.686 -382.197 939.554 -241.199 1015.96C-169.228 1054.98 -102.24 1094.78 -37.8633 1129.67C27.9606 1165.42 88.6306 1195.43 155.661 1221.46C177.015 1229.79 198.706 1237.46 220.879 1244.18C304.868 1269.75 386.376 1295.94 480.699 1328.7C579.419 1362.89 660.046 1378.17 733.196 1389.62C750.395 1392.37 767.401 1395.5 783.932 1398.5C831.69 1407.4 876.844 1417.7 935.13 1440.8C969.451 1454.34 1006.64 1470.19 1047.8 1489.85C1153.37 1540.15 1220.94 1588.8 1298.86 1621.47C1309.29 1625.86 1319.95 1629.78 1330.29 1633.3C1382.7 1651 1438.18 1659.58 1483.96 1653.92C1539.21 1647.16 1579.1 1619.82 1594.19 1581.43C1607.65 1547.8 1606.15 1507.57 1614.91 1471.52C1629.53 1409.84 1675.6 1359.39 1748.31 1333.3C1788.74 1318.59 1837.1 1312.11 1891.46 1312.87C1990.25 1314.28 2109.6 1340.85 2236.17 1383.83C2307.14 1407.96 2379.2 1437.86 2449.31 1472.6" stroke="#D1DEFF" stroke-miterlimit="10"/>
<path d="M-636.422 855.246C-534.726 891.416 -378.451 959.956 -238.051 1034.75C-166.25 1072.97 -98.8312 1111.33 -34.3508 1144.37C31.6241 1178.17 91.788 1205.43 158.188 1229.47C179.349 1237.1 200.585 1244.05 222.469 1250.27C305.136 1273.6 384.943 1297.25 479.048 1329.29C576.336 1362.49 657.642 1379.53 731.013 1394.17C748.393 1397.6 765.483 1401.6 781.885 1405.37C829.567 1416.48 874.548 1429.18 932.068 1453.18C966.252 1467.48 1003.12 1483.4 1043.55 1502.34C1147.87 1551.27 1217.32 1595.66 1293.1 1624.02C1303.28 1627.81 1313.45 1631.12 1323.71 1634.24C1374.27 1649.2 1426.8 1655.06 1470.59 1648C1523.24 1639.41 1561.2 1611.64 1577.17 1574.15C1591.4 1541.11 1592.75 1502.19 1603.71 1467.13C1622.19 1407.37 1671.13 1358.69 1744.99 1333.97C1786.56 1320.18 1835.41 1314.29 1890.37 1315.92C1989.83 1318.59 2108.96 1345.98 2235.7 1389.03C2306.44 1413.03 2378.25 1442.81 2448.32 1477.04" stroke="#D1DEFF" stroke-miterlimit="10"/>
<path d="M-631.588 869.417C-530.881 910.787 -376.66 980.886 -236.517 1054.24C-164.653 1091.9 -96.9526 1128.74 -32.4262 1159.66C33.5955 1191.35 93.4727 1216.08 159.3 1238.15C180.284 1245.09 201.297 1251.45 222.695 1257.06C304.107 1278.19 382.328 1299.23 476.196 1330.79C572.18 1362.95 654.131 1381.98 727.66 1399.54C745.186 1403.76 762.257 1408.34 778.969 1413.1C826.824 1426.55 871.24 1441.46 928.256 1466.51C962.381 1481.5 998.903 1497.59 1038.82 1516.02C1142.03 1563.55 1213.11 1603.79 1287.07 1627.88C1297.03 1631.08 1306.92 1633.88 1316.74 1636.3C1365.53 1648.45 1415.32 1651.82 1456.71 1643.16C1506.59 1632.66 1542.87 1604.48 1559.68 1567.99C1574.73 1535.47 1578.9 1497.86 1592.21 1463.98C1614.82 1406.18 1666.15 1359.17 1741.41 1335.97C1783.98 1322.91 1833.67 1318.03 1888.95 1320.17C1989.13 1324.14 2108.15 1352.4 2234.91 1395.57C2305.63 1419.67 2377.36 1449.17 2447.13 1483.01" stroke="#D1DEFF" stroke-miterlimit="10"/>
<path d="M-626.21 879.343C-526.791 925.773 -374.594 997.586 -235.036 1069.34C-163.335 1106.19 -95.2436 1141.68 -30.5143 1170.57C35.6615 1200.33 95.1965 1222.52 160.221 1242.42C180.961 1248.77 201.729 1254.54 222.669 1259.45C302.743 1278.39 379.249 1296.93 472.673 1327.7C567 1358.81 649.561 1379.74 723.554 1400.55C741.208 1405.56 758.408 1410.93 775.201 1416.56C822.971 1432.25 867.207 1449.58 923.409 1475.64C957.182 1491.29 993.594 1507.57 1032.78 1525.27C1134.75 1571.47 1207.67 1607.52 1279.53 1627.24C1289.24 1629.85 1298.85 1632.15 1308.17 1633.96C1355.14 1643.31 1401.91 1644.11 1441.06 1634C1488.1 1621.65 1522.61 1593.25 1540.31 1557.66C1556.07 1525.83 1563.04 1489.61 1578.51 1456.8C1604.9 1401.08 1659 1356 1735.57 1334.43C1779.07 1322.15 1829.39 1318.13 1885.03 1321.1C1985.87 1326.34 2104.61 1355.59 2231.52 1398.88C2301.99 1422.88 2373.48 1452.26 2443.41 1485.73" stroke="#D1DEFF" stroke-miterlimit="10"/>
<path d="M-621.28 893.325C-522.92 944.913 -372.892 1018.23 -233.957 1088.47C-162.414 1124.54 -93.8796 1158.58 -29.0368 1185.64C37.3486 1213.36 96.3378 1232.9 160.74 1250.81C181.289 1256.47 201.604 1261.54 222.043 1265.83C300.803 1282.56 375.665 1298.47 468.784 1328.73C561.689 1358.87 644.884 1381.67 718.982 1405.39C736.818 1411.08 754.103 1417.33 770.816 1423.63C818.512 1441.54 862.578 1461.27 918.021 1488.26C951.71 1504.57 987.802 1520.92 1026.22 1538C1127 1582.75 1201.72 1614.74 1271.54 1629.97C1280.97 1632.07 1290.39 1633.69 1299.42 1635C1344.6 1641.52 1388.59 1639.83 1425.52 1628.23C1469.98 1614.07 1502.53 1585.26 1521.1 1550.6C1537.84 1519.51 1547.25 1484.3 1565.28 1452.8C1595.73 1399.16 1652.25 1355.67 1730.17 1335.63C1774.63 1324.08 1825.6 1320.87 1881.67 1324.54C1983.18 1331.06 2101.71 1361.16 2228.8 1404.55C2299.21 1428.63 2370.35 1457.6 2440.2 1490.66" stroke="#D1DEFF" stroke-miterlimit="10"/>
<path d="M-616.426 907.458C-519.044 964.249 -370.894 1039.33 -232.371 1107.94C-160.759 1143.44 -91.9382 1175.98 -26.8317 1201.02C39.5564 1226.72 98.2613 1243.73 162.141 1259.59C182.467 1264.66 202.607 1269.04 222.561 1272.73C299.856 1287.15 373.299 1300.66 466.069 1330.13C557.675 1359.25 641.523 1384.04 715.952 1410.89C733.936 1417.37 751.368 1424.4 768.229 1431.5C816.103 1451.75 859.946 1473.03 914.552 1501.72C947.943 1519.19 983.725 1535.15 1021.67 1551.62C1121.3 1595.07 1197.75 1622.72 1265.71 1633.78C1274.92 1635.28 1283.84 1636.29 1292.6 1637.1C1336 1640.8 1377.25 1636.63 1411.79 1623.43C1453.46 1607.36 1484.34 1578.15 1503.75 1544.48C1521.26 1514.01 1533.55 1480.02 1553.72 1449.6C1588.03 1397.91 1647.42 1356.22 1726.59 1337.49C1772.26 1326.79 1823.66 1324.38 1880.2 1328.76C1982.45 1336.59 2100.88 1367.57 2227.99 1411.08C2298.22 1435.06 2369.4 1464.05 2439.01 1496.63" stroke="#D1DEFF" stroke-miterlimit="10"/>
<path d="M-609.647 921.673C-513.357 983.625 -367.364 1060.1 -229.543 1127.27C-158.057 1161.88 -88.6415 1193.17 -23.6439 1216.24C42.9448 1239.89 101.1 1254.22 164.354 1268.08C184.489 1272.44 204.127 1276.2 223.842 1279.28C299.87 1291.35 371.785 1302.5 464.074 1331.23C554.035 1359.25 638.671 1386.08 713.453 1415.83C731.567 1423.09 749.129 1430.9 766.071 1438.87C813.86 1461.33 857.135 1485.77 911.568 1514.73C945.01 1532.58 980.32 1548.89 1017.44 1564.82C1115.87 1606.81 1194.11 1630.36 1259.98 1636.99C1268.95 1637.9 1277.59 1638.4 1285.85 1638.58C1327.41 1639.54 1365.72 1632.63 1398.06 1617.91C1437.16 1600 1466.11 1570.33 1486.25 1537.34C1504.79 1507.47 1519.45 1474.65 1542.3 1445.31C1580.28 1395.4 1642.53 1355.44 1723.29 1338.29C1769.93 1328.28 1822.2 1326.74 1878.92 1331.77C1981.83 1340.84 2099.88 1372.42 2227.32 1416.19C2297.48 1440.24 2368.29 1468.79 2438.01 1501.07" stroke="#D1DEFF" stroke-miterlimit="10"/>
<path d="M-605.454 933.912C-510.171 1001.07 -366.31 1079.19 -228.717 1144.81C-157.179 1178.85 -87.4921 1208.61 -22.2436 1229.66C44.5482 1251.39 102.409 1263.18 164.963 1274.76C184.87 1278.54 204.33 1281.6 223.556 1284.08C298.316 1293.93 368.584 1302.56 460.719 1330.61C549.312 1357.67 634.63 1386.39 709.511 1419.17C727.768 1427.22 745.425 1435.91 762.559 1444.57C810.541 1468.8 853.429 1496.13 907.134 1526.03C940.511 1544.56 975.474 1561.05 1011.9 1576.26C1109.21 1616.84 1189.11 1636.12 1253.12 1638.56C1261.85 1638.87 1270.26 1638.78 1278.24 1638.46C1317.82 1636.48 1353.58 1627.19 1383.73 1610.98C1420 1591.24 1447.28 1561.17 1468.3 1529.09C1487.61 1499.82 1505.15 1468.22 1530.15 1439.96C1572.19 1392.11 1637.11 1353.83 1719.05 1338.09C1766.63 1328.9 1819.63 1328.08 1876.82 1333.82C1980.23 1344.07 2098.36 1376.63 2226.06 1420.52C2295.98 1444.57 2366.65 1472.92 2436.33 1504.82" stroke="#D1DEFF" stroke-miterlimit="10"/>
<path d="M-599.712 946.311C-505.637 1018.41 -363.814 1098.33 -226.788 1162.36C-155.403 1195.61 -85.2711 1223.94 -19.9109 1243.17C46.8752 1262.78 104.398 1272.05 166.323 1281.67C186.037 1284.76 205.041 1287.13 223.977 1289.11C297.413 1296.79 366.027 1302.83 457.637 1330.28C544.853 1356.31 630.704 1387.11 705.953 1422.82C724.391 1431.55 742.182 1441.02 759.14 1450.55C807.071 1477.48 849.56 1506.62 902.725 1537.55C935.972 1556.85 970.617 1573.41 1006.32 1587.9C1102.45 1627.06 1184.14 1642.3 1246.05 1640.38C1254.55 1640.1 1262.67 1639.51 1270.15 1638.59C1307.92 1633.81 1340.89 1622.07 1368.6 1604.3C1402.05 1582.69 1427.6 1552.28 1449.42 1521.27C1469.47 1492.68 1489.81 1462.45 1517.17 1435.35C1563.02 1389.55 1630.68 1353.27 1713.78 1338.92C1762.52 1330.62 1815.94 1330.54 1873.71 1337.2C1977.76 1348.8 2095.68 1382.25 2223.34 1426.15C2293.24 1450.2 2363.73 1478.36 2433.11 1509.75" stroke="#D1DEFF" stroke-miterlimit="10"/>
<path d="M-594.992 960.704C-501.923 1038 -362.183 1119.48 -225.697 1182.04C-154.426 1214.52 -83.8558 1241.53 -18.2449 1258.74C48.7441 1276.41 105.972 1283.14 167.147 1290.59C186.634 1293.08 205.246 1294.65 223.906 1296.13C295.908 1301.39 363.039 1305.11 454.495 1331.88C540.342 1356.96 626.856 1389.16 702.226 1428.38C720.76 1438 738.791 1448.07 755.843 1458.47C803.727 1487.64 846.022 1519.31 898.509 1551.08C931.429 1571.04 965.824 1587.59 1001 1601.57C1095.95 1639.41 1179.37 1650.28 1239.4 1644.18C1247.62 1643.4 1255.3 1642.1 1262.55 1640.58C1298.53 1632.98 1328.54 1618.63 1354.06 1599.36C1384.93 1575.94 1408.55 1545.11 1431.3 1514.91C1452.33 1487.04 1475.13 1457.82 1505.07 1432.01C1554.99 1388.27 1625.31 1353.66 1709.81 1340.84C1759.54 1333.26 1813.81 1334.2 1871.89 1341.36C1976.65 1354.26 2094.45 1388.58 2222.32 1432.69C2291.98 1456.74 2362.33 1484.7 2431.92 1515.72" stroke="#D1DEFF" stroke-miterlimit="10"/>
<path d="M-590.258 975.069C-498.27 1057.56 -360.754 1140.65 -224.576 1201.62C-153.294 1233.5 -82.4407 1258.86 -16.7058 1274.2C50.5036 1289.83 107.2 1293.88 167.769 1299.32C186.856 1301.01 205.398 1302.18 223.611 1302.94C294.318 1305.95 359.989 1307.22 450.771 1333.14C535.208 1357.24 622.117 1391.77 697.993 1433.63C716.707 1443.93 734.608 1454.77 751.957 1466.16C800.023 1497.58 841.665 1531.54 893.602 1564.34C926.386 1585.07 960.462 1601.7 994.872 1615.04C1088.65 1651.43 1173.67 1658.08 1231.85 1647.66C1239.84 1646.27 1247.23 1644.47 1253.99 1642.33C1288.19 1631.88 1315.44 1615.01 1338.55 1594.11C1366.65 1568.74 1388.76 1537.69 1412.19 1508.27C1434.25 1481 1459.68 1452.95 1491.77 1428.2C1545.57 1386.36 1618.7 1353.59 1704.42 1342.04C1755.29 1335.36 1810.05 1336.87 1868.53 1344.81C1973.98 1358.96 2091.58 1394.1 2219.64 1438.29C2289.07 1462.2 2359.19 1490.04 2428.7 1520.65" stroke="#D1DEFF" stroke-miterlimit="10"/>
<path d="M-585.009 985.246C-494.056 1072.84 -358.746 1157.51 -223.149 1216.89C-152.028 1247.99 -80.7892 1272.01 -14.8579 1285.36C52.2855 1298.97 108.632 1300.52 168.608 1303.92C187.45 1305.02 205.583 1305.4 223.502 1305.67C292.659 1306.42 356.781 1305.41 447.337 1330.66C530.291 1353.92 617.609 1390.23 693.851 1435C712.698 1446.08 730.733 1457.7 748.003 1469.76C796.046 1503.29 837.429 1539.82 888.661 1573.44C921.314 1594.92 955.118 1611.53 988.758 1624.25C1081.39 1659.13 1167.96 1661.66 1224.2 1647.11C1231.95 1645.14 1239.1 1642.75 1245.57 1640.12C1277.9 1626.98 1302.4 1607.58 1323.28 1585.24C1348.76 1558.14 1368.94 1526.65 1393.16 1498.31C1415.95 1471.73 1444.16 1445.07 1478.61 1421.49C1536.44 1381.74 1612.09 1350.88 1698.91 1340.82C1750.71 1334.93 1806.1 1337.29 1865 1345.96C1971.06 1361.46 2088.44 1397.49 2216.45 1441.7C2285.81 1465.71 2355.79 1493.25 2424.99 1523.36" stroke="#D1DEFF" stroke-miterlimit="10"/>
<path d="M-578.047 999.106C-440.81 1140.67 -202.225 1267.56 -10.9066 1300.42C56.4973 1312.01 112.344 1310.89 171.745 1312.31C263.145 1314.43 332.983 1300.74 446.332 1331.59C548.105 1359.24 659.874 1412.11 747.081 1477.13C795.293 1513.02 836.104 1551.77 886.824 1586.44C1021.66 1678.49 1173.9 1676.58 1240.29 1641.73C1308.06 1606.29 1331.46 1541.69 1377.36 1491.59C1440.72 1422.14 1556.18 1355.71 1697.17 1342.09C1845.5 1327.83 2018.24 1378.52 2217.67 1447.65C2286.85 1471.56 2356.64 1499 2426.02 1528.84" stroke="#D1DEFF" stroke-miterlimit="10"/>
</g>
</svg>
