<svg width="1440" height="1480" viewBox="0 0 1440 1480" fill="none" xmlns="http://www.w3.org/2000/svg">
<g opacity="0.1">
<path d="M-335.941 1294.95C-324.496 1229.15 -240.424 1185.5 -157.926 1173.31C-75.4279 1161.12 10.0837 1171.1 94.0599 1166.36C318.926 1153.54 524.305 1023.36 588.528 852.807C609.064 798.204 616.219 740.722 636.213 685.881C656.215 631.174 692.271 576.773 754.262 547.833C843.374 506.054 959.157 527.792 1053.52 563.527C1147.89 599.262 1237.03 648.62 1339.99 661.658C1475.25 678.797 1612.17 628.398 1710.74 554.316C1809.31 480.234 1876.5 384.229 1942.02 289.799" stroke="#D1DEFF" stroke-miterlimit="10"/>
<path d="M-341.393 1288.93C-328.352 1223.31 -244.624 1179.82 -161.965 1167.35C-126.14 1161.96 -89.9037 1160.72 -53.4087 1160.95C-5.45658 1161.21 42.6243 1163.75 90.104 1161.88C186.996 1158.02 280.446 1133.77 361.293 1092.32C423.812 1060.26 478.621 1019.61 521.587 972.086C552.286 938.315 576.258 900.884 592.151 860.814C599.248 842.913 604.909 824.554 610.036 806.092C620.435 768.619 628.52 730.739 642.677 694.266C658.669 652.843 684.224 612.228 723.835 583.338C736.19 574.295 749.668 566.4 764.634 559.901C827.258 532.81 901.674 536.689 973.602 552.689C1004.66 559.553 1035.31 568.728 1063.89 578.692C1095.9 589.945 1127.26 602.176 1158.41 613.881C1219.62 636.813 1280.2 657.761 1344.64 662.876C1386.6 666.297 1427.44 662.378 1467.82 653.234C1549.42 634.496 1628.46 592.343 1693.39 540.486C1711.09 526.295 1728.05 511.338 1744.46 496.008C1816.91 427.573 1876.33 349.911 1935.09 276.324" stroke="#D1DEFF" stroke-miterlimit="10"/>
<path d="M-346.667 1282.9C-332.023 1217.6 -248.646 1174.12 -165.827 1161.37C-130.009 1155.85 -93.5968 1154.6 -56.9186 1154.96C-8.95132 1155.48 38.9841 1158.57 86.6849 1157.49C183.499 1155.39 276.764 1134.11 358.581 1094.23C421.871 1063.33 477.657 1024.37 522.478 978.497C554.46 945.596 579.341 908.653 596.127 868.801C603.583 851.014 609.596 832.636 614.898 814.163C625.832 776.795 634.436 738.751 649.311 702.507C666.197 661.303 692.683 621.577 733.775 593.951C746.512 585.424 760.188 577.922 775.185 571.96C838.281 546.996 911.757 552.947 983.509 568.957C1014.75 575.945 1045.55 584.573 1074.27 593.857C1106.57 604.15 1138.22 615.288 1169.1 625.258C1229.96 645.114 1288.57 662.404 1349.11 664.104C1388.31 665.258 1425.51 659.256 1462.43 648.288C1537.3 625.89 1612.11 580.476 1675.69 526.676C1693.18 511.824 1709.94 496.474 1726.33 480.742C1799.37 410.388 1863.57 332.995 1927.47 263.022" stroke="#D1DEFF" stroke-miterlimit="10"/>
<path d="M-352.125 1276.75C-335.876 1211.75 -253.034 1168.18 -170.046 1155.28C-134.228 1149.76 -97.6484 1148.37 -60.9626 1148.86C-12.9877 1149.52 34.978 1153.14 82.5485 1152.88C179.278 1152.4 272.549 1134.35 355.328 1095.89C419.213 1066.17 476.335 1029.03 522.827 984.67C556.276 952.763 582.065 916.307 599.569 876.684C607.384 859.012 613.58 840.758 619.41 822.255C630.87 784.858 640.178 746.774 655.594 710.769C673.198 669.793 700.791 630.947 743.181 604.459C756.292 596.315 769.998 589.349 785.201 583.915C848.594 561.088 921.305 569.101 993.058 585.112C1024.29 592.1 1055.25 600.449 1084.46 608.898C1117.07 618.367 1148.81 628.019 1179.61 636.647C1240.12 653.426 1297.11 667.038 1353.58 665.198C1390.18 664.076 1423.39 656.01 1456.86 643.352C1525.02 617.564 1595.59 568.755 1657.81 512.743C1674.92 497.373 1691.64 481.352 1708.18 465.207C1781.82 392.801 1850.96 315.802 1919.83 249.453" stroke="#D1DEFF" stroke-miterlimit="10"/>
<path d="M-357.576 1270.73C-339.731 1205.92 -257.233 1162.49 -174.085 1149.32C-138.099 1143.65 -101.519 1142.26 -64.818 1143.02C-16.828 1143.95 31.1605 1147.97 78.6084 1148.66C175.253 1149.8 268.522 1134.85 352.095 1097.96C416.751 1069.41 475.032 1034.08 523.197 991.246C558.111 960.333 584.81 924.365 603.031 884.97C611.198 867.278 617.753 849.139 623.758 830.626C635.753 793.333 645.58 755.085 661.89 719.299C680.395 678.677 708.729 640.462 752.783 615.36C766.1 607.743 780.181 601.16 795.238 596.272C859.103 575.573 930.874 585.659 1002.46 601.813C1033.7 608.935 1064.98 616.729 1094.33 624.497C1127.07 633.15 1159.26 641.564 1189.79 648.458C1249.95 662.026 1305.33 672.094 1357.73 666.85C1391.73 663.451 1420.94 653.322 1451.14 638.829C1512.58 609.382 1578.73 557.456 1639.96 499.346C1656.68 483.325 1673.38 466.902 1690.07 450.345C1764.3 376.02 1838.23 299.424 1912.23 236.555" stroke="#D1DEFF" stroke-miterlimit="10"/>
<path d="M-362.85 1264.7C-343.577 1200.21 -261.254 1156.79 -177.946 1143.34C-141.967 1137.54 -105.212 1136.14 -68.5031 1137.03C-20.5055 1138.1 27.5208 1142.79 74.8309 1144.16C171.399 1147.06 264.659 1135.07 349.2 1099.74C414.627 1072.35 473.886 1038.72 523.906 997.533C560.278 967.481 587.717 932.143 606.825 892.833C615.35 875.256 622.256 857.096 628.437 838.574C641.136 801.241 651.489 762.964 668.341 727.416C687.564 687.023 717.005 649.687 762.533 625.714C776.224 618.48 790.335 612.434 805.598 608.073C869.76 589.51 940.758 601.525 1012.35 617.813C1043.77 624.926 1075.21 632.44 1104.86 639.383C1137.91 647.212 1170.2 654.275 1200.65 659.692C1260.46 670.183 1314.22 676.574 1362.54 667.79C1394.12 662.104 1419.16 649.922 1446.09 633.595C1500.8 600.622 1562.72 545.301 1622.59 485.114C1639.1 468.432 1655.59 451.482 1672.26 434.522C1747.08 358.145 1825.79 281.952 1905.1 222.688" stroke="#D1DEFF" stroke-miterlimit="10"/>
<path d="M-368.31 1258.55C-347.434 1194.37 -265.47 1150.84 -181.985 1137.38C-146.007 1131.58 -109.083 1130.04 -72.3672 1131.06C-24.1788 1132.38 23.6946 1137.49 71.0501 1139.66C167.533 1144.18 260.799 1135.42 346.127 1101.53C412.324 1075.31 472.743 1043.5 524.435 1003.83C562.274 974.772 590.621 939.922 610.447 900.841C619.155 883.388 626.42 865.343 633.128 846.791C646.354 809.428 657.234 771.121 674.805 735.802C694.745 695.637 725.11 659.058 772.302 636.471C786.375 629.754 800.684 624.101 815.978 620.276C880.612 603.841 950.67 617.928 1022.26 634.216C1053.68 641.329 1085.45 648.421 1115.24 654.683C1148.59 661.686 1180.99 667.397 1211.52 671.194C1270.8 678.619 1323.47 681.302 1367.37 669.133C1396.53 661.026 1417.58 646.781 1441.06 628.897C1489.06 592.4 1546.73 533.818 1605.43 471.543C1621.56 454.344 1638.02 436.858 1654.84 419.485C1730.26 341.19 1813.92 265.256 1898.19 209.481" stroke="#D1DEFF" stroke-miterlimit="10"/>
<path d="M-373.584 1252.52C-351.103 1188.65 -269.491 1145.14 -186.022 1131.41C-149.875 1125.47 -112.951 1123.93 -76.0519 1125.07C-27.8559 1126.53 19.872 1132.18 67.2805 1135.3C163.686 1141.57 256.943 1135.77 343.064 1103.45C410.033 1078.4 471.611 1048.41 524.8 1010.27C564.105 982.206 593.361 947.843 613.904 908.991C622.972 891.652 630.588 873.587 637.472 855.025C651.232 817.767 662.632 779.296 680.92 744.206C701.754 704.26 732.875 668.58 781.716 647.113C795.987 640.788 810.502 635.661 825.994 632.23C890.926 617.932 960.219 634.081 1031.63 650.379C1063.24 657.616 1095.16 664.296 1125.08 669.743C1158.74 675.921 1191.41 680.27 1221.68 682.601C1280.61 686.95 1331.83 685.676 1371.32 670.389C1398.23 659.987 1414.94 643.698 1435.15 623.98C1476.41 583.824 1529.68 522.124 1587.2 457.628C1603.11 439.768 1619.37 421.754 1636.34 403.969C1712.35 323.621 1800.8 248.225 1890.2 195.93" stroke="#D1DEFF" stroke-miterlimit="10"/>
<path d="M-379.035 1246.5C-354.958 1182.81 -273.689 1139.46 -190.059 1125.45C-153.92 1119.37 -116.821 1117.82 -79.9139 1119.1C-31.7027 1120.82 16.048 1126.88 63.3261 1130.81C159.647 1138.7 252.902 1136 339.993 1105.24C407.732 1081.36 470.471 1053.18 525.331 1016.57C566.094 989.364 596.091 955.633 617.52 916.865C626.947 899.64 634.739 881.565 641.974 862.984C656.261 825.696 668.364 787.185 687.194 752.333C708.746 712.616 740.966 677.682 791.121 657.621C805.774 651.814 820.487 647.08 836.009 644.185C901.413 632.014 969.59 650.245 1041.18 666.534C1072.78 673.77 1104.86 680.038 1135.27 684.784C1169.23 690.138 1202.01 693.269 1232.18 693.856C1290.77 695.128 1340.7 689.887 1375.78 671.35C1400.43 658.382 1412.8 640.184 1429.75 618.9C1464.29 575.085 1513.33 510.259 1569.67 443.675C1585.2 425.298 1601.43 406.748 1618.37 388.426C1694.97 306.159 1788.2 231.033 1882.74 182.352" stroke="#D1DEFF" stroke-miterlimit="10"/>
<path d="M-384.318 1240.34C-358.637 1176.96 -277.727 1133.49 -193.93 1119.34C-157.79 1113.26 -120.699 1111.57 -83.6087 1112.98C-35.3899 1114.84 12.3987 1121.57 59.5466 1126.31C155.79 1135.96 248.868 1136.36 336.92 1107.03C405.431 1084.32 469.329 1057.96 525.862 1022.87C568.091 996.656 598.996 963.412 621.144 924.873C630.929 907.763 639.08 889.802 646.667 871.201C661.664 834.007 674.111 795.342 693.834 760.71C716.28 721.211 749.248 687.043 801.067 668.369C815.918 662.954 830.845 658.881 846.566 656.379C912.267 646.345 979.678 666.639 1051.27 682.927C1083.05 690.154 1115.29 696.143 1145.82 700.075C1180.08 704.469 1212.97 706.383 1243.06 705.493C1301.12 703.698 1349.93 694.214 1380.62 672.827C1403.01 657.295 1411.05 637.322 1424.73 614.203C1452.55 566.863 1497.34 498.642 1552.34 430.114C1567.48 411.086 1583.67 391.999 1600.78 373.399C1677.98 289.214 1775.98 214.357 1875.65 169.29" stroke="#D1DEFF" stroke-miterlimit="10"/>
<path d="M-389.767 1234.32C-362.658 1171.27 -281.924 1127.81 -197.966 1113.38C-161.834 1107.16 -124.567 1105.47 -87.4614 1107.14C-39.2276 1109.27 8.58375 1116.4 55.7771 1121.95C151.936 1133.21 245.012 1136.71 334.034 1108.94C403.315 1087.4 468.549 1062.85 526.578 1029.29C570.273 1004.07 602.088 971.314 624.953 933.004C635.097 916.008 643.6 898.028 651.362 879.417C666.886 842.194 680.035 803.489 700.301 769.095C723.472 729.96 757.357 696.413 810.833 678.991C826.065 674.093 841.191 670.413 856.942 668.447C923.115 660.541 989.578 682.773 1061 699.206C1092.79 706.567 1125.35 711.999 1156.02 715.25C1190.41 718.829 1223.75 719.371 1253.57 716.881C1311.28 712.01 1358.79 698.156 1385.09 673.922C1405.03 655.565 1409.1 633.932 1419.33 609.123C1440.42 558.124 1480.99 486.776 1534.63 416.036C1549.55 396.347 1565.55 376.867 1582.8 357.721C1660.59 271.483 1763.55 197.153 1868.36 155.566" stroke="#D1DEFF" stroke-miterlimit="10"/>
<path d="M-395.219 1228.3C-366.513 1165.42 -286.123 1122.12 -202.18 1107.42C-165.88 1101.07 -128.613 1099.37 -91.3243 1101.17C-43.0829 1103.43 4.58288 1111.1 51.8216 1117.46C147.903 1130.48 240.971 1136.94 330.786 1110.74C400.838 1090.36 467.232 1067.64 526.933 1035.59C572.094 1011.37 604.817 979.103 628.392 940.887C638.896 924.005 647.574 906.015 655.687 887.384C671.739 850.131 685.423 811.531 706.399 777.231C730.288 738.325 765.096 705.533 820.237 689.499C835.668 684.994 851.175 681.83 866.78 680.411C933.25 674.642 998.949 698.937 1070.37 715.369C1102.33 722.72 1135.05 727.875 1166.03 730.3C1200.73 733.054 1234.18 732.379 1263.91 728.278C1321.09 720.341 1367.11 701.994 1389.39 675.159C1406.89 654.114 1406.81 630.829 1413.77 604.32C1428.14 549.662 1464.29 475.197 1516.93 402.36C1531.48 382.154 1547.44 362.003 1564.67 342.588C1643.06 254.433 1750.8 180.372 1860.74 142.399" stroke="#D1DEFF" stroke-miterlimit="10"/>
<path d="M-400.5 1222.13C-370.191 1159.57 -290.159 1116.15 -206.048 1101.31C-169.748 1094.96 -132.313 1093.11 -95.0169 1095.05C-46.5847 1097.57 0.935681 1105.79 48.0442 1112.96C144.041 1127.6 237.107 1137.16 327.891 1112.52C398.714 1093.31 466.269 1072.4 527.641 1041.88C574.269 1018.65 607.724 986.882 632.193 948.885C642.88 932.128 652.093 914.242 660.382 895.601C676.968 858.452 691.171 819.688 712.873 785.752C737.655 747.064 773.204 714.904 830.009 700.256C845.814 696.134 861.352 693.507 877.163 692.615C944.106 688.973 1008.86 715.34 1080.3 731.907C1112.26 739.258 1145.13 744 1176.42 745.734C1211.43 747.663 1244.97 745.636 1274.61 739.925C1331.45 729.045 1375.63 706.091 1393.88 676.522C1408.75 652.664 1404.69 627.718 1408.21 599.519C1415.68 541.212 1447.77 463.476 1499.06 388.561C1513.22 367.704 1528.98 347.16 1546.53 327.189C1625.51 236.981 1738.03 163.323 1853.11 128.83" stroke="#D1DEFF" stroke-miterlimit="10"/>
<path d="M-405.952 1216.11C-374.039 1153.87 -294.359 1110.47 -210.08 1095.48C-173.788 1088.99 -136.177 1087.14 -98.8731 1089.21C-50.4333 1091.86 -2.88259 1100.62 44.0956 1108.6C140.007 1124.87 233.079 1137.66 324.65 1114.45C396.068 1096.42 464.958 1077.32 528.003 1048.32C576.272 1026.08 610.461 994.804 635.647 957.036C646.693 940.393 656.257 922.487 664.898 903.826C682.186 866.638 696.917 827.845 719.337 794.137C744.837 755.678 781.309 724.273 839.603 711.023C855.614 707.427 871.526 705.183 887.367 704.828C954.607 703.323 1018.6 731.752 1089.86 748.329C1121.83 755.814 1155.02 759.999 1186.45 761.053C1221.76 762.157 1255.41 758.912 1284.96 751.591C1341.28 737.645 1383.62 710.217 1398.19 678.029C1410.26 651.366 1402.42 624.885 1402.66 594.851C1403.4 533.019 1431.26 452.022 1481.38 375.019C1495.32 353.501 1510.87 332.431 1528.41 312.191C1607.99 220.064 1725.29 146.81 1845.5 115.797" stroke="#D1DEFF" stroke-miterlimit="10"/>
<path d="M-411.227 1210.08C-377.717 1148.02 -298.381 1104.77 -213.941 1089.51C-177.481 1082.87 -139.87 1081.02 -102.559 1083.22C-54.1037 1086.14 -6.53037 1095.31 40.5009 1104.23C136.335 1122.25 229.398 1138 321.938 1116.35C394.127 1099.49 464.361 1082.34 528.894 1054.73C578.629 1033.49 613.726 1002.7 639.623 965.023C651.02 948.36 660.768 930.579 669.76 911.898C687.583 874.815 702.833 835.857 725.971 802.378C752.364 764.138 789.578 733.364 849.535 721.501C865.921 718.288 881.863 716.581 897.91 716.752C965.615 717.241 1028.67 747.876 1099.93 764.453C1132.08 771.928 1165.43 775.835 1197.17 776.064C1232.78 776.343 1266.71 771.737 1296 762.815C1351.96 745.792 1392.29 714.035 1403.19 679.093C1412.27 649.637 1400.82 621.475 1397.8 589.875C1391.64 524.393 1415.44 440.26 1464.2 361.045C1477.76 339.01 1493.28 317.403 1510.97 296.616C1591.13 202.438 1713.39 129.577 1838.74 102.178" stroke="#D1DEFF" stroke-miterlimit="10"/>
<path d="M-416.686 1203.93C-381.748 1142.19 -302.595 1098.82 -218.163 1083.42C-181.703 1076.78 -143.923 1074.79 -106.421 1077.25C-57.9586 1080.3 -10.3474 1090.14 36.546 1099.74C132.296 1119.38 225.181 1138.24 318.69 1118.15C391.65 1102.46 463.044 1087.12 529.249 1061.04C580.45 1040.79 616.281 1010.5 643.071 973.041C654.827 956.492 664.934 938.826 674.101 920.135C692.451 883.022 708.404 844.024 732.084 810.784C759.196 772.772 797.157 742.765 858.955 732.278C875.715 729.448 891.862 728.268 907.94 728.976C975.941 731.601 1038.23 764.165 1109.32 780.886C1141.47 788.496 1175.14 791.846 1207.02 791.394C1242.76 790.724 1276.98 785.024 1306.17 774.492C1361.79 754.527 1399.94 718.45 1407.32 680.476C1413.44 648.36 1398.36 618.518 1392.06 585.083C1379.18 515.943 1398.58 428.692 1446.33 347.38C1459.5 324.694 1475 302.55 1492.84 281.485C1573.6 185.388 1700.63 112.797 1831.12 89.0116" stroke="#D1DEFF" stroke-miterlimit="10"/>
<path d="M-421.96 1197.9C-385.419 1136.47 -306.617 1093.12 -222.024 1077.44C-185.572 1070.68 -147.617 1068.67 -110.107 1071.26C-61.6294 1074.59 -14.1711 1084.83 32.7677 1095.24C128.44 1116.63 221.324 1138.59 315.619 1119.94C389.35 1105.42 462.079 1091.89 529.781 1067.34C582.456 1048.21 619.187 1018.27 646.696 981.047C658.81 964.614 669.093 946.937 678.787 928.216C697.672 891.207 714.144 852.046 738.542 819.034C766.379 781.386 805.249 751.865 868.719 742.9C885.677 740.462 902.031 739.809 918.314 741.044C986.788 745.797 1048.14 780.433 1119.22 797.154C1151.55 804.754 1185.39 807.826 1217.57 806.549C1253.61 805.054 1287.93 798.002 1317.03 785.86C1372.13 762.828 1408.27 722.422 1412.14 681.683C1415.29 646.909 1396.42 615.396 1387.03 580.251C1367.07 507.606 1382.58 416.94 1428.99 333.684C1441.96 310.471 1457.25 287.801 1475.06 266.199C1556.41 168.049 1688.22 95.8609 1823.85 75.6899" stroke="#D1DEFF" stroke-miterlimit="10"/>
<path d="M-427.408 1191.88C-389.263 1130.76 -310.813 1087.43 -226.06 1071.48C-189.439 1064.57 -151.484 1062.56 -113.967 1065.29C-65.2983 1068.87 -17.993 1079.53 28.9988 1090.88C124.586 1113.89 217.469 1138.94 312.733 1121.85C387.234 1108.5 461.132 1096.92 530.498 1073.76C584.814 1055.62 622.279 1026.18 650.505 989.18C662.979 972.86 673.613 955.163 683.483 936.433C702.895 899.395 719.894 860.204 745.01 827.42C773.74 789.991 813.527 761.092 878.31 753.533C895.642 751.478 912.201 751.352 928.508 752.989C997.278 759.879 1057.86 796.578 1128.95 813.299C1161.28 820.898 1195.27 823.558 1227.76 821.59C1264.11 819.27 1298.71 810.991 1327.55 797.248C1382.3 771.14 1416.27 726.683 1416.44 682.788C1416.62 645.488 1394.12 612.026 1381.46 575.181C1354.78 499.011 1366.05 405.084 1411.11 319.617C1423.68 295.753 1438.94 272.545 1456.92 250.665C1538.86 150.597 1675.45 78.8123 1816.2 61.9869" stroke="#D1DEFF" stroke-miterlimit="10"/>
<path d="M-432.868 1185.73C-393.127 1124.79 -315.204 1081.49 -230.107 1065.38C-193.486 1058.47 -155.538 1056.33 -117.838 1059.18C-69.1619 1062.9 -21.8187 1074.23 25.0353 1086.26C120.546 1111.02 213.419 1139.03 309.476 1123.52C384.749 1111.33 459.814 1101.71 530.844 1079.93C586.627 1062.79 624.824 1033.84 653.937 996.928C666.769 980.723 677.762 963.141 687.808 944.401C707.922 907.322 725.449 868.102 751.282 835.547C780.731 798.347 821.433 770.069 887.888 764.031C905.426 762.503 922.192 762.904 938.697 764.934C1007.94 773.951 1067.41 812.732 1138.49 829.453C1171.01 837.177 1205.15 839.424 1237.77 836.641C1274.43 833.496 1309.13 823.865 1337.88 808.512C1392.28 779.461 1424.07 730.685 1420.73 683.892C1417.95 644.067 1391.99 608.78 1375.89 570.111C1342.48 490.281 1349.34 393.238 1393.4 305.673C1405.59 281.158 1420.82 257.548 1438.94 235.121C1521.48 133 1663.03 61.6089 1808.74 48.4075" stroke="#D1DEFF" stroke-miterlimit="10"/>
<path d="M-438.143 1179.7C-396.973 1119.08 -319.226 1075.79 -234.144 1059.42C-197.531 1052.37 -159.408 1050.22 -121.524 1053.2C-72.8327 1057.18 -25.4668 1068.91 21.2645 1081.89C116.69 1108.28 209.569 1139.52 306.589 1125.43C382.632 1114.41 459.033 1106.6 531.384 1086.36C588.64 1070.34 627.738 1041.75 657.744 1005.06C670.76 988.979 682.104 971.377 692.677 952.607C713.326 915.633 731.372 876.249 757.923 843.923C788.265 806.941 829.709 779.295 897.828 774.644C915.74 773.499 932.712 774.426 949.071 777.003C1018.61 788.157 1077.31 829.001 1148.41 845.856C1180.92 853.58 1215.39 855.404 1248.33 851.931C1285.29 847.961 1320.28 837.102 1348.75 820.149C1402.82 788.156 1432.43 735.195 1425.56 685.235C1419.65 642.894 1390.24 605.783 1370.86 565.413C1330.73 481.925 1333.36 381.754 1376.06 291.978C1388.04 266.936 1403.06 242.664 1421.17 219.969C1504.3 115.93 1650.62 44.8082 1801.65 35.2109" stroke="#D1DEFF" stroke-miterlimit="10"/>
<path d="M-443.594 1173.68C-400.82 1113.38 -323.424 1070.11 -238.174 1053.59C-201.393 1046.4 -163.269 1044.24 -125.378 1047.36C-76.6794 1051.47 -29.2832 1063.74 17.3179 1077.54C112.666 1105.68 205.536 1139.88 303.349 1127.37C380.163 1117.51 457.739 1111.79 531.747 1092.81C590.477 1077.92 630.477 1049.68 661.2 1013.21C674.575 997.246 686.271 979.624 697.019 960.844C718.196 923.84 736.944 884.416 764.037 852.329C795.097 815.576 837.449 788.417 907.248 785.421C925.359 784.669 942.536 786.123 959.102 789.227C1029.11 802.508 1086.87 845.29 1157.97 862.279C1190.66 869.993 1225.29 871.539 1258.36 867.251C1295.45 862.466 1330.71 850.245 1359.1 831.682C1412.81 796.612 1440.26 739.6 1429.87 686.608C1420.99 641.742 1387.95 602.682 1365.31 560.612C1318.28 473.609 1316.84 370.033 1358.37 278.303C1369.96 252.61 1384.96 227.936 1403.21 204.694C1486.93 98.6024 1638.04 28.0178 1794.2 21.9004" stroke="#D1DEFF" stroke-miterlimit="10"/>
<path d="M-448.876 1167.51C-385.345 1081.54 -254.836 1030.02 -129.072 1041.24C19.1854 1054.41 153.159 1145.53 300.446 1129.01C378.031 1120.32 456.767 1116.42 532.447 1098.96C619.088 1078.99 665.347 1030.48 701.697 968.791C748.337 889.561 783.221 798.745 917.004 795.909C1013.64 793.822 1079.97 857.39 1167.69 878.423C1237.01 894.974 1316.41 881.071 1369.78 842.925C1423.14 804.779 1448.43 743.85 1434.51 687.691C1422.67 640.3 1386 599.426 1360.08 555.521C1291.33 439.589 1301.1 297.149 1385.41 189.139C1469.73 81.1292 1625.79 10.8039 1786.91 8.31046" stroke="#D1DEFF" stroke-miterlimit="10"/>
<path d="M-440.479 1178.89C-375.53 1099.3 -245.726 1050.91 -120.924 1060.7C-58.4383 1065.52 1.61156 1083.4 60.9132 1100.52C121.658 1118.23 181.311 1135.33 242.789 1137.92C262.572 1138.68 282.63 1138.09 302.742 1135.34C378.472 1125.01 455.338 1119.19 530.636 1101.21C616.026 1080.92 663.268 1034.23 701.213 975.819C709.973 962.401 718.367 948.735 726.944 935.193C752.193 895.402 779.312 857.525 824.213 834.933C849.402 822.204 879.966 814.153 918.677 813.046C1014.03 810.089 1079.87 868.031 1164.57 885.465C1175.8 887.793 1187.34 889.295 1198.84 889.993C1256.31 893.482 1315.86 877.468 1358.28 845.324C1409.16 806.779 1433.25 746.457 1420.06 690.795C1408.94 643.633 1374.54 602.361 1350.38 558.357C1308.73 482.493 1299.61 395.774 1322.04 315.353C1334.07 272.404 1355.18 231.23 1384.82 194.288C1439.18 126.873 1521.71 74.5624 1616.04 44.0668C1670.22 26.606 1728.33 16.4618 1787.12 15.0301" stroke="#D1DEFF" stroke-miterlimit="10"/>
<path d="M-431.908 1190.25C-365.717 1117.05 -236.441 1071.79 -112.425 1080.14C-50.1533 1084.31 9.4316 1100.19 67.9093 1115.2C127.815 1130.54 186.27 1145.14 246.581 1145.78C265.982 1146.03 285.475 1144.8 305.213 1141.66C379.263 1129.68 454.091 1122.09 528.832 1103.6C612.801 1083.12 661.188 1037.98 700.552 982.855C709.701 970.089 718.499 957.342 727.473 944.586C753.744 907.295 781.374 872.216 826.358 851.1C851.776 839.301 882.179 831.528 920.165 830.058C1014.25 826.366 1079.58 878.547 1161.25 892.382C1172.11 894.193 1183.09 895.188 1194.21 895.503C1249.46 896.964 1306.3 879.891 1346.59 847.463C1394.98 808.521 1417.88 748.939 1405.6 693.764C1395.37 646.821 1362.89 605.306 1340.83 561.049C1302.35 485.006 1295.54 398.561 1319.42 319C1332.35 276.27 1354.2 235.593 1384.57 199.148C1439.86 132.758 1522.63 81.5102 1617.13 51.0047C1671.31 33.5439 1729.07 23.2852 1787.66 21.5951" stroke="#D1DEFF" stroke-miterlimit="10"/>
<path d="M-423.336 1201.61C-355.727 1134.8 -227.164 1092.54 -104.109 1099.47C-42.234 1102.84 17.0768 1116.99 74.8912 1129.62C134.141 1142.7 191.383 1154.55 250.358 1153.37C269.369 1152.97 288.481 1151.22 307.67 1147.72C380.041 1134.08 452.814 1124.45 527.181 1105.58C609.89 1084.63 659.269 1041.46 700.228 989.605C709.598 977.634 718.969 965.663 728.171 953.835C755.472 919.179 783.597 886.63 828.672 867.125C854.135 856.13 884.554 848.625 921.822 846.927C1014.62 842.365 1079.29 889.064 1158.29 899.146C1168.76 900.44 1179.37 901.053 1190.11 900.985C1243.13 900.417 1297.27 882.286 1335.61 849.564C1381.69 810.348 1403.21 751.382 1391.84 696.695C1382.33 649.846 1352.12 608.068 1331.82 563.712C1296.68 487.481 1291.82 401.329 1317.34 322.618C1331.15 280.107 1353.74 239.928 1384.67 204.124C1440.91 138.757 1523.91 88.5734 1618.41 58.0679C1672.42 40.7512 1730.17 30.3584 1788.56 28.1414" stroke="#D1DEFF" stroke-miterlimit="10"/>
<path d="M-414.764 1212.97C-345.745 1152.41 -217.879 1113.42 -95.6098 1118.91C-33.9559 1121.49 24.8974 1133.78 82.0637 1144.29C140.651 1154.99 196.511 1164.22 254.326 1161.23C272.956 1160.31 291.51 1158.05 310.317 1154.03C381.016 1138.87 451.743 1127.34 525.729 1107.95C607.009 1086.67 657.549 1045.32 699.919 996.622C709.686 985.436 719.454 974.25 729.053 963.209C757.376 931.052 786.003 901.167 831.169 883.272C856.854 873.073 887.135 866.249 923.669 864.054C1015.18 858.621 1079.19 899.704 1155.34 906.178C1165.43 907.089 1175.66 907.185 1185.85 906.61C1236.64 904.014 1287.9 884.833 1324.28 851.818C1367.87 812.204 1388.02 753.989 1377.73 699.645C1368.93 653.024 1341 610.849 1322.63 566.384C1290.64 489.84 1288.1 404.097 1315.24 326.101C1329.95 283.809 1353.45 244.251 1384.76 208.83C1441.94 144.487 1525.16 95.233 1619.86 64.9859C1673.87 47.6692 1731.26 37.1621 1789.46 34.6866" stroke="#D1DEFF" stroke-miterlimit="10"/>
<path d="M-406.376 1224.21C-335.941 1170.03 -208.778 1134.18 -87.4784 1138.11C-26.2138 1140.03 32.5336 1150.45 88.8609 1158.58C146.616 1167.03 201.272 1173.64 257.919 1168.7C276.159 1167.13 294.332 1164.35 312.589 1159.96C381.608 1143.14 450.29 1129.71 523.718 1109.82C603.746 1088.2 655.262 1048.55 699.235 1003.26C709.391 992.723 719.563 982.457 729.566 972.334C758.736 942.688 788.225 915.581 833.474 899.163C859.38 889.759 889.317 883.089 925.317 880.788C1015.57 874.889 1079.06 909.943 1152.18 912.818C1161.9 913.212 1171.75 912.791 1181.39 911.978C1229.78 907.498 1278.51 887.113 1312.76 853.815C1354.03 813.793 1372.81 756.193 1363.44 702.471C1355.36 656.079 1329.7 613.641 1313.08 568.942C1284.43 492.21 1284.01 406.751 1312.62 329.615C1328.22 287.542 1352.45 248.481 1384.33 213.701C1442.44 150.382 1525.91 102.192 1620.78 71.9347C1674.62 54.7621 1731.83 44.1306 1789.82 41.1283" stroke="#D1DEFF" stroke-miterlimit="10"/>
<path d="M-397.804 1235.58C-325.951 1187.77 -199.5 1154.92 -79.1545 1157.56C-18.2867 1158.7 40.1791 1167.25 95.8582 1173.26C152.95 1179.33 206.224 1183.33 261.711 1176.56C279.563 1174.34 297.186 1171.19 315.061 1166.28C382.401 1147.81 449.036 1132.47 522.09 1112.2C600.69 1090.26 653.366 1052.42 698.751 1010.28C709.304 1000.54 719.872 991.054 730.097 981.727C760.289 954.581 790.281 930.138 835.621 915.33C861.572 906.731 891.532 900.464 926.806 897.801C1015.95 891.021 1078.77 920.459 1148.87 919.735C1158.21 919.612 1167.5 918.819 1176.95 917.478C1223.11 910.97 1269.13 889.527 1301.42 855.935C1340.21 815.515 1357.8 758.656 1349.33 705.42C1341.97 659.257 1318.4 616.432 1303.89 571.614C1278.4 494.704 1280.47 409.508 1310.36 333.243C1326.85 291.388 1351.82 252.824 1384.25 218.551C1443.13 156.267 1526.83 109.139 1621.88 78.8726C1675.72 61.7 1732.74 50.9443 1790.54 47.5492" stroke="#D1DEFF" stroke-miterlimit="10"/>
<path d="M-389.232 1246.94C-316.137 1205.53 -190.039 1175.8 -70.6553 1177C-10.0086 1177.35 48.0074 1184.17 103.023 1187.8C159.46 1191.62 211.521 1192.85 265.672 1184.28C283.142 1181.54 300.375 1177.74 317.701 1172.46C383.369 1152.47 448.126 1135.08 520.447 1114.31C597.802 1092.17 651.448 1055.9 698.434 1017.17C709.377 1008.07 720.349 999.508 730.978 991.1C762.2 966.588 792.871 944.8 838.118 931.478C864.298 923.808 894.097 917.819 928.646 914.793C1016.52 907.278 1078.67 931.099 1145.91 926.632C1154.87 925.993 1163.79 924.816 1172.68 923.103C1216.61 914.567 1259.76 892.075 1290.1 858.189C1326.39 817.371 1342.79 761.252 1335.22 708.37C1328.57 662.301 1307.46 619.203 1294.52 574.162C1272.54 497.053 1276.56 412.151 1308.09 336.736C1325.48 295.1 1351.18 257.168 1384.17 223.402C1443.99 162.141 1527.93 116.077 1623.16 85.9349C1676.83 68.9064 1733.67 58.0264 1791.27 54.2387" stroke="#D1DEFF" stroke-miterlimit="10"/>
<path d="M-380.66 1258.3C-306.148 1223.27 -180.746 1196.81 -62.3394 1196.32C-2.07433 1196.16 55.6448 1200.84 110.012 1202.35C165.61 1203.79 216.465 1202.4 269.456 1192.01C286.537 1188.62 303.213 1184.32 320.165 1178.65C383.977 1157.01 446.872 1137.85 518.811 1116.56C594.914 1094.09 649.72 1059.63 698.118 1024.05C709.457 1015.74 720.826 1007.96 731.852 1000.34C763.92 978.34 795.277 959.339 840.607 947.493C867.008 940.619 896.655 935.042 930.486 931.788C1017.08 923.537 1078.73 941.598 1142.96 933.532C1151.53 932.51 1160.07 930.816 1168.42 928.73C1210.12 918.166 1250.56 894.614 1278.77 860.445C1312.75 819.219 1327.77 763.716 1320.94 711.465C1315.01 665.626 1296.17 622.264 1285.16 576.98C1266.35 499.693 1272.68 415.064 1305.66 340.509C1323.94 299.092 1350.55 261.647 1383.93 228.532C1444.69 168.295 1528.86 123.295 1624.09 93.1529C1677.59 76.1343 1734.43 65.2543 1791.64 60.9496" stroke="#D1DEFF" stroke-miterlimit="10"/>
<path d="M-372.263 1269.67C-296.333 1241.02 -171.636 1217.7 -54.0154 1215.78C6.02855 1214.81 63.2979 1217.77 117.002 1216.9C171.944 1216.09 221.418 1212.08 273.241 1199.74C289.765 1195.84 306.235 1191.01 322.63 1184.83C384.762 1161.54 445.611 1140.47 517 1118.81C591.675 1096.02 647.641 1063.38 697.458 1031.09C709.194 1023.56 720.96 1016.57 732.382 1009.73C765.473 990.231 797.508 973.885 842.754 963.659C869.376 957.58 898.686 952.292 931.975 948.798C1017.29 939.677 1078.44 952.113 1139.65 940.448C1147.84 938.909 1156 936.698 1163.79 934.239C1203.27 921.647 1241 897.036 1267.08 862.583C1298.58 821.094 1312.4 766.197 1306.48 714.299C1301.44 668.678 1284.52 624.939 1275.61 579.536C1260.14 502.061 1268.6 417.716 1303.21 344.011C1322.39 302.812 1349.74 265.865 1383.67 233.257C1445.37 174.044 1529.77 130.108 1625.18 99.9553C1678.69 83.0709 1735.16 71.9423 1792.36 67.3693" stroke="#D1DEFF" stroke-miterlimit="10"/>
<path d="M-363.691 1281.04C-286.351 1258.64 -162.351 1238.58 -45.692 1235.23C13.9552 1233.48 70.9429 1234.57 123.999 1231.58C178.285 1228.52 226.37 1221.77 277.034 1207.6C293.168 1203.06 309.081 1197.72 325.101 1191.16C385.555 1166.21 444.364 1143.37 515.365 1121.06C588.794 1098.07 645.905 1066.98 697.149 1038.11C709.274 1031.23 721.444 1025.16 733.095 1019.25C767.033 1002.26 799.929 988.692 845.083 979.952C871.933 974.802 901.083 969.793 933.647 965.936C1017.69 956.079 1078.33 962.62 1136.52 947.491C1144.33 945.434 1151.94 942.851 1159.54 940C1196.79 925.513 1231.64 899.719 1255.94 864.963C1285.12 823.065 1297.57 768.919 1292.56 717.508C1288.24 672.116 1273.59 628.114 1266.44 582.478C1254.12 504.824 1265.07 420.743 1300.96 347.908C1321.22 307.052 1349.11 270.477 1383.79 238.501C1446.42 180.312 1531.07 137.44 1626.65 107.277C1679.98 90.4026 1736.28 79.2839 1793.27 74.1841" stroke="#D1DEFF" stroke-miterlimit="10"/>
<path d="M-355.126 1292.27C-276.369 1276.25 -153.08 1259.19 -37.2072 1254.41C22.2264 1252 78.7568 1251.23 130.974 1245.86C184.421 1240.42 231.301 1231.05 280.804 1215.06C296.549 1209.87 312.08 1204.01 327.551 1197.08C386.325 1170.47 443.088 1145.73 513.715 1123.03C585.892 1099.71 644.163 1070.44 696.642 1044.73C709.164 1038.64 721.548 1033.23 733.779 1028.23C768.739 1013.74 802.146 1002.97 847.383 995.707C874.454 991.353 903.451 986.755 935.472 982.66C1018.23 971.934 1078.2 972.858 1133.54 954.12C1140.98 951.547 1148.21 948.581 1155.25 945.222C1190.27 928.708 1222.42 901.855 1244.59 866.815C1271.28 824.519 1282.53 770.979 1278.44 720.189C1274.82 674.892 1262.46 630.627 1257.23 584.882C1248.25 506.905 1261.33 423.242 1298.69 351.267C1319.83 310.63 1348.65 274.677 1383.7 243.083C1447.27 185.918 1532.15 144.109 1627.74 114.081C1681.08 97.3409 1737.19 85.9637 1793.81 80.6153" stroke="#D1DEFF" stroke-miterlimit="10"/>
<path d="M-346.555 1303.63C-266.556 1294 -143.797 1280.07 -28.8851 1273.86C30.1518 1270.66 86.408 1268.16 137.962 1260.41C190.753 1252.72 236.427 1240.72 284.587 1222.79C299.951 1217.08 315.1 1210.7 330.014 1203.27C387.108 1175.01 441.833 1148.49 511.894 1125.16C582.651 1101.64 642.074 1074.06 696.148 1051.63C709.067 1046.32 721.848 1041.69 734.483 1037.62C770.29 1025.63 804.558 1017.64 849.71 1012C876.835 1008.58 905.847 1004.26 937.143 999.797C1018.62 988.335 1078.1 983.499 1130.41 961.162C1137.47 958.072 1144.33 954.723 1150.81 950.992C1183.61 932.449 1212.87 904.547 1233.09 869.213C1257.29 826.52 1267.35 773.72 1264.16 723.283C1261.26 678.215 1251.17 633.686 1247.7 587.708C1241.88 509.553 1257.44 426.154 1296.25 355.039C1318.3 314.621 1347.84 279.165 1383.46 248.212C1447.96 191.937 1533.09 151.326 1628.85 121.288C1682.02 104.558 1737.95 93.1903 1794.54 87.3051" stroke="#D1DEFF" stroke-miterlimit="10"/>
<path d="M-338.16 1315C-256.744 1311.76 -134.696 1300.83 -20.7383 1293.32C37.9018 1289.34 93.8764 1284.97 144.782 1275.1C196.91 1265.03 241.203 1250.41 288.203 1230.66C303.177 1224.3 317.769 1217.42 332.133 1209.61C387.548 1179.69 440.227 1151.28 509.914 1127.56C579.426 1103.85 640.001 1077.95 695.311 1058.67C708.619 1054.02 721.805 1050.31 734.661 1047.03C771.314 1037.56 806.444 1032.34 851.504 1028.19C878.85 1025.57 907.701 1021.52 938.279 1016.83C1018.48 1004.5 1077.46 994.035 1126.74 967.966C1133.42 964.493 1139.89 960.493 1146.01 956.379C1176.57 935.808 1203.13 906.847 1221.39 871.219C1243.28 828.118 1251.98 776.068 1249.69 726.119C1247.69 681.269 1239.51 636.363 1238.15 590.266C1235.66 511.923 1253.36 428.807 1293.63 358.552C1316.57 318.353 1346.85 283.394 1383.02 252.949C1448.46 197.698 1533.82 158.15 1629.77 128.102C1682.93 111.506 1738.5 99.89 1794.9 93.6122" stroke="#D1DEFF" stroke-miterlimit="10"/>
<path d="M-329.588 1326.36C-246.754 1329.5 -125.234 1321.7 -12.2463 1312.63C46.1802 1307.99 101.697 1301.76 151.94 1289.51C203.236 1277.19 246.324 1259.95 292.156 1238.25C306.748 1231.37 320.952 1223.84 334.765 1215.65C388.325 1184.09 439.141 1153.9 508.264 1129.53C576.523 1105.49 638.259 1081.41 694.988 1065.42C708.692 1061.55 722.274 1058.63 735.528 1056.13C773.203 1049.16 808.79 1045.81 853.986 1044.07C881.591 1042.91 910.076 1038.61 940.104 1033.55C1019.03 1020.49 1077.32 1004.14 1123.77 974.595C1130.07 970.605 1135.99 966.232 1141.73 961.736C1170.06 939.136 1193.92 909.116 1210.05 873.206C1229.45 829.706 1236.94 778.262 1235.57 728.935C1234.29 684.313 1228.38 639.011 1228.77 592.814C1229.45 514.293 1249.63 431.441 1291.18 361.921C1315.18 321.932 1346.03 287.614 1382.76 257.675C1449.14 203.448 1534.74 164.964 1630.69 135.05C1683.68 118.464 1739.25 106.848 1795.27 100.188" stroke="#D1DEFF" stroke-miterlimit="10"/>
<path d="M-321.015 1337.73C-236.764 1347.24 -115.964 1342.31 -3.92239 1332.09C54.0998 1326.53 109.519 1318.55 158.937 1304.19C209.57 1289.49 251.277 1269.63 295.949 1246.11C310.152 1238.58 323.805 1230.67 337.238 1221.97C389.11 1188.62 438.071 1156.78 506.636 1131.92C573.474 1107.68 636.546 1085.41 694.679 1072.44C708.781 1069.36 722.759 1067.22 736.417 1065.64C774.939 1061.18 811.449 1061.68 856.667 1060.34C884.47 1059.58 912.817 1055.96 942.135 1050.81C1019.78 1036.87 1077.58 1014.89 1121 981.752C1126.92 977.245 1132.46 972.49 1137.65 967.62C1163.76 943.127 1184.74 911.923 1198.91 875.719C1216 831.812 1222.13 781.118 1221.48 732.153C1221.08 687.617 1217.11 642.205 1219.59 595.621C1223.26 516.931 1245.92 434.343 1289.1 365.674C1314 325.903 1345.75 292.072 1382.87 262.785C1450.19 209.582 1535.84 172.037 1632.15 142.238C1685.15 125.786 1740.35 113.921 1796.35 106.858" stroke="#D1DEFF" stroke-miterlimit="10"/>
<path d="M-312.619 1349.1C-226.95 1365 -106.855 1363.2 4.39321 1351.41C62.2019 1345.19 117.163 1335.35 165.918 1318.6C215.896 1301.65 256.397 1279.17 299.718 1253.57C313.54 1245.52 326.804 1236.97 339.686 1227.89C389.879 1192.89 436.802 1159.28 504.977 1133.76C570.571 1109.33 634.795 1088.74 694.171 1079.06C708.67 1076.77 723.053 1075.55 737.1 1074.62C776.43 1072 813.84 1075.95 858.966 1076.09C886.99 1076.13 915.184 1072.92 943.777 1067.41C1020.13 1052.6 1077.26 1024.87 1117.84 988.257C1123.38 983.233 1128.54 977.961 1133.36 972.709C1157.06 946.197 1175.51 913.925 1187.73 877.427C1202.33 833.256 1207.26 783.169 1207.52 734.691C1207.84 690.383 1206.14 644.574 1210.38 597.891C1217.38 519.013 1242.35 436.698 1286.81 368.899C1312.61 329.481 1345.09 296.013 1382.77 267.233C1450.85 215.064 1536.91 178.573 1633.4 148.764C1686.23 132.456 1741.25 120.467 1797.05 113.011" stroke="#D1DEFF" stroke-miterlimit="10"/>
<path d="M-304.048 1360.46C-217.145 1382.62 -97.5701 1384.09 12.7162 1370.86C70.128 1363.86 124.808 1352.15 172.915 1333.29C222.053 1313.96 261.349 1288.85 303.51 1261.44C316.942 1252.74 329.649 1243.67 342.157 1234.22C390.67 1197.56 435.547 1162.04 503.173 1136.15C567.514 1111.38 632.906 1092.75 693.686 1086.09C708.573 1084.44 723.354 1084.02 737.637 1084.15C778.019 1084.57 815.909 1090.77 861.118 1092.4C889.371 1093.36 917.405 1090.43 945.272 1084.55C1020.35 1068.88 1076.98 1035.53 1114.54 995.309C1119.69 989.769 1124.48 984.113 1128.75 978.488C1150.23 949.949 1165.97 916.617 1176.05 879.836C1188.17 835.266 1191.9 785.785 1193.08 737.929C1194.11 693.85 1194.69 647.778 1200.85 600.852C1211.02 521.795 1238.47 439.878 1284.21 372.815C1311.08 333.606 1344.12 300.645 1382.54 272.496C1451.56 221.351 1537.86 185.924 1634.34 156.114C1687.18 139.806 1742.01 127.693 1797.43 119.855" stroke="#D1DEFF" stroke-miterlimit="10"/>
<path d="M-295.483 1371.69C-207.162 1400.23 -88.2993 1404.7 21.0328 1390.18C78.0479 1382.39 132.454 1368.95 179.897 1347.7C228.38 1326.12 266.47 1298.39 307.288 1269.03C320.338 1259.81 332.48 1250.11 344.615 1240.27C391.265 1201.83 434.286 1164.67 501.523 1138.13C564.619 1113.16 630.958 1095.69 693.187 1092.85C708.479 1092.12 723.641 1092.21 738.328 1093.27C779.557 1096.19 818.316 1105.31 863.426 1108.29C891.732 1110.19 919.597 1107.41 946.922 1101.29C1020.72 1084.87 1076.67 1045.64 1111.39 1001.95C1116.17 996.024 1120.4 989.862 1124.29 983.72C1143.53 953.152 1156.4 918.772 1164.53 881.696C1174.33 836.719 1176.69 787.988 1178.77 740.485C1180.7 696.625 1183.19 650.175 1191.46 603.13C1204.97 523.885 1234.73 442.243 1281.93 376.04C1309.69 337.049 1343.64 304.71 1382.44 276.944C1452.4 226.822 1538.93 192.459 1635.6 162.774C1688.27 146.61 1742.91 134.373 1798.31 125.997" stroke="#D1DEFF" stroke-miterlimit="10"/>
<path d="M-286.91 1383.06C-197.172 1417.98 -79.0137 1425.58 29.5248 1409.49C86.3264 1401.04 140.267 1385.61 187.062 1362.24C234.882 1338.27 271.591 1307.93 311.248 1276.75C323.734 1266.89 335.678 1256.79 347.255 1246.45C392.225 1206.35 433.384 1167.41 499.888 1140.37C561.739 1115.21 629.268 1100.09 692.878 1099.87C708.559 1099.79 723.95 1100.81 739.217 1102.77C781.461 1108.06 820.738 1120.12 865.931 1124.57C894.466 1127.4 922.171 1124.9 948.777 1118.55C1021.3 1101.27 1076.57 1056.41 1108.45 1009.12C1112.84 1002.67 1116.7 996.13 1120.04 989.615C1137.06 957.019 1147.22 921.579 1153.22 884.22C1160.53 838.845 1161.87 790.845 1164.68 743.839C1167.5 700.063 1172.09 653.36 1182.12 606.216C1198.79 526.793 1231.04 445.548 1279.51 380.08C1308.35 341.433 1342.86 309.467 1382.21 282.342C1453.11 233.244 1539.88 199.944 1636.73 170.249C1689.22 154.095 1743.69 141.868 1798.89 133.1" stroke="#D1DEFF" stroke-miterlimit="10"/>
<path d="M-278.515 1394.43C-187.359 1435.73 -69.905 1446.47 37.6718 1428.96C94.0766 1419.72 147.743 1402.55 193.875 1376.8C240.863 1350.59 276.367 1317.62 314.857 1284.49C326.961 1274.11 338.339 1263.37 349.542 1252.65C392.658 1210.91 431.961 1170.32 498.076 1142.63C558.689 1117.4 627.195 1103.98 692.21 1106.77C708.288 1107.48 724.075 1109.28 739.563 1112.04C782.646 1119.71 822.8 1134.81 867.893 1140.61C896.656 1144.37 924.193 1142.01 950.082 1135.44C1021.31 1117.15 1075.92 1066.68 1104.95 1015.91C1108.97 1008.95 1112.44 1001.89 1115.4 994.991C1130.2 960.501 1137.65 923.868 1141.7 886.216C1146.69 840.433 1146.66 793.049 1150.39 746.664C1153.93 703.117 1160.79 656.151 1172.75 608.764C1192.75 529.018 1227.31 448.181 1277.07 383.584C1306.8 345.155 1342.03 313.686 1381.95 287.068C1453.79 238.995 1540.8 206.758 1637.64 177.063C1690.14 161.044 1744.42 148.558 1799.24 139.407" stroke="#D1DEFF" stroke-miterlimit="10"/>
<path d="M-269.941 1405.79C-128.726 1478.46 69.3879 1472.53 200.866 1391.35C247.191 1362.75 281.313 1327.17 318.643 1292.22C376.055 1238.36 413.84 1180.23 496.258 1144.75C570.242 1112.85 660.438 1102.78 740.263 1121.29C784.368 1131.46 825.032 1149.36 870.208 1156.64C990.255 1175.85 1083.73 1080.11 1110.96 1000.63C1138.82 919.629 1127.62 833.566 1136.11 749.758C1147.72 633.734 1192.78 489.034 1274.63 387.222C1360.77 280.186 1487.84 230.208 1638.75 184.27C1691.07 168.26 1745.18 155.784 1799.98 146.231" stroke="#D1DEFF" stroke-miterlimit="10"/>
</g>
</svg>
