<svg width="1440" height="805" viewBox="0 0 1440 805" fill="none" xmlns="http://www.w3.org/2000/svg">
<g opacity="0.1">
<path d="M-78.0321 757.172C-9.50072 776.097 65.3327 772.062 131.249 745.618C209.643 714.236 272.544 654.112 328.918 591.63C385.292 529.148 438.124 462.316 505.192 411.42C572.394 360.517 657.879 326.296 741.065 341.113C793.243 350.432 841.054 378.248 893.65 385.028C1060.05 406.438 1200.56 216.302 1366.15 243.319C1436.88 254.852 1495.62 305.118 1565.16 322.804C1656.09 346.024 1759.85 305.012 1809.85 226.107" stroke="white" stroke-width="1.05933" stroke-miterlimit="10"/>
<path d="M-84.129 744.96C-26.1698 757.868 36.9034 756.887 95.4822 742.451C106.989 739.679 118.333 736.251 129.391 732.439C174.934 716.599 215.297 692.771 251.621 665.412C279.415 644.536 304.978 621.639 329.825 597.714C344.426 583.664 359.008 569.217 373.973 554.355C408.107 520.066 442.508 482.848 478.668 448.998C489.053 439.249 499.59 429.89 510.278 420.923C537.066 398.501 566.383 378.75 597.259 363.835C640.959 342.775 687.903 331.248 735.49 336.667C786.17 342.476 833.811 366.589 886.766 372.429C894.694 373.266 902.47 373.712 910.235 373.893C960.551 374.68 1008.31 360.465 1055.64 339.903C1131.16 307.068 1205.13 257.727 1282.16 240.339C1308.63 234.375 1335.41 232.242 1362.99 235.775C1417.87 242.854 1465.87 271.99 1517.25 292.886C1532.37 298.969 1547.87 304.504 1563.82 308.295C1655.65 330.818 1759.38 294.858 1809.24 224.456" stroke="white" stroke-width="1.05933" stroke-miterlimit="10"/>
<path d="M-90.2184 732.883C-31.4517 742.974 32.9148 741.013 92.7691 728.116C104.556 725.598 116.057 722.695 127.401 719.269C173.837 705.383 215.154 684.832 251.807 661.706C279.742 643.877 305.209 624.701 330.736 603.93C345.69 591.723 360.753 578.98 376.568 565.143C412.561 533.428 448.662 495.343 484.485 459.922C494.719 449.783 504.966 439.909 515.491 430.287C541.419 406.581 569.057 385.186 598.115 368.5C639.432 345.032 683.546 330.057 729.78 332.225C778.824 334.399 826.574 355.062 879.754 359.968C887.676 360.673 895.586 361.114 903.478 361.157C954.196 361.93 1002.08 350.499 1049.9 331.778C1126.24 302.096 1201.57 253.366 1278.94 234.644C1305.4 228.285 1332.42 225.481 1359.95 228.091C1414.88 233.316 1463.56 259.639 1515.67 279.046C1531.04 284.721 1546.65 289.854 1562.74 293.641C1655.33 315.341 1759.17 284.69 1809.02 222.651" stroke="white" stroke-width="1.05933" stroke-miterlimit="10"/>
<path d="M-96.307 720.807C-36.7387 727.95 28.9334 725.273 90.1966 713.91C102.262 711.646 114.049 709.129 125.551 706.227C173.008 694.156 215.285 677.014 252.127 657.994C280.209 643.345 305.707 627.75 331.642 610.014C346.815 599.655 362.624 588.605 379.156 575.799C416.873 546.663 454.943 507.699 490.162 470.719C500.245 460.191 510.328 449.662 520.436 439.663C545.498 414.541 571.464 391.633 598.837 373.17C637.633 347.168 678.976 327.15 723.932 327.656C771.296 328.185 819.065 343.415 872.604 347.381C880.52 347.954 888.558 348.257 896.456 348.433C947.575 349.193 995.59 340.545 1043.77 323.801C1120.92 297.274 1197.49 249.293 1275.48 229.225C1302.05 222.466 1329.04 219.003 1356.66 220.683C1411.78 224.047 1460.99 247.565 1513.7 265.49C1529.19 270.763 1545.05 275.621 1561.27 279.27C1654.77 300.273 1758.58 274.673 1808.42 221.128" stroke="white" stroke-width="1.05933" stroke-miterlimit="10"/>
<path d="M-102.398 708.597C-42.1608 712.798 24.9504 709.399 87.4828 699.443C99.7005 697.571 111.767 695.308 123.56 692.924C172.043 682.801 215.146 669.074 252.304 654.021C280.532 642.55 306.055 630.404 332.409 615.967C347.934 607.45 364.224 598.104 381.606 586.322C421.175 559.627 460.952 519.929 495.84 481.511C505.899 470.454 515.565 459.548 525.376 448.9C549.579 422.494 574 397.935 599.554 377.7C635.836 349.295 674.433 327.682 718.22 323.072C763.869 318.247 811.82 331.615 865.59 334.779C873.634 335.215 881.672 335.518 889.564 335.563C941.084 336.309 989.227 330.443 1037.89 315.539C1115.85 292.033 1193.67 244.8 1272.13 223.393C1298.81 216.234 1325.77 212.111 1353.35 212.866C1408.66 214.503 1458.41 235.083 1511.72 251.659C1527.46 256.524 1543.45 261.112 1559.79 264.624C1654.2 284.931 1758.11 264.506 1807.66 219.333" stroke="white" stroke-width="1.05933" stroke-miterlimit="10"/>
<path d="M-108.486 696.524C-47.4469 697.777 21.0975 693.525 84.7776 685.247C97.2746 683.628 109.626 681.751 121.711 679.886C171.22 671.711 215.276 661.259 252.623 650.312C280.997 642.019 306.417 633.46 333.451 622.178C349.328 615.503 366.091 607.728 384.329 597.104C425.622 572.988 467.24 532.55 501.785 492.428C511.694 480.982 521.203 469.554 530.59 458.396C553.8 430.712 576.676 404.501 600.413 382.494C634.173 351.555 669.952 326.757 712.509 318.627C756.528 310.299 804.45 320.092 858.579 322.316C866.617 322.62 874.782 322.786 882.814 322.958C934.735 323.69 983 320.475 1032.16 307.675C1110.93 287.057 1190.12 240.7 1268.93 218.092C1295.73 210.532 1322.66 205.75 1350.34 205.576C1405.82 205.353 1456.12 223.128 1510.16 238.216C1526.15 242.673 1542.26 246.992 1558.86 250.361C1654.04 269.977 1758.05 254.596 1807.59 217.914" stroke="white" stroke-width="1.05933" stroke-miterlimit="10"/>
<path d="M-114.567 684.462C-52.8535 682.905 17.1239 677.799 82.2061 670.922C94.9823 669.557 107.625 668.198 119.855 666.593C170.257 660.37 215.265 653.194 252.934 646.345C281.581 641.091 307.037 636.245 334.35 628.134C350.579 623.301 367.821 617.23 386.909 607.63C430.053 585.954 473.378 544.782 507.592 503.221C517.345 491.252 526.702 479.434 535.66 467.634C558.004 438.533 579.202 410.676 601.26 387.023C632.639 353.675 665.326 325.571 706.927 314.04C749.188 302.346 797.342 308.42 851.696 309.71C859.862 309.877 867.894 310.049 876.053 310.083C928.509 310.795 976.767 310.368 1026.28 299.412C1105.86 281.946 1186.3 236.336 1265.57 212.255C1292.35 204.168 1319.53 198.848 1347.16 197.749C1402.83 195.666 1453.66 210.635 1508.31 224.242C1524.41 228.297 1540.77 232.208 1557.51 235.572C1653.59 254.491 1757.57 244.29 1807.09 215.834" stroke="white" stroke-width="1.05933" stroke-miterlimit="10"/>
<path d="M-120.66 672.296C-58.1434 667.791 13.1394 661.968 79.4961 656.629C92.5515 655.518 105.346 654.551 117.867 653.463C169.294 649.186 215.122 645.291 253.111 642.54C281.903 640.464 307.394 639.329 335.114 634.251C351.694 631.26 369.416 626.892 389.359 618.448C434.227 599.35 479.387 557.305 513.264 514.171C522.998 501.807 531.926 489.346 540.599 477.161C562.084 446.775 581.603 417.272 601.843 391.846C630.567 355.967 660.57 324.672 700.947 309.751C741.451 294.692 789.697 296.92 844.416 297.401C852.576 297.436 860.735 297.471 869.034 297.632C921.897 298.461 970.276 300.683 1020.29 291.697C1100.67 277.249 1182.48 232.38 1262.1 207.096C1289 198.608 1316.14 192.628 1343.87 190.598C1399.72 186.655 1451.09 198.819 1506.34 210.943C1522.69 214.59 1539.17 218.232 1556.04 221.458C1653.02 239.679 1756.97 234.524 1806.34 214.563" stroke="white" stroke-width="1.05933" stroke-miterlimit="10"/>
<path d="M-126.739 660.285C-63.4198 652.83 9.16219 646.157 76.7929 642.355C90.1334 641.629 103.207 640.915 115.886 640.351C168.338 638.02 215.117 637.398 253.16 638.756C282.09 639.723 307.617 642.3 335.876 640.249C352.808 639.098 371.002 636.301 391.801 629.013C438.519 612.354 485.385 569.572 518.924 524.865C528.502 511.978 537.278 499.126 545.521 486.299C566.14 454.494 583.986 423.476 602.541 396.27C628.744 357.854 655.8 323.51 695.208 304.922C733.828 286.634 782.433 285.004 837.511 284.544C845.665 284.446 853.958 284.475 862.256 284.637C915.52 285.45 964.026 290.452 1014.39 283.309C1095.58 272.01 1178.63 227.885 1258.73 201.125C1285.74 192.236 1312.85 185.595 1340.67 182.635C1396.57 176.835 1448.48 186.061 1504.61 196.955C1521.07 200.2 1537.81 203.565 1554.79 206.522C1652.54 223.917 1756.6 224.064 1805.95 212.457" stroke="white" stroke-width="1.05933" stroke-miterlimit="10"/>
<path d="M-132.842 648.619C-68.8577 638.209 5.15981 630.798 74.1956 628.515C87.6812 628.046 101.045 627.848 114.143 627.662C167.612 627.133 215.214 629.916 253.576 635.364C282.651 639.503 308.207 645.655 336.876 646.763C354.159 647.45 372.832 646.353 394.478 640.084C442.916 625.993 491.749 582.451 524.677 536.173C534.101 522.892 542.719 509.516 550.536 496.175C570.157 463.084 586.453 430.407 603.319 401.416C627.134 360.581 651.239 323.181 689.409 300.93C726.273 279.399 774.969 273.913 830.398 272.37C838.679 272.133 846.965 272.029 855.398 272.183C909.06 272.972 957.686 280.614 1008.54 275.562C1090.54 267.265 1174.82 223.866 1255.39 195.88C1282.38 186.589 1309.73 179.271 1337.37 175.387C1393.46 167.715 1445.9 174.126 1502.63 183.528C1519.34 186.23 1536.2 189.455 1553.45 192.266C1652.1 208.946 1756.12 214.118 1805.45 210.99" stroke="white" stroke-width="1.05933" stroke-miterlimit="10"/>
<path d="M-138.951 636.845C-74.1678 623.471 1.15115 615.327 71.4522 614.435C85.2164 614.217 98.8653 614.402 112.12 614.737C166.612 616.143 215.031 622.196 253.714 631.735C282.933 639.046 308.525 648.905 337.599 653.04C355.367 655.56 374.384 656.167 396.879 650.918C447.029 639.259 497.695 594.962 530.278 547.098C539.683 533.419 547.874 519.528 555.399 505.668C574.155 471.284 588.768 436.953 603.811 406.182C625.098 362.802 646.251 322.344 683.313 296.422C718.562 271.775 767.335 262.167 822.993 259.809C831.267 259.438 839.687 259.327 848.119 259.48C902.181 260.242 950.933 270.656 1002.28 267.563C1085.09 262.399 1170.72 219.586 1251.63 190.243C1278.73 180.545 1306.05 172.56 1333.78 167.739C1390.04 158.194 1443.03 161.789 1500.36 169.698C1517.18 171.995 1534.3 174.809 1551.67 177.611C1651.23 193.574 1755.21 203.903 1804.39 209.127" stroke="white" stroke-width="1.05933" stroke-miterlimit="10"/>
<path d="M-145.051 625.222C-79.5982 609.021 -2.85705 599.872 68.7213 600.635C82.7701 600.799 96.5641 601.241 110.109 602.091C165.491 605.437 214.995 614.75 253.865 628.386C283.224 638.736 308.985 652.297 338.471 659.592C356.59 663.949 376.213 666.117 399.428 662.025C451.426 652.794 503.79 607.744 536.028 558.294C545.273 544.089 553.305 529.672 560.537 515.292C578.422 479.482 591.357 443.629 604.71 411.072C623.475 365.277 641.815 321.889 677.764 292.162C711.262 264.403 760.118 250.804 816.131 247.493C824.533 246.983 832.946 246.737 841.511 246.883C896.105 247.613 944.85 260.805 996.544 259.544C1080.16 257.511 1167.03 215.42 1248.4 184.714C1275.62 174.607 1302.9 165.824 1330.72 160.198C1387.17 148.778 1440.7 149.556 1498.76 156.097C1515.83 157.982 1533.07 160.523 1550.57 163.184C1650.9 178.435 1754.97 193.783 1804.14 207.486" stroke="white" stroke-width="1.05933" stroke-miterlimit="10"/>
<path d="M-151.151 613.604C-84.9019 594.437 -6.86044 584.552 66.1165 586.699C80.4437 587.113 94.5224 587.937 108.225 589.309C164.63 594.589 214.952 607.173 254.143 624.9C283.641 638.291 309.445 655.693 339.338 666.016C357.814 672.344 377.91 676.079 401.973 673.005C455.685 666.206 509.88 620.396 541.779 569.492C550.871 554.892 558.744 539.949 565.549 525.054C582.435 487.956 593.952 450.437 605.482 416.099C621.858 367.884 637.379 321.432 671.947 287.912C703.827 257.034 752.765 239.443 809 235.183C817.395 234.539 825.942 234.287 834.507 234.431C889.499 235.134 938.371 251.098 990.555 251.795C1075.11 252.756 1163.07 211.392 1244.91 179.321C1272.11 168.811 1299.49 159.354 1327.41 152.791C1384.03 139.495 1438.09 137.455 1496.76 142.501C1514.08 143.975 1531.43 146.242 1549.07 148.763C1650.29 163.295 1754.46 183.794 1803.48 205.852" stroke="white" stroke-width="1.05933" stroke-miterlimit="10"/>
<path d="M-157.253 601.855C-90.341 579.726 -10.8663 569.098 63.3817 572.766C77.9874 573.431 92.3567 574.77 106.344 576.524C163.773 583.739 215.04 599.456 254.432 621.546C284.076 638.11 309.917 659.222 340.21 672.44C359.038 680.607 379.607 685.91 404.524 683.985C459.955 679.751 515.977 633.048 547.529 580.555C556.595 565.422 564.047 550.097 570.554 534.549C586.568 496.023 596.408 456.981 606.114 420.863C619.962 370.1 632.808 320.842 666.128 283.522C696.396 249.656 745.269 227.813 801.865 222.73C810.254 221.952 818.928 221.56 827.492 221.702C882.888 222.51 931.881 241.115 984.548 243.638C1069.91 247.731 1159.24 206.947 1241.41 173.649C1268.72 162.597 1296.21 152.599 1323.94 145.109C1380.74 129.937 1435.34 125.077 1494.61 128.628C1512.04 129.695 1529.65 131.683 1547.54 134.056C1649.67 147.868 1753.81 173.394 1802.81 203.936" stroke="white" stroke-width="1.05933" stroke-miterlimit="10"/>
<path d="M-163.347 590.239C-95.6402 565.141 -14.8723 553.642 60.6465 558.832C75.5368 559.879 90.0511 561.474 104.329 563.744C162.775 572.76 214.867 591.882 254.581 618.066C284.365 637.672 310.251 662.627 341.083 678.869C360.136 689.013 381.311 695.877 407.076 694.971C464.355 693.163 522.08 645.834 553.153 591.758C562.066 576.23 569.359 560.378 575.439 544.316C590.588 504.494 598.744 463.797 606.76 425.892C618.085 372.713 628.252 320.516 660.189 279.401C688.973 242.408 737.792 216.576 794.61 210.544C803.125 209.627 811.665 209.238 820.496 209.368C876.29 210.147 925.41 231.527 978.433 236.014C1064.61 243.239 1155.16 203.174 1237.8 168.376C1265.22 156.915 1292.67 146.248 1320.5 137.82C1377.47 120.638 1432.61 113.09 1492.62 115.271C1510.3 115.926 1528.15 117.502 1546.05 119.872C1648.93 132.838 1753.17 163.65 1802.03 202.552" stroke="white" stroke-width="1.05933" stroke-miterlimit="10"/>
<path d="M-169.438 578.626C-100.931 550.688 -18.7366 538.312 58.0529 545.023C73.0881 546.327 88.0205 548.299 102.456 551.089C161.792 562.046 214.963 584.296 254.872 614.714C284.93 637.356 310.593 666.169 341.966 685.434C361.371 697.418 383.019 705.85 409.644 706.226C468.637 706.85 528.327 658.75 558.921 603.09C567.68 587.167 574.674 570.661 580.461 554.078C594.739 512.828 601.216 470.607 607.543 430.914C616.473 375.181 623.826 320.05 654.38 275.138C681.546 235.024 730.311 205.202 787.483 198.213C795.992 197.162 804.658 196.633 813.489 196.761C869.814 197.507 918.928 221.667 972.434 227.981C1059.41 238.206 1151.33 198.852 1234.3 162.824C1261.84 150.953 1289.26 139.618 1317.17 130.25C1374.19 111.196 1430 100.82 1490.6 101.503C1508.4 101.752 1526.51 103.048 1544.52 105.145C1648.31 117.389 1752.51 153.231 1801.35 200.489" stroke="white" stroke-width="1.05933" stroke-miterlimit="10"/>
<path d="M-175.534 566.868C-106.367 535.964 -22.7407 522.842 55.3132 530.942C70.6268 532.496 85.7164 534.989 100.436 538.163C160.795 551.054 214.785 576.579 254.884 611.1C285.089 636.918 310.79 669.445 342.57 691.741C362.327 705.565 384.454 715.697 411.927 717.092C472.635 720.148 534.155 671.283 564.403 614.031C573.136 597.574 579.844 580.68 585.205 563.581C598.483 521.041 603.544 477.151 607.914 435.682C614.322 377.533 619.129 319.457 648.3 270.747C673.987 227.637 722.686 193.558 780.218 185.746C788.853 184.554 797.519 184.024 806.483 184.144C863.205 184.861 912.453 211.93 966.309 220.077C1054.1 233.569 1147.24 194.799 1230.68 157.27C1258.19 144.995 1285.84 132.979 1313.71 122.678C1370.91 101.744 1427.26 88.5458 1488.45 87.7313C1506.49 87.5678 1524.72 88.59 1542.86 90.5452C1647.55 102.069 1751.72 143.074 1800.55 198.692" stroke="white" stroke-width="1.05933" stroke-miterlimit="10"/>
<path d="M-181.618 555.238C-111.657 521.36 -26.7389 507.365 52.7248 517.113C68.3229 519.05 83.6907 521.793 98.6951 525.35C160.077 540.177 215.019 568.97 255.308 607.596C285.653 636.459 311.393 672.702 343.714 698.024C363.829 713.821 386.423 725.389 414.75 727.935C477.305 733.417 540.522 683.791 570.431 625.079C579.011 608.227 585.559 590.805 590.488 573.059C602.902 529.221 606.279 483.675 608.959 440.418C612.839 379.719 615.106 318.829 642.756 266.193C667.09 219.949 715.467 181.888 773.347 172.986C781.975 171.66 790.768 170.99 799.731 171.109C856.851 171.798 906.226 201.644 960.566 211.619C1049.17 228.246 1143.53 190.059 1227.44 151.293C1255.06 138.607 1282.68 125.79 1310.51 114.688C1367.87 91.7415 1424.76 75.8516 1486.69 73.5325C1504.84 72.83 1523.33 73.7044 1541.6 75.5181C1647.05 86.3263 1751.32 132.492 1800 196.479" stroke="white" stroke-width="1.05933" stroke-miterlimit="10"/>
<path d="M-187.574 543.597C-116.953 506.751 -30.6042 492.009 50.1236 503.147C65.9999 505.334 81.5189 508.467 96.8139 512.539C159.219 529.302 214.98 561.372 255.592 604.097C286.217 636.134 311.862 676.1 344.59 704.455C365.058 722.094 388.125 735.231 417.306 738.928C481.569 746.711 546.629 696.581 576.186 636.145C584.607 618.765 590.869 600.953 595.505 582.686C607.048 537.418 608.748 490.349 609.606 445.309C610.965 382.193 610.813 318.217 636.953 261.921C659.802 212.547 708.118 170.359 766.224 160.639C774.846 159.179 783.771 158.501 792.867 158.612C850.384 159.273 899.886 191.898 954.716 203.834C1044.13 223.597 1139.85 185.989 1224.22 145.852C1251.96 132.757 1279.54 119.27 1307.46 107.228C1364.87 82.4078 1422.42 63.5545 1484.95 60.0017C1503.35 58.8863 1521.96 59.3543 1540.49 61.153C1646.83 71.24 1751.07 122.442 1799.75 194.928" stroke="white" stroke-width="1.05933" stroke-miterlimit="10"/>
<path d="M-193.667 531.824C-122.247 492.133 -34.6067 476.518 47.391 489.178C63.5455 491.616 79.3551 495.264 94.8012 499.726C158.096 518.431 214.942 553.767 255.743 600.6C286.516 635.817 312.066 679.508 345.335 710.892C366.021 730.379 389.701 745.213 419.73 749.927C485.846 760.271 552.598 709.246 581.816 647.349C590.217 629.566 596.18 611.101 600.39 592.318C611.068 545.752 611.079 496.893 610.255 450.197C609.087 384.531 606.396 317.741 631.014 257.518C652.512 205.007 700.505 158.835 758.964 148.158C767.713 146.557 776.632 145.745 785.727 145.854C843.647 146.62 893.271 181.892 948.456 195.796C1038.68 218.564 1135.63 181.805 1220.47 140.298C1248.18 126.798 1275.87 112.635 1303.87 99.6528C1361.46 72.9513 1419.54 51.2718 1482.67 46.2198C1501.32 44.6914 1520.04 44.8852 1538.7 46.5425C1645.94 55.9079 1750.28 112.275 1798.81 193.137" stroke="white" stroke-width="1.05933" stroke-miterlimit="10"/>
<path d="M-199.755 520.175C-127.675 477.513 -38.6045 461.15 44.7902 475.196C61.0956 478.022 77.3169 481.915 92.9202 486.899C157.232 507.409 214.902 546.156 256.027 597.094C286.94 635.36 312.535 682.903 346.344 717.316C367.389 738.778 391.676 755.176 422.419 760.916C490.249 773.694 558.831 721.9 587.571 658.415C595.819 640.237 601.623 621.244 605.541 601.939C615.215 553.949 613.683 503.559 611.17 455.074C607.616 386.985 602.374 317.114 625.348 253.234C645.495 197.586 693.3 147.423 751.979 135.795C760.721 134.06 769.773 133.24 779.001 133.342C837.45 134.074 887.068 172.133 942.737 187.867C1033.77 213.774 1132.08 177.594 1217.25 134.854C1245.08 120.943 1272.73 106.111 1300.83 92.1885C1358.59 63.6055 1417.21 39.0992 1481.07 32.5415C1499.82 30.606 1518.8 30.5194 1537.59 32.0354C1645.59 40.5531 1750.03 102.088 1798.42 191.462" stroke="white" stroke-width="1.05933" stroke-miterlimit="10"/>
<path d="M-205.841 508.518C-132.969 462.878 -42.6075 445.641 42.0565 461.21C126.721 476.779 204.747 525.066 256.176 593.588C306.61 660.828 342.466 753.852 424.84 771.918C494.517 787.125 564.929 734.561 593.191 669.488C621.454 604.416 617.76 530.477 611.679 459.836C605.599 389.196 597.947 316.371 619.411 248.827C640.876 181.283 700.582 119.789 771.862 120.576C830.708 121.281 880.454 162.123 936.612 179.82C1028.44 208.735 1127.99 173.271 1213.63 129.16C1299.27 85.0484 1383.23 30.6557 1478.78 18.7543C1606.64 2.95322 1740.69 74.7874 1797.47 189.545" stroke="white" stroke-width="1.05933" stroke-miterlimit="10"/>
<path d="M-206.295 501.14C-134.099 455.164 -44.5649 437.195 39.7719 451.335C72.1108 456.87 103.591 466.959 133.127 481.255C180.44 504.153 222.495 537.651 254.744 578.775C294.657 629.502 325.925 695.634 375.476 732.236C389.87 742.854 405.748 750.879 423.868 755.349C492.163 772.359 560.671 724.694 591.385 663.384C614.625 616.761 620.957 562.956 620.734 509.058C620.724 491.532 620.042 473.904 619.238 456.547C615.962 385.795 611.242 312.72 634.58 245.113C657.439 178.723 716.536 118.351 787.247 118.253C845.656 118.062 895.705 156.766 951.589 174.219C1043.02 202.901 1140.65 172.208 1224.41 133.528C1233.84 129.239 1243.12 124.692 1252.41 120.277C1326.55 84.5673 1400.28 45.8224 1483.49 38.5043C1504.52 36.5977 1525.94 37.1961 1547.04 39.6681C1651.37 52.4809 1752.45 116.564 1801.2 205.121" stroke="white" stroke-width="1.05933" stroke-miterlimit="10"/>
<path d="M-206.746 493.627C-135.226 447.314 -46.5261 428.482 37.4891 441.326C69.6725 446.344 101.13 455.908 130.638 469.545C177.91 491.52 220.312 523.809 253.179 563.84C293.83 613.201 325.963 677.822 375.134 714.843C389.262 725.473 404.886 733.778 422.632 738.799C489.677 757.604 556.414 714.831 589.174 657.167C614.41 613.125 623.699 559.598 625.747 505.61C626.406 488.057 626.525 470.397 626.39 453.014C626.047 382.012 624.266 308.819 649.351 241.289C673.479 176.192 732.101 116.935 802.096 115.692C860.066 114.607 910.28 151.048 966.028 168.384C1056.91 196.708 1152.77 170.907 1234.79 137.649C1243.97 133.906 1253.16 130.163 1262.21 126.294C1334.58 95.6053 1406.43 62.1532 1487.92 57.9903C1508.59 56.9025 1529.5 58.0604 1550.23 61.2176C1652.94 76.5168 1754.36 139 1804.66 220.57" stroke="white" stroke-width="1.05933" stroke-miterlimit="10"/>
<path d="M-207.058 486.237C-136.34 439.726 -48.3412 420.024 35.346 431.442C67.5011 435.805 98.803 444.851 128.287 457.962C175.646 478.878 218.267 510.098 251.751 549.036C293.141 597.033 326.271 660.141 374.928 697.586C388.929 708.356 404.293 716.807 421.658 722.247C487.446 742.714 552.278 704.835 587.364 651.069C614.456 609.481 626.971 556.221 631.171 502.414C632.632 484.829 633.419 467.143 633.953 449.733C636.411 378.489 637.705 305.174 664.532 237.588C689.93 173.783 748.071 115.508 817.496 113.381C875.161 111.396 925.546 145.709 981.023 162.935C1071.36 191.034 1165.45 169.991 1245.59 142.29C1254.54 139.225 1263.49 136.027 1272.42 132.697C1343.16 106.888 1413 78.8641 1492.64 77.9931C1512.81 77.7299 1533.36 79.5734 1553.71 83.1507C1654.67 100.941 1756.55 161.82 1808.39 236.41" stroke="white" stroke-width="1.05933" stroke-miterlimit="10"/>
<path d="M-207.374 478.851C-137.337 431.989 -50.1762 411.412 33.1921 421.66C65.1905 425.503 96.4687 434.022 126.05 446.335C173.495 466.189 216.333 496.339 250.435 534.187C292.564 580.823 326.692 642.421 374.834 680.29C388.568 691.072 403.678 699.801 420.661 705.658C485.063 727.921 548.379 694.768 585.381 644.774C614.587 605.488 630.071 552.764 636.409 498.866C638.538 481.254 639.999 463.672 641.328 446.096C646.726 374.726 650.819 301.161 679.525 233.634C706.188 171.109 763.85 113.933 832.555 110.655C889.787 107.902 940.334 139.954 995.668 156.926C1085.59 184.655 1177.77 168.492 1256.16 146.193C1264.87 143.672 1273.58 141.15 1282.28 138.496C1351.24 117.69 1419.18 94.9408 1497.1 97.2116C1516.92 97.764 1536.96 100.296 1557.07 104.418C1656.27 124.689 1758.62 183.96 1811.88 251.582" stroke="white" stroke-width="1.05933" stroke-miterlimit="10"/>
<path d="M-207.659 471.47C-138.304 424.252 -51.9768 402.928 31.0595 411.74C62.9009 415.062 94.1493 422.922 123.707 434.707C171.243 453.631 214.427 482.572 249.013 519.337C292.02 564.738 327.008 624.703 374.634 662.994C388.241 673.916 403.096 682.922 419.564 689.202C482.706 713.119 544.377 684.828 583.433 638.729C614.626 601.879 633.066 549.425 641.814 495.556C644.611 477.915 646.874 460.298 649.003 442.687C657.2 371.064 664.232 297.372 694.943 229.763C722.732 168.39 780.046 112.303 848.178 108.129C905.101 104.468 955.812 134.259 1010.88 151.248C1100.26 178.742 1190.65 167.183 1267.16 150.421C1275.76 148.568 1284.23 146.589 1292.69 144.611C1360.01 128.666 1425.93 111.325 1502.13 116.734C1521.44 118.107 1541.11 121.189 1560.84 125.86C1658.29 148.608 1761.1 206.271 1815.91 266.922" stroke="white" stroke-width="1.05933" stroke-miterlimit="10"/>
<path d="M-207.945 464.09C-139.271 416.517 -53.6507 394.307 28.7931 401.826C60.4774 404.628 91.6959 411.828 121.363 423.079C168.85 440.948 212.392 468.946 247.59 504.488C291.336 548.53 327.323 606.988 374.433 645.702C387.906 656.63 402.374 665.92 418.593 672.61C480.481 698.313 540.501 674.749 581.605 632.413C615.045 597.855 636.32 545.941 647.205 491.981C650.81 474.437 653.735 456.659 656.532 439.02C667.668 367.271 677.499 293.326 710.087 225.773C739.142 165.677 795.975 110.684 863.393 105.489C919.875 100.925 970.755 128.589 1025.68 145.322C1114.51 172.45 1203.12 165.759 1277.87 154.392C1286.23 153.082 1294.46 151.778 1302.82 150.336C1368.37 139.389 1432.39 127.317 1506.73 135.869C1525.55 138.063 1544.84 141.827 1564.2 146.915C1659.89 172.138 1763.15 228.06 1819.38 281.881" stroke="white" stroke-width="1.05933" stroke-miterlimit="10"/>
<path d="M-208.099 456.574C-140.24 408.651 -55.3201 385.687 26.7916 391.77C58.3189 394.05 89.5135 400.724 119.144 411.183C166.717 427.989 210.477 454.918 246.426 489.366C290.911 532.047 327.763 589.005 374.491 628.136C387.703 639.209 402.043 648.639 417.748 655.751C478.248 683.245 537.021 664.521 579.773 625.965C615.466 593.831 639.57 542.326 652.599 488.406C656.871 470.834 660.598 453.022 664.063 435.354C678.132 363.346 690.635 289.286 725.228 221.651C755.409 162.707 811.901 108.933 878.732 102.578C934.779 97.2434 985.823 122.647 1040.6 139.126C1129.01 165.882 1215.71 164.062 1288.57 158.095C1296.7 157.46 1304.82 156.693 1312.81 155.932C1376.58 149.849 1438.71 143.044 1511.32 154.865C1529.78 157.872 1548.57 162.324 1567.55 167.961C1661.62 195.653 1765.21 249.974 1822.99 296.827" stroke="white" stroke-width="1.05933" stroke-miterlimit="10"/>
<path d="M-208.387 449.208C-141.203 401.061 -57.1291 377.084 24.6567 381.862C56.1604 383.616 87.1916 389.637 116.798 399.568C164.462 415.445 208.434 441.172 245.001 474.531C290.225 515.854 328.076 571.306 374.288 610.86C387.367 621.939 401.319 631.652 416.781 639.307C476.026 668.587 533.42 654.708 577.946 619.792C615.891 590.082 642.686 538.859 657.992 484.975C663.066 467.368 667.46 449.527 671.594 431.83C688.468 359.702 703.771 285.39 740.376 217.805C771.554 160.149 827.832 107.456 894.082 100.073C949.822 93.8301 1001.03 116.974 1055.54 133.469C1143.41 159.99 1228.32 162.903 1299.43 162.462C1307.32 162.369 1315.2 162.277 1323.09 162.184C1385.22 161.09 1445.32 159.557 1516.08 174.651C1534.04 178.479 1552.46 183.612 1571.19 189.659C1663.5 219.826 1767.55 272.54 1826.75 312.432" stroke="white" stroke-width="1.05933" stroke-miterlimit="10"/>
<path d="M-208.672 441.848C-142.17 393.344 -58.9306 368.618 22.5231 371.96C53.8696 373.193 84.877 378.686 114.587 387.952C162.203 402.773 206.526 427.426 243.711 459.696C289.674 499.66 328.391 553.614 374.22 593.584C387.038 604.808 400.862 614.66 415.809 622.737C473.798 653.801 529.945 644.759 575.985 613.628C616.317 586.336 645.807 535.528 663.251 481.551C668.993 463.916 674.061 446.179 678.991 428.316C698.798 355.929 716.767 281.37 755.384 213.835C787.688 157.329 843.623 105.854 909.154 97.3166C964.452 90.1706 1015.83 111.188 1070.2 127.428C1157.51 153.582 1240.64 161.357 1310 166.308C1317.78 166.884 1325.42 167.333 1333.07 167.783C1393.41 171.55 1451.62 175.413 1520.66 193.642C1538.12 198.289 1556.16 203.971 1574.52 210.567C1665.08 243.207 1769.45 294.32 1830.33 327.242" stroke="white" stroke-width="1.05933" stroke-miterlimit="10"/>
<path d="M-208.959 434.498C-143.138 385.636 -60.7391 360.029 20.3886 362.066C51.578 362.779 82.422 367.618 112.235 376.218C159.936 389.978 204.478 413.562 242.287 444.877C289.123 483.476 328.705 535.932 374.018 576.324C386.702 587.555 400.144 597.822 414.836 606.177C471.43 638.898 526.475 634.952 574.149 607.333C616.873 582.591 649.047 531.933 668.641 478.13C675.051 460.467 680.921 442.695 686.518 424.803C709.132 352.296 729.901 277.485 770.529 210C803.825 154.649 859.546 104.254 924.501 94.8198C979.364 86.903 1031.04 105.655 1085.13 121.646C1172.03 147.56 1253.1 159.944 1320.71 170.417C1328.25 171.535 1335.65 172.659 1343.06 173.784C1401.76 182.537 1457.94 191.669 1525.25 213.031C1542.35 218.491 1559.89 224.86 1577.87 232.006C1666.67 267.117 1771.5 316.492 1833.8 342.588" stroke="white" stroke-width="1.05933" stroke-miterlimit="10"/>
<path d="M-209.112 427.155C-144.108 377.94 -62.4095 351.577 18.3859 352.177C49.4182 352.369 80.2321 356.549 110.021 364.621C157.813 377.451 202.707 399.96 240.995 430.061C288.569 467.303 329.151 518.254 373.941 558.937C386.364 570.312 399.679 580.719 413.861 589.627C469.2 624.132 523.136 625.147 572.183 601.185C617.438 579.119 652.03 528.623 673.895 474.722C681.112 457.157 687.644 439.224 693.909 421.303C719.456 348.537 742.891 273.48 785.664 206.038C819.952 151.842 875.464 102.657 939.705 92.2001C994.26 83.3738 1045.96 99.8733 1099.92 115.873C1186.27 141.42 1265.56 158.664 1331.41 174.526C1338.71 176.318 1346.01 177.978 1353.18 179.777C1410.1 193.389 1464.39 207.915 1529.83 232.415C1546.43 238.695 1563.61 245.745 1581.34 253.3C1668.51 290.877 1773.67 338.651 1837.52 357.653" stroke="white" stroke-width="1.05933" stroke-miterlimit="10"/>
<path d="M-209.399 419.831C-145.071 370.388 -64.2197 343.01 16.2495 342.304C47.1245 341.975 77.9147 345.627 107.801 352.901C155.678 364.669 200.79 386.11 239.696 415.124C288.01 451.007 329.591 500.455 373.865 541.56C386.155 552.942 399.081 563.631 412.881 572.956C466.97 609.375 519.803 615.483 570.337 594.774C618.124 575.383 655.259 524.91 679.401 471.044C687.287 453.45 694.621 435.482 701.554 417.533C729.906 344.646 756.007 269.342 800.925 201.942C836.204 148.901 891.5 100.792 955.161 89.3061C1009.27 79.5757 1061.15 93.9488 1114.96 109.693C1200.77 135.004 1278.26 156.975 1342.22 178.23C1349.42 180.559 1356.34 182.899 1363.4 185.233C1418.55 203.835 1470.94 223.622 1534.66 251.385C1550.9 258.478 1567.57 266.215 1584.92 274.318C1670.33 314.366 1775.95 360.532 1841.36 372.572" stroke="white" stroke-width="1.05933" stroke-miterlimit="10"/>
<path d="M-209.695 412.387C-146.049 362.584 -66.0326 334.454 14.1042 332.31C44.8221 331.459 75.5822 334.452 105.444 341.198C153.274 351.91 198.737 372.276 238.261 400.202C287.321 434.86 329.896 482.673 373.654 524.2C385.815 535.72 398.48 546.554 411.898 556.294C464.597 594.502 516.46 605.695 568.361 588.51C618.678 571.794 658.363 521.476 684.649 467.65C693.336 450.021 701.338 432.025 708.939 414.047C740.224 340.901 768.858 265.355 815.92 197.998C852.19 146.11 907.277 99.2104 970.223 86.7C1024.03 76.0593 1076.07 88.3056 1129.48 103.939C1214.87 128.874 1290.45 155.71 1352.65 182.484C1359.61 185.486 1366.43 188.362 1373.12 191.376C1426.61 214.829 1476.84 240.02 1538.83 270.914C1554.58 278.825 1570.87 287.11 1587.85 295.761C1671.5 338.279 1777.58 382.838 1844.41 387.922" stroke="white" stroke-width="1.05933" stroke-miterlimit="10"/>
<path d="M-209.852 405.091C-146.889 354.926 -67.7138 325.911 12.0967 322.46C42.7907 321.082 73.3934 323.553 103.226 329.639C151.146 339.421 196.822 358.586 236.964 385.425C286.897 418.719 330.339 465.035 373.58 506.983C385.475 518.516 397.891 529.759 410.926 539.915C462.369 579.904 513.14 596.453 566.522 582.387C619.248 568.616 661.465 518.056 690.027 464.264C699.382 446.606 708.058 428.714 716.588 410.562C750.678 337.295 781.966 261.236 831.184 194.185C868.445 143.45 923.316 97.6261 985.681 84.085C1039.04 72.5394 1091.26 82.6591 1144.52 98.0358C1229.35 122.603 1303.15 154.163 1363.46 186.46C1370.18 190.004 1376.77 193.686 1383.35 197.236C1435.06 225.677 1483.39 256.126 1543.66 290.15C1558.9 298.88 1574.82 307.845 1591.42 316.912C1673.31 361.899 1779.85 404.718 1848.24 402.973" stroke="white" stroke-width="1.05933" stroke-miterlimit="10"/>
<path d="M-210.141 397.809C-147.995 347.287 -69.5216 317.513 9.95633 312.623C40.493 310.722 71.0658 312.533 101.001 317.953C149.007 326.673 194.901 344.769 235.662 370.52C286.335 402.457 330.776 447.27 373.501 489.64C385.268 501.311 397.423 512.699 410.076 523.27C460.129 565.046 509.808 586.95 564.81 576.13C620.079 565.297 664.833 514.627 695.533 460.743C705.556 443.056 715.032 425.128 724.23 406.948C761.253 333.421 795.073 257.12 846.435 190.11C884.547 140.401 939.34 95.7777 1001.13 81.3378C1054.05 68.8868 1106.56 76.7412 1159.55 91.9998C1243.97 116.323 1315.84 152.613 1374.4 190.295C1380.88 194.513 1387.36 198.731 1393.56 202.828C1443.63 236.25 1489.93 271.963 1548.47 309.116C1563.34 318.659 1578.76 328.31 1595.12 337.919C1675.38 385.367 1782.24 426.585 1852.05 417.885" stroke="white" stroke-width="1.05933" stroke-miterlimit="10"/>
<path d="M-210.432 390.54C-148.97 339.655 -71.3381 308.995 7.81325 302.797C38.1926 300.374 68.7414 301.657 98.6467 306.417C146.738 314.073 192.984 331.094 234.23 355.764C285.643 386.343 331.084 429.653 373.293 472.445C384.926 484.122 396.693 495.793 408.964 506.779C457.626 550.343 506.219 577.733 562.695 569.899C620.373 562.01 667.798 511.224 700.634 457.246C711.465 439.657 721.603 421.568 731.469 403.358C771.29 329.577 807.636 252.901 861.287 186.19C900.255 137.639 954.965 94.0841 1016.05 78.7507C1068.53 65.394 1121.21 71.1213 1174.06 86.2554C1257.93 110.209 1328.01 151.354 1384.68 194.426C1391.04 199.179 1397.15 204.076 1403.25 208.842C1451.54 247.118 1495.94 288.088 1552.62 328.641C1567 338.869 1582.05 349.2 1598.02 359.356C1676.53 409.14 1783.85 448.882 1855.22 433.22" stroke="white" stroke-width="1.05933" stroke-miterlimit="10"/>
<path d="M-210.724 383.284C-149.94 332.168 -73.1497 300.621 5.66894 292.982C35.8909 290.037 66.4096 290.66 96.4243 294.885C144.473 301.617 191.071 317.562 232.93 341.013C285.082 370.234 331.525 412.041 373.217 455.255C384.589 467.076 396.101 479.024 408.123 490.419C455.529 535.763 502.895 568.513 560.991 563.923C621.216 559.106 671.033 507.95 706.152 454.137C717.65 436.519 728.59 418.395 739.123 400.156C781.882 326.246 820.753 249.195 876.548 182.524C916.5 134.992 970.999 92.6431 1031.5 76.2776C1083.67 62.0088 1136.39 65.6148 1189.09 80.4917C1272.42 104.207 1340.71 150.074 1395.61 198.53C1401.75 203.957 1407.74 209.39 1413.61 214.828C1460.12 258.091 1502.62 304.318 1557.57 347.999C1571.58 359.039 1586.26 370.05 1601.73 380.76C1678.47 433.011 1786.26 471.144 1859.04 448.527" stroke="white" stroke-width="1.05933" stroke-miterlimit="10"/>
<path d="M-210.883 376.029C-150.782 324.548 -74.8345 292.114 3.52397 283.172C33.5886 279.705 64.0772 279.667 94.0618 283.231C142.196 288.9 189.012 303.776 231.49 326.139C284.383 354.002 331.686 394.18 373.002 437.941C384.241 449.769 395.497 461.994 407.003 473.809C453.026 521.072 499.311 556.523 558.874 557.703C621.38 558.884 673.995 504.556 711.251 450.65C723.55 432.996 735.024 414.849 746.358 396.575C791.916 322.41 833.306 244.851 891.528 178.605C932.331 132.097 986.757 91.0795 1046.54 73.6875C1098.27 58.5121 1151.29 59.8522 1203.72 74.7424C1286.63 98.0803 1353.01 148.808 1406.02 202.653C1411.91 208.621 1417.67 214.727 1423.29 220.707C1468.15 268.818 1508.62 320.439 1561.71 367.253C1575.22 379.112 1589.53 390.802 1604.75 401.921C1679.73 456.639 1787.98 493.163 1862.32 463.584" stroke="white" stroke-width="1.05933" stroke-miterlimit="10"/>
<path d="M-211.176 368.645C-151.894 316.805 -76.6482 283.609 1.37739 273.226C31.2846 269.237 61.7493 268.671 91.7038 271.574C139.929 276.312 186.958 289.986 230.055 311.262C283.821 337.761 331.992 376.443 372.791 420.625C383.769 432.597 394.765 444.966 405.888 457.197C450.52 506.246 495.578 549.973 556.889 551.341C621.816 552.813 677.082 500.888 716.614 447.015C729.58 429.332 741.856 411.149 753.858 392.846C802.353 318.552 846.129 240.492 906.639 174.543C948.292 129.061 1002.65 89.3742 1061.84 70.8171C1113.26 54.7291 1166.32 53.9478 1218.61 68.5805C1300.97 91.6796 1365.55 146.997 1416.81 206.489C1422.46 213.13 1428.11 219.772 1433.5 226.425C1476.58 279.521 1515.15 336.399 1566.51 386.341C1579.52 399.017 1593.46 411.387 1608.3 422.921C1681.52 480.106 1790.09 514.893 1865.99 478.486" stroke="white" stroke-width="1.05933" stroke-miterlimit="10"/>
<path d="M-211.523 361.802C-152.933 309.58 -78.537 275.478 -0.842712 263.769C29.0388 259.245 59.3386 258.017 89.3955 260.248C137.571 263.92 184.952 276.511 228.668 296.693C283.175 321.826 332.349 359 372.636 403.601C383.481 415.579 394.096 428.362 404.971 441.001C448.224 491.966 492.059 541.049 554.981 545.517C622.192 550.191 680.108 497.866 721.907 444.011C735.539 426.294 748.619 408.204 761.28 389.735C812.562 315.167 858.846 236.58 921.634 170.909C964.13 126.437 1018.4 87.9345 1076.88 68.4691C1127.86 51.4624 1181.21 48.5367 1233.22 62.9094C1315.03 85.6239 1377.83 145.789 1427.2 210.668C1432.75 217.844 1438.03 225.165 1443.31 232.486C1484.74 290.428 1521.29 352.7 1570.93 405.765C1583.58 419.252 1597.01 432.175 1611.47 444.387C1683.07 504.025 1791.97 537.192 1869.42 493.803" stroke="white" stroke-width="1.05933" stroke-miterlimit="10"/>
<path d="M-211.741 354.997C-131.633 282.292 -21.371 243.105 87.0846 249.089C195.534 254.941 300.831 305.759 372.476 386.74C426.074 447.448 472.273 530.505 553.057 539.593C622.419 547.473 683.245 494.601 727.177 440.767C799.842 351.555 855.432 248.658 936.607 167.152C1017.92 85.6397 1136.62 26.4449 1247.95 57.0988C1338.41 81.9299 1403.48 159.494 1453.23 238.412C1502.99 317.329 1544.92 403.496 1614.77 465.726C1684.61 527.956 1793.97 559.362 1872.96 508.987" stroke="white" stroke-width="1.05933" stroke-miterlimit="10"/>
</g>
</svg>
